<svg viewBox="0 0 21 21" height="20" xmlns="http://www.w3.org/2000/svg"><g fill="none"><path d="M20.272.043H.355v20.475h19.917V13.76a.788.788 0 0 0 .118-.45c0-.21-.04-.34-.118-.45" fill="#2E77BC"/><path d="M2.15 8.903l-.383-.956-.38.956h.764zm8.441-.38c-.077.047-.168.049-.277.049h-.68v-.533h.69c.097 0 .199.004.265.043.073.035.118.11.118.212 0 .105-.043.19-.116.228zm4.852.38l-.388-.956-.385.956h.773zM6.399 9.938h-.574L5.823 8.06l-.811 1.88H4.52l-.814-1.881v1.88H2.568l-.215-.535H1.187l-.217.535H.362L1.364 7.54h.832l.952 2.271V7.54h.914l.732 1.627.673-1.628H6.4v2.4zm2.288 0h-1.87V7.54h1.87v.5h-1.31v.432h1.278v.492H7.376v.479h1.31v.496zm2.636-1.753c0 .383-.249.58-.394.64a.65.65 0 0 1 .277.202c.079.119.092.226.092.44v.471h-.564l-.002-.302c0-.145.013-.352-.089-.468-.082-.084-.206-.102-.408-.102h-.6v.872h-.56V7.54h1.287c.286 0 .497.008.678.115.177.107.283.264.283.531zm.896 1.753h-.571V7.54h.571v2.4zm6.627 0h-.794l-1.06-1.8v1.8h-1.14l-.219-.535H14.47l-.21.535h-.656c-.272 0-.617-.062-.812-.265-.196-.204-.299-.48-.299-.916 0-.356.061-.681.302-.938.181-.192.464-.28.85-.28h.542v.514h-.53c-.205 0-.32.031-.431.142-.096.101-.161.292-.161.544 0 .257.05.442.154.563.086.095.243.124.39.124h.251l.79-1.887h.838l.948 2.27v-2.27h.852l.984 1.671V7.54h.574v2.398zm-18.49.471h.956l.215-.533h.483l.215.533h1.882v-.407l.168.409h.977l.168-.415v.413h4.677l-.002-.874h.09c.064.002.082.008.082.115v.76h2.42v-.204c.194.107.498.203.897.203h1.018l.217-.533h.483l.213.533h1.961v-.506l.297.506h1.572V7.064h-1.556v.395l-.217-.395h-1.596v.395l-.2-.395H13.62c-.36 0-.678.051-.934.195v-.195H11.2v.195c-.163-.148-.386-.195-.633-.195H5.132l-.365.864-.374-.864H2.68v.395l-.188-.395h-1.46l-.678 1.59v1.755zm19.916 1.77h-1.02c-.103 0-.17.004-.227.043-.06.039-.082.097-.082.173 0 .09.05.152.122.179.06.02.123.027.216.027l.304.008c.306.008.51.062.635.193.022.018.036.039.052.06v-.683zm0 1.582c-.136.203-.401.307-.76.307H18.43v-.515h1.077c.106 0 .181-.014.226-.06a.213.213 0 0 0 .066-.156.2.2 0 0 0-.068-.158c-.04-.037-.1-.054-.197-.054-.526-.018-1.182.017-1.182-.742 0-.348.216-.715.803-.715h1.116v-.477h-1.036c-.313 0-.54.077-.701.196v-.196h-1.532c-.245 0-.533.062-.67.196v-.196h-2.736v.196c-.217-.161-.585-.196-.754-.196h-1.805v.196c-.173-.171-.556-.196-.79-.196h-2.02l-.462.512-.433-.512H4.316v3.348h2.96l.477-.52.449.52 1.825.002v-.788h.18c.241.004.527-.006.779-.118v.904h1.505v-.873h.073c.092 0 .101.004.101.099v.774h4.573c.29 0 .594-.076.762-.214v.214h1.45c.303 0 .597-.044.822-.155v-.623zm-2.233-.959c.109.116.167.262.167.509 0 .516-.315.757-.88.757h-1.09v-.515h1.086c.106 0 .182-.014.229-.06a.215.215 0 0 0 .066-.156c0-.07-.03-.125-.068-.158-.043-.037-.102-.054-.2-.054-.523-.018-1.179.017-1.179-.742 0-.348.214-.715.8-.715h1.123v.511h-1.027c-.102 0-.168.004-.224.043-.062.04-.084.097-.084.173 0 .09.052.152.122.179a.63.63 0 0 0 .218.027l.301.008c.304.008.513.062.64.193zm-5.052-.148c-.074.045-.167.05-.276.05h-.68v-.54h.69c.099 0 .199.003.266.044.073.039.116.113.116.216 0 .102-.043.185-.116.23zm.338.299a.61.61 0 0 1 .275.201c.079.117.09.227.092.438v.476h-.562v-.3c0-.145.014-.359-.09-.47-.082-.086-.207-.107-.41-.107h-.599v.877h-.562v-2.4h1.292c.283 0 .49.013.673.113.177.11.288.26.288.533 0 .383-.25.579-.397.639zm.708-1.285H15.9v.496h-1.31v.437h1.278v.49H14.59v.477l1.311.002v.498h-1.868v-2.4zm-3.777 1.108h-.724v-.612h.73c.202 0 .343.085.343.295 0 .207-.134.317-.35.317zm-1.281 1.073l-.86-.977.86-.946v1.923zm-2.22-.281H5.38v-.478h1.229v-.49h-1.23v-.436h1.403l.613.7-.64.704zm4.45-1.11c0 .667-.485.805-.974.805h-.699v.805H8.444l-.689-.795-.716.795H4.82v-2.4h2.252l.689.787.712-.787h1.788c.445 0 .944.126.944.79z" fill="#FFF"/></g></svg>
