<svg width="69" height="19" xmlns="http://www.w3.org/2000/svg"><g fill="none"><path d="M13.17 18.942c4.863.024 9.3-4.033 9.3-8.97 0-5.397-4.437-9.128-9.3-9.126H8.987C4.066.844.016 4.576.016 9.973c0 4.937 4.05 8.993 8.97 8.97h4.185z" fill="#0079BE"/><path d="M9.006 1.594C4.51 1.595.866 5.303.866 9.878c0 4.575 3.644 8.281 8.14 8.283 4.497-.002 8.141-3.708 8.142-8.283-.001-4.575-3.645-8.283-8.142-8.284zm-5.16 8.284c.004-2.236 1.377-4.142 3.313-4.9v9.799c-1.936-.757-3.309-2.663-3.313-4.899zm7.007 4.901V4.978c1.936.756 3.31 2.663 3.314 4.9-.003 2.238-1.378 4.144-3.314 4.901z" fill="#FFF"/><path d="M25.322 4.74c0-.857-.44-.8-.86-.81v-.247c.365.018.738.018 1.104.018.393 0 .926-.018 1.618-.018 2.422 0 3.741 1.646 3.741 3.331 0 .943-.542 3.312-3.853 3.312-.477 0-.917-.019-1.357-.019-.42 0-.832.01-1.253.02v-.248c.561-.057.833-.076.86-.724V4.74zm.917 4.463c0 .733.515.819.973.819 2.02 0 2.684-1.552 2.684-2.97 0-1.78-1.122-3.064-2.927-3.064-.384 0-.561.028-.73.038v5.177zm5.015.877h.177c.261 0 .449 0 .449-.316V7.186c0-.419-.14-.477-.486-.666v-.153c.439-.134.964-.314 1-.342a.328.328 0 0 1 .169-.048c.046 0 .066.057.066.134v3.653c0 .315.205.315.467.315h.159v.247c-.318 0-.646-.019-.982-.019-.337 0-.674.01-1.02.02v-.248zm1-5.569c-.243 0-.458-.228-.458-.475 0-.239.225-.458.458-.458.243 0 .459.2.459.458a.472.472 0 0 1-.459.475zm1.89 2.731c0-.352-.104-.446-.542-.627v-.18c.402-.134.785-.258 1.234-.458.028 0 .055.019.055.095v.619c.534-.39.993-.714 1.62-.714.794 0 1.075.59 1.075 1.332v2.455c0 .315.206.315.468.315h.168v.247c-.328 0-.655-.019-.991-.019-.337 0-.674.01-1.01.02v-.248h.167c.263 0 .45 0 .45-.315V7.3c0-.543-.327-.81-.86-.81-.3 0-.777.248-1.087.458v2.816c0 .315.207.315.47.315h.167v.247c-.327 0-.655-.019-.991-.019-.337 0-.674.01-1.01.02v-.248h.168c.262 0 .449 0 .449-.315V7.242zm4.79.458c-.02.085-.02.228 0 .552.055.904.627 1.646 1.374 1.646.515 0 .918-.286 1.264-.638l.13.134c-.43.58-.963 1.075-1.73 1.075-1.488 0-1.787-1.466-1.787-2.075 0-1.865 1.235-2.417 1.889-2.417.758 0 1.572.485 1.581 1.494 0 .057 0 .114-.009.172l-.084.057h-2.628zm1.656-.305c.233 0 .26-.124.26-.238 0-.485-.29-.876-.813-.876-.57 0-.963.428-1.075 1.114h1.628zm1.28 2.685h.253c.262 0 .449 0 .449-.316V7.09c0-.294-.346-.352-.487-.428V6.52c.683-.296 1.058-.543 1.143-.543.055 0 .083.028.083.124v.856h.02c.233-.37.626-.98 1.196-.98.234 0 .533.161.533.504 0 .257-.177.486-.439.486-.29 0-.29-.229-.618-.229-.159 0-.682.22-.682.79v2.236c0 .315.186.315.449.315h.523v.247c-.515-.01-.906-.019-1.31-.019-.382 0-.776.01-1.112.02v-.248zm3.602-1.077c.122.628.496 1.162 1.18 1.162.55 0 .756-.343.756-.676 0-1.123-2.039-.762-2.039-2.294 0-.533.422-1.218 1.45-1.218.3 0 .701.086 1.066.276l.066.97h-.216c-.093-.599-.42-.942-1.02-.942-.373 0-.729.22-.729.628 0 1.115 2.17.771 2.17 2.265 0 .628-.495 1.295-1.609 1.295-.374 0-.813-.133-1.14-.323l-.104-1.095.17-.048zm11.131-3.597h-.233c-.178-1.113-.955-1.561-2.002-1.561-1.076 0-2.638.732-2.638 3.016 0 1.924 1.347 3.303 2.788 3.303.925 0 1.693-.647 1.88-1.646l.215.057-.215 1.39c-.393.247-1.45.504-2.068.504-2.188 0-3.572-1.437-3.572-3.579 0-1.95 1.711-3.35 3.545-3.35.757 0 1.487.248 2.207.505l.093 1.36zm.337 4.674h.178c.262 0 .45 0 .45-.316v-5.3c0-.62-.14-.638-.496-.743V3.57a5.9 5.9 0 0 0 .963-.41c.102-.056.178-.104.205-.104.057 0 .076.057.076.134v6.575c0 .315.205.315.468.315h.158v.247c-.317 0-.645-.019-.982-.019-.336 0-.673.01-1.02.02v-.248zm6.007-.278c0 .172.102.182.261.182.113 0 .252-.01.374-.01v.2c-.402.038-1.17.238-1.347.295l-.047-.029v-.77c-.56.466-.992.799-1.656.799-.505 0-1.029-.333-1.029-1.132V6.9c0-.247-.037-.485-.56-.533v-.18c.337-.01 1.084-.067 1.206-.067.104 0 .104.066.104.276V8.85c0 .287 0 1.105.813 1.105.318 0 .739-.248 1.131-.58V6.814c0-.19-.449-.294-.784-.39v-.171c.84-.057 1.365-.133 1.458-.133.076 0 .076.066.076.171v3.511zm1.861-3.14c.374-.324.879-.685 1.394-.685 1.085 0 1.74.962 1.74 1.998 0 1.247-.898 2.494-2.237 2.494-.692 0-1.056-.229-1.3-.333l-.28.218-.196-.104c.083-.561.13-1.113.13-1.694V4.464c0-.62-.14-.638-.496-.743V3.57c.376-.123.767-.295.964-.41.103-.056.178-.104.207-.104.055 0 .074.057.074.134v3.473zm0 2.588c0 .362.336.972.963.972 1.001 0 1.422-1 1.422-1.847 0-1.028-.766-1.884-1.496-1.884-.347 0-.637.229-.889.448V9.25zm-40.357 6.61h.072c.183 0 .376-.025.376-.295v-2.713c0-.27-.193-.296-.376-.296h-.072v-.155c.2 0 .504.02.755.02.254 0 .559-.02.798-.02v.155h-.072c-.182 0-.376.026-.376.296v2.713c0 .27.194.295.376.295h.072v.156c-.244 0-.55-.02-.804-.02-.25 0-.55.02-.749.02v-.156zm5.05-.865l.01-.01v-1.942c0-.425-.29-.487-.443-.487h-.112v-.155c.24 0 .474.02.713.02.208 0 .418-.02.626-.02v.155h-.076c-.214 0-.454.042-.454.658v2.357c0 .18.006.362.03.522h-.193l-2.62-2.972v2.133c0 .451.085.606.477.606h.087v.156c-.219 0-.437-.02-.657-.02-.228 0-.462.02-.692.02v-.156h.072c.35 0 .457-.243.457-.657v-2.181a.46.46 0 0 0-.462-.465h-.067V12.4c.194 0 .392.02.585.02.153 0 .3-.02.453-.02l2.266 2.594zm1.556-2.335c-.382 0-.397.093-.473.47h-.153c.02-.144.046-.289.061-.44.02-.145.03-.289.03-.44h.123c.041.156.168.151.306.151h2.626c.137 0 .265-.005.275-.16l.121.02c-.02.14-.04.28-.055.42-.01.14-.01.28-.01.419l-.153.058c-.01-.192-.036-.498-.376-.498h-.835v2.755c0 .4.178.445.422.445h.097v.156c-.199 0-.555-.02-.83-.02-.305 0-.662.02-.86.02v-.156h.097c.28 0 .422-.026.422-.434V12.66h-.835zm3.079 3.2h.072c.183 0 .377-.025.377-.295v-2.713c0-.27-.194-.296-.377-.296h-.072v-.155c.31 0 .84.02 1.267.02.429 0 .957-.02 1.303-.02-.009.222-.004.565.011.792l-.153.042c-.025-.337-.086-.606-.62-.606h-.708v1.357h.605c.306 0 .372-.176.402-.456h.153a12.495 12.495 0 0 0 0 1.196l-.153.031c-.03-.31-.045-.512-.397-.512h-.61v1.206c0 .337.295.337.62.337.612 0 .88-.042 1.034-.632l.142.036c-.066.275-.127.549-.172.824-.326 0-.912-.02-1.37-.02-.458 0-1.063.02-1.354.02v-.156zm3.584-2.91c0-.378-.204-.394-.363-.394h-.091v-.155c.163 0 .478.02.789.02.305 0 .55-.02.82-.02.64 0 1.21.176 1.21.912 0 .465-.304.75-.707.911l.87 1.325c.143.22.244.28.494.31v.157c-.168 0-.33-.02-.498-.02-.158 0-.322.02-.479.02a14.524 14.524 0 0 1-1.059-1.679h-.335v1.11c0 .398.183.413.417.413h.091v.156c-.29 0-.584-.02-.875-.02-.245 0-.484.02-.738.02v-.156h.091c.19 0 .362-.087.362-.28v-2.63zm.651 1.201h.249c.509 0 .783-.197.783-.808 0-.46-.29-.756-.743-.756-.153 0-.218.017-.289.021v1.543zm5.827.844l.01-.01v-1.942c0-.425-.29-.487-.443-.487h-.111v-.155c.238 0 .472.02.712.02.209 0 .417-.02.627-.02v.155h-.077c-.214 0-.453.042-.453.658v2.357c0 .18.005.362.03.522H44.3l-2.621-2.972v2.133c0 .451.086.606.478.606h.087v.156c-.219 0-.438-.02-.657-.02-.23 0-.463.02-.692.02v-.156h.07c.352 0 .459-.243.459-.657v-2.181a.46.46 0 0 0-.463-.465h-.066V12.4c.193 0 .392.02.585.02.152 0 .3-.02.453-.02l2.265 2.594zm1.613.28c-.051.176-.113.311-.113.404 0 .156.214.18.382.18h.057v.157c-.204-.011-.412-.02-.617-.02-.184 0-.366.009-.55.02v-.156h.031c.199 0 .367-.12.442-.337l.816-2.376c.065-.192.158-.45.189-.643.162-.056.366-.16.462-.222.016-.006.025-.011.04-.011.016 0 .026 0 .037.016.015.041.03.088.046.13l.936 2.708c.061.181.122.372.188.528.061.145.168.207.337.207h.03v.156c-.23-.011-.459-.02-.702-.02-.25 0-.505.009-.764.02v-.156h.056c.116 0 .316-.02.316-.15 0-.067-.046-.207-.103-.373l-.198-.6h-1.155l-.163.538zm.743-2.294h-.01l-.474 1.465h.951l-.467-1.465zm2.193-.321c-.381 0-.397.093-.473.47h-.153c.02-.144.046-.289.062-.44.02-.145.03-.289.03-.44h.122c.04.156.169.151.305.151h2.627c.137 0 .264-.005.274-.16l.122.02c-.02.14-.04.28-.055.42-.01.14-.01.28-.01.419l-.153.058c-.01-.192-.035-.498-.377-.498h-.834v2.755c0 .4.178.445.422.445h.097v.156c-.199 0-.555-.02-.83-.02-.305 0-.662.02-.86.02v-.156h.096c.28 0 .424-.026.424-.434V12.66h-.836zm3.104 3.2h.072c.183 0 .376-.025.376-.295v-2.713c0-.27-.193-.296-.376-.296h-.072v-.155c.199 0 .504.02.753.02.255 0 .56-.02.8-.02v.155h-.071c-.184 0-.378.026-.378.296v2.713c0 .27.194.295.378.295h.07v.156c-.244 0-.55-.02-.803-.02-.25 0-.55.02-.749.02v-.156zm3.583-3.537c1.085 0 1.95.685 1.95 1.787 0 1.192-.84 1.983-1.924 1.983-1.08 0-1.904-.745-1.904-1.859 0-1.076.82-1.91 1.878-1.91zm.077 3.542c.987 0 1.16-.886 1.16-1.64 0-.758-.402-1.674-1.247-1.674-.891 0-1.155.808-1.155 1.501 0 .927.417 1.813 1.242 1.813zm5.302-.87l.01-.01v-1.942c0-.425-.29-.487-.443-.487h-.11v-.155c.239 0 .473.02.711.02.21 0 .418-.02.627-.02v.155h-.077c-.213 0-.453.042-.453.658v2.357c0 .18.005.362.031.522h-.193l-2.622-2.972v2.133c0 .451.086.606.478.606h.087v.156c-.219 0-.437-.02-.656-.02-.23 0-.464.02-.693.02v-.156h.071c.352 0 .458-.243.458-.657v-2.181a.46.46 0 0 0-.463-.465h-.066V12.4c.193 0 .392.02.585.02.153 0 .3-.02.453-.02l2.265 2.594zm1.613.28c-.05.176-.112.311-.112.404 0 .156.215.18.382.18h.056v.157c-.203-.011-.412-.02-.616-.02-.184 0-.366.009-.549.02v-.156h.03c.199 0 .367-.12.443-.337l.815-2.376c.066-.192.158-.45.187-.643a2.59 2.59 0 0 0 .464-.222c.015-.006.025-.011.04-.011.016 0 .025 0 .036.016l.046.13.936 2.708c.061.181.122.372.19.528.06.145.168.207.335.207h.03v.156c-.229-.011-.458-.02-.702-.02-.249 0-.504.009-.764.02v-.156h.057c.116 0 .316-.02.316-.15 0-.067-.047-.207-.103-.373l-.198-.6h-1.156l-.163.538zm.744-2.294h-.01l-.474 1.465h.952l-.468-1.465zm3.252 2.527c0 .207.142.27.305.29.208.016.437.016.672-.01a.726.726 0 0 0 .488-.28c.081-.114.127-.259.158-.373h.148c-.056.295-.128.586-.189.88-.447 0-.896-.02-1.343-.02-.449 0-.896.02-1.344.02v-.155h.07c.185 0 .384-.025.384-.347v-2.661c0-.27-.2-.296-.384-.296h-.07v-.155c.27 0 .534.02.804.02.26 0 .514-.02.774-.02v.155h-.128c-.193 0-.345.006-.345.28v2.672zm1.708-3.254c.307 0 .537.24.537.547a.53.53 0 0 1-.536.544.53.53 0 0 1-.536-.544c0-.307.229-.547.536-.547zm0 .989c.24 0 .425-.208.425-.442 0-.235-.182-.445-.424-.445-.241 0-.426.21-.426.445 0 .234.185.442.426.442zm-.266-.155v-.027c.066-.009.078-.007.078-.049v-.403c0-.057-.006-.076-.076-.073v-.028h.275c.094 0 .18.046.18.145 0 .08-.052.14-.126.164l.088.125c.041.057.087.11.118.129v.017h-.104c-.05 0-.094-.107-.193-.251h-.06v.181c0 .036.013.034.079.043v.027h-.26zm.18-.287h.064c.069 0 .101-.054.101-.14 0-.086-.05-.117-.105-.117h-.06v.257z" fill="#211E1F"/></g></svg>