<svg viewBox="0 0 510 315" height="20" xmlns="http://www.w3.org/2000/svg">
  <path d="M179.008 33.679h151.606v247.617H179.008V33.679z" fill="#FF5F00"/>
  <path
    d="M194.623 157.509a157.206 157.206 0 0 1 60.144-123.787C190.205-17.017 97.491-9.626 41.782 50.7s-55.709 153.335 0 213.661c55.709 60.327 148.423 67.717 212.985 16.978a157.207 157.207 0 0 1-60.144-123.831v.001z"
    fill="#EB001B"/>
  <path
    d="M509.557 157.509c-.001 60.29-34.426 115.286-88.655 141.633-54.229 26.346-118.74 19.416-166.136-17.847a157.468 157.468 0 0 0 0-247.616c47.396-37.263 111.908-44.193 166.136-17.847 54.229 26.347 88.654 81.343 88.655 141.633v.044z"
    fill="#F79E1B"/>
</svg>
