<?xml version="1.0" encoding="UTF-8"?>
<svg width="41px" height="14px" viewBox="0 0 41 14" version="1.1" xmlns="http://www.w3.org/2000/svg" xmlns:xlink="http://www.w3.org/1999/xlink">
    <!-- Generator: Sketch 45.2 (43514) - http://www.bohemiancoding.com/sketch -->
    <title>visa</title>
    <desc>Created with Sketch.</desc>
    <defs></defs>
    <g id="Page-1" stroke="none" stroke-width="1" fill="none" fill-rule="evenodd">
        <g id="card-pay-methods" transform="translate(-578.000000, -299.000000)" fill="#0A2171">
            <g id="card-payments" transform="translate(270.000000, 272.000000)">
                <g id="cards" transform="translate(266.000000, 24.000000)">
                    <path d="M57.4482142,3.62295504 L52.116631,16.4584516 L48.6284287,16.4584516 L46.0122769,6.19590832 C45.8445749,5.5533669 45.7104133,5.34987222 45.2408476,5.07808138 C44.207803,4.57631368 43.1143858,4.21253209 41.9874281,3.99509942 L42.0545089,3.62295504 L47.6557569,3.62295504 C48.4124285,3.62574264 49.0537211,4.18744371 49.1650752,4.94288286 L50.5402319,12.3606821 L53.9600118,3.62295504 L57.4482142,3.62295504 Z M71.0978183,12.2589347 C71.0642779,14.9336353 68.8170706,16.6619463 65.3637503,16.6271013 C64.1120223,16.6507959 62.8696856,16.4208191 61.7078459,15.9497149 L62.3115732,13.1398158 C63.3513258,13.7043045 64.518532,13.9844581 65.6991543,13.9524007 C66.6382857,13.9524007 67.6780384,13.5454114 67.6780384,12.6993753 C67.6780384,12.1571874 67.2084727,11.7167468 65.9674776,11.1076566 C64.7264825,10.4971726 63.0494622,9.48109297 63.0830026,7.61897728 C63.116543,5.14637754 65.3972907,3.38461538 68.6493685,3.38461538 C69.7052206,3.38461538 70.7503397,3.57974727 71.735086,3.96164824 L71.1648991,6.66980004 C70.1519788,6.18893932 69.0277043,5.98962604 67.9128212,6.09416098 C66.9401494,6.2307533 66.5041241,6.70464502 66.5041241,7.17853674 C66.4705837,8.66850805 71.0978183,8.87200273 71.0978183,12.2589347 Z M79.6841625,16.4584516 L79.2481372,14.5280398 L75.0220459,14.5280398 L74.3512378,16.4584516 L70.8965758,16.4584516 L75.8605561,4.57073848 C76.0913141,3.99091803 76.6507681,3.61459225 77.2692532,3.62295504 L80.0866474,3.62295504 L82.7363396,16.4584516 L79.6841625,16.4584516 Z M75.9947177,11.9202415 L78.7450311,11.9202415 L77.7388189,7.11024058 L75.9947177,11.9202415 Z M62.1438712,3.62295504 L59.4270982,16.4584516 L56.1401383,16.4584516 L58.8569113,3.62295504 L62.1438712,3.62295504 Z" id="visa"></path>
                </g>
            </g>
        </g>
    </g>
</svg>