<svg xmlns="http://www.w3.org/2000/svg" width="54" height="11" viewBox="0 0 54 11"><g fill="none" fill-rule="evenodd"><path d="M-8-30h70v70H-8z"/><path fill="#7AB72B" fill-rule="nonzero" d="M43.884.886l3.732 4.284-3.732 4.285 1.035.885 4.503-5.17L44.919 0z"/><path fill="#7AB72B" fill-rule="nonzero" d="M48.423.886l3.732 4.284-3.732 4.285 1.035.885 4.504-5.17L49.458 0zM4.666 9.135c0 .092-.005.168-.014.23a.564.564 0 0 1-.045.158.235.235 0 0 1-.076.096.185.185 0 0 1-.108.031H.452a.495.495 0 0 1-.302-.106C.055 9.473.007 9.348.007 9.17V.94c0-.036.01-.068.028-.096A.186.186 0 0 1 .132.78C.178.764.241.75.32.739A2.07 2.07 0 0 1 .604.722c.116 0 .212.006.288.017.077.011.138.025.185.041a.186.186 0 0 1 .097.065c.018.028.028.06.028.096v7.686h3.221c.042 0 .078.01.108.031.03.02.055.05.076.09.021.038.036.09.045.154.01.064.014.142.014.233zm2.513.337a.171.171 0 0 1-.027.096.187.187 0 0 1-.098.065c-.046.016-.107.03-.184.041a2.031 2.031 0 0 1-.288.017c-.111 0-.206-.005-.285-.017a1.076 1.076 0 0 1-.187-.04.186.186 0 0 1-.097-.066.167.167 0 0 1-.028-.096V.942c0-.037.01-.07.031-.097A.209.209 0 0 1 6.12.78a1.15 1.15 0 0 1 .188-.041c.076-.011.167-.017.274-.017.116 0 .212.006.288.017.077.011.138.025.184.041a.186.186 0 0 1 .098.065c.018.028.027.06.027.096v8.53zm11.02.961c0 .105-.007.194-.018.264a.483.483 0 0 1-.052.165.196.196 0 0 1-.077.08.188.188 0 0 1-.083.02c-.093 0-.242-.038-.448-.113a5.673 5.673 0 0 1-.711-.33 10.14 10.14 0 0 1-.861-.525 6.716 6.716 0 0 1-.889-.722 3.614 3.614 0 0 1-.861.358c-.347.1-.75.15-1.208.15-.676 0-1.26-.098-1.753-.295a3.053 3.053 0 0 1-1.222-.865c-.322-.38-.561-.853-.719-1.418-.157-.566-.236-1.215-.236-1.947 0-.705.086-1.343.257-1.913.171-.57.428-1.055.77-1.456.343-.4.771-.71 1.285-.927.514-.218 1.113-.327 1.798-.327.644 0 1.21.099 1.698.296.488.197.898.484 1.229.862.33.378.58.843.746 1.397.167.554.25 1.19.25 1.91 0 .37-.022.725-.066 1.064-.044.34-.113.66-.208.962a4.447 4.447 0 0 1-.358.838 3.49 3.49 0 0 1-.506.694c.337.274.634.488.888.642.255.153.465.269.632.347.167.077.296.134.389.168a.623.623 0 0 1 .208.117.357.357 0 0 1 .097.185c.019.08.028.186.028.32zM15.836 5.18c0-.504-.045-.97-.135-1.401-.09-.43-.24-.805-.451-1.123a2.17 2.17 0 0 0-.844-.745c-.352-.179-.787-.268-1.305-.268-.519 0-.954.095-1.305.285-.352.19-.638.446-.858.77-.22.322-.377.696-.472 1.122a6.21 6.21 0 0 0-.143 1.353c0 .522.044 1.002.132 1.44.088.437.236.816.445 1.136.208.32.487.57.836.745.35.177.788.265 1.316.265.523 0 .963-.096 1.32-.289.355-.192.642-.452.86-.78a3.28 3.28 0 0 0 .465-1.14c.093-.432.14-.89.14-1.37zm8.818-1.813c0 .444-.074.845-.222 1.202-.148.357-.36.662-.635.913a2.85 2.85 0 0 1-1.014.584c-.4.137-.878.206-1.434.206h-1.02v3.2c0 .038-.01.07-.032.097a.208.208 0 0 1-.097.065.966.966 0 0 1-.18.041 2.031 2.031 0 0 1-.288.017c-.116 0-.212-.005-.289-.017a1.08 1.08 0 0 1-.184-.04.186.186 0 0 1-.097-.066.167.167 0 0 1-.028-.096V1.27c0-.183.049-.314.146-.391a.509.509 0 0 1 .327-.117h1.923c.194 0 .38.008.559.024.178.016.388.05.631.103.243.053.491.151.743.295.253.144.467.322.643.532.176.211.31.455.406.732.095.277.142.583.142.917zm-1.257.096c0-.362-.068-.664-.204-.907a1.417 1.417 0 0 0-.507-.542 1.717 1.717 0 0 0-.625-.227 4.282 4.282 0 0 0-.629-.048H20.33v3.565h1.076c.36 0 .66-.046.899-.138a1.68 1.68 0 0 0 .6-.38c.163-.163.285-.358.369-.585.083-.226.124-.472.124-.738zm9.811 5.77c.037.1.057.181.059.243.002.062-.015.11-.052.141a.34.34 0 0 1-.184.062c-.086.01-.2.014-.344.014a4.53 4.53 0 0 1-.343-.01.783.783 0 0 1-.195-.035.206.206 0 0 1-.097-.065.529.529 0 0 1-.059-.103l-.77-2.163h-3.736l-.736 2.136a.355.355 0 0 1-.056.106.268.268 0 0 1-.1.075.628.628 0 0 1-.188.045 2.93 2.93 0 0 1-.316.014c-.134 0-.244-.006-.33-.017-.085-.012-.145-.033-.18-.065-.034-.032-.051-.08-.048-.141a.84.84 0 0 1 .058-.244L28.606.969a.36.36 0 0 1 .073-.123.3.3 0 0 1 .131-.076c.058-.018.132-.03.223-.038a4.7 4.7 0 0 1 .343-.01c.148 0 .271.003.368.01.098.007.176.02.236.038s.107.045.14.08a.37.37 0 0 1 .076.126l3.013 8.255zm-3.867-7.288h-.007l-1.549 4.43h3.125l-1.57-4.43zm8.227 4.252v3.276c0 .036-.01.068-.028.096a.185.185 0 0 1-.096.065 1.05 1.05 0 0 1-.187.041 2.024 2.024 0 0 1-.283.017 2.01 2.01 0 0 1-.286-.017 1.173 1.173 0 0 1-.187-.041.192.192 0 0 1-.1-.065.168.168 0 0 1-.027-.096V6.196l-2.541-5.014a1.088 1.088 0 0 1-.094-.248c-.012-.059 0-.105.035-.137.034-.032.097-.052.187-.062.09-.009.212-.014.365-.014.138 0 .25.005.336.014.086.01.154.022.205.038.051.016.09.04.115.069.025.03.05.068.073.113l1.242 2.555c.116.243.23.497.346.763.115.265.232.533.352.803h.014a43.165 43.165 0 0 1 .67-1.545L38.93.962a.35.35 0 0 1 .059-.117.23.23 0 0 1 .104-.072.856.856 0 0 1 .184-.038 2.67 2.67 0 0 1 .298-.014c.167 0 .298.006.393.018a.38.38 0 0 1 .198.065c.037.032.05.078.038.137a1 1 0 0 1-.094.24l-2.54 5.015z"/></g></svg>