<svg xmlns="http://www.w3.org/2000/svg" width="64" height="16" viewBox="0 0 64 16"><g fill="none" fill-rule="evenodd"><path d="M-3-27h70v70H-3z"/><path fill="#253B80" fill-rule="nonzero" d="M23.836 3.476h-3.483a.482.482 0 0 0-.478.403l-1.408 8.815a.287.287 0 0 0 .287.331h1.663c.238 0 .44-.17.478-.404l.38-2.377a.481.481 0 0 1 .477-.404h1.103c2.294 0 3.618-1.096 3.963-3.267.156-.95.007-1.697-.444-2.22-.495-.573-1.372-.877-2.538-.877zm.402 3.22c-.19 1.233-1.145 1.233-2.069 1.233h-.525l.368-2.304a.289.289 0 0 1 .287-.241h.241c.629 0 1.222 0 1.529.353.183.212.239.525.169.959zm10.008-.04h-1.668a.29.29 0 0 0-.286.242l-.074.46-.117-.167c-.36-.517-1.166-.69-1.97-.69-1.842 0-3.416 1.378-3.723 3.31-.16.965.067 1.887.621 2.53.509.59 1.236.837 2.1.837 1.486 0 2.31-.943 2.31-.943l-.075.458a.288.288 0 0 0 .286.332h1.502c.239 0 .44-.171.478-.404l.902-5.634a.287.287 0 0 0-.286-.331zM31.921 9.86c-.16.94-.917 1.572-1.881 1.572-.484 0-.871-.154-1.12-.444-.246-.289-.34-.7-.262-1.157a1.86 1.86 0 0 1 1.87-1.584c.473 0 .858.155 1.111.448.254.296.355.71.282 1.165zm11.207-3.204h-1.676c-.16 0-.31.078-.4.21l-2.312 3.36-.98-3.23a.485.485 0 0 0-.464-.34h-1.647c-.2 0-.34.193-.276.379l1.846 5.347-1.735 2.418a.286.286 0 0 0 .237.453h1.674a.485.485 0 0 0 .397-.205l5.574-7.942a.286.286 0 0 0-.238-.45z"/><path fill="#179BD7" fill-rule="nonzero" d="M48.676 3.476h-3.483a.48.48 0 0 0-.477.403l-1.409 8.815a.287.287 0 0 0 .286.331h1.788c.166 0 .308-.12.334-.282l.4-2.5a.481.481 0 0 1 .477-.403h1.102c2.295 0 3.618-1.096 3.964-3.267.157-.95.006-1.697-.444-2.22-.495-.573-1.372-.877-2.538-.877zm.402 3.22c-.19 1.233-1.145 1.233-2.068 1.233h-.525l.369-2.304a.288.288 0 0 1 .286-.241h.24c.63 0 1.223 0 1.53.353.182.212.238.525.168.959zm10.008-.04h-1.667a.288.288 0 0 0-.286.242l-.074.46-.117-.167c-.361-.517-1.166-.69-1.97-.69-1.842 0-3.416 1.378-3.722 3.31-.159.965.067 1.887.62 2.53.51.59 1.236.837 2.101.837 1.485 0 2.309-.943 2.309-.943l-.075.458a.288.288 0 0 0 .287.332h1.502c.238 0 .44-.171.478-.404l.902-5.634a.288.288 0 0 0-.288-.331zM56.76 9.86c-.16.94-.917 1.572-1.881 1.572-.484 0-.872-.154-1.12-.444-.247-.289-.34-.7-.262-1.157a1.86 1.86 0 0 1 1.869-1.584c.474 0 .859.155 1.112.448.255.296.356.71.282 1.165zm4.29-6.142l-1.428 8.976a.287.287 0 0 0 .286.331h1.437a.48.48 0 0 0 .478-.404l1.41-8.814a.288.288 0 0 0-.287-.332h-1.609a.29.29 0 0 0-.286.243z"/><path fill="#253B80" fill-rule="nonzero" d="M4.004 14.738l.267-1.67-.594-.013H.845L2.813.733a.162.162 0 0 1 .16-.135H7.75c1.585 0 2.68.326 3.251.969a2.2 2.2 0 0 1 .521.963c.087.364.088.8.004 1.33l-.007.038v.34l.268.15c.226.118.405.253.543.408.229.258.377.586.44.974.064.4.043.875-.063 1.414-.122.619-.32 1.158-.587 1.6a3.307 3.307 0 0 1-.929 1.005 3.794 3.794 0 0 1-1.252.557 6.32 6.32 0 0 1-1.564.179h-.372a1.13 1.13 0 0 0-.726.264 1.109 1.109 0 0 0-.38.667l-.027.15-.47 2.944-.022.108c-.006.034-.015.051-.03.063a.08.08 0 0 1-.049.017H4.004z"/><path fill="#179BD7" fill-rule="nonzero" d="M12.04 3.937a8.15 8.15 0 0 1-.048.277c-.63 3.192-2.785 4.295-5.537 4.295H5.053a.678.678 0 0 0-.672.57l-.718 4.491-.203 1.273a.355.355 0 0 0 .354.41h2.485a.596.596 0 0 0 .591-.498l.025-.125.468-2.931.03-.161a.595.595 0 0 1 .59-.499h.372c2.408 0 4.293-.965 4.844-3.758.23-1.167.111-2.14-.498-2.826a2.373 2.373 0 0 0-.68-.518z"/><path fill="#222D65" fill-rule="nonzero" d="M11.382 3.678a5.021 5.021 0 0 0-.613-.134 7.883 7.883 0 0 0-1.235-.09H5.79a.59.59 0 0 0-.59.499l-.796 4.98-.023.145a.678.678 0 0 1 .672-.569h1.402c2.752 0 4.907-1.103 5.537-4.295.019-.095.035-.187.049-.277a3.382 3.382 0 0 0-.659-.259z"/><path fill="#253B80" fill-rule="nonzero" d="M5.2 3.953a.588.588 0 0 1 .332-.44.603.603 0 0 1 .258-.058h3.744c.444 0 .858.029 1.235.09a5.021 5.021 0 0 1 .754.177c.186.06.359.132.518.215.188-1.18-.001-1.983-.647-2.71C10.68.427 9.395.083 7.75.083H2.974a.68.68 0 0 0-.675.57L.309 13.101a.407.407 0 0 0 .405.469h2.95l.74-4.637.796-4.98z"/></g></svg>