<svg id="Layer_1" xmlns="http://www.w3.org/2000/svg" viewBox="0 0 512 512"><style>.st0{fill:#fcc412}</style><path class="st0" d="M346.2 278.3c-17.3 6.9-35.2 11.2-53.9 12.2h-72c-9.2-.2-16.9-1.8-23-3.1-13.3-2.9-20.5-5.6-33.2-10-7.8-2.7-10.6.3-10.5 7.7.1 11.3 7.5 16.8 16.8 19.7 19.6 6 39.6 10.6 60.3 11 36.4.6 72.8 1.9 108.1-9.7 8-2.6 14.6-6.4 18.6-13.9 2.2-4.1 3.1-9.3.1-12.6-2.4-2.7-7.4-2.9-11.3-1.3zm-182-23.6c22.9 12 47.9 13.8 72.8 15.3 36.1 2.2 71.8.1 106.2-12.5 8.2-3 14.7-7.8 15.3-16.9 3.4-50.7-28.4-83.1-75.8-87.7-28.9-2.9-33.5-3.2-50.6-.5-10.7 2.7-22 4.1-32.1 8.3-30.1 12.4-49.1 45.1-46.4 77.7.7 7.4 3.6 12.6 10.6 16.3z"/><path class="st0" d="M392.2 266.3c-12.7-.4-13 7.2-12.5 16.5.9 18-5.8 31.4-23.8 37.8-7.4 2.7-14.7 5.4-22.7 8.1-19.8 4.8-39.3 8-59 9.1-12.5 0-21.4.9-33.9.9-10.7.4-13-.9-25.4-1.7-3.9.1-14.3-1.3-18.6-2.5-1.4-.5-6-1-8.9-2.1-8.5-2.1-9.1-2.6-17.4-5.2-31.8-10.2-39.4-25.6-37-46.4 1.1-9.5-2-14.3-12.1-14.3-11.1 0-17.1 4.7-18 14.9-1.2 14 4.9 25.1 14 34.8 24 25.6 56 33.4 88.9 39.1l26.3 3.4c2.4.1 4.9.3 7.3.4h34.1c17.4.2 34.4-2.3 51-7.4 19.5-4.1 38.1-11.1 54.9-21.6 16.6-10.3 29.6-24.2 30.4-45.4.4-12.5-5.7-17.9-17.6-18.4z"/><path class="st0" d="M1.4 1.2v510.1h510.1V1.2H1.4zm426.9 291.3c-3.4 22.7-15.7 40.7-35.1 53.3-41.6 27.2-88.5 33.5-139.6 34.7-28.8-2.3-61-1.1-91-12.7-20.8-8.1-42.1-16.6-57.8-33.4-15.8-17-23.3-37.5-20.6-61 1.9-16.2 14.3-26.1 33.3-24 13.3 1.5 15.6-2.6 15.9-15.1 1.2-55.9 41.8-97.7 97.8-101.3 20.2-1.3 40.6-2.5 60.6 1.1 54.1 9.9 85.8 47.5 88 103.2.3 7.2.5 12.4 10.3 12.2 31.6-.5 42.9 11.7 38.2 43z"/></svg>