<svg xmlns="http://www.w3.org/2000/svg" viewBox="0 0 512 512"><path fill="#be257f" d="M0 0h512v512H0z"/><path d="M382.8 192.4c-5 12.9-10.1 25.8-15.1 38.7-11.7 30.2-23.5 60.3-35.2 90.5-15.6 40.3-31.4 80.5-46.7 120.9-2.8 7.3-5 6.7-10.2 2.3-15.6-13-25-29.9-32.7-48.2-27.2-65-54.3-130-81.6-195-1.5-3.5-3.6-6.8-5.3-10.1-3.5.5-2.6 3-2.8 4.7-4.5 33.2-9 66.4-13.3 99.6-6.1 47.6-13.5 95.1-17.2 143-.3 4.1-2 5.3-5.8 5.3-9.4-.1-18.8-.3-28.1.1-5.3.2-6-1.8-5.1-6.5 11-60.1 18.4-120.8 26-181.4 3.4-27.5 7.9-54.8 10.6-82.4 1.6-16 2.9-31.5-.1-47.1-6.1-32.2-23.5-54.3-57-61.2-.8-.2-1.6-.5-2.4-.8-.2-.1-.3-.4-.5-.6 39.3-5.3 66.8 5.4 97.4 38.9 24.3 26.6 36.3 60 50 92.4 22.3 52.5 44.5 105.2 66.8 157.7 1 2.4.5 6.8 3.9 6.6 3.3-.1 4.1-4.3 5.2-7.1 11.3-28.8 22.6-57.7 33.8-86.5 12.8-33 25.7-66 38.5-99 2.8-7.2 5.7-14.4 6-22.1.3-5.3 2.9-6.4 7.7-6.3 16.5.3 33 .3 49.5 0 4.9-.1 7 1.1 7.4 6.4 4.1 52.7 12.9 104.9 19.7 157.3 5.9 45.4 12.2 90.7 18.6 136 .6 4.2-.1 5.7-4.4 5.6-13.6-.2-27.3-.2-40.9 0-4.3.1-5.1-1.9-5.3-5.7-1.5-26.1-4-52.2-8.3-78-2.5-15.2-4.5-30.7-5.9-45.8-2.9-32.5-7.7-64.8-10.6-97.3-.8-8.2-3-16.2-6.6-24.9z" fill="#fcf9fc"/></svg>