<svg xmlns="http://www.w3.org/2000/svg" viewBox="0 0 512 512"><path d="M0 0v512h512V0H0zm172.7 410.9c-15.8-.6-31.4-2.5-47.7-7.5.3 6.5.5 12.1 1 17.7.3 3.5 1.2 6.9 1.8 10.4.1.6-.4 1.7-.7 1.7-.8 0-1.9-.1-2.4-.7-2.8-2.7-5.5-5.5-8-8.5-7.1-8.6-13.3-17.7-18.1-27.8-1.1-2.3-3.9-4-6.3-5.4-10.3-5.9-20.8-11.5-31.2-17.4-.7-.4-1.7-1.7-1.5-2.3.3-.9 1.3-1.9 2.3-2.2 6.9-2.6 13.9-5.2 21-7.4 3.4-1.1 4.2-2.8 3.5-6.1-.6-3-1-6.1-.9-9.2.3-15 .8-30 1.4-45 0-1 1-2 1.6-3 .8.9 2.1 1.7 2.4 2.8 2.9 10.7 5.4 21.6 8.7 32.3 1.8 6 4.8 11.6 7.4 17.3 1.8 4.1 3.5 4.6 7.9 3.6 4.4-1 9-1.7 13.4-2.4 4.5-.8 9-1.6 13.5-2.1 1.3-.2 2.7.3 4.1.6-.3 1.3-.2 2.8-.9 3.8-5.4 8.1-10 16.7-13.3 25.9-.4 1.2.2 3.6 1.2 4.4 6.3 5 12.5 10 19.3 14.3 5.3 3.3 11.3 5.6 16.9 8.3 1.5.7 2.8 1.7 4.3 2.5-.4.3-.5.8-.7 1.4zm21.7-193.1c-3.4 10.6-6.8 21.3-9.8 32-2.1 7.3-3.6 14.8-5.3 22.2-.3 1.3 0 2.8-.3 4.1-.3.9-1.2 1.7-1.9 2.5-.7-.6-1.8-1-2.1-1.8-3.8-11-7.5-22-11.2-33.1-1.3-4-2.8-7.9-3.9-12-.9-3.3-2.4-3.2-4.6-1.5-7.5 5.6-15.4 10.9-22.5 16.9-12.3 10.3-24.1 21.2-36.2 31.7-.8.7-2.1.9-3.2 1.3.1-1.1-.2-2.5.3-3.4 8-13.6 15.7-27.5 24.5-40.6 6.4-9.5 14.2-17.9 21.5-26.8 2.6-3.1 2.7-3.6-.8-5.6-6.9-4-14.4-6.3-22.2-7.6-6.1-1-12.2-1.4-18.3-2.3-1.1-.1-2-1.1-3-1.6.8-.9 1.5-2.2 2.5-2.5 5.1-1.3 10.2-2.4 15.3-3.5 2.5-.5 5-.8 7.4-1.4 15.7-3.5 31.7-2.5 47.6-2.8 2.5 0 5.2-.9 7.3-2.3 11.2-7.7 23.1-13.9 35.8-18.6 1.9-.7 4-1 6-1.3.7-.1 1.8 0 2.1.4.3.5.1 1.6-.2 2.2-3.2 6-6.6 12-9.8 18.1-1 1.6-1.3 3.4-1.9 5.3 30 4.8 78.5 23.7 79.9 31.2-3-.1-6 .2-8.8-.5-15.3-3.4-30.8-4.1-46.3-4.1-7.9 0-15.8.8-23.6 1.3-3.8.3-7.7.8-11.5 1.6-1.1.2-2.4 1.5-2.8 2.5zm110.9 161.7c-9.8 9.1-19.5 18.4-29.7 27.1-3.4 2.9-3.2 5.7-2.6 9 .4 2 1 4 1.7 5.9.8 2.1 0 3.1-2 3.3-5.4.5-10.7 1.4-16.1 1.2-4.2-.2-7.2 2.1-10.5 3.7-11.7 5.5-23.7 10.3-36.3 13.2-1.8.4-3.5 1.2-5.3 1.5-.8.2-1.8-.3-2.7-.5.5-.9.8-2 1.6-2.6 7.1-5.5 14.4-11 21.5-16.4.4-.4.6-.7.6-.7-7.2-2.6-14.3-5.1-21.4-7.8-1.1-.4-1.9-1.7-2.8-2.5 1.1-.5 2.2-1.4 3.4-1.5 9.9-1 19.9-.8 29.5-3.9 1.8-.6 3.8-.5 5.7-1 5.1-1.4 7.4-6 10.5-9.5 4.9-5.6 9.2-11.7 13.9-17.5.8-1 2.1-1.4 3.2-2.1.4 1.1.9 2.3 1.1 3.4.6 4.5 1.2 9 1.8 14.3 3.8-1.9 7.7-3.5 11.2-5.6 7.4-4.4 14.6-9 21.9-13.5 1-.6 2.3-.8 3.4-1.2l.6.9c-.7.9-1.4 2-2.2 2.8zm148.2-282c-3.5 7.3-8.1 13.8-15 18-5.2 3.2-6.8 7-6.3 13.1.9 9.9-.3 19.9-2.3 29.7-1 4.7-.8 9.6-1.7 14.3-2.5 12.4-5.2 24.8-8 37.1-1.2 5.2-2.8 10.3-4.5 15.4-.4 1.4-1.5 2.6-2.3 3.9-.4-.1-.7-.1-1.1-.2-.3-1.2-.7-2.4-.7-3.7-.5-10.1-.7-20.2-1.6-30.2-.8-8.7-2.8-17.3-3.8-26-.9-8.3-3.6-16-7-23.5-.5-1-1-2-1.6-3.1-6.6 3.6-12.8 7.2-19.2 10.5-12 6.2-24.1 12.2-36.1 18.5-4.8 2.5-9.3 5.5-14 8.1-1 .6-2.4.5-3.7.7.5-1.2.6-2.6 1.5-3.5 11.6-12.1 22-25.2 31.6-39 .6-.9 1.1-1.9 2-3.2-3.5 0-6.4-.1-9.3 0-3.3.2-6.6.7-9.9 1-9.4.9-18.8 1.7-28.3 2.6-5.6.5-11.2 1-16.7 1.6-5 .6-9.9 1.3-14.9 2.1l-24.6 3.9c0-.4-.3-.8-.6-1.2 1.2-1 2.2-2.5 3.6-3 14.2-5.7 28.3-11.6 42.7-16.8 10.5-3.7 21.3-6.6 32.1-9.5 7.3-1.9 14.7-3.2 22.1-4.7 2.5-.5 5.1-1.2 7.8-2.3-22-17.3-47.1-29.5-71.7-42.4 0-.4.1-.9.1-1.3 1.3-.2 2.6-.7 3.8-.6 6.1.7 12.3 1.4 18.3 2.5 8.4 1.6 16.7 3.4 25 5.4 9.5 2.3 19.1 4.5 28.4 7.3 7.3 2.2 14.5 4.8 21.6 7.8 7.7 3.3 15 7.4 22.6 10.7 2 .9 4.9 1 7.1.3 9.9-3 20.2-2.3 30.3-3.7.8-.1 1.6-.1 2.4 0 2.4.1 3 1.2 1.9 3.4z" fill="#24a770"/></svg>