<svg xmlns="http://www.w3.org/2000/svg" viewBox="0 0 512 512"><path d="M0 446.6c5.7-20.5 10.8-39.1 16.1-57.5C44 291.9 72 194.8 99.6 97.5 102.2 88.3 106 85 116 85c127.8.4 255.7.3 383.6.3h12.1c-8 28.1-15.6 54.7-23.2 81.3-25.2 88.1-50.4 176.2-75.8 264.2-5.4 18.9-2.4 15.8-21.3 15.8-125.3.1-250.6 0-375.9 0H0zm258.5-271.9c29.1-10.4 54.2-13.3 85.3-10.2 27.9 2.7 42.1 17.8 41.8 43.7-.3 30.4-.7 60.8-.2 91.2.2 13.8-4.6 24.3-15.1 32.4-6.9 5.3-14.2 10.4-22.1 14.2-16.4 7.9-33.3 15.1-50.2 22-2.2.9-6.7-.7-8.7-2.6-18.4-18.4-40.3-29.7-66.3-33.5-20.2-2.9-40.6-5.4-60.3-10.2-19.1-4.7-24.9-12.5-25.3-32.1-.7-34-.8-68.1.1-102.2.6-23 11.7-34.9 34.4-36.2 15.4-.9 31.2 1.1 46.6 3.3 25.6 3.7 48.9-.2 68.4-18.2 1.8-1.7 1.8-5.3 2.6-8.1-2.5-.4-5.4-1.8-7.5-1-23.9 8.8-48 7.3-72.4 2.3-24.9-5.1-49.7-3.9-73.2 6.2-36.7 15.6-46.1 34.2-45 64.7 1.1 31.5.8 63 .1 94.5-.6 23.5 10.8 38.8 30.2 49.3 24.6 13.4 52 16.8 79.2 20.1 30.4 3.7 59.2 10.3 80.9 34.1 3.4 3.7 5.8 8.2 8.7 12.3.5-1.9.9-3.7 1.4-5.6 20.3-8.6 40.7-17.1 61-26 14-6.1 28.7-11.3 41.4-19.6 17.9-11.6 32.4-27.7 33.1-50.3 1.2-36.6.7-73.3.1-109.9-.4-28.2-16-47.6-43.9-56.1-27.7-8.4-55.6-7.5-83.1 1.2-15.4 4.9-30.5 10.8-45.8 16.3 1.6 6.2 2.6 9.6 3.8 14z" fill="#019a76"/><path d="M258.5 174.7c-1.2-4.3-2.2-7.8-3.9-13.9 15.3-5.5 30.4-11.4 45.8-16.3 27.5-8.7 55.4-9.6 83.1-1.2 27.9 8.5 43.5 27.9 43.9 56.1.6 36.6 1.1 73.3-.1 109.9-.7 22.6-15.2 38.7-33.1 50.3-12.7 8.3-27.4 13.5-41.4 19.6-20.2 8.9-48.6 20.6-52.6 22.6s-9.3 7.1-9.8 9c-2.9-4.1-5.3-8.6-8.7-12.3-21.7-23.8-50.6-30.4-80.9-34.1-27.2-3.3-54.6-6.6-79.2-20.1-19.3-10.6-30.7-25.8-30.2-49.3.8-31.5 1-63.1-.1-94.5-1.1-30.5 8.4-49.1 45-64.7 23.5-10 48.4-11.2 73.2-6.2 24.4 5 48.5 6.5 72.4-2.3 2.1-.8 5 .6 7.5 1-.8 2.7-.8 6.4-2.6 8.1-19.6 17.9-42.8 21.9-68.4 18.2-15.4-2.2-31.1-4.2-46.6-3.3-22.7 1.4-33.7 13.2-34.4 36.2-.9 34-.8 68.1-.1 102.2.4 19.6 6.2 27.4 25.3 32.1 19.8 4.8 40.1 7.3 60.3 10.2 25.9 3.8 47.8 15.1 66.4 33.4 2 1.9 6.5 3.5 8.7 2.6 16.9-6.9 33.7-14.1 50.2-22 7.8-3.8 15.1-8.9 22.1-14.2 10.5-8 15.3-18.6 15.1-32.4-.5-30.4-.2-60.8.2-91.2.3-25.9-13.9-41-41.8-43.7-31.2-3.1-56.2-.2-85.3 10.2z" fill="#fff"/></svg>