<svg xmlns="http://www.w3.org/2000/svg" viewBox="0 0 512 512"><path d="M0 0h512v512H0z"/><path d="M189 215.8c14.9-3.8 27.9-8.1 41.3-10.2 76.1-12 143.7 52.7 137.6 129.3-4.5 56-48 105.4-106.6 111.3-76.8 7.7-123.6-45.2-133.5-94.4-1.5-7.5-2.6-15.2-2.6-22.8 0-79.4.2-158.9.4-238.3 0-2.4.4-4.8.7-8h62.8c-.1 44.1-.1 88.5-.1 133.1zm57.9 52.9c-31.9-.1-57.2 24.8-57.3 56.3-.1 32.2 25.6 58.2 57.2 58 30.8-.2 56.8-26.4 56.9-57.5.1-31.6-25-56.8-56.8-56.8z" fill="#fff"/><path d="M332 62c31.8.1 57 25.2 56.8 56.8-.1 31.1-26 57.3-56.9 57.5-31.7.2-57.3-25.8-57.2-58 .1-31.5 25.4-56.4 57.3-56.3z" fill="red"/></svg>