<svg id="Layer_1" xmlns="http://www.w3.org/2000/svg" viewBox="0 0 512 512"><style>.st1{fill:#fff}</style><path fill="#095e27" d="M0 0h512v329H0z"/><path class="st1" d="M-.2 312h512v6.4H-.2z"/><path fill="#e10b1f" d="M0 318.4h512V512H0z"/><path class="st1" d="M257.6 415.1c2.3-1.8 2.8-4.6 3-7.5.4-5.1-1.1-9.8-3.9-13.9-3.8-5.5-8.1-10.6-11.9-16-4.6-6.7-6.1-14-3.2-21.8.8-2.2 2-4.3 4.9-5.5.1 1.1.3 1.9.2 2.6-.3 5.5 2 10.1 5.2 14.2 3.4 4.3 7 8.4 10.4 12.7 3.7 4.7 7.3 9.6 7 16.1.2.1.4.1.6.2.6-.7 1.3-1.3 1.7-2 3-6.2 2.7-12.4-.8-18.1-2.9-4.7-6.4-9.1-9.7-13.5-3.6-4.8-6.9-9.8-7.9-15.9-.9-5.6-.1-10.8 3.7-15.3.5-.6 1.3-1 2.3-1.8.2 1.1.5 1.8.4 2.4-.6 6.3 2.5 11.2 5.9 16 4.1 5.7 8.4 11.4 12.3 17.3 2.5 3.8 4 8 3.1 13 3.5 1.1 7 2 10.5 3.2 7.2 2.5 13.9 6 19.1 11.8 6.8 7.6 5.6 17.3-1.9 24.2-7.1 6.5-15.6 9.9-24.7 12.3-12.5 3.3-25.1 3.9-37.9 2.7-13.1-1.3-25.8-4.2-36.6-12.3-5.4-4-9.3-8.9-8.9-16.3.3-4.6 2.6-8.1 5.7-11 7.6-7.1 16.9-11.1 26.9-13.5.7-.2 1.9.4 2.3 1 3.1 4.4 5.9 9 9 13.4 3 4.3 6.4 8.3 9.2 12.7 1.7 2.6 2.7 5.6 4 8.6z"/></svg>