<svg xmlns="http://www.w3.org/2000/svg" viewBox="0 0 512 512"><path fill="#8dc040" d="M0 0h512v512H0z"/><path d="M241.1 0s-1.1 2.2 0 5.4 3.2 7.5 3.2 7.5l3.2 6.6 8.7-9.8 8.7-9.8-23.8.1z" fill="#21d5e8"/><linearGradient id="a" gradientUnits="userSpaceOnUse" x1="361.476" y1="329.759" x2="361.476" y2="29.665"><stop offset="0" stop-color="#006a1e"/><stop offset=".517" stop-color="#007f5a"/><stop offset="1" stop-color="#00c9ed"/></linearGradient><path d="M495.5 92.3s-27.5 0-40.7 3.3c-13.2 3.3-40.7 18.7-47.2 27.5s-18.7 29.7-20.9 43.9c-1.1 5.5-1.1 22-1.1 29.7-1.1 7.7 6.6 50.5 6.6 50.5s4.4 37.4 3.3 48.3c-1.1 11-11 24.2-16.5 27.5s-16.5 5.5-29.7 6.6c-13.2 1.1-40.7-4.4-40.7-4.4l-30.8-4.4-30.8-3.3h-23.1l-2.2-79.1 9.9 2.2s11 5.5 22 8.8c11 3.3 30.8 6.6 38.5 6.6s20.9 0 25.3-2.2c4.4-2.2 9.9-6.6 13.2-14.3 3.3-7.7 3.3-12.1 3.3-19.8 0-7.7-5.5-24.2-5.5-24.2l-8.8-24.2-17.6-34.1-17.6-33L321.9 56l67-24.2 54.9-2.2 33 17.6 22 31.9 2.2 12.1-5.5 1.1z" fill="url(#a)"/><linearGradient id="b" gradientUnits="userSpaceOnUse" x1="92.841" y1="190.009" x2="92.841" y2="512"><stop offset="0" stop-color="#009d1e"/><stop offset=".517" stop-color="#007f5a"/><stop offset="1" stop-color="#1558ab"/></linearGradient><path d="M0 208.8s9.9-9.9 45-16.5c35.2-6.6 69.2 3.3 69.2 3.3l62.6 25.3v98.9s-27.5 0-50.5 17.6c-29.7 20.9-28.6 36.3-29.7 42.8-1.1 6.6-1.1 20.9 0 30.8 4.4 15.4 12.1 34.1 29.7 53.8 4.5 5.1 20 19.9 34.1 30.8 13.2 10.2 25.3 16.5 25.3 16.5H0V208.8z" fill="url(#b)"/><path d="M264.8 0l-25.3 28.6s-24.8 34.9-35.2 52.7c-16.5 28.6-31.9 86.8-31.9 86.8s-9.9 46.1-9.9 59.3c-2.2 26.4-1.1 29.7-1.1 49.4s2.2 43.9 6.6 65.9c4.4 22 16.5 56 24.2 75.8 7.7 19.8 18.5 36.8 23.1 45 5.5 9.9 25.3 34.1 27.5 37.4 2.2 3.3 7.7 11 7.7 11H512v-69.2l-14.3 8.8s-15.4 8.8-30.8 13.2c-11 3.2-38.5 8.8-58.2 7.7-27.5 0-72.5-16.5-87.9-25.3-9.8-5.6-42.8-34.1-50.5-42.8s-24.2-39.6-27.5-47.2c-3.3-7.7-11-34.1-13.2-47.2-2.2-13.2-3.3-28.6-3.3-39.6s1.1-29.7 1.1-29.7l7.7-33 11-31.9 17.6-35.2 15.4-23.1s15.4-17.6 23.1-27.5c15.4-20.9 49.4-36.3 61.5-41.8 12.1-5.5 18.7-6.6 35.2-8.8 16.5-2.2 40.7-1.1 52.7 3.3 12.1 4.4 23.1 9.9 28.6 16.5s22 28.6 16.5 46.1c-5.5 17.6-22 68.1-22 68.1s-12.1 43.9-14.3 57.1c-2.2 13.2 0 30.8 2.2 39.6s14.3 17.6 14.3 17.6 13.2 6.6 20.9 6.6h14.3V0H264.8z" fill="#00884a"/></svg>