<svg id="Layer_1" xmlns="http://www.w3.org/2000/svg" viewBox="0 0 512 512"><style>.st0{fill:#0d6b50}</style><path class="st0" d="M323.6 234.9c-6.2-15.7-12.6-31.4-18.9-47-1.1-2.7-2.1-5.5-3.2-8.3-.4-.9-1.1-1.6-2.1-3.1-1.8 4-3.4 7.3-4.8 10.6-8 18.7-15.9 37.4-24 56.1-2.1 4.9-4.3 10.1-7.7 14.2-2.3 2.8-6.6 4.4-10.2 5.8-6 2.4-12.2 4.6-18.5 6.1-10.9 2.7-21.9 4.8-32.9 7-.5.1-1.1-.1-2.2-.3 1.5-3.2 2.8-6.2 4.3-9.1 9.5-18.4 19.1-36.7 28.6-55.1 11.8-22.9 23.5-45.9 35.3-68.8.4-.7 1.1-1.4 1.3-2.1 2-8.1 7.6-9.1 15-8.8 14.1.6 28.2.2 42.3.1 2.8 0 4.3.6 5.6 3.5 9.4 20.9 19.2 41.7 28.8 62.5 2.5 5.5 5.1 10.9 7.5 16.5 1 2.4 16.8 37 17.7 38.9 9 19.4 17.9 38.9 26.8 58.3 3.9 8.5 7.9 16.9 11.9 25.4.5 1.1.8 2.4 1.4 4.1-1.9.1-3.4.3-4.9.3-14.8 0-29.6-.3-44.4 0-9.1.1-11.8-2.5-14.9-10.3-5.6-14-11.1-28.1-16.6-42.2-1.3-3.2-2.6-6.3-3.7-9.6-.9-2.9-15-38.4-17.5-44.7z"/><path d="M234.8 168.1c-6.6 0-12.1-.4-17.4.1-4.8.4-9.6 1.3-14.2 2.7-8.6 2.7-17.4 5.3-25.6 9.1-11 5.1-21.8 10.8-32.2 17.1-16.2 9.8-30.9 21.5-43.7 35.4-10.2 11.1-18.9 23.2-22.7 38-2.5 9.7-.9 17.6 8.1 25.5 6.9 6 15.4 7.9 23.9 8.6 10.3.8 20.9.9 31.2 0 11.2-1 22.3-3.3 33.4-5.2 7.9-1.4 15.7-2.9 23.6-4.6 5.3-1.1 10.6-2.5 15.7-4.1 12.7-4.1 25.4-8.2 37.8-12.9 9.3-3.5 18.2-7.9 27.2-12.1 12.5-5.9 24.9-12 37.3-18 1.3-.6 2.4-1.5 3.7-2.2 6.1-3.3 50.4-27.2 52.5-28.4 15-8.6 30-17.1 45-25.6 13.5-7.7 26.9-15.4 40.4-23 .9-.5 1.9-.8 3.3-1.4.1 1.5.3 2.6.3 3.8 0 11.4 0 22.8.1 34.1 0 2.5-.7 3.9-3.1 5.2-23.9 13.3-47.6 26.8-71.4 40.1-2.2 1.2-48.1 26.8-50.7 28.3-10.9 6.1-21.7 12.5-33 18-13.1 6.4-26.5 12.4-40.1 17.9-11.8 4.7-23.9 8.9-36.1 12.5-10.6 3.1-21.6 4.9-32.2 7.8-12.6 3.4-25.7 3.5-38.5 5.2-4.3.5-8.8.1-13.1-.3-6.5-.6-13-.9-19.3-2.3-8.3-2-16.7-4.4-24.6-7.6-12-5-21.1-13.9-28.3-24.5-6.9-10.1-11.8-21.3-13.5-33.5-1.1-7.6-1.9-15.3-1.3-22.9.8-10.2 5-19.5 10.4-28.3 10.9-17.7 25.5-31.7 42.2-43.6 10.3-7.4 20.6-14.8 31.6-20.9 11.1-6.2 23-10.9 34.6-16.1 11.3-5.1 23.5-7 35.7-7.9 6.4-.4 11.2.8 13.3 6.9 3.2 9.3 6.3 18.9 9.7 29.1z" fill="#159596"/><path class="st0" d="M247.3 401.2h-181c-5.3 0-5.3 0-5.3-5.2v-24.5c0-5.2 0-5.2 5.4-5.2h362.3c4.8 0 4.8 0 4.8 4.9 0 8.5-.2 17.1.1 25.6.1 3.8-1.2 4.5-4.6 4.5-60.6-.1-121.2-.1-181.7-.1z"/><path d="M356.9 159.6c5.3 2.7 9.4.8 13.4-1.4 12.6-6.9 25.2-14 37.8-21 15.8-8.7 31.6-17.5 47.5-26.2 6.7-3.7 6.8-3.5 6.8 4.3v25.6c0 2.2-.6 3.6-2.7 4.8-22.3 12.2-44.4 24.6-66.6 37-2.6 1.4-5.1 2.9-7.7 4.4-6 3.3-10.3 2.8-15.1-2-7-6.9-11-15.4-13.4-25.5z" fill="#ea222e"/></svg>