<svg id="Layer_1" xmlns="http://www.w3.org/2000/svg" viewBox="0 0 512 512"><style>.st1{fill:#fff}</style><path fill="#1885c8" d="M0 0h512v512H0z"/><path class="st1" d="M179.5 266.9c-2.7-2.4-5.2-4.8-7.9-6.9-7.2-5.7-15.3-9.7-24.5-11.2-7.1-1.1-14.1-.7-21 1.2-15.2 4.2-26.1 13.6-31.9 28.3-6.5 16.5-5.9 32.9 2.6 48.6 7.1 13.1 18.5 20.8 33.1 23.6 15.9 3 29.9-1.3 42.3-11.3 2.5-2 4.8-4.2 7.3-6.5 6.1 7.4 12.2 14.8 18.6 22.5-3.2 3.2-6.2 6.5-9.5 9.5-6.9 6.3-14.9 11.1-23.8 14.2-8.3 2.9-16.9 4-25.7 3.8-15.3-.3-29.9-3.7-43.2-11.4-17.5-10.1-29.2-25-35-44.3-2.9-9.5-3.9-19.3-3.8-29.2.2-11.2 2.1-22.2 6.4-32.6 7.8-18.6 21-31.9 39.3-40.3 9-4.1 18.4-6.4 28.2-7.4 10.2-1 20.3-.6 30.2 2.2 11.3 3.1 21 9 29.4 17.1 2.6 2.5 5 5.1 7.5 7.8-6.3 7.5-12.4 14.9-18.6 22.3zm99.2-17.2v-30h26.4c1 0 1.3-.2 1.3-1.3V188c0-.7.1-1.1.8-1.5 10.2-5.4 20.3-10.8 30.4-16.3l.8-.4v48.3c0 1.6-.2 1.5 1.6 1.5h31.8v30h-32c-1.4 0-1.4 0-1.4 1.4v83.1c0 3.4.2 6.8 1.4 10 1.8 5.2 5.6 7.8 10.9 8.4 6.9.8 13.4-.9 19.6-3.8 2.9-1.3 5.6-3 8.4-4.5.3-.2.6-.3 1-.6-.1.6-.2.9-.3 1.3-2.4 9.5-4.9 19.1-7.3 28.6-.1.5-.5 1-.9 1.2-6.8 4.1-14.2 6.3-22.1 6.9-5.7.4-11.3.3-16.8-1.4-9.8-3-16.8-9.3-21.3-18.4-3.1-6.3-4.6-13.1-4.6-20.1-.1-29.4 0-58.7 0-88.1 0-1-.1-2 0-3.1.1-.9-.3-1.1-1.2-1.1h-25.1c-.4.3-.8.3-1.4.3z"/><path d="M195.2 193.2c25.3-38.2 74.3-69.8 131.5-70 56.8-.2 106.4 31 132.3 69.9-.4 0-.7.1-1 .1h-35.6c-.7 0-1.2-.2-1.7-.7-8.6-8.8-18.2-16.4-28.8-22.6-13.4-7.8-27.7-13.1-43-15.8-9.1-1.6-18.3-2.2-27.6-1.7-22.7 1.1-43.7 7.8-62.9 19.9-9.1 5.8-17.4 12.5-24.9 20.3-.5.5-1 .7-1.8.7h-35.4c-.3-.1-.6-.1-1.1-.1z" fill="#c00a1b"/><path class="st1" d="M249.5 379.5h-32.6V219.6h32.6v159.9zm188.5 0h-32.6V219.6H438v159.9z"/></svg>