<svg id="Layer_1" xmlns="http://www.w3.org/2000/svg" viewBox="0 0 512 512"><style>.st0{fill:#128585}</style><path class="st0" d="M202.7 199.5v-1.7c0-.9-.1-1.9-.1-2.8 0-.9.1-1.8.2-2.7.4-1.7 1.7-4.2 3.1-4.6 1.6-.4 4.4.5 5.5 1.9 10.3 12.6 20.3 25.4 30.3 38.1 14.4 18.1 28.8 36.3 43.2 54.4 2.9 3.6 5.7 7.3 8.5 11 .7.9 1.1 2.1 1.7 3.1.5-.3 1-.7 1.5-1 .1-1.2.2-2.5.2-3.7v-.2c-.1-82.1-.1-164.2-.2-246.4v-.3c0-15.1-.3-30.1-.4-45.2H.5v512.5h202.4v-.1c-.1-104.1-.1-208.2-.2-312.1v-.2zm-25.3 63.6c-.1 2.3-.3 4.6-.6 7-2 18-8.7 34.2-23.5 45.9-9.5 7.5-20.5 12-32.6 12.3-14.9.4-29.8.1-44.8.1-3.9 0-5.2-1.6-5.2-6.1 0-21.3 0-42.6-.1-63.9v-63.2c0-5.8 1.1-7 6.9-6.9 15.5.1 31.2-.8 46.6.7 18.7 1.8 33.5 11.4 43 28 8.2 14.4 11.1 30.1 10.3 46.1z"/><path class="st0" d="M311.3-.5c-.1 2.4-.1 4.8-.2 7.2-.1 2-.1 4-.2 6v.9c-.1 102.8-.1 205.6-.2 308.5 0 .7.3 1.7 0 2.4 0 .1 0 .2-.1.2-.8 1.5-1.6 3.6-2.9 4.2-1.1.5-3.5-.4-4.5-1.5-3.4-3.7-6.5-7.7-9.6-11.6-11.8-14.9-23.7-29.8-35.6-44.8-9.9-12.5-19.7-24.9-29.6-37.3-.8-1-1.6-2.1-2.4-3.1-1.2-1.5-2.4-2.9-3.6-4.4-1.4-1.7-2.8-3.5-4.2-5.2-.3 0-.6.1-.9.2V512h294.3V-.5H311.3zm126 310.1c-2.1 3.1-4.4 5.7-6.9 8-.2.2-.5.4-.7.6-.4.3-.8.7-1.2 1-7.2 5.7-16 8.4-25.7 8.9-18.6.8-37.3.3-56 .3-3.1 0-4.5-1.8-4.8-4.7-.1-.8 0-1.7 0-2.5 0-41.7-.1-83.5-.1-125.2 0-3.3.3-5.2 1.4-6.2 1.1-1.1 2.9-1.4 6.2-1.4 16.9.1 33.8 0 50.6.6 15.4.6 30.1 12.1 32.3 25.5.6 3.5 1 6.9 1.1 10.3.4 9.6-1.6 18.8-8.9 26.3l-1.3 1.3c4.9 4.8 9.8 9 13.8 13.8 3.9 4.9 5.7 10.8 5.9 17.3.3 9.3-.4 18.2-5.7 26.1zm-348.8 4.7c9.2-.2 18.4 0 27.6-.2 12.2-.2 23-4 31.7-12.7 9.7-9.6 13.8-21.9 14.6-35.2.4-6.6-.2-13.3-1-19.9-.1-.8-.2-1.7-.3-2.5-1.4-10.7-5.6-20.2-13.1-28.1-8.5-9-19.7-12.3-31.6-13.2-9.1-.7-18.2-.1-27.3-.4-2.5-.1-3.5.6-3.8 2.3-.1.5-.1 1.1-.1 1.8v.2c.1 8.6.1 17.2.1 25.8V258c-.1 17.5-.1 34.9-.1 52.2 0 2.3 0 4.2 3.3 4.1z"/><path class="st0" d="M402.1 262.4c-14.1-.5-28.2-.1-42.3-.2-2.4 0-3.1.8-3.1 3.1.1 7.7 0 15.3 0 23-.1 7.3 0 14.8-.1 22.1v.2c-.1 3 .9 3.9 3.9 3.9 10.4-.2 20.8.2 31.2-.2 6.3-.2 12.7-.8 18.8-2.2 13.1-2.9 18.9-14.1 18.8-24.5-.1-4.1-1-8.1-2.8-11.5-5.2-9.7-14.2-13.3-24.4-13.7zm-43.6-14.7c13.9-.1 27.6.1 41.5-.2h.2c2.4 0 5-.7 7.3-1.7.5-.2.9-.4 1.3-.6 8.4-4.3 12.2-15.2 9.7-25.5-.8-3.4-2-6.5-4.1-9-.4-.5-.8-.9-1.3-1.4l-.3-.3c-.9-.8-1.9-1.5-3.1-2.1-5.9-3.1-12.5-4.1-19-4.4-9-.4-17.9-.2-26.9-.3h-6.9v45.2c.7.1 1.1.3 1.6.3-.1 0 0 0 0 0z"/></svg>