<svg id="Layer_1" xmlns="http://www.w3.org/2000/svg" viewBox="0 0 512 512"><style>.st0{fill:#154d74}.st1{fill:#fff}</style><path class="st0" d="M511.8 66.9v378.4c-.5.8-.8 1.7-1.1 2.6-3.9 32-32.9 64.5-78.9 64.2-117.3-.7-234.7-.2-352-.3-7.6.2-15.1-.6-22.5-2.2C22.3 501 .2 471.8.2 434.4 0 315.4 0 196.7.1 77.9c0-2.4 0-4.8.2-7.1C2.4 43.1 15.7 22.3 40 9.2 48.1 4.8 57.7 3 66.6 0H445c1.5.6 3.1 1.1 4.6 1.5 20.3 3.7 37.2 13.6 48.1 31 6.4 10.4 9.5 22.8 14.1 34.4zm-429.1 16v346.4h346.1V82.9H82.7z"/><path class="st1" d="M82.7 82.9h346.1v346.4H82.7V82.9zM132.6 379H379V132.7H132.6V379z"/><path class="st0" d="M132.6 379V132.7H379V379H132.6zm221.7-213.7c-20.2 0-38.2.2-56.1-.1-5.4-.1-8.6 1.8-11.7 6-41 56.2-82.1 112.3-123.3 168.4-1.4 1.9-2.7 4-4.8 7.3 19.6 0 37.6-.2 55.5.1 5.4.1 8.6-1.6 11.7-5.9 33.5-45.9 67-91.8 100.7-137.5 8.9-12.2 17.8-24.4 28-38.3z"/><path class="st1" d="M354.3 165.3c-10.2 13.9-19 26.1-28 38.3-33.6 45.8-67.2 91.6-100.7 137.5-3.2 4.3-6.4 6-11.7 5.9-17.9-.3-35.9-.1-55.5-.1 2.1-3.2 3.4-5.4 4.8-7.3 41.1-56.1 82.2-112.3 123.3-168.4 3.1-4.3 6.3-6.1 11.7-6 17.9.3 35.8.1 56.1.1z"/></svg>