<svg id="Layer_1" xmlns="http://www.w3.org/2000/svg" viewBox="0 0 512 512"><style>.st1{fill:#fff}</style><path d="M454.5 254.7c-.3 106.5-85.1 192.1-192.4 192.3-106.6.2-194.8-85.7-192.6-197.1C71.6 147.6 153.8 62 262.2 62c107.1.1 192.2 85.6 192.3 192.7zM160.2 325c1.5-2.6 2.5-4.4 3.6-6 10.5-15.7 21.1-31.3 31.6-47 16-23.8 31.9-47.6 47.8-71.4 12.4-18.4 24.8-36.9 37.3-55.2 1.8-2.6 1.1-3.8-1.3-5-6.5-3.4-13.4-5.3-20.7-5.4-19.1-.2-34.3 8.3-45.4 22.9-12.8 16.8-24.2 34.7-36.1 52.3-18 26.6-35.8 53.3-54 79.8-10.5 15.2-13.9 31.3-8.4 48.9 6.4 20.4 26.6 35.1 48.2 35.1 68.1.1 136.2 0 204.2 0 1.6 0 3.1-.3 5.4-.6-1.4-2.1-2.3-3.7-3.4-5-11-13.1-22.1-26.1-33-39.2-2.5-3.1-5.3-4.3-9.2-4.2-53.7.1-107.3.1-161 .1-1.4-.1-3-.1-5.6-.1zm148.6-76.9c1.4 1.9 2.1 3.1 3 4.2 4.7 5.5 9.3 10.9 14 16.3 12.6 14.6 25.2 29.1 37.8 43.7 10.4 12 20.8 24.1 31.2 36.1 2.9 3.4 3.6 3.3 5.9-.3 5.7-8.9 9.4-18.3 10.4-29 1.6-16.3-2.9-30.5-13.3-42.9-13.6-16.2-27.7-32.1-41.5-48.2-17.1-19.8-34.2-39.7-51.3-59.6-1.8-2.1-2.9-2.4-4.6.3-8 12.7-16.3 25.2-24.5 37.8-15.8 24.5-31.6 48.9-47.4 73.4-2.3 3.5-4.4 7.1-6.8 11 1.2.4 1.8.7 2.4.7 18 0 36 .1 54-.1 1.3 0 3-1.1 3.7-2.2 4.1-6.1 7.9-12.3 11.9-18.5 4.9-6.9 9.6-14.1 15.1-22.7z" fill="#e82134"/><path class="st1" d="M160.2 325h5.8c53.7 0 107.3 0 161-.1 4 0 6.7 1.2 9.2 4.2 10.9 13.2 22 26.2 33 39.2 1.1 1.3 2 2.9 3.4 5-2.3.3-3.9.6-5.4.6-68.1 0-136.2.1-204.2 0-21.6 0-41.8-14.8-48.2-35.1-5.5-17.7-2.1-33.8 8.4-48.9 18.2-26.4 36-53.2 54-79.8 11.9-17.5 23.3-35.5 36.1-52.3 11.1-14.6 26.4-23.1 45.4-22.9 7.3.1 14.2 2 20.7 5.4 2.4 1.3 3.1 2.4 1.3 5-12.5 18.3-25 36.8-37.3 55.2-16 23.8-31.9 47.6-47.8 71.4-10.5 15.7-21.1 31.3-31.6 47-1.3 1.7-2.3 3.5-3.8 6.1z"/><path class="st1" d="M308.8 248.1c-5.5 8.6-10.2 15.7-14.8 22.9-4 6.2-7.8 12.4-11.9 18.5-.7 1.1-2.4 2.2-3.7 2.2-18 .1-36 .1-54 .1-.6 0-1.2-.3-2.4-.7 2.4-3.9 4.5-7.5 6.8-11 15.8-24.5 31.6-49 47.4-73.4 8.1-12.6 16.4-25.1 24.5-37.8 1.7-2.7 2.8-2.3 4.6-.3 17.1 19.9 34.2 39.7 51.3 59.6 13.8 16.1 27.9 31.9 41.5 48.2 10.3 12.3 14.8 26.6 13.3 42.9-1 10.7-4.8 20.1-10.4 29-2.3 3.6-3 3.6-5.9.3-10.4-12-20.8-24.1-31.2-36.1-12.6-14.6-25.2-29.1-37.8-43.7-4.7-5.4-9.4-10.9-14-16.3-1.2-1.2-1.9-2.4-3.3-4.4z"/></svg>