<svg xmlns="http://www.w3.org/2000/svg" viewBox="0 0 512 512"><path d="M-.4 512V376c1 0 1.9-.1 2.9-.1 62.7 0 125.5 0 188.2-.1 3.5 0 4.5 1.1 4.5 4.5-.1 18.4-.1 36.7 0 55.1 0 1.2.7 2.3 1.1 3.5 1.1-.4 2.2-.7 3.1-1.3 7.1-5.1 14-10.3 21.1-15.4 25.5-18.6 51.1-37.1 76.6-55.7 29.1-21.2 58.2-42.4 87.2-63.6 11.6-8.4 23.2-16.8 34.7-25.2 4.1-3 4.1-4.8.2-7.6-8.5-6.3-17.1-12.5-25.6-18.8-19.1-14-38.2-28.1-57.3-42.1-14.5-10.7-28.9-21.3-43.5-32-13.2-9.6-26.4-19.2-39.5-28.8-17.9-13.1-35.7-26.2-53.5-39.3-1.1-.8-2.5-1.1-3.8-1.7-.4 1.4-1.1 2.9-1.1 4.3-.1 18.1 0 36.3 0 54.4 0 5.9 0 5.9-5.7 5.9H5c-1.8 0-3.6.1-5.4.1V-.4h512.5c-.1 1.8-.3 3.5-.3 5.3 0 167.2.1 334.4.1 501.7v5.3H4.6c-1.7-.1-3.3 0-5 .1z" fill="#34c924"/><path d="M-.4 172c1.8 0 3.6-.1 5.4-.1h184.2c5.7 0 5.7 0 5.7-5.9v-54.4c0-1.4.7-2.9 1.1-4.3 1.3.5 2.7.9 3.8 1.7 17.9 13.1 35.7 26.2 53.5 39.3 13.2 9.6 26.4 19.2 39.5 28.8 14.5 10.6 29 21.3 43.5 32 19.1 14 38.2 28.1 57.3 42.1 8.5 6.3 17.1 12.5 25.6 18.8 3.9 2.9 3.9 4.6-.2 7.6-11.5 8.4-23.1 16.8-34.7 25.2-29.1 21.2-58.1 42.4-87.2 63.6-25.5 18.6-51.1 37.1-76.6 55.7-7 5.1-14 10.3-21.1 15.4-.9.6-2.1.9-3.1 1.3-.4-1.2-1.1-2.3-1.1-3.5-.1-18.4-.1-36.7 0-55.1 0-3.4-1-4.5-4.5-4.5-62.7.1-125.5.1-188.2.1-1 0-1.9.1-2.9.1V172z" fill="#fff"/></svg>