<svg xmlns="http://www.w3.org/2000/svg" viewBox="0 0 512 512"><path d="M256.6 288.9c-50.3.9-92-41.3-92-91.7 0-50.2 41.7-91.7 91.8-91.8 50.3-.1 92.1 41.7 92 91.9-.1 50.2-41.6 92.4-91.8 91.6z" fill="#d31226"/><linearGradient id="a" gradientUnits="userSpaceOnUse" x1="122.972" y1="391.717" x2="389.556" y2="391.717"><stop offset="0"/><stop offset="1" stop-color="#0000d4"/></linearGradient><path d="M256 412c-37.6 0-75.2.1-112.8-.1-3.4 0-7.1-.7-10.2-2.2-12.6-6-12.7-19-4.2-28 6.7-7.1 15-10.3 24.7-10.3 23.1.1 46.2.1 69.4.1 44.4.1 88.8.2 133.3.1 9.1 0 17.4 1.5 24.6 7.4 3.9 3.2 7.1 7.1 8.3 12.2 2.9 12.8-7.8 19.5-16.9 20.5-1.4.1-2.7.1-4.1.1H256v.2z" fill="url(#a)"/></svg>