<svg xmlns="http://www.w3.org/2000/svg" viewBox="0 0 512 512"><path d="M365.3 447c-50.1.3-89.2-37.9-89.3-87.2-.2-49.2 39.2-88.6 88.5-88.5 48.5 0 87.6 38.5 88.3 86.7.7 49.4-37.9 88.7-87.5 89zm-211.8 0c-50-.4-86.8-38.5-86.2-89.5.5-48.7 39.1-86.6 87.9-86.3 49.5.3 88.1 39.5 87.8 88.9-.3 49.4-39.4 87.3-89.5 86.9zm211.8-209.3c-50.1.3-89.2-37.9-89.3-87.2-.2-49.2 39.2-88.6 88.5-88.5 48.5 0 87.6 38.5 88.3 86.7.7 49.5-37.9 88.8-87.5 89zm-211.8 0c-50-.4-86.8-38.5-86.2-89.5.5-48.7 39.1-86.6 87.9-86.3 49.5.3 88.1 39.5 87.8 88.9-.3 49.4-39.4 87.4-89.5 86.9z" fill="#059fe0"/></svg>