<svg xmlns="http://www.w3.org/2000/svg" viewBox="0 0 512 512"><path d="M0 0h136.6v512H0zm293.4 0H384v512h-90.6z" fill="#e11c1d"/><path fill="#1774b1" d="M384 0h20.1v512H384z"/><path fill="#2a9f3a" d="M404.1 0H512v512H404.1z"/><path d="M136.6 0h27.3v512h-27.3z"/><path fill="#f18f25" d="M164 0h129.4v512H164z"/><path d="M139.5 164.3c.7 2.3.3 5.8 2.7 6.5 2.1.6 3.4-2.6 4.9-4.2 4.4-4.6 9.2-8.7 14.6-12 .7-.4 1.5-.7 1.8-1.6 16.8-9.6 35-12.7 54.1-12 14 .6 27.5 3.3 39.9 10 7.7 4.1 14.2 9.7 19.4 16.7 1.5 2 2.3 1.6 3.7.1 11.4-12.8 25.9-19.8 42.3-23.9 11.7-2.9 23.5-3.1 35.3-2.1 8.5.7 17 2.5 25 5.8.9.4 1.8.8 2.8.6 8 4.1 15.6 8.7 21.8 15.5 10.3 11.4 15.4 25 16.6 40 2.9 35.7.6 71.5 1.3 107.3v5.7c.1 10.1 5.6 14.2 15.2 11.1 3.5-1.1 7.1-2.3 10.1-4.4 2.3-1.5 3.1-.7 2.9 1.6-.6 10.9-1.3 21.7-2 32.6-.1 2-1.6 2.8-3.1 3.6-11.4 6.4-23.6 9.6-36.6 10-9.1.3-17.9-1-26.4-4-14.4-6.8-22.2-18-22.9-33.9-1.6-34.2-.4-68.5-.8-102.8-.1-8.2-.2-16.6-3.8-24.1-5-10.6-14-15.9-25.7-16.5-7.2-.4-14.3 0-21 3.4-10.3 5.1-16 13.6-18.3 24.6-1.9 8.7-2.3 17.6-2.3 26.4 0 39.9 0 79.8.1 119.7 0 3.6-.9 4.7-4.6 4.7-14.7-.2-29.5-.1-44.2-.1-4 0-7.9 1.1-12.1.2-2.3-.5-3-1.2-2.9-3.4.1-7.3 0-14.6 0-21.9V229.2c0-6.9-.4-13.9-2.7-20.5-3.8-11.1-12.5-16.8-23.6-18.4-11.1-1.6-21.7-.1-30.7 7.6-3.4 2.9-6.1 6.4-8 10.4-3.7 6-4.7 12.6-5.1 19.5-1.4 22.2-.5 44.5-.6 66.8-.2 23.2-.1 46.5 0 69.7 0 3.3-.9 4.4-4.2 4.2-3.9-.2-7.9 0-11.8.1-14.4 0-28.8-.1-43.1.1-3.2 0-4-.9-4-4 .1-56.2.1-112.4.1-168.6 0-5 0-5-4.8-5-5.9.1-11.7.1-17.6.3-3.1.1-4.5-.7-4.5-4.2.2-12.6.1-25.2 0-37.7 0-3.2 1.1-4.1 4.2-4 18.9.1 37.9.2 56.8 0 3.5 0 4.9 1.3 5.9 4.3 1.8 4.6 3.9 9.5 5.9 14.5z" fill="#fcfcfb"/></svg>