<svg id="Layer_1" xmlns="http://www.w3.org/2000/svg" viewBox="0 0 512 512"><style>.st1{fill:#61cbe8}</style><path fill="#401715" d="M0 0h512v512H0z"/><path class="st1" d="M164 234.4c2.6-2.1 5-4.3 7.6-6.1 6.4-4.4 13.4-6.3 21.1-5.1 9.5 1.5 14.6 8.1 12.9 17.5-1.5 8.1-3.5 16.2-5.6 24.2-1.5 5.8-3.4 11.5-5.2 17.2-1.3 4.2.3 6 4.5 4.8 3.1-.9 6-2.4 8.9-3.8.5-.3.9-1.4 1-2.1 1.1-21 10.3-37.7 26.6-50.6 5.2-4.1 11.3-6.7 18-7.3 2.9-.2 6-.2 8.8.4 6.9 1.4 11 6.6 11.7 14 .4 4.3-.7 8.3-2.7 12.1-4.7 8.5-11.5 15.3-19.1 21-6.2 4.6-12.9 8.7-19.5 12.8-1.8 1.1-1.8 2.1-.9 3.6 1.3 1.9 3 3.1 5.4 3 6.7-.1 13-2.2 18.7-5.5 4.6-2.6 9-5.7 13.2-9.1 6.2-5 13.1-4.2 17.2 2.7 1.4 2.3 2.5 4.9 3.8 7.3 1 1.8 2 3.5 3.3 5.1 2.5 3.1 6.8 4.2 9.9 2.8 3-1.4 5-5.3 4-9.2-.7-2.6-2-5.3-3.7-7.4-4.5-5.7-9.1-11.2-14.1-16.5-9.4-10-7.9-30 10.3-35.6.7-.2 1.5-.5 2.4-.8-2.4-5.1-3.1-10.3-2.2-15.7 2.1-12.8 12.5-22.3 25.4-23.5 5.7-.5 11.3.1 16.6 1.9 9.7 3.3 19.2 3.2 28.8-.6 2.1-.8 4.5-1.3 6.7-1.3 3.4 0 5.3 2.4 4.7 5.8-.5 2.7-1.4 5.3-2.2 7.9-2.4 8.1-4.9 16.2-7.3 24.3-.1.4-.2.8-.3 1.6h6.8c1.5 0 3-.1 4.6 0 3.8.2 6.5 2.9 6.5 6.5 0 3.7-2.8 6.3-6.8 6.4-4.4 0-8.8.1-13.2 0-1.5 0-2.1.5-2.5 1.9-3.1 10.7-6 21.4-9.5 31.9-4 12.2 4.9 23.5 18.8 22.4 12.5-1 21.8-7.2 28.1-17.8 8.6-14.5 11.7-30.3 9.7-46.9-4-31.7-19.2-57.4-43-78.2-13.7-12-29-21.5-46.6-26.7-17.9-5.3-36-5.5-54.1-1-4.3 1.1-8.3 3.2-12.4 5.1-5.3 2.4-10.9 1.6-14.7-2.4-4.7-4.9-4.3-11.8 1.1-15.9 6.3-4.9 13.6-7.3 21.3-8.4 52.4-6.8 94.5 11.4 126.6 53 13.7 17.7 23.6 37.5 28.7 59.4 4.9 20.9 4.1 41.6-4.4 61.6-6.1 14.3-16.2 24.5-31.6 28.5-10 2.6-20 3.2-29.7-1.3-14.5-6.8-22.2-23.5-17.7-38.8 5.9-20.1 12.1-40.2 18.1-60.3.2-.7.4-1.5.7-2.6-2.2-.2-4.3-.4-6.4-.4-6.1-.3-12.1-.8-18.2-.6-8.7.2-15.5 6-17 14-.3 1.4-.3 2.9-.1 4.3.7 4.5 1.1 4.7 5.6 4.7 2.6 0 5.2 0 7.8.4 5 .9 8.3 4.9 8 9.5-.3 5.1-3.9 8.6-9.3 9.1-4.3.4-8.1-.8-11.5-3.5-1.2-1-2.4-2.1-3.6-3.1-2.1-1.8-4.3-1.9-6.4-.5-1.8 1.2-2.7 3.7-1.7 6 .8 1.9 2 3.8 3.4 5.4 4.4 5.2 9.1 10.1 13.4 15.3 3.4 4.1 5.7 8.9 6.4 14.3 1.2 10.4-3.6 19.6-12.8 24.5-13.7 7.3-30.4 5.6-42.2-4.3-2.2-1.9-4.1-4.2-6-6.3-3.5 2.4-7 5.2-10.9 7.6-7 4.3-14.7 6.7-22.9 7.4-9.4.8-15.6-2.4-21.1-11l-3.3 1.8c-4.3 2.3-8.6 4.8-13 6.9-3.7 1.8-7.6 3-11.7 2.3-8.2-1.5-13-8.8-11-16.9 2.7-10.6 5.7-21.2 8.5-31.8.8-3.1 1.4-6.3 1.9-9.5.8-5.2-1.9-8-7.1-7.5-4 .4-7.2 2.5-10.2 5-.4.3-.7 1-.7 1.5-1.2 14.1-5.5 27.4-9.2 40.9-.9 3.3-1.9 6.7-2.8 10-1.8 6.2-6.8 9.7-12.1 8.4-6.1-1.5-9.7-7.3-8.1-13.7 2.1-8.2 4.7-16.4 6.8-24.6 2-7.5 4.1-15.1 5.4-22.7 1.5-9.1-4.2-15.3-13.4-15.4-14.5-.3-26.5 8.3-31.4 22.4-3.2 9.4-3.4 19-2.4 28.7 3 29.2 16.2 53.5 36 74.5 24.3 25.8 53.8 43.4 88.4 51.4 46.5 10.8 88.1 1 123.5-31.7 10.7-9.8 19.5-21.3 26.9-33.8 3.2-5.4 7.9-8.9 14.3-9.8 6.6-1 12.5 3.7 12.9 10.3.3 5.3-1.3 10.1-4.3 14.4-12.7 18.4-28.7 33.3-47.4 45.4-22.2 14.3-46.3 23.2-72.5 26-47 5-89.4-7-126.4-36.5-25-20-43.3-45-54.2-75.1-5.7-15.5-8.8-31.6-8.1-48.2.6-14 4.5-26.9 14.6-37.2 7.8-8 17.6-11.8 28.7-12.5 14.7-1 25.5 5.3 33 17.7 0-.2.2 0 .4.3zm67.3 35.3c.3.2.5.4.8.6 3.5-3.2 7.2-6.4 10.6-9.8 4.5-4.5 8.4-9.5 10.8-15.5.9-2.2 1.3-4.7 1.4-7.1.1-2.4-1-3.1-3.1-2.1s-4.2 2.1-5.8 3.6c-6.6 6.3-9.8 14.4-12.6 22.8-.9 2.5-1.5 5-2.1 7.5zm-116.1-74.5c-6.9-.1-11.3-4.7-11.3-11.8 0-2.4.5-5.1 1.7-7.2 26-47.2 65.4-76.5 118.2-87.7 10.2-2.2 20.5-3.2 31-3 1.6 0 3.3.5 4.8 1.1 1.6.7 2.6 2.2 2.1 3.9-.4 1.3-1.5 2.9-2.6 3.3-2.5.9-5.2 1.2-7.8 1.5-33.9 4.6-63.2 18.8-88.1 42.2-14.8 13.9-26.1 30.4-34.7 48.8-2.9 5.8-7.7 8.6-13.3 8.9z"/><path class="st1" d="M188 333.4c6.9 0 13.6-.1 20.3.1 2.7.1 4.8 1.6 5.9 4.1 1.1 2.4.5 4.5-1.4 6.2.1.2.1.4.2.5 2.2 1.6 3.4 3.5 2.7 6.3s-2.8 4.1-5.5 4.6c-1.7.3-3.4.3-5.2.3h-17.1c.1-7.4.1-14.6.1-22.1zm5.3 17.8h5.3c3 0 6.1.1 9.1-.2.9-.1 2.3-1.3 2.4-2.1.1-.8-1.3-2.4-2-2.4-4.9-.2-9.7-.1-14.7-.1-.1 1.6-.1 3-.1 4.8zm0-9.3c4.6 0 9.1.1 13.6-.1.7 0 1.4-1.5 2.1-2.2-.7-.6-1.4-1.8-2.2-1.8-2.7-.2-5.5-.1-8.2-.1h-5.3v4.2zm85.4-8.4h5.2v21.8c-3.4.3-6.3.4-9-2.6-3.8-4.3-8.4-7.9-12.4-11.5v14.2h-5.3v-21.8c3.4-.3 6.4-.7 9 2.5 3 3.8 6.7 7.1 10.1 10.7.6.7 1.2 1.4 1.8 2.2l.6-.3v-15.2zm27.3 11.7c-4.9 1.7-7 4.9-5.7 10.1h-5.5v-21.7h5.2v9.9c1.1-.7 1.7-1.1 2.4-1.5 3-2.1 6.3-4 9-6.4 3.1-2.8 6.6-2.2 10.8-2.1-4.3 3-8.1 5.7-12.2 8.6 4.5 4.5 8.8 8.7 13.5 13.4-2.5 0-4.4.1-6.3-.1-.7-.1-1.5-.7-2.1-1.3-3.1-2.9-6.1-6-9.1-8.9zm-54.6 10.2c-1.1 0-1.8-.1-2.4 0-2.3.4-3.9-.4-4.6-2.7-.5-1.7-1.7-2.2-3.5-2.1-3.5.1-6.9 0-10.4.1-.8 0-2 .6-2.2 1.1-1.2 3.8-3.9 4.1-7.3 3.4.1-.4.2-.8.4-1.1 3.5-6.5 7-12.9 10.4-19.4.6-1.2 1.4-1.2 2.6-1.4 4-.7 6 1.1 7.6 4.6 2.8 5.9 6.1 11.5 9.4 17.5zm-15.4-18c-1.7 3.1-3.2 5.9-4.8 8.9h9.6c-1.6-3-3.1-5.8-4.8-8.9z"/></svg>