<svg xmlns="http://www.w3.org/2000/svg" viewBox="0 0 512 512"><path d="M446.8 291.1c-2.4 3.8-4.8 7.6-7.5 11.9h13.9c3.9 5.1 7.3 9.5 10.9 14.3-3.7.3-6 .5-8.3.7.6 1.8 1.2 3.5 1.5 4.4-1.8.2-4.4.6-6.7.9-2.4-1.8-5.8-4.2-9.4-6.8-1.4 3-2.2 4.7-3 6.3-1.1-1.4-2.3-2.8-3.4-4.3-.4-.5-.2-1.5-.6-2-1.3-1.3-2.8-2.3-4.2-3.5.1 1.8-.1 3.6.3 5.3.2 1 1.2 1.8 1 4.4-1.5-.7-4.3-1.2-4.3-2-.7-9.5-5.8-6-10.6-3.9 1.3 2.4 2.5 4.7 4.1 7.9-2.4-.2-3.8.1-4.1-.4-4.8-6.6-10.3-6.4-16.8-2.5-1.9 1.1-5.4 1.2-7.2.2-7.7-4.6-15.8-.7-23.6-1.5-9.9-1.1-19.9-2.3-29.9-2.4-22.5-.1-43.3 5.8-58.7 23.1-10.8 12.1-6.2 35.7 8 46.3 13.5 10.1 29.5 12.6 45.6 13.7 17.5 1.2 35 1.6 52.4 2.7 3.9.3 7.8 2.2 11.5 4-92 5.3-183.8 5.2-276.1-.7 4.9-1.5 9.7-4 14.7-4.4 16.5-1.3 33.2-1 49.6-3.1 13-1.7 26.5-4.3 38.4-9.6 19.8-8.7 22.9-25.3 18-44.1-1.4-5.5-7.5-10.6-12.7-14-23.2-14.8-48.6-17.8-75.4-12.1-8.9 1.9-17.7 6.6-27.3 2.4-.8-.4-3.1 1.5-4 2.9-1.2 1.9-1.6 4.2-2.5 6.8-6.5-1.1-12.5-2.2-18.5-2.9-1.7-.2-3.5 1.1-5.3 1.3-2.1.2-4.3.1-5.7.1-5.7.8-10.8 1.6-15.5 2.3v-8.5c-2.8.1-5.7-.1-8.5.5-1.9.3-3.5 1.6-5.3 2.5-1.2-2.4-3.1-4.8-3.2-7.2 0-1.9 1.9-4.2 3.6-5.7 4.9-4.3 10.1-8.2 15.2-12.3 1.4.6 3 1.4 6 2.8-.5-3.4-.2-6.3-1.4-7.3-2.9-2.5-6.5-4.4-10-5.9-.8-.3-2.9 2.3-5.1 4.2-7.4-2.4-7-2.3-5.5-11.5 1.2-7.1 3.1-13 13-13.4-.5-.9-1-1.7-1.5-2.6-3.6-1.7-7.2-3.5-10.8-5.3.3-4.9.6-9.9 1-15.8 3.8.9 7.2 1.8 11.1 2.7-.6-4.1-1.5-7.7-1.5-11.3.1-7.4 4.6-10.4 11.6-8.1 2.6.9 5.4 1.9 8.1 1.8 1.4-.1 3.7-2.4 3.8-3.8.1-1.4-2.1-4.3-3.2-4.3-7.6.5-5-4.7-4.1-7.8.8-2.8 3.5-5 4.7-7.7.9-2.2 1.8-6.2.8-7-5.1-4.1-3.1-8.8-.7-12.2 1.2-1.7 6-.8 9.1-1.2.4 0 .8-.3 1.7-.7-.8-1.8-1.6-3.6-1.8-4.1 3.3-5.6 6.1-10.3 9.3-15.6 3.7 2.2 7.9 4.6 13.7 7.9-.4-4.9-.7-7.7-1-10.9 5.6-.7 11.4-6.6 15.2 2 1.3-.3 2.1-.4 2.1-.5-.8-11.7 11.9-18.3 11.4-30.4-.1-3.7 5.4-7.6 7.5-10.3h14.8c-.6-.4-1.2-.9-1.8-1.3 1.8-5.2 2.4-11.3 5.6-15.3 5.5-6.7 16-2.8 18.9 5.9.9 2.6 3.1 4.9 5.2 6.7 2 1.8 4.7 2.9 7.9 4.8 2.8-2 1.8-5.1-.5-8.6-1.6-2.5-6.5-5.1-1.5-8.5 4.8-3.2 5.6 2.1 7.8 4.3.9.9 2 1.8 4.2 3.7 1.4-4.5 2.3-8.2 3.8-11.7.9-2.1 2.2-4.6 4-5.3 1.5-.6 4 1 7 2 .7-.9 1.9-2.6 3.4-4.7 3.6 2.6 10.9 2.1 6.8 10.2-.2.4 2.6 3 3 2.8 2.8-1.6 5.5-3.5 7.9-5.7.6-.5-.3-2.5-.5-4.5 7.6-1.6 15-3.2 22.3-4.7 4.7-1 7.6-.7 5.3 5.5-1.7 4.4 1.7 5.2 5.1 4.9 2.7-.2 5.4-.9 6.6-1.2 5 4.7 8.9 8.4 13.5 12.7.4-.3 1.8-1 2.9-2.1 7-6.9 13.6-5.3 16.5 3.9 1.9 6 10.9 9.1 16.2 5.5 3.3-2.2 15.7 1.4 17.9 5.2.5.8.6 1.9 1.2 2.5 1.8 2 3.7 3.8 5.7 5.6.2.1 2.1-1.2 2-1.4-.7-2.5-1.7-4.9-2.6-7.2 4.9-1.5 7.1 2.3 10.7 20.6 5.6-2.4 9.9-.4 10.2 5.4.2 4.1-2.4 8.3-3.7 12.3 1.3 4.4 10-3.6 9.1 5.7-2.5-.2-4.4-.4-7.6-.7.7 2.9 1.2 5.1 2 8.2 4.4-3.1 12.4 0 9.4-11.3 9.1 3.6 16.5 6.5 24.5 9.7.9 3.4 2.1 8.1 3.7 14.4-2.3.7-5.7 1.9-10.1 3.3 1.4 8.5 12.7 5.9 16.6 14.2-2.1-1.5-2.6-2.2-3.3-2.4-2.1-.4-4.2-.7-6.3-.6-.4 0-1.3 2.6-1 2.8 1.5 1.3 3.2 2.4 5.1 3.1 2.1.8 4.4 1 6 1.3-1 3.6-1.9 6.7-2.9 10.1h-1.2c-2.9-.1-5.8-.2-8.7-.2 2 3.1 3.5 6.7 6.2 9 1.6 1.4 4.9 1.1 7.4 1.2 9.1.4 12.1 6.8 9.8 14.7-.4 1.4-1.8 3.2-3.1 3.7-4.8 1.9-6.6 7.3-2.9 10.8 1 .9 3.8.5 5.4-.2 2.4-1.1 4.4-3 7.3-5.1-.4 3-.6 5.1-.9 7.5 7.1 2.3 9.1 8 8.4 14.6-.8 7.1-7 8.4-12.6 9.9 2.4-3.1 4.8-6.2 7-9.4.4-.5.2-2.1-.2-2.4-.8-.4-2-.5-2.9-.3-2.9.8-5.8 1.8-8.8 2.7-1 7.8-1 7.8 4.9 8.7zm-246.5 8.6c1.9-.3 3.9-.5 5.6-.7-4.4-7.9-18.2-4.2-15.3-18.2-2.3 1.7-3.5 2.6-4.7 3.5l-3-6c-4.8 4.1-2.9 7.1.3 9.6 4.8 3.7 9.8 7.1 14.8 10.6-3.1-.2-5.7 1-3.6 4.2 2.6 3.9 6.2 7.2 9.6 10.4.6.6 3 .5 3.6-.2.7-.7.9-2.9.3-3.7-2.3-3.2-5-6.3-7.6-9.5zm172.4 11.1c-1.1 1.5-2.2 3-4.2 5.8 5.1.5 8.9 1.8 12.3 1 2.3-.6 5.4-3.9 5.5-6.2.1-1.9-3.1-4.5-5.4-6-.6-.4-3 1.8-4.6 2.8-1.3.9-2.6 1.9-3.9 2.8.7-2.1-2.7-15.7-4.2-16.5-.6-.3-1.3-.6-1.9-.7-5.4-.9-7.6 1.6-6.6 6.9-3.2-.4-5.8-.7-6.8-.8-1.6 4-2.7 6.7-3.9 9.7 4.5 7 11.4 8.6 18.3 3.9 1.6-1.2 3.6-1.9 5.4-2.7zm-84.8-18.1c1.6-2.4 3.1-4.9 5.5-8.7-5.5.6-9 .8-12.4 1.5-.6.1-1.3 3.4-1.1 3.5 2.7 1.3 5.5 2.4 8.2 3.5-.9 1.3-1.5 3.3-2.7 3.7-8.4 3-14.1 12-12.8 20.9.8 5.9 4.3 8.3 9.7 6.6 7.7-2.4 16-14.3 15.5-22.2-.3-7.7-3.5-10.5-9.9-8.8zm18.8 6.9c1.2.9 2.4 1.7 3.6 2.6-3.2 1.9-6.8 3.5-9.3 6-1.5 1.4-1.3 4.6-1.8 7 2.1.3 4.4 1.1 6.4.6 3.8-.9 7.6-2.4 11.1-4.1 6.9-3.3 14.8-15.4 12.8-23.8-2.2.5-4.3 1.1-6.5 1.6.2-.6.4-1.1.6-1.7-4.3-2-8.6-4-14.7-6.9 1.4 5.2 2.1 8.1 2.7 10.2-2.6.9-5.2 1.8-7.8 2.6.9 2.1 1.9 4 2.9 5.9zM174 294.1c-2.4-2.1-4.6-4.5-7.2-6.3-1.2-.8-3.2-.2-4.9-.3.7 1.4 1.2 2.8 2.1 4.1 1 1.4 2.9 2.5 3.3 4.1 2.4 9.9 7 13.4 17.3 12.8 6.4-.4 8.5-4.2 4.4-9.2-3.1-3.7-7.4-6.3-11.5-9.6-1.4 1.8-2.6 3.2-3.5 4.4zm14.7-133.5c-4-1.4-7.2-3.7-10-3.2-4.2.8-8.2 3.2-11.8 5.6-.9.6-.8 4.7.3 5.7 2.6 2.5 6 4.2 9.2 6.1.5.3 1.3 0 2.4-.1-.3-1.7-.6-3.2-1.1-5.6 8.2 3.3 6.9-4.8 11-8.5zm-15.9 148.5c-4.2-2.3-8.3-4.8-12.7-6.8-3-1.3-7.6-3.7-8.5 1.5-.5 3 1.7 7.7 4.2 9.6 5.9 4.3 11.3-.2 17-4.3zm-15.6-111.3c-1.4-2.2-2.6-4-2.9-4.5-5.9 1.7-10.8 2.9-15.6 4.5-1.5.5-3 2-3.8 3.4-1.2 2.2-1.7 4.6-2.9 8 2.6 0 5.7.9 6.9-.2 1.4-1.4 1.2-4.5 1.7-6.8 4.7 5.3 10.5 7.1 12.1 3.3-.6-1.3-1.3-3-1.9-4.5 2-1.1 3.8-2 6.4-3.2zm18.5 30.9c.5.6 1 1.1 1.6 1.7-2.1 1.2-4.2 2.4-6.7 3.8 0 6.4 2.4 8.4 10.5 7.9 1.2-2.9 2.3-5.7 3.3-8.2-1.7-3.3-2.6-7.2-5.1-9.3-3.5-2.8-8.2-4.5-13 1.6 3.6 1 6.5 1.7 9.4 2.5zm265 68.6c.7-.8 1.3-1.6 2-2.5-11-4.3-.8-13.1-5.9-20.3-2.8 3.8-5.1 6.8-7.7 10.2-.7.1-3.1 0-4 1.1-.8 1-.6 4.6.2 5 4.9 2.4 10.2 4.4 15.4 6.5zm-295.4 8.5c1.3-1.1 4-3.4 6.4-5.9 1-1.1 1.3-2.9 2-4.4-1.7-.1-3.9-.9-4.9-.1-2.8 2-5.1 4.6-7.4 7.1-3.6 3.9-6 7.9.7 11.6-.4 1-1 2.8-1.7 4.6.5.6.9 1.1 1.4 1.7 2.6-1.3 7.1-2.3 7.4-4 .3-2.7-2.1-5.9-3.9-10.6zm169.1-132.7c.2 1.1.5 2.1.7 3.2 3.7-3 8 5.2 12.2-2 .4-.6 8.2 3.2 12.5 5 .9-1.1 1.8-2.3 2.6-3.4l-5.7-2.4c-4.8-2.2-9.6-4.5-14.4-6.5-1.6-.7-3.5-.6-5.3-.8.7 1.9 1.5 3.8 2 5.2-.9.3-2.8 1-4.6 1.7zm-159.8 96.2c-3.6 2.5-7 4.9-10.4 7.3.3.5.5.9.8 1.4h-8.1c-.1.7-.3 1.4-.4 2.1 6.3 2 12.5 3.9 18.2 5.7-.1-5.7-.1-10.8-.1-16.5zm88.3 46.6c-3-2.8-6.2-6.5-6.7-6.2-3.2 2.2-5.9 5.3-8.8 8.1 2.9 1.8 5.6 4.7 8.6 5 1.9.2 4-3.8 6.9-6.9zm-28-9.5c0 3.2-.9 6.1.2 7.3 1.6 1.8 5.5 4.2 6.8 3.4 4.8-2.8 8.8-6.8 13.7-10.9-2.4-1.1-4.2-1.9-6.2-2.8-.8 2.1-1.5 4-2 5.4-4.5-.7-8.5-1.6-12.5-2.4zm-14.3-161.6c-1.5 1.4-3.6 2.5-3.7 3.7-.1 1.2 2 3.7 2.9 3.6 2.4-.3 5.3-1.1 6.7-2.7 1-1.2.8-5.1-.3-6.1-3.6-3.1-7.8-5.4-11.9-8-1.7 4.5-1.7 4.5 6.3 9.5zm143.8 154.6c-3.8-2.5-7.1-5.2-7.4-4.9-3.1 3-5.8 6.6-8.3 10.1-.1.2 2.8 3.2 3.2 3 3.7-2.2 7.3-4.7 12.5-8.2zm-96.6-1.4c-.6-4.8-.7-9.4-1.8-13.7-.4-1.3-3.6-2.3-5.6-2.6-.8-.1-2.9 2.6-2.7 3 2.5 4.6 1.3 11.9 10.1 13.3zM181 112.7c.2 2.8.4 5.3.6 7.8 2.6-1.2 5.4-2.2 7.8-3.8 1.7-1.1 2.9-3.1 4.3-4.7-.3-.5-.6-.9-.8-1.4-3.6.7-7.2 1.3-11.9 2.1zM378.6 151c-4.4-3.9-7.6-6.8-11.7-10.4-2.5 9.9 1.5 13.1 11.7 10.4zM87.2 271.4c-1.6-3.6-3-6.5-4.4-9.7-.7.1-1.8.1-2.9.4-1.7.5-3.4 1.1-5.1 1.7 1.2 1.2 2.6 2.2 3.6 3.5 1 1.4 1.6 3.2 2.5 5.2 1.9-.4 3.9-.8 6.3-1.1zm42.6 36.2c-.3.5-1.6 2.3-2.9 4.1.3.7.6 1.4 1 2.2 2.5-.8 5.7-.9 7.2-2.5 3.2-3.6.5-6.8-2.5-9.3-.8-.7-2.4-.3-3.6-.4.1 1.4.3 2.8.8 5.9zm-9.2 5.2c.6-2.5 1.1-4.7 1.4-6.1-1.7-2.2-3.5-4.4-5.2-6.6-4.6 4.9-2.9 10.6 3.8 12.7zM108.9 209c-.4-.6-.8-1.3-1.2-1.9-1.2 2-3.9 5.2-3.5 5.7 2.4 2.6 5.5 4.5 8.3 6.7.2-1.7 1.1-3.7.5-5.1-.7-2-2.6-3.6-4.1-5.4zm254 44.6c2.3-4.1 4-6.1 4.6-8.5.2-.8-3.1-3.5-3.9-3.2-1.8.8-3.9 2.7-4.3 4.5-.4 1.4 1.6 3.4 3.6 7.2zm-254.1-28.1c.4-.7.7-1.5 1.1-2.2-2.4-2.7-4.9-5.4-7.3-8-1.7 1.8-3.5 3.5-5.9 6 5 1.7 8.5 3 12.1 4.2zm152.8-108.7c-1.1 5 1.6 8 5.2 10.2.9.5 3.6-.6 4.3-1.7.5-.9-.4-3.4-1.5-4.2-2.1-1.7-4.7-2.7-8-4.3zM121 212c.5-.4 1.1-.8 1.6-1.2-2-2.6-3.6-5.9-6.3-7.4-1.6-.9-4.8.9-8.4 1.8 5.6 2.9 9.4 4.9 13.1 6.8zm85.5 88.2c1.5 4.3 2.8 8.3 4.6 13.4 3.6-12.1 3.6-12.1-4.6-13.4zm170-110.1c-3.2-2.2-4.9-4.2-6.6-4.2-1.4 0-2.8 2.4-4.1 3.7 1.5 1.1 2.8 3 4.4 3.2 1.4.3 3.1-1.2 6.3-2.7zm4.8-9.2c-.4.5-.9 1-1.3 1.5 1.5 2.1 3.3 6.1 4.4 5.9 3.2-.6 6.2-2.9 10.5-5.2-5.4-.8-9.5-1.5-13.6-2.2zM98.5 317.7c-1.7 3.1-2.7 4.6-3.4 6.2-.3.6 0 1.9.5 2.3.5.5 2.4.4 2.4.3 1.1-5.7 4.7.7 7.8-2.8-2.2-1.7-4.5-3.6-7.3-6zm286-92.3l1.5-.9v-8.1c-3 .1-5.7.3-8.4.4 2.4 2.9 4.6 5.7 6.9 8.6zm-223.6-78.1c3.2 7.9 5.4 8.6 11 4.1-4.1-1.5-7.5-2.8-11-4.1zm207.8 93.8c1.6-2.8 2.8-5 4.5-7.9-4.9.8-8.8 1.4-14.4 2.3 4.4 2.5 7.1 4 9.9 5.6z" fill="#aa8049"/></svg>