<svg id="Layer_1" xmlns="http://www.w3.org/2000/svg" viewBox="0 0 512 512"><style>.st0{fill:#ff7901}</style><path class="st0" d="M511.8 507.5V3.4c0-1.1.1-2.3.2-3.4H0v512c1.1-.1 2.3-.2 3.4-.2h504.1c.6 0 1.3-.1 1.9 0 1.9.3 2.6-.5 2.4-2.4-.1-.6 0-1.3 0-1.9zM96.7 446.2c-4 13.7-13.1 21.8-27.2 24-9.4 1.5-18.4.3-26.6-5-9-5.7-13.3-14.4-14.8-24.6-.3-2.5-.4-5.1-.6-7.6.1-9.1 1.9-17.7 7.5-25 5.7-7.4 13.5-11.2 22.6-12.4 7-1 13.7-.3 20.1 2.4 12.3 5.1 18.4 14.9 20.2 27.7 1 6.9.8 13.8-1.2 20.5zm54.8-34.6c0 1.5-.6 2.1-2.1 2.2-3.8.3-7.5.8-11.2 1.4-1.5.2-2.9 1-4.1 1.8-2.4 1.5-3.6 3.5-3.6 6.5.1 14.1 0 28.2.1 42.3 0 2.1-.5 2.9-2.7 2.8-4.8-.2-9.7-.1-14.5 0-2 .1-2.6-.6-2.6-2.5v-66.3c0-2.9 0-2.9 2.8-2.9 4.3 0 8.7.1 13 0 2.1-.1 2.8.7 2.6 2.7-.1 1.4 0 2.9 0 5 3.8-3.7 7.7-6.5 12.5-7.8 2.4-.7 5-1 7.5-1.3 1.5-.2 2.3.5 2.3 2.2-.1 4.6-.1 9.3 0 13.9zm67.9 55c0 .5 0 .9-.1 1.8h-5.5c-3.1 0-6.3-.1-9.4 0-1.4.1-2.2-.3-2.5-1.8-.3-1.3-.8-2.6-1.1-3.5-4.5 1.7-8.7 3.7-13.2 4.9-6.7 1.8-13.5 2.2-20.1-.6-9.1-3.9-12.2-13.4-11.4-21.4.8-7.3 4.8-12.6 11-16.3 7.1-4.3 14.9-6.2 22.9-7.7 3-.5 6.1-.9 9.1-1.3 1.1-.2 1.6-.6 1.7-1.9.2-6.4-2.5-9.4-9-9.8-7.2-.5-13.3 1.4-18.3 6.8-.4.4-1.3.9-1.7.7-4.1-2.2-8.1-4.5-12.7-7.1 2.8-2.6 5-5.1 7.7-7.3 5.7-4.3 12.3-6.2 19.3-6.7 6.1-.4 12.2-.1 18.1 1.8 7.8 2.5 13.4 7.3 15 15.8.1.7.2 1.4.2 2.1v51.5zm78.7-.5c0 2.8-.1 2.8-2.9 2.8-4.6 0-9.3-.1-13.9 0-2.1.1-2.6-.7-2.6-2.7.1-14.2.1-28.5 0-42.7 0-2.5-.1-5.1-.6-7.6-.8-4-3.3-5.8-7.4-6-6.8-.2-12.2 3.1-17.2 7.3-.6.5-.7 1.6-.7 2.5V466c0 2.9 0 2.9-3 2.9-4.7 0-9.4-.1-14.1 0-1.6 0-2.1-.5-2.1-2.1.1-21.9.1-43.9 0-65.8 0-1.5.6-2.1 2-2.3 4.1-.5 8.3-1.1 12.4-1.7 1.2-.2 1.7.3 1.9 1.4.3 2.2.8 4.3 1.3 6.6 2.8-1.7 5.3-3.4 8.1-5 7.4-4.3 15.4-5.7 23.8-3.7 8.3 2 13.7 8.1 14.6 16.6.2 2.6.4 5.3.4 7.9v45.3zm79.3 2.4c0 7.7-2 14.9-8.1 20.2-4.4 3.9-9.7 5.8-15.4 6.8-8.6 1.5-17.1 1.7-25.5-1.1-6.9-2.2-12.4-6.1-15.1-13.1-1.1-2.7-.9-2.9 2-3.3 4.8-.7 9.7-1.5 14.5-2.2.6-.1 1.7.3 1.8.7 1.1 3.5 3.7 5.1 7 5.4 3.4.4 6.9.6 10.2.2 5.4-.7 8.8-4.3 9.5-10 .5-4 .5-8.1.7-12.4-.4.2-.6.2-.7.2-3.8 6.4-9.8 9.1-17 9.2-11 .2-19.8-3.9-25.6-13.6-3.1-5.1-4.5-10.7-5-16.6-.9-10.5.2-20.6 5.9-29.8 4.4-7.1 10.6-11.8 18.9-13 6.3-.9 12.5-.3 18.2 2.9 2.3 1.3 4.2 3.3 6.3 5 .3-1.5.7-3.2 1-5 .3-1.3.8-1.9 2.3-1.9 4.1.1 8.1.1 12.2 0 1.5 0 2 .5 2 2 0 23.1.1 46.3-.1 69.4zm74.4-32.7h-41.6c-2.7 0-3.5-.4-2.8 3 .6 2.7.9 5.5 1.9 8 2.1 5.4 6.4 8 12 8.6 7.1.7 13-1.6 17.2-7.6.8-1.3 1.5-1.5 2.9-.7 4 2.4 8 4.5 12.3 6.9-2.9 5.3-6.8 9.2-12 11.6-11.4 5.5-23.1 6.2-34.9 1.5-6.8-2.8-11.8-7.8-14.7-14.5-5.4-12.7-5.6-25.8-.5-38.6 4.7-11.8 14.2-17.6 26.8-18.5 5.2-.4 10.3 0 15.2 1.6 11.3 3.6 17.5 11.8 19.9 23 .9 4.1 1.1 8.5 1.3 12.7.1 2.9-.1 3-3 3zm9.9-62.1c-1.1 0-2 0-2.9.1-4.2 0-4.2 0-4.2 4.3 0 4.6-.1 9.3 0 13.9 0 1.6-.3 2.3-2.1 2.3-1.7 0-2.4-.5-2.4-2.3 0-5.3-.1-10.7 0-16 0-1.6-.4-2.4-2.2-2.2-1.1.1-2.3-.1-3.4 0-1.2 0-1.9-.3-1.9-1.7 0-1.2.3-2 1.8-2H460c2.9 0 1.4 2 1.7 3.6zm30.4 18.7c0 1.4-.6 1.8-1.9 1.8-1.5 0-1.9-.5-1.9-2 0-5.4 0-10.9-.3-16.5-1.2 3-2.4 6.1-3.6 9.1l-3 7.5c-.4 1.1-.8 1.9-2.2 1.9-1.4 0-1.7-1-2.1-2-2.2-5.4-4.3-10.9-6.5-16.4h-.3c0 5.4-.1 10.8 0 16.4 0 1.6-.5 2.2-2.2 2.2-1.6-.1-2.4-.4-2.4-2.3.1-6.5.1-13.1 0-19.6 0-1.8.7-2.4 2.4-2.3 4.9.1 3.8-.6 5.6 3.8 1.8 4.3 3.4 8.7 5.4 13.6.9-2.3 1.6-4.1 2.3-5.8 1.2-3.2 2.5-6.4 3.6-9.6.5-1.6 1.4-2.3 3.1-2.1.7.1 1.4 0 2.1 0 1.4-.1 1.9.4 1.9 1.8-.1 6.8-.1 13.7 0 20.5z"/><path class="st0" d="M355.8 416.7c-2.8-5-7.1-7.6-12.8-7.4-5.9.2-9.9 3.6-11.6 9.1-1.2 3.8-1.6 8-2.4 12 .8 4.7 1.3 9.3 2.4 13.8 1 3.9 3.5 7 7.5 8.1 7.1 2 14.7 0 17.8-8.5 1.8-5.1 2.1-10.3 2-15.6-.1-4-.9-7.9-2.9-11.5zm-287-4.3c-9.1-2.7-17.8.1-20.8 10.5-2 6.7-1.9 13.5 0 20.2 2 7 7.1 10.9 13.8 11 8.6.2 13.6-2.9 16-10.5 1-3.4 1.4-7 2-10.4-.6-3.6-.9-7-1.9-10.3-1.3-4.9-4-9-9.1-10.5zm131.1 20.4c-.7-.1-1.3-.2-1.7 0-5.3 1.4-10.7 2.6-15.9 4.4-2.2.7-4.3 2.6-5.7 4.5-2.5 3.3-2.5 7.2-.4 10.8 1.8 3.2 4.9 4.2 8.4 3.8 3.9-.5 7.5-2 10.9-4 3.2-1.9 5-4.2 4.5-8.2-.4-3.7-.1-7.5-.1-11.3zm226.4-23.7c-9.4-2.1-16.4 1.7-18.3 11.6-.3 1.8.1 2.5 2 2.5 3.9-.1 7.8 0 11.7 0 4.1 0 8.1 0 12.2-.1 1.3 0 2.1-.3 1.9-1.8-.5-5.1-2.8-10.7-9.5-12.2z"/></svg>