<svg id="Layer_1" xmlns="http://www.w3.org/2000/svg" viewBox="0 0 512 512"><style>.st1{fill:#fff}</style><path d="M-.8 0H512v512H0c0-12.9-.7-20-.7-32.4C-.7 319.8-.8 159.9-.8 0zm72.5 223.3c-.9.1-1.3.1-1.5.2-.5.4-.9.8-1.3 1.3-15 19.2-27.6 39.6-33 64-3.8 17-3.9 33.6 1.5 50.1 8.2 24.9 23.4 44.7 44.1 60.5 12.1 9.3 25.6 16.3 39.8 21.9 16 6.3 32.6 10.2 49.4 12.5 23 3.2 46.2 3.8 69.3 1.6 13.8-1.3 27.7-2.2 41.2-5.1 16.7-3.6 33.3-8.3 49.5-13.7 18.3-6.1 35.7-14.4 52.5-23.8 18.8-10.4 36.8-21.9 52.9-36 8.7-7.7 17.3-15.5 23.7-25.4 10.1-15.6 14.1-33.3 16.6-51.4.3-2-1.1-4.2-1.6-6.3-1.8 1-3.7 2-5.5 3.1-.4.2-.7.7-1 1.1-11.3 12-23.3 23.2-36.5 33.1-16.3 12.1-33.5 22.8-51.9 31.4-8.6 4.1-17.2 8.2-26.2 11.2-13.2 4.4-26.7 8.2-40.2 11.4-10.2 2.4-20.7 3.9-31.1 5.1-23.5 2.7-47 1.5-70.3-2.9-4.7-.9-9.3-2.6-13.5-4.9-5-2.6-5.5-7.3-1.7-11.4 2.6-2.8 5.4-5.6 8.6-7.5 10.2-6 20.6-11.7 31-17.4 21.8-11.8 42.5-25.2 61.7-40.9 14.8-12.1 29.3-24.8 42.8-38.4 23.7-24.1 44.3-50.6 55.5-83.2 3.8-10.8 6.3-21.9 5.3-33.4-1.6-18.6-10.5-32.5-27.3-40.8-16.2-7.9-33.6-9.3-51.4-8.2-16.7 1-33 4.5-49.2 8.7-1.4.4-2.8 1-4.1 1.6 1 1.2 1.9 1.5 2.8 1.7 5.4 1.1 10.9 1.8 16.3 3.3 15.2 4.1 25.3 17.4 25.2 33.2-.1 13.1-4.9 24.9-11.2 36.1-9.3 16.5-21.5 30.8-35.4 43.5-30.4 27.7-64.9 48.7-104.4 61-19.3 6-39 9.4-59.3 6.4-9.3-1.3-18-4.6-24.9-11.3-9.4-9.2-11.4-20.7-9.2-33.2.6-3 1.3-5.8 2-8.8zm82.9.4c7.1-1.6 14-2.7 20.7-4.8 14-4.4 26.6-11.8 37.9-21.2 9.6-8 18.3-16.8 22.7-28.8 4.4-11.9 1.8-22-12.3-25.3-9.6-2.3-18.7.2-27.7 3-16 5.1-30.1 13.6-42.5 25-8.7 8-16.2 16.9-19.9 28.5-2.7 8.5.4 16.7 8.5 20 4 1.7 8.3 2.4 12.6 3.6z" fill="#cf2732"/><path class="st1" d="M71.7 223.3c-.7 3.1-1.4 5.9-1.9 8.7-2.2 12.5-.2 24 9.2 33.2 6.9 6.7 15.6 9.9 24.9 11.3 20.3 2.9 39.9-.4 59.3-6.4 39.5-12.3 74-33.3 104.4-61 13.9-12.7 26.2-27 35.4-43.5 6.3-11.2 11.1-23 11.2-36.1.1-15.7-10-29.1-25.2-33.2-5.3-1.4-10.8-2.2-16.3-3.3-.9-.2-1.8-.5-2.8-1.7 1.4-.5 2.7-1.2 4.1-1.6 16.2-4.3 32.5-7.7 49.2-8.7 17.8-1.1 35.2.3 51.4 8.2 16.9 8.3 25.8 22.2 27.3 40.8 1 11.5-1.5 22.6-5.3 33.4-11.3 32.5-31.8 59.1-55.5 83.2-13.4 13.6-27.9 26.3-42.8 38.4-19.2 15.6-39.9 29.1-61.7 40.9-10.4 5.6-20.8 11.3-31 17.4-3.2 1.9-6.1 4.7-8.6 7.5-3.8 4.1-3.3 8.8 1.7 11.4 4.2 2.2 8.8 4 13.5 4.9 23.3 4.4 46.7 5.6 70.3 2.9 10.4-1.2 20.9-2.7 31.1-5.1 13.5-3.2 27-7 40.2-11.4 9-3 17.6-7.1 26.2-11.2 18.4-8.7 35.6-19.3 51.9-31.4 13.2-9.9 25.3-21.1 36.5-33.1.3-.4.6-.8 1-1.1 2.5-3.2 5.5-3.1 5.5-3.1s2.1 2.5 1.6 6.3c-2.5 18.1-6.6 35.7-16.6 51.4-6.4 9.9-15 17.7-23.7 25.4-16.1 14.2-34.2 25.6-52.9 36-16.9 9.4-34.3 17.7-52.5 23.8-16.3 5.4-32.8 10.2-49.5 13.7-13.5 2.9-27.4 3.8-41.2 5.1-23.1 2.1-46.3 1.5-69.3-1.6-16.9-2.3-33.5-6.2-49.4-12.5-14.3-5.6-27.7-12.6-39.8-21.9-20.6-15.8-35.9-35.6-44.1-60.5-5.4-16.5-5.3-33.1-1.5-50.1 5.5-24.3 18-44.7 33-64 .4-.5.8-.9 1.3-1.3.1-.1.6 0 1.4-.1z"/><path class="st1" d="M154.6 223.7c-5.5-.7-8.6-1.9-12.5-3.5-8.1-3.3-11.1-11.5-8.5-20 3.7-11.6 11.2-20.5 19.9-28.5 12.3-11.4 26.5-19.9 42.5-25 8.9-2.8 18-5.3 27.7-3 14.1 3.3 16.7 13.4 12.3 25.3-4.4 11.9-13.2 20.8-22.7 28.8-11.3 9.4-23.8 16.8-37.9 21.2-6.8 2-12.7 4.9-20.8 4.7z"/></svg>