<svg id="Layer_1" xmlns="http://www.w3.org/2000/svg" viewBox="0 0 512 512"><style>.st1{fill:#fcfdfc}</style><path fill="#61c442" d="M0 0h512v512H0z"/><path class="st1" d="M278.2 437.5c-40.2 0-80.4.1-120.6 0-32.1-.1-57.9-13-76.6-39.3-10.1-14.1-15.8-30-15.9-47.4-.3-63-1.1-125.9.2-188.9.7-36.4 20-62.6 52.8-78.6 12.5-6.1 25.8-8.4 39.7-8.3 74.8.1 149.7.1 224.5.1 10.2 0 12.3 2.1 12.3 12.3 0 3.3.1 6.5 0 9.8-.2 6.2-3.1 9.1-9.4 9.4-2.8.1-5.5 0-8.3 0H154.8c-6.9 0-10 1.8-9.9 5.8.1 3.8 3 5.4 9.9 5.4 85.1 0 170.2.1 255.3.1 2.6 0 5.2-.1 7.8.2 5.8.6 9.7 4.5 9.7 10.3.1 23.4 0 46.9.1 70.3 0 4.6-3 4.2-5.9 4.3-28.5 0-56.9 0-85.4.1-15.3 0-25.5 7.5-30.4 21.9-.9 2.5-1 5.1-1 7.7 0 20.2-.1 40.3 0 60.5.1 15.1 11.8 28.1 26.9 28.9 14.8.8 29.6.4 44.4.5 15.3.1 30.6.1 45.9 0 4.2 0 5.7 1.5 5.7 5.7-.1 30.7-.4 61.5 0 92.2.1 9.9-8.7 17.2-16.9 17.1-12.2-.2-24.4 0-36.6 0-32.1-.1-64.2-.1-96.2-.1zM155 316.6c28.6-.4 55.3-7.6 78.9-24.2 15.3-10.8 28.3-23.9 35.9-41.5 2.9-6.6 5.3-13.8.5-20.4-5.3-7.2-13.4-6.9-21.4-6.2-.8.1-1.6.3-2.4.4-7.9 1.1-15.5 3.6-22.8 6.7-3 1.3-8.4 1.9-6.6 6.6 1.7 4.4 6.1 2 9.4.9 7.7-2.5 15.5-4.9 23.7-4.8 7.9 0 11.2 4.9 8.9 12.3-2.2 7.2-6.6 13-11.7 18.3-16.3 16.7-36.2 27.3-58.5 33.4-13.4 3.7-27.1 5.4-41 3.7-10.1-1.3-19.4-4.2-23.6-15.2-4-10.6-.5-19.4 6.1-27.5 6-7.3 13.5-12.6 21.5-17.4 17.1-10.2 35.5-17.5 54.3-23.7 4-1.3 8.1-2.6 11.8-4.5 4.1-2.1 3.9-5.4-.2-7.6-2.9-1.6-5.9-1.2-9-.5-24.2 5.1-47 13.8-68.2 26.4-15.5 9.2-29 20.8-37.5 37.3-8.4 16.3-1.4 34.6 15.6 41.2 11.7 4.7 23.8 6.5 36.3 6.3zm50.2-55v11.7c0 1.7.2 3.4 2.5 3.4 5.2 0 10.5.5 15.5-.6 6-1.4 8.3-7.7 4.6-12.6-1.4-1.8-1.8-2.9-.8-5.1 2.6-6-.1-10.3-6.7-10.9-3.9-.3-7.8-.1-11.7-.2-2.5-.1-3.6 1-3.5 3.5.2 3.6.1 7.2.1 10.8zm-12.9-.2h-1.2c-1.9.3-4.7-1-5.2 2.1-.4 3 2.2 2.5 4.1 2.8 1.3.2 2.1.9 2.2 2.2 0 1.5-1 2.3-2.2 2.9-3.5 1.7-6.9 1.8-10-.9-3.2-2.8-4.1-8.9-2.2-13.2 1.6-3.5 4.5-5 8.3-4.8 2 .1 3.7 1.2 5.1 2.7 1.6 1.7 3.7 1.9 5.2.4 2.1-2.1-.3-3.6-1.5-4.8-4.3-4.6-14.5-4.4-19.2.2-5.7 5.5-6.3 15.9-1.2 21.9 4.6 5.4 16.3 6.4 21.9 1.6 3.6-3 2-7.3 1.6-11-.7-3.4-4-1.6-5.7-2.1zm-36.2 16c7.7 0 11.5-2.7 12-8 .5-5.2-3-8.8-9.6-10.2-1.7-.4-3.5-.9-5.1-1.5-1.1-.4-2-1.3-1.9-2.6.1-1.3 1.2-1.9 2.3-2.3 2.7-1.2 5-.4 7 1.8 1.6 1.7 3.8 2.9 5.4.9 1.8-2.2 0-4.4-2-5.6-3.6-2.3-7.6-2.9-11.7-1.8-3.7 1-6.5 3.1-6.7 7.3-.2 4.2 2.4 6.6 6 7.9 2.4.9 5 1.4 7.5 2.2 1.6.5 3 1.5 2.9 3.4-.2 2.1-1.6 3.2-3.5 3.5-3.3.7-6.1-.2-7.9-3.3-1.1-1.8-3-2.3-4.6-1.2-2.1 1.4-.8 3.1.1 4.6 2.3 4 6 5.2 9.8 4.9z"/><path class="st1" d="M382 310.9c-14.1 0-28.3.1-42.4 0-14.4-.1-21.1-6.8-21.1-21.3 0-18-.1-36.1 0-54.1 0-12.5 7.5-20.1 20-20.2 29.3-.1 58.5 0 87.8.1 12.4.1 20 7.7 20.1 20.2.1 18.4.1 36.7 0 55.1-.1 12.9-6.9 19.9-19.8 20-14.8.2-29.6 0-44.4 0-.2.1-.2.2-.2.2zm5.4-47.5c.1-11.9-9.3-21.5-21.1-21.5-11.6 0-20.9 9.3-21 21.1-.1 12.1 9.1 21.5 21 21.5 11.7-.1 21-9.3 21.1-21.1zm-171 8.4c-3.2.3-5.4-.2-5.3-4.3.1-3.9 2.3-4.1 5.1-3.9 3.1.2 6.9-.2 7 4.1.2 4.4-3.8 3.9-6.8 4.1zM216 259c-1.9-.2-4.8.8-4.8-3.2-.1-3.6 2.3-3.7 4.8-3.7 2.7.1 6.2-.3 6.2 3.5 0 3.4-3.2 3.4-6.2 3.4z"/><path class="st1" d="M366.3 273.9c-5.5.1-10-4.3-10-9.7 0-5.4 4.4-9.8 9.9-9.8 5.3.1 9.6 4.3 9.8 9.5.2 5.4-4.2 9.9-9.7 10z"/></svg>