<svg xmlns="http://www.w3.org/2000/svg" viewBox="0 0 512 512"><path d="M0 0c41.6 0 83.3-.1 124.9-.1H512V512H0V0zm496 496.1V15.8H16.1v480.3H496z"/><path d="M496 496.1H16.1V15.8H496v480.3zM190.2 251C139.8 300.7 90 349.9 39.5 399.7c22.2 21.1 43.8 41.7 65.9 62.6 47.4-48.1 96.2-97.6 145.9-148 51.2 51 101.8 101.5 152.6 152.1 20.6-21 41.3-42.2 63-64.4-49.6-49.4-99.7-99.2-149-148.4 8.1-8.5 15.8-16.2 22.9-24.5 2.5-3 4.6-7.3 4.8-11.1.5-14.5.2-28.9.2-43.4 0-10.3 5.9-18.1 16.8-21.7 0 12.5-.1 25 .1 37.4 0 2.6.5 6 2.2 7.6 6.9 6.2 14.3 11.9 22.8 18.8 23.3-23.8 46.1-47.2 69-70.6 7.9 5.9 15 11.3 23 17.3.7-5.2 1.4-8.5 1.6-11.7.2-2.3-.1-4.6-.4-6.8-4.4-34.2-20.8-61.9-47.1-83.3C404.7 38.1 376 40 349.4 66c-22.3 21.9-44.4 44-66.5 66-1.7 1.7-3.3 3.6-5.1 5.6 5.1 6.2 9.7 11.9 12.7 15.5-11.9 13-23.2 25.5-34.8 38.2-11.7-12.2-22.9-23.9-34.4-35.9 5.3-4.9 11.2-10.3 19.2-17.7-3.1-1.9-5.8-3-7.8-4.9-23.6-22.7-47.2-45.4-70.7-68.2-27.5-26.6-61-27.3-89-1.4-22.5 20.8-34.2 47.4-39.7 77.1-1.2 6.7-1.5 13.5-2.2 20.3.6.1 1.3.3 1.9.4 6.8-5.6 13.6-11.2 20.7-17 23 24.7 45.4 48.8 68 73.1 3.8-3.1 6.6-6.1 10.1-8.1 12.2-7.2 17.1-17.3 15-31.6-1.1-7.7-.2-15.8-.2-23.9 11.4 4.4 15.4 11.5 14.5 22.8-1 13.1-.5 26.4-.1 39.6.1 3.4 1.8 7.4 4.1 9.9 7.9 8.6 16.4 16.6 25.1 25.2z" fill="#fff200"/><path d="M190.2 251c-8.7-8.7-17.1-16.6-25-25.2-2.3-2.5-3.9-6.5-4.1-9.9-.5-13.2-1-26.5.1-39.6.9-11.3-3.1-18.4-14.5-22.8 0 8.1-.9 16.2.2 23.9 2.1 14.3-2.8 24.4-15 31.6-3.4 2-6.3 5-10.1 8.1-22.6-24.3-45-48.4-68-73.1-7.1 5.8-13.9 11.4-20.7 17-.6-.1-1.3-.3-1.9-.4.7-6.8 1-13.6 2.2-20.3 5.5-29.6 17.3-56.2 39.7-77.1 28-25.9 61.5-25.2 88.9 1.4 23.5 22.8 47.1 45.6 70.7 68.2 2 1.9 4.7 3 7.8 4.9-8 7.4-13.9 12.8-19.2 17.7 11.5 12 22.6 23.7 34.4 35.9 11.6-12.7 23-25.2 34.8-38.2-3-3.7-7.6-9.3-12.7-15.5 1.8-2 3.3-3.9 5.1-5.6 22.2-22 44.2-44.1 66.5-66 26.6-26.1 55.4-28 84.3-4.4 26.3 21.5 42.8 49.1 47.1 83.3.3 2.3.5 4.6.4 6.8-.2 3.3-.9 6.5-1.6 11.7-8.1-6.1-15.2-11.4-23-17.3-22.9 23.4-45.7 46.7-69 70.6-8.5-6.9-15.9-12.6-22.8-18.8-1.7-1.5-2.1-5-2.2-7.6-.2-12.4-.1-24.9-.1-37.4-10.8 3.6-16.8 11.4-16.8 21.7 0 14.5.3 29-.2 43.4-.1 3.8-2.2 8.2-4.8 11.1-7.1 8.3-14.9 16-22.9 24.5 49.3 49.1 99.4 99 149 148.4-21.7 22.2-42.4 43.4-63 64.4-50.8-50.6-101.4-101-152.6-152.1-49.7 50.4-98.5 99.9-145.9 148-22-20.9-43.6-41.5-65.9-62.6 50.6-49.8 100.4-99 150.8-148.7z"/></svg>