<svg id="Layer_1" xmlns="http://www.w3.org/2000/svg" viewBox="0 0 512 512"><style>.st1{fill:#4ab6e6}</style><path fill="#edeff0" d="M0 0h512v512H0z"/><path class="st1" d="M455.9 258.3c8.2 5.7 15.5 12.2 20.4 21.2 8.7 15.9 4.9 41.4-7.8 54-12.1 12.1-27.4 15.9-43.4 18.5-13.7 2.2-27.5.4-41.2 0-2.4-.9-5-.9-7.5-.8-.4-.2-.8-.4-1.3-.5-3.5-.7-7-1.3-10.5-2-.8-.1-1.6-.1-2.4-.2l-11.1-4.5c-1.9-.8-3-1.8-3-4.1.1-53.5.2-107 .1-160.5 0-4.3 1.3-6.5 5.3-7.8 11.2-3.8 22.7-6.1 34.4-7.3 12.9-1.4 25.9-1.3 38.6 1 19.1 3.4 36.7 10.3 45.1 29.7 9.4 21.6 1.2 46.7-23 56.1-1.7.7-3.6.9-5.5 2.6 4.6 1.5 8.7 3 12.8 4.6zm-22.4 21.2c-2.2-6.3-7.4-9.3-13-11.6-8.6-3.5-17.7-3.2-26.7-3.4-3.7-.1-4.8 1.6-4.8 4.8.1 14.3.1 28.7.2 43 0 3 .1 6-.1 9-.1 2.6.9 3.8 3.5 4.4 5.7 1.3 11.4 1.5 17.1 1.2 11-.6 20.7-4.2 25.2-14.8 4.6-10.8 4.6-22-1.4-32.6zm-44.6-62.3v23.7c0 2.2.4 3.5 3.1 3.4 7.6-.2 15.2.4 22.7-1.6 9.2-2.4 16-7.2 19-16.8 1.6-5.3 1.6-10.6 1-15.8-1.2-10.1-6.1-17.8-16.4-21-8.3-2.6-16.6-2.1-25.1-.5-3.3.6-4.3 2.2-4.2 5.3 0 7.8-.1 15.5-.1 23.3z"/><path d="M41.9 263c0-27.7.1-55.5-.1-83.2 0-3.9 1.3-5.5 4.9-6.8 19.3-7.1 39.4-9.1 59.7-8.1 14.3.7 28.1 3.8 40.3 12.1 13.4 9.1 20.3 22 22.1 37.7 1.2 10.3.8 20.6-3 30.5-6.8 17.7-20.1 28.2-37.8 33.5-13.4 4.1-27.2 5.4-41.2 3.8-3.3-.4-2.5 2.1-2.5 3.7v44.4c0 5.8-.1 11.5 0 17.3.1 2.6-.9 3.5-3.5 3.5-11.8-.1-23.6-.2-35.4 0-3.8.1-3.6-2.1-3.6-4.7.1-27.9.1-55.8.1-83.7zm42.4-38.9c0 9.5.1 19-.1 28.5-.1 3.2.8 4.6 4.2 4.9 5.2.5 10.3.4 15.4-.4 11.6-1.7 20.3-10 22.8-21.6 1.5-7.1 1.8-14.2.7-21.3-1.5-9.8-4.9-18.4-15-22.3-7.8-3.1-15.8-3.3-24.1-1.5-2.9.6-4 1.8-4 4.9.2 9.6.1 19.2.1 28.8z" fill="#94c970"/><path class="st1" d="M241.7 213.3c2.6-8.7 4.5-16.2 7-23.5 3.7-11.4 14.9-17 26.4-13.7 4.4 1.3 6.7 4.2 6.9 8.8.2 5.6-1.8 10.7-4 15.7-11.1 24.7-19.8 50.1-23.8 77-.9 5.8-5.6 9.8-11.3 9.6-4.7-.2-7.2-2.4-7.2-7.2-.1-13.1-.5-26.1 1.5-39.2 1-6.2.1-5.3-4.5-5.4-4.9-.1-9.7-1.3-14.5-1.6-8.2-.6-16.3.2-24.3 2.2-10.4 2.5-13.9-1.2-11.9-11.8 2.7-14.2 9.4-19.7 23.9-20.3 10.6-.5 20.9 1 30.8 4.7 1.8.6 3.5 1.7 5 4.7z"/><path d="M243.6 341.9c-33-2.9-59.3-16.4-74-47.7-5.3-11.3 3.1-26.5 15.5-28.4 4.8-.7 7 .5 7.7 5.2 3.6 24.6 27.1 41.6 47.9 43.2 18.5 1.5 35.5-2.2 50.1-14.5 6.2-5.3 12.6-10.4 18.9-15.6 1.4-1.1 3-2.5 5-1.2 1.9 1.2 1.7 3.1 1.8 5 .2 3.4-2.2 5.5-3.9 7.9-9.9 13.5-20.1 26.7-34.5 35.6-10.5 6.3-21.7 10.9-34.5 10.5z" fill="#ea5065"/><path class="st1" d="M335.3 240.8c-.7 6.1-2.8 11.6-7.2 16.1-3 3.1-6.2 3.4-10.1 1.3-8.1-4.3-16-8.9-25.2-10.9-3.6-.8-7.1-.7-10.7-.9-11.4-.6-14.7-6-9.5-16.1 2.1-4.1 4.6-8.1 8.6-11.1 5.2-3.8 11-3.2 16.4-2.1 12.6 2.6 24.1 8.2 34.4 16 2.8 2 3.5 4.6 3.3 7.7z"/><path d="M376.4 351c-.4-.2-.8-.4-1.3-.5.5.2.9.4 1.3.5z" fill="#d3d3d3"/></svg>