<svg id="Layer_1" xmlns="http://www.w3.org/2000/svg" viewBox="0 0 512 512"><style>.st0{fill:#d30505}</style><path class="st0" d="M409 303.2c1.9-11.7 4.4-22.5 5.2-33.5 3-40.9-17.4-69.8-58-80.1-15.2-3.8-31.3-4.3-47-5.6-4.7-.4-8.1-1.4-11.4-4.7-16-15.7-34-28.2-55.5-35.1-31.4-10.2-61.5-5.5-90.2 9.2-13.5 6.9-26.1 15.5-39.2 23.4.3-.7.5-1.7 1-2.6 7.2-12.2 9.6-25.1 7.2-39.1-.3-1.8.4-4.9 1.8-5.8 31.3-21.3 64.9-32.3 102.9-21.9 24.6 6.7 44.9 20.9 62.2 39.2 7 7.4 13.2 15.6 19.4 23.7 2.2 2.9 4.2 3.8 7.8 3.3 22-2.8 43.7-2 64.8 5.5 46.8 16.6 72.5 65.9 59.6 113.8-.6 2.1 0 5.7 1.4 6.8 19.8 14.7 25.5 34.9 22.4 58.1-1.5 11.2-5 22.2-8.8 33.3-.4-37.4-11-69-45.6-87.9z"/><path class="st0" d="M204.5 389.2c-.8-16.1-.5-32.2-2.8-48-4.6-32.1-27.7-47.9-59.8-42.3-16.8 2.9-31.7 10.1-45.7 19.4-1.9 1.3-3.8 2.5-6.5 4.3-1.3-5.5-2.5-10.4-3.7-15.4-9.5-40.8-18.9-81.7-28.6-122.5-1.1-4.6 0-7 3.5-9.9 5.4-4.5 10.8-9.4 14.7-15.1 8.3-11.9 7.8-23-.8-34.8-5-6.9-10.4-13.6-13.1-17 5.9 1.1 16.4 4.7 25.3 11.8 12.4 9.9 16.6 25.3 10.9 42.6-2.6 7.8-6.9 15.1-10.2 22.8-.8 1.9-1.8 4.5-1.2 6.3 9.6 28.2 19.5 56.3 29.4 84.5.2.6.7 1 1.2 1.7 7.8-2.2 15.5-4.6 23.4-6.4 18.5-4.2 36.4-3.4 53.3 6.5 16.2 9.5 25.1 23.6 26.7 42.1 2.3 25-6 47.6-16 69.4zm101.2-81.9c13.6-13.5 28.9-20.9 47.6-20.4 34.3.9 58.1 27.3 55.2 61.5-1.2 14.8-6.1 28.4-13.5 43.2.6-7.6 1.5-13.3 1.4-19-.1-6-.8-12.1-1.8-18-2-11.4-6.9-21.5-14.9-29.8-15.4-15.9-36-18.3-57.1-5.6-9 5.4-17 12.5-25.4 18.8-2.7-3-5.4-7-9-9.5-4.5-3.2-9.6-6.2-14.8-7.4-9.7-2.3-11.3-.4-11.8 9.5-1.1 20.5-6.4 39.9-16.1 58-.7 1.4-1.8 2.6-3.2 4.8 3.6-29.6 5.8-57.8-14.3-82.5 10.6-11.3 22.6-19.2 38.3-20.3 15.7-1.2 28.1 6.2 39.4 16.7z"/></svg>