<svg xmlns="http://www.w3.org/2000/svg" viewBox="0 0 512 512"><linearGradient id="a" gradientUnits="userSpaceOnUse" x1="256.056" y1="463.42" x2="256.056" y2="134.77"><stop offset="0"/><stop offset="1" stop-color="#003aae"/></linearGradient><path d="M137.5 247v216.5c-2.9-1.8-5.1-3.1-7.2-4.6-16-11.3-28.9-25.3-35.4-44-2.3-6.8-3.1-14.4-3.1-21.6-.2-43.3 0-86.7 0-130 0-16.7.1-33.3-.5-50-.8-22.7 8.8-38.8 28.7-49.6 22.5-12.2 46.7-19.1 71.7-23.5 33-5.9 66.3-6.7 99.6-3.8 33 2.8 65.3 9 95.2 24 9.6 4.8 18.5 10.6 25.5 18.9 12.4 14.6 11.8 30.4-1.7 44.2-12.8 13.1-29 20.5-45.9 26.3-25.9 9-52.8 13.4-80.2 15.3-36.4 2.4-72.6.7-108.2-7.4-12.7-2.8-25.2-7-38.5-10.7zm120-45.8H286c12 0 24 .3 36-.2 2.6-.1 6.4-2.4 7.2-4.6.8-2.2-.6-6.6-2.6-8-3-2.2-7.2-3.6-10.9-3.7-38.8-.3-77.6-.2-116.5-.1-2.3 0-4.7.2-6.9.9-4.7 1.5-8 6-7.5 9.5.5 3.8 4.3 6.1 10 6.1 21.1.1 41.9.1 62.7.1z" fill="url(#a)"/><linearGradient id="b" gradientUnits="userSpaceOnUse" x1="219.59" y1="493.935" x2="219.59" y2="271.188"><stop offset="0"/><stop offset="1" stop-color="#003aae"/></linearGradient><path d="M283 285.2c-4.8 21.3-2.4 42.7-3 63.9-.4 13.3-10.7 25.2-25.2 28.5-3.1.7-4.6 1.6-3.5 5.2 1.9.3 3.9.7 6 1.1 13 2.6 22.7 14 22.8 27.3.1 16.5-.3 33 .2 49.5.3 10.4 1.9 20.7 3 31.8-3.8.4-8.3 1.1-12.9 1.2-10.7.2-21.3-.1-32 .2-4.3.1-6.5-1.6-7.1-5.7-1.4-9.2-3.5-18.3-3.8-27.6-.6-18.5-.1-37-.2-55.5-.1-10.9-7.3-18.5-18.1-19v104.5c-6-1.2-11.4-1.9-16.5-3.5-11.1-3.4-22.2-7-33.1-10.9-1.5-.5-3.4-2.9-3.4-4.4-.1-66.7 0-133.3.1-200 0-.3.1-.6.2-.7 17.3 3.8 34.6 7.5 52.5 11.4v88.1c10.3.4 18.3-7.6 18.5-18.5.2-13.2-.2-26.3.2-39.5.3-8.1 1.7-16.2 2.7-24.2.4-3.3 1.9-4.5 5.6-4.3 14.3.5 28.6.5 42.9.7 1.1.1 2.4.3 4.1.4z" fill="url(#b)"/><linearGradient id="c" gradientUnits="userSpaceOnUse" x1="357.598" y1="487.384" x2="357.598" y2="252.541"><stop offset="0"/><stop offset="1" stop-color="#003aae"/></linearGradient><path d="M299 385.5v-82c0-16 3.8-20.1 19.5-22.4 26.3-3.9 51.7-11.1 75.6-23 2.5-1.3 5-2.7 7.5-4 7.7-4 14.2-.2 14.3 8.5.1 21.5.1 43 .1 64.5 0 20.8-.7 41.7.2 62.5 1.2 29.2-12.2 50.4-34.3 67.3-19.7 14.9-42.2 23.8-65.9 29.9-9.7 2.5-17.1-3.7-17.1-13.9v-87.5c0 .1.1.1.1.1zm71-19.2c.1 0 .1 0 0 0 .1-20 .1-40 .1-59.9 0-5.9-2.8-9-8.2-9.1-5.6-.2-10.3 3.8-10.3 9.2 0 41.6 0 83.2.1 124.9 0 5 3.4 7.5 8.3 6.4 6.1-1.3 9.9-6.1 9.9-12.5.2-19.7.1-39.3.1-59z" fill="url(#c)"/><path d="M204.9 66.5c0-28.9 22.8-51.4 51.9-51.3 27.9.1 51.1 23.5 51 51.6-.1 28.5-23.3 51.4-51.7 51.3-28.9-.2-51.2-22.7-51.2-51.6z" fill="#e4202c"/></svg>