<svg id="Layer_1" xmlns="http://www.w3.org/2000/svg" viewBox="0 0 512 512"><style>.st1{fill:#378ecd}</style><path d="M329.6 185.7c-.1 4.1-2.7 7-7.1 7.5-6.7.8-13.5 1.1-20.2 2.4-17.6 3.4-30.5 17.9-32.4 35.8-.5 5.1-1 10.1-1.6 15.2-.5 4.9-3.4 8-7.6 8-4.3.1-7.3-2.7-7.9-7.7-.8-6.2-1.1-12.4-2.1-18.5-3.1-18.1-18.3-32-36.6-33.5-5.1-.4-10.1-1-15.2-1.6-4.5-.5-7.5-3.6-7.5-7.7s2.8-7.1 7.5-7.7c6.3-.8 12.7-1 18.9-2.2 19-3.6 32.1-18.6 33.7-37.9.4-4.8.8-9.6 1.5-14.3.6-4.3 3.7-7 7.7-7s7.2 3 7.7 7.5c.8 6.9.9 13.8 2.4 20.6 4 17.6 18.8 30.3 36.8 31.8 5.1.4 10.1.9 15.2 1.6 4.3.5 6.8 3.6 6.8 7.7z" fill="#8dad32"/><path class="st1" d="M132.1 348.1c-3 3.5-5.7 6.4-8 9.6-2.1 3-.9 6.6-1 9.9-.2 6.9-.2 7.1-7.2 7.1-12.5-.1-11.6 1.6-11.6-11.5v-67.8c0-5.4.7-6.1 6.1-6.1 2.4 0 4.8.1 7.2 0 4.1-.3 5.5 1.6 5.4 5.6-.1 11.9 0 23.7 0 35.6v4.1c.3.1.6.3.9.4 3-3.6 5.9-7.3 9-10.9 4-4.6 6.7-10.9 11.9-13.5 5.3-2.7 11.9-.6 18-.8 4.4-.1 8.8.1 13.1-.1 3.3-.1 5.2 1.2 6.4 4.3 4.6 11.1 9.3 22.1 14 33.1l1.3 2.6c3.7-10.2 7.1-19.8 10.7-29.3 4.9-13 1.3-10.4 15.1-10.6 5.9-.1 6.4.6 4.3 6-8.1 21.1-16.1 42.2-24.3 63.2-4.9 12.6-10.6 16.2-24.1 16.2h-11c-2.9 0-3.9-1.3-2.9-4 .1-.3.2-.5.3-.8 5.1-13.3 1.8-11.1 15.6-11.4 1.1 0 2.3 0 3.4-.2 3.7-.6 5-2.7 3.5-6-8-18.1-16.1-36.1-24.2-54.1-1.5-3.3-3.7-3.5-6.2-.6-3.2 3.8-6.1 7.8-9.4 11.4-2.1 2.3-2.3 4.4-1 7.2 5 10.9 9.9 21.9 14.8 32.8 2 4.4 1.5 5.2-3.3 5.3-3.7 0-7.4-.1-11 0-3.2.2-4.9-1.2-6-4.1-3.2-7.5-6.4-14.7-9.8-22.6z"/><path d="M442.1 318.4c6.3-8.6 14.3-10.4 23.2-9.9 10.4.6 16.8 6.1 18.5 16.4.4 2.5.7 5 .7 7.6.1 12.6 0 25.1.1 37.7 0 3.2-1.1 4.8-4.5 4.6-3-.1-5.9-.2-8.9 0-3.8.2-5.4-1.3-5.3-5.2.2-8.5 0-16.9 0-25.4v-5.5c-.3-11.5-8.9-16.2-18.9-10.3-4 2.4-5 6.3-5 10.6-.1 10 0 20.1-.1 30.1 0 5-.7 5.6-5.6 5.6-2.7 0-5.4-.1-8.1 0-3.7.2-4.9-1.5-4.9-5.1.1-25.1.1-50.3 0-75.4 0-3.7 1.6-5.1 5.1-5 2.8.1 5.7.1 8.5 0 3.6-.1 5.1 1.4 5.1 5 0 7.6.1 15.3.1 24.2zm-109.9 46.1c-6.7 10-16.1 12-26.4 11.2-9.5-.8-15.8-6.8-17.5-16.2-1.7-9.9 2.3-18 11.1-22 8.9-4.1 18.2-3.5 27.5-2.2 4.8.7 5.5-.1 3.8-4.7-1.6-4.2-4.5-6.7-9.2-6.9-7.5-.3-15 .5-22.2 2.7-3.3 1-5.2.1-6.2-3-.2-.7-.5-1.3-.8-2-3-7.9-2.7-8.7 5.5-10.6 11.6-2.7 23.4-4.1 35.3-1.5 10.2 2.3 16 8.7 16.7 19.2 1.1 14.4.3 28.8.5 43.2 0 2.2-1 3.6-3.5 3.9-8.3 1-12.6-2-14.6-11.1zm-16.3-4c2.4.1 4.8-.4 7.1-1.1 5.1-1.6 8-5 8.4-9.5.1-1.2.2-2.4-1.3-2.6-6.7-.7-13.5-1.8-20.1.9-2.4 1-3.7 2.9-3.7 5.7.1 2.7 1.4 4.5 3.7 5.7 2 .8 3.9.8 5.9.9zm71.2 15.2c-9.8.2-19.1-1.4-27.7-6.4-4.8-2.8-4.9-4.3-1.1-8.4 6-6.4 6-6.3 14.2-2.9 6.9 2.9 14.1 3.7 21.6 2.5 2.7-.4 4.5-1.7 4.7-4.5.2-3-1.8-4.3-4.3-4.9-7-1.5-14.2-2.6-21.1-4.3-9.4-2.3-13.5-7-14.4-15.5-.9-9.4 2.4-16.5 10.8-20 14.3-6 28.7-4.6 42.7 1.6 2.5 1.1 3.1 3.1 1.4 5.5-.2.3-.5.7-.7 1.1-5.4 8.1-5.4 8.1-14.7 5.5-5.3-1.5-10.6-1.5-16-1-2.5.2-4.8 1.1-5 4.2-.2 3.3 2.1 4.4 4.8 4.9 6.5 1.2 13.1 2.2 19.6 3.6 10 2.1 14.8 7.2 15.5 15.9.8 9.7-3.7 16.9-12.9 20.6-5.6 2.2-11.5 2.5-17.4 2.5z" fill="#8ead33"/><path class="st1" d="M70 375.9c-11.8.1-21.2-1.5-29.8-6.4-4.8-2.8-5-4.3-1.1-8.4 6.2-6.5 6.1-6.4 14.2-3 6.9 3 14.1 3.7 21.6 2.6 2.7-.4 4.6-1.5 4.8-4.4.2-3.2-1.9-4.5-4.6-5.1-7-1.5-14.2-2.6-21.1-4.3-11.6-3-17-12.9-13.6-24.2 2.2-7.3 7.8-11.4 14.8-13.2 12.4-3.1 24.7-2.4 36.5 2.6 4.7 2 5 3.4 2.2 7.6-.2.2-.3.5-.5.7-5.1 7.3-5.1 7.3-13.5 4.8-5.4-1.6-10.9-1.7-16.4-1.2-2.7.3-5.2 1.2-5.3 4.4-.1 3.2 2.3 4.3 5 4.8 7.2 1.4 14.5 2.3 21.6 4.2 7.2 1.9 12.1 6 13.1 13.7 1.2 8.5-1 15.7-8.8 20.4-6.4 3.9-13.8 4.2-19.1 4.4z"/><path d="M260.1 375.7c-15.8 0-26-6.9-31.2-21.2-5.1-13.9-.9-31.3 9.8-39.9 9.5-7.7 20.6-7.7 31.8-5.7 4.2.7 8.2 2 12 4 2.7 1.4 3.3 3.3 1.4 5.8-2 2.7-3.5 6.1-6.1 8-3.2 2.5-6.3-1.2-9.4-1.9-9.6-2.3-15.8-.8-19.7 5.2-4.3 6.8-3.9 18.9.9 24.9 2.9 3.6 6.6 5.1 11.2 4.9 4.1-.2 8.1-.9 11.9-2.6.6-.3 1.3-.6 1.9-.8 2.6-.8 8.4 5 10.1 9.9 1.1 3.3-1.5 4.1-3.7 5.1-6.6 3.2-13.6 4.3-20.9 4.3z" fill="#8dad33"/></svg>