<svg xmlns="http://www.w3.org/2000/svg" viewBox="0 0 512 512"><path d="M299 292v-52.4c.2-.1.3-.3.4-.3 9.2.1 18.4-.2 27.5.6 8.1.7 12.4 6.2 12.2 14.1-.1 3.7-2 6.4-4.6 9 .9.7 1.7 1.3 2.4 1.9 4.7 4.2 6 9.5 4.8 15.5-1.2 5.7-4.9 9.1-10.3 10.7-2.8.8-5.8 1.2-8.7 1.3-7.2.2-14.5 0-21.7 0-.6-.2-1.2-.3-2-.4zm18.1-8.9c0 .1 0 .3.1.4 3.6-.5 7.2-.7 10.7-1.5 2.6-.6 4-2.9 4.1-5.7.1-2.7-1.2-4.8-3.7-6-1.2-.6-2.7-1-4-1.1-4.7-.2-9.3-.1-14-.2-1.2 0-1.7.5-1.6 1.7 0 3.5.1 7 0 10.5 0 1.4.5 1.9 1.9 1.9h6.5zm-.3-23.7s0-.1 0 0c2.4-.1 4.8.1 7.2-.1 4-.4 6.3-4.1 4.8-7.6-1.1-2.5-3.2-3.3-5.7-3.4-4.2-.1-8.4 0-12.6-.1-1.3 0-1.9.4-1.8 1.7.1 2.6.1 5.1 0 7.7 0 1.4.6 1.8 1.8 1.7 2.1.1 4.2.1 6.3.1zm73.3 32.7h-9.6c-.1-.8-.2-1.6-.4-2.7-5.4 4.1-11.4 4.9-17.6 3.2-4.6-1.3-8.3-4.1-11.2-7.9-6.2-8.1-6-19.9.4-28 3.4-4.3 7.9-6.9 13.3-7.9 5.5-1.1 10.4.4 15.1 3.6.2-.9.3-1.6.4-2.4h9.6v42.1zm-20.5-34c-7.1-.2-12.9 5.4-13.1 12.6-.2 7 5.5 13.1 12.3 13.4 7.4.2 13.1-5.2 13.2-12.7.2-7.3-5.2-13.1-12.4-13.3zm-97.1 34.1h-9.3c-.1-.8-.2-1.5-.4-2.7-6.1 4.2-12.5 5.2-19.3 2.6-4.8-1.8-8.4-5-11-9.3-5-8.1-4.1-19.2 2.2-26.6 3.5-4.1 8-6.5 13.3-7.5 5.4-.9 10.1.7 14.7 3.7.2-1 .3-1.7.5-2.5h9.3v42.3zm-20.7-34.1c-7.1 0-12.8 5.8-12.7 13 .1 7.2 5.9 13.1 12.8 13 7.3-.1 12.7-5.7 12.6-13.1 0-7.4-5.4-12.9-12.7-12.9zm205.4 13.4v20.6h-10v-52.8h9.9v28.5c1-.8 1.5-1.2 1.9-1.6 5-5 9.9-10.1 14.9-15.1.6-.6 1.4-1.2 2.1-1.2 3.9-.1 7.7-.1 12.3-.1-6.5 6.7-12.5 13-18.8 19.5 6.8 7.6 13.6 15.1 20.6 23-4.5 0-8.4.1-12.3-.1-.8 0-1.6-.8-2.2-1.4-5.5-6-11-12.1-16.5-18.1-.5-.5-.7-1.2-1.1-1.8-.2.2-.5.4-.8.6zM82.3 293.4c-12.7 0-22.2-9.6-22.2-22.4 0-12.7 9.8-22.6 22.4-22.6 12.5 0 22.4 10.1 22.3 22.7-.1 11.9-9.4 22.8-22.5 22.3zm.1-9.3c7.1 0 12.6-5.5 12.7-12.8.1-7.1-5.7-13.2-12.6-13.2-6.9 0-12.5 5.8-12.6 12.9-.2 7.4 5.3 13.1 12.5 13.1zm113.9-12.7c-.1 11.5-9.2 22.7-23.3 22.1-12.2-.5-21.7-10.5-21.4-22.8.3-13 10.3-22.5 23.2-22.2 12.2.3 21.8 10.6 21.5 22.9zM174 258.1c-7 0-12.6 5.9-12.5 13.2.1 7.4 5.4 12.8 12.6 12.8 7.2 0 12.7-5.7 12.6-13.1-.1-7.1-5.9-12.9-12.7-12.9zm-69.4-8.3c3.4 0 6.6-.1 9.7.1.6 0 1.3.9 1.6 1.6 3.9 8.7 7.6 17.4 11.4 26.1.2.5.5 1 .9 1.9 1.1-2.5 2.1-4.7 3.1-6.8 3.1-7.1 6.2-14.1 9.2-21.2.5-1.2 1.1-1.7 2.4-1.6 2.9.1 5.9 0 9.2 0-2 4.7-3.9 9-5.8 13.3-6.3 14.3-12.6 28.6-18.8 43-.6 1.4-1.2 1.9-2.7 1.9-2.9-.1-5.9 0-9.3 0 1.7-3.8 2.9-7.4 4.7-10.7 2.2-3.9 1.9-7.2 0-11.3-5.3-11.4-10.2-23.1-15.2-34.6-.1-.5-.2-1-.4-1.7zm334.3 42.4h-9.5c0-.8-.1-1.6-.1-2.5V271c0-1.2 0-2.5-.2-3.7-.7-6.1-4.2-9.3-10-9.2-6 .1-10.2 3.4-10.5 9.3-.4 7.2-.2 14.5-.3 21.7v3.1h-9.7V250h9.4c.1.7.2 1.4.4 2.5.8-.4 1.5-.8 2.2-1.2 6.9-3.7 13.9-3.9 20.7-.1 4.7 2.6 7.2 7.2 7.4 12.3.4 9.5.2 18.9.2 28.7zm-400.4-.1V249H22.6v-9.7h41.9v9.5H48.6V292c-3.4.1-6.5.1-10.1.1zm169.4-42.3v-10.6h9.7v5.7c0 4.8 0 4.8 5 4.8h4.6v9.4c-2.3 0-4.6.1-6.8 0-2.1-.2-2.8.5-2.8 2.7.1 9.1.1 18.2.1 27.3v2.9H208v-2.6c0-9.2-.1-18.4.1-27.6 0-2.3-.7-3-2.9-2.8-2.1.2-4.2 0-6.5 0v-9.4c3 .2 6 .2 9.2.2z" fill="#ce1728"/></svg>