<svg id="Layer_1" xmlns="http://www.w3.org/2000/svg" viewBox="0 0 512 512"><style>.st1{fill:#fff}</style><path fill="#e00875" d="M0 0h512v512H0z"/><path class="st1" d="M420.3 60c1.3 47 2.7 93.2 4 139.8-7.3 1.2-14.2 2.4-21.7 3.7-.4-2.3-.8-4.4-1-6.5-2.2-18.7-6-36.9-13.3-54.4-8.9-21.3-22.7-38.4-43.2-49.6-12-6.6-25-10.4-38.6-12.1-4.1-.5-8.2-.8-12.3-1.2-.9-.1-1.7.1-2.9.1-.1 1.5-.2 2.7-.2 4 0 96.8 0 193.6.1 290.4 0 10.1 1 20.1 3.5 29.9 3 12.1 10.4 19.9 22.3 23.5 6.7 2 13.5 3.4 20.5 3.6 6.8.2 13.7.5 21 .7.3 7.5.1 14.8.1 22-3 .9-192.1 1.2-197 .4-.8-2.8-1-17-.2-22.3 2.6-.1 5.2-.2 7.9-.4 8.2-.6 16.6-.6 24.7-1.9 19.1-2.9 29.9-14.1 32.3-33.2 1-7.8 1.6-15.7 1.6-23.6.1-96.3.1-192.6.1-288.9v-4.5c-3.5.2-6.6.3-9.6.6-19.3 1.8-37.4 7.2-53.4 18.7-15.6 11.2-26.3 26.1-33.6 43.7-6.4 15.4-10.1 31.4-12.4 47.9-.6 4.2-1.1 8.4-1.7 13-7.5-1.3-14.5-2.4-21.9-3.7 1.3-46.6 2.7-92.8 4-139.3 1.2-.2 2.2-.4 3.2-.5 1-.1 2.1 0 3.1 0h308.7c1.6.1 3.5.1 5.9.1z"/><path class="st1" d="M96.2 241.6h81.4c1 3.4 1 76.7 0 80.4H96.5c-.9-2.7-1.3-74.4-.3-80.4zm246.8 0h81.4c.8 3 1.1 74.1.4 79.9l-.3.3c-.1.1-.2.2-.3.2-.5.1-1 .3-1.5.3h-77.5c-.6 0-1.3-.1-1.7-.2-.2-.2-.4-.3-.4-.4-.1-.1-.2-.2-.2-.3-.1-.6-.2-1.3-.2-1.9 0-25.5 0-50.9.1-76.4-.2-.4 0-.7.2-1.5z"/></svg>