<svg id="Layer_1" xmlns="http://www.w3.org/2000/svg" viewBox="0 0 512 512"><style>.st0{fill:#002e68}</style><path class="st0" d="M251.5 62h14.2c4.9.7 9.9 1.3 14.8 2.1 71.3 11.6 120.6 80.4 109.1 152-12.5 77.4-89 127.3-164.9 107.4-51.5-13.5-90.4-57.7-97.4-110.8-.7-5.5-1.2-11.1-1.9-16.7v-1.8c.9-7.7 1.6-15.5 2.9-23.2 8.7-52.3 52.9-97 104.9-106.2 6.1-1 12.3-1.8 18.3-2.8zm7.1 16.6c-64.1 0-116.4 52.5-116.4 116.7 0 64 52.4 116.3 116.3 116.4 64.3 0 116.6-52.3 116.6-116.5 0-64.3-52.2-116.7-116.5-116.6z"/><path class="st0" d="M208.9 109.3c4.8 13.2 9.4 26 14.1 38.7 4.6 12.6 9.3 25.2 13.7 37.9 1 3 2.5 4.1 5.7 4.1 10.9-.2 21.9-.2 32.8 0 3.6.1 5.2-1.1 6.4-4.4 8.5-23.8 17.1-47.5 25.8-71.3.5-1.4 1.1-2.7 1.8-4.6 9.6 5.7 17.8 12.5 24.6 21 .7.8 0 3.1-.6 4.5-11.1 29.1-22.3 58.2-33.5 87.3-2.1 5.3-4.1 10.7-6.6 17.1-3.1-7.8-5.8-14.7-8.5-21.7-1.8-4.5-3.6-9.1-5.2-13.7-.8-2.3-2-3.3-4.5-3.3-11.4.1-22.8.1-34.2 0-2.8 0-3.8 1.3-4.7 3.6-3.8 10-7.6 19.9-11.5 29.8-.6 1.5-1.2 2.9-2.1 5.2-4.5-11.8-8.8-22.8-13-33.8-8.9-23.2-17.8-46.3-26.8-69.4-1-2.5-.8-4.2 1-6.3 7.4-8 15.4-15 25.3-20.7zm142.9 52.1c17 46.6-4.1 98.8-46.2 120.8 15.5-40.4 30.7-80.1 46.2-120.8zm-187 2.2c15.1 39.4 29.9 78.1 44.9 117.2-37.7-19.2-61.2-70.1-44.9-117.2z"/><path class="st0" d="M283.8 291.2c-17.5 4.4-34.2 4.3-51.8-.4 8.5-22.2 16.9-44 25.8-67.1 8.9 23.2 17.4 45.2 26 67.5zM259 167.1c-8.4-23.3-16.5-45.5-24.6-68.1 16.6-4.2 32.6-4.1 49.2.1-8.2 22.5-16.2 44.7-24.6 68z"/><path d="M207.2 409.2c.6-2.4 1.1-4.8 1.7-7.2 1-4.2 2.1-8.5 3.3-12.7.2-.6 1.1-1.2 1.7-1.3 1.5-.2 3-.1 4.9-.1-.7 2.5-1.2 4.7-1.8 6.8-2.2 7.4-4.2 14.9-6.6 22.3-.9 2.7-3.9.8-6 1.3-1.2.2-1.7-.4-2-1.7-1.1-5.6-2.3-11.3-3.6-16.9-.2-.9-.8-1.7-1.4-3.1-.4 1-.7 1.4-.8 1.9-1.2 6.1-2.4 12.3-3.6 18.4-.1.4-.4 1-.6 1.1-2.3 0-4.7.5-6.7-.3-1-.4-1.3-3-1.8-4.6-1.7-5.8-3.4-11.7-5.1-17.5-.7-2.3-1.3-4.7-2.1-7.6 2.1 0 4-.1 5.9.1.4 0 .9.9 1 1.4 1 3.7 2 7.3 2.9 11 .5 2.2.9 4.4 1.4 6.5.1.5.6 1 1 1.5.4-.5 1.1-1 1.2-1.6.9-4.2 1.7-8.5 2.5-12.7.3-1.8.7-3.5 1.2-5.2.1-.4.6-.7 1-1 .2-.1.6-.1.8-.1 5.7-.4 5.8-.4 7 5.3 1 4.3 1.7 8.6 2.7 12.9.2 1.1.8 2.2 1.3 3.2.2 0 .4-.1.6-.1zm-126.4 9.9c-8.7.4-16.2-7-16.2-16 0-8.9 7.6-16.2 16.4-16.2 8.7 0 16.2 6.8 16.3 16.2.1 9-7.8 16.6-16.5 16zm.3-6c5.3 0 9.8-4.6 9.8-10 0-5.5-4.5-10.1-9.9-10.1-5.3 0-9.8 4.5-9.8 10-.1 5.6 4.5 10.2 9.9 10.1zm186.2-26.6c5.1.4 9.3 2.1 12.6 5.8.9 1 .8 1.6-.2 2.2-.7.4-1.4.8-2 1.2-1.2.9-2.2.8-3.4-.3-3.9-3.9-12.1-3.9-15.1 2.3-2.4 5.1-1.2 12.2 4.6 15.1 3.5 1.8 9.4.1 11.4-3.2.7-1.2.4-2-1-2-1.4-.1-2.9-.1-4.3 0-1.7.1-2.2-.6-2-2.1.1-.6 0-1.2 0-1.7 0-1.1.3-1.6 1.5-1.6 4 0 7.9 0 11.9.1.5 0 1.4.7 1.5 1.2 1 6-3.7 13-9.6 14.7-6.4 1.9-12.3 1.3-17.2-3.6-6.5-6.4-6.3-20.8 3.7-25.8 2.2-1.2 5-1.5 7.6-2.3zm161 12.1v19.6c-1.6 0-3.4.1-5.2-.1-.3 0-.8-.9-.8-1.4v-27.3c0-.4.1-.9.3-1.2.8-.8 6-.3 6.6.6l12 17.4c.4.6 1 .9 1.9 1.7v-8c0-3.4-.1-6.8-.2-10.2-.1-1.5.5-1.9 1.9-1.9 4.8.1 4.1-.5 4.1 3.9v24c0 1.9-.5 2.4-2.4 2.5-2.6.2-4.2-.8-5.6-2.9-3.4-5.2-7.1-10.3-10.7-15.4-.4-.6-.9-1.1-1.3-1.6-.2.2-.4.2-.6.3zm-49.4 3.1c3.4 1.5 5.1 4 5.1 7.7-.1 4.4-3.2 8.2-7.6 8.5-4.6.4-9.2.3-13.8.2-.5 0-1.4-1-1.4-1.5-.1-9 0-18-.1-27 0-1.2.5-1.7 1.6-1.7 3.7 0 7.5 0 11.2.1 3 .1 5.5 1.3 6.6 4 1.2 2.8 1.3 5.8-1 8.3-.2.2-.3.5-.5.7 0 .1 0 .3-.1.7zm-11.3 7.3c0 .9-.2 1.9.1 2.8.1.6.8 1.4 1.2 1.4 1.8.1 3.6.2 5.3-.2 2.3-.4 3.4-2.2 3.1-4.6-.2-2.2-1.5-3.3-3.9-3.4h-1.7c-4.1 0-4.1 0-4.1 4zm0-12.7c0 3.4.2 3.7 2.7 3.6 2.8 0 4.8-1.7 4.8-3.8 0-2.2-1.4-3.2-4.6-3.2-2.9.1-2.9.1-2.9 3.4zm-26 6.9c0 4.4-.1 8.8 0 13.2 0 1.4-.5 1.8-1.8 1.9-3 .4-4.9-.7-6.5-3.3-3.4-5.3-7.1-10.3-10.7-15.4-.3-.4-.7-.6-1.1-.8-.2.5-.6 1.1-.6 1.6 0 5.2 0 10.4.2 15.6.1 1.8-.6 2.5-2.3 2.3-.5-.1-1-.1-1.5 0-1.6.2-2.2-.4-2.2-2.2.1-8.6.1-17.3 0-25.9 0-1.9.7-2.2 2.4-2.3 2.8-.2 4.5.8 6 3.1 3.4 5.3 7.1 10.4 10.7 15.6.3.4.7.6 1.1.9.2-.5.7-1.1.7-1.6 0-5.3 0-10.5-.1-15.8 0-1.7.4-2.3 2.1-2.2 4.5.2 3.7-.3 3.8 3.8-.2 3.8-.2 7.7-.2 11.5zm-92 15c-2.3 0-4.3.1-6.2-.1-.6-.1-1.2-.8-1.6-1.4-.5-.9-.6-2.1-1.2-3-.4-.6-1.2-1.4-1.8-1.4-3.5-.1-6.9-.2-10.4 0-.8.1-1.9 1.2-2.3 2.2-1.7 3.7-1.6 3.8-5.6 3.8h-2.6c1.6-4.1 3-7.9 4.5-11.6 2.1-5.2 4.2-10.4 6.2-15.6.8-2.2 1.8-3.7 4.4-3.1h.4c2.5-.4 3.9.4 4.9 3 2.5 6.7 5.4 13.3 8.2 19.9 1 2.3 2 4.6 3.1 7.3zm-15.8-22.9c-.3.1-.5.1-.8.2-1.2 3.3-2.4 6.6-3.4 9.9-.1.3.8 1.2 1.2 1.2 1.8.2 3.6.1 5.4.1 1.1 0 1.6-.6 1.2-1.7-.5-1.4-1-2.8-1.5-4.3-.6-1.8-1.4-3.6-2.1-5.4zM418 418.2c-2.4 0-4.4.2-6.3-.1-.6-.1-1.4-1.2-1.6-2-1.3-3.9-1.3-4-5.4-4-2.1 0-4.2.2-6.3 0-2.3-.2-3.4.8-4.1 2.8-1.2 3.3-1.2 3.2-4.6 3.2h-3.3c1.5-3.8 2.7-7.3 4.1-10.7 2.4-6.1 4.9-12.1 7.3-18.2.5-1.2 1.1-1.4 2.2-1.5 5.4-.1 5.4-.1 7.5 4.9 3.3 8.5 6.8 16.8 10.5 25.6zm-16.2-11.5h1.9c1.9.1 2.5-.6 1.9-2.4-.9-2.4-1.6-4.9-2.6-7.3-.2-.5-.9-.8-1.3-1.3-.3.5-.8.9-1 1.4-.6 1.7-1 3.4-1.7 5.1-1.8 4.3-1.7 4.5 2.8 4.5zm81.3 11.5c-2.3 0-4.5.1-6.7-.1-.7-.1-1.5-.8-2-1.4-2.6-3.4-5-6.8-7.6-10.2-.3-.4-.9-.7-1.4-1.1-.2.6-.5 1.2-.5 1.7-.1 3-.1 6.1 0 9.1.1 1.6-.6 2-2 2-4.6.1-4.6.1-4.6-4.5 0-7.9.1-15.7 0-23.6 0-1.7.5-2.3 2.2-2.2 5.4.1 4.3-.5 4.4 4.3v6.1c0 .7.3 1.3.5 2 .6-.4 1.3-.8 1.7-1.3 2.3-3 4.7-6 6.9-9.1 1-1.5 2.1-1.9 3.8-1.8 1.5.1 3.1 0 5.3 0-.9 1.3-1.4 2.1-2 2.8-2.7 3.3-5.3 6.6-8 9.9-1.1 1.3-1 2.3 0 3.6 3.4 4.4 6.8 8.9 10.1 13.4 0-.1-.1 0-.1.4zm-333.7-29.7c-3.1 3.9-6.1 7.8-9.3 11.6-1.5 1.7-1.5 2.9 0 4.7 3.2 3.9 6.1 8 9.2 12 .2.3.4.7.8 1.4-2.7 0-5 .1-7.3-.1-.5 0-1.1-.7-1.4-1.2-2.6-3.5-5.1-7.1-7.8-10.6-.3-.4-1-.6-1.5-.9-.2.5-.5 1-.5 1.5 0 3.1-.1 6.2 0 9.3.1 1.5-.4 2-1.9 2.1-4.7.1-4.7.2-4.7-4.5V390c0-1.6.4-2.2 2.1-2.1 5.5.1 4.5-.4 4.5 4.4v6.5c0 .5.4.9.6 1.4.5-.3 1.1-.4 1.4-.8 2.5-3.3 5-6.5 7.3-9.9.9-1.2 1.8-1.7 3.2-1.6 1.7.1 3.4 0 5.1 0 .1.2.2.4.2.6zM33.7 388c2.4 0 4.4-.1 6.3.1.5.1 1.1 1 1.4 1.6 2.2 6.4 4.4 12.9 6.6 19.4.1.3.4.6 1 1.5.2-.6.3-1 .4-1.3 1.8-5.4 3.7-10.7 5.5-16.1.5-1.4.8-2.8 1.3-4.1.2-.4.7-1 1.1-1 1.9-.1 3.8 0 6.3 0-1.2 3.1-2.1 5.8-3.2 8.5-2.4 6.2-4.8 12.4-7 18.7-.7 2.1-1.5 3.1-4.1 3.1-3.1 0-4.9-.5-6-3.8-2.4-7.4-5.3-14.7-8-22-.5-1.4-1-2.8-1.6-4.6zm255.9 15.1v-13.2c0-1.4.4-2.1 1.9-2 4.4.1 8.8.1 13.2 0 1.5 0 2 .4 2 1.9-.2 3.8.7 3.6-3.6 3.6h-5.4c-1.2 0-1.9.6-1.9 1.9v.2c-.2 4.6-.2 4.6 4.3 4.6h3.2c3.2 0 3 0 3.2 3.2.1 2.2-.8 2.8-2.8 2.6-2-.1-4 0-6.1 0-1.3 0-1.9.6-2 1.9-.2 5-.2 5 4.8 5 1.4 0 2.9.1 4.3 0s1.8.4 1.7 1.7c-.2 4.1.8 3.7-3.6 3.7-3.8 0-7.6-.1-11.5 0-1.5 0-2-.4-2-2 .4-4.3.3-8.7.3-13.1zm-120.8-8.5c-.9-.6-1.9-1.4-3.1-2-1.8-.9-3.5-.4-4.6 1.4-1.2 1.8-.5 3.3 1 4.3 1.7 1.1 3.6 2.1 5.5 3 4.5 2.2 6.6 5.9 5.6 10.3-.9 4.4-4.9 7.5-9.5 7.7-3.6.2-6.8-.4-9.7-2.7-1.2-1-1.3-1.8-.2-2.8.3-.3.6-.6.8-1 1.2-1.9 2.4-2 4.1-.4 1.6 1.5 3.6 2.4 5.9 1.1 2.5-1.4 2.9-4.3.5-6-1.8-1.3-3.8-2.2-5.8-3.3-5.3-3-5.6-5.8-4.9-10.8.6-3.5 4.8-6.1 9.1-6.2 2.9-.1 5.4.7 7.7 2.4 1.2.9 1.7 1.8.3 2.9-.8.5-1.7 1.3-2.7 2.1zm-65.7 8.3c0-4.3.1-8.6 0-13 0-1.4.3-2.1 1.9-2.1 4.7-.1 4.8-.1 4.8 4.6v17.7c0 1.9.6 2.7 2.5 2.6 2.2-.1 4.3 0 6.5 0 1.5-.1 2.2.4 2 2-.1.6.2 1.4-.1 1.9-.3.6-.9 1.5-1.5 1.5-4.8.1-9.6 0-14.5.1-1.2 0-1.6-.5-1.6-1.7.1-4.5 0-9 0-13.6z"/></svg>