<svg xmlns="http://www.w3.org/2000/svg" width="62" height="8"><g fill="none" fill-rule="evenodd"><path d="M-4-31h70v70H-4z"/><path fill="#075899" fill-rule="nonzero" d="M30.513 3.159c.47.002.943.01 1.38-.042.36-.043.533-.345.521-.71-.01-.343-.2-.61-.558-.643-.442-.041-.892-.01-1.343-.01V3.16zm-.002 3.195c.523 0 1.017.022 1.509-.006.48-.027.765-.334.792-.778.028-.465-.223-.811-.7-.89-.53-.085-1.065-.023-1.601-.038v1.712zm-2.063 1.537V.229c.08-.007.164-.02.249-.02a964.98 964.98 0 0 1 2.947 0c.509.001 1.014.046 1.5.2 1.036.33 1.571 1.21 1.343 2.206-.126.55-.487.908-1.052 1.118.085.03.15.058.206.073 1.564.601 1.69 2.164.887 3.124-.4.48-.941.728-1.554.825a9.96 9.96 0 0 1-1.38.13c-1.036.019-2.073.006-3.146.006zm23.338-2.095c.42-.274.831-.517 1.213-.797.826-.604 1.368-1.378 1.403-2.403.032-.926-.289-1.7-1.155-2.199C52.677.07 52.05-.005 51.4.013c-.595.017-1.17.108-1.669.432-1.003.65-1.18 1.632-1.167 2.71h1.875c.023-.162.031-.32.069-.472.037-.152.09-.305.162-.445.083-.165.21-.295.42-.322.404-.051.658.134.711.527.063.461-.118.859-.402 1.205a6.838 6.838 0 0 1-.877.903c-.63.528-1.29 1.024-1.963 1.552v1.713h5.97v-2.02h-2.743zm-33.465-.978l-.711-2.431h-.066l-.723 2.43h1.5zm1.055 3.055l-.523-1.488h-2.561l-.522 1.496h-2.22L16.536.227h2.067L21.6 7.873h-2.225zm19.003-3.054h1.5l-.715-2.455-.051-.004-.734 2.459m-1.05 3.062h-2.22L38.1.22h2.063l3.001 7.659h-2.22l-.533-1.5h-2.556l-.525 1.5M2.13 3.582c.506.006 1.006.013 1.47-.054.448-.065.652-.391.653-.828 0-.472-.2-.757-.647-.875-.483-.127-.975-.078-1.475-.076v1.833zM3.378.216c.447.011.902.071 1.337.176.97.234 1.646 1.028 1.7 1.989.021.353 0 .723-.088 1.065-.23.89-.868 1.409-1.789 1.575-.516.093-1.05.103-1.576.137-.264.017-.529.003-.823.003V7.87H.009V.23L3.378.216zm55.359 4.43V1.947l-1.589 2.699h1.589zm-.32-4.61h2.303v4.62h1.262V6.35h-1.234v1.59h-2.096V6.371h-3.477V4.707L58.417.036zM27.345.234v1.549h-2.208v6.09h-2.16V1.797h-2.19V.234zM9.404 6.305h3.64v1.57h-5.74V.227h2.1z"/><path fill="#E53624" fill-rule="nonzero" d="M43.76 4.147c.02-1.024.874-1.795 1.961-1.771 1.012.022 1.85.873 1.811 1.858-.043 1.118-1.03 1.801-1.985 1.757-1.002-.046-1.808-.856-1.788-1.844"/></g></svg>