<svg xmlns="http://www.w3.org/2000/svg" width="32" height="34"><g fill="none" fill-rule="evenodd"><path d="M-20-19h70v70h-70z"/><path fill="#FF9E16" fill-rule="nonzero" d="M31.467 32.72c-1.192-2.058-2.778-3.393-4.496-4.491a9.148 9.148 0 0 0-2.247-.749c-.95-.396-2.27-.503-3.746-.748-1.273-.236-2.277-.77-2.997-1.498-.865-.34-1.34-.874-1.498-1.497-.266-.018-.636-.445-.75-.748.167.196-.097 1.158.75 2.245-4.758.087-8.669-2.37-10.49-5.24-3.252-5.62-2.09-12.242 2.248-14.971 4.436-3.146 11.094-1.063 14.984 4.491 1.87 3.044 2.452 6.942 1.499 9.732.002.361.002.415 0 .748-1.9-1.722-3.645-1.028-3.746-.748 2.004-.44 3.484 1.056 3.746.748.002.521.213.735 0 .749.425.253.477.306.749.748.257.306.574 1.053.75 1.498 3.735-4.45 4.369-11.072.748-16.47C22.981.223 13.945-1.433 6.743 2.778.099 7.538-2.068 16.457 2.248 22.989c3.4 5.43 11.591 7.032 16.482 5.24 1.61-.237 7.687-.771 11.987 4.491-.072-.242.298.185.75.749-.294-.137-.188.077 0 0-.03-.03.13-.19 0-.749zm-8.99-8.983c.113.017.113.017 0 0 .113.017.113.017 0 0 .068.017.068.017 0 0 .068.017.068.017 0 0 .022.017.022.017 0 0-.16-.026-.343.017-.75 0-.048.275-.094.749 0 .749.316.516.453.645.75.748-.115-.06-.115-.06 0 0-.115-.06-.115-.06 0 0-.07-.06-.07-.06 0 0-.07-.017-.07-.017 0 0-.024-.017-.024-.017 0 0 .159.027.341-.017.748 0 .049-.318.094-.748 0-1.497-.27.232-.453.103-.749 0zm2.247-1.497c-.003-.083-.048.269 0 .749.178.272.358.673.749.748-.074.076.061-.125 0-.748-.074-.13-.21-.631-.75-.749z"/></g></svg>