<svg xmlns="http://www.w3.org/2000/svg" width="57" height="15" viewBox="0 0 57 15"><g fill="none" fill-rule="evenodd"><path d="M-7-28h70v70H-7z"/><path fill="#000" fill-rule="nonzero" d="M0 .256h14.96v14.742H0z"/><path fill="#FFF200" fill-rule="nonzero" d="M.433.682h14.094v13.89H.433z"/><path fill="#000" fill-rule="nonzero" d="M1.18 11.765l1.84 1.847 4.307-4.307 4.452 4.396 1.865-1.82-4.407-4.343.847-.808V5.007l.532-.443v1.35l.685.55 2.045-2.016.658.497c.388-1.412-1.856-4.618-3.713-2.841L8.128 4.217l.442.524-1.1 1.057-1.063-1.03.559-.498-2.37-2.256C2.812.567.982 2.77.919 4.918l.649-.532 1.991 2.113.712-.585V4.617l.442.328v1.696l.865.853-4.398 4.271zM17.195.754h2.325c2.028.026 2.749 2.549.82 3.472l1.667 2.318h-1.875L18.781 4.66v1.883h-1.586V.754zm1.586 1.27v1.278h.558c.766-.142.559-1.225 0-1.279h-.558zm5.416.346c.432 0 .838.142 1.17.372v-.221h1.55l.01 4.023h-1.568l.009-.25a2.045 2.045 0 0 1-1.171.365c-1.154 0-2.1-.959-2.1-2.14s.946-2.15 2.1-2.15zm.333 1.279c-.514 0-.937.39-.937.87s.423.87.937.87c.522 0 .946-.39.946-.87s-.423-.87-.946-.87zm3.217-1.128h1.65v4.023h-1.65V2.52zm.83-2.3c.477 0 .864.39.864.86a.866.866 0 0 1-.865.862.869.869 0 0 1-.874-.861.87.87 0 0 1 .874-.861zm12.517 2.3h1.649v4.023h-1.65V2.52zm.82-2.3c.487 0 .874.39.874.86a.868.868 0 0 1-.874.862.867.867 0 0 1-.865-.861c0-.47.387-.861.865-.861zm-12.211 2.3v1.278h.568v2.745h1.595V3.799h1.496v2.745h1.649V3.782h1.027V2.539h-1.072v-.897c-.027-.329.757-.462 1.027-.196V.132c-1.514-.47-2.74.373-2.73 1.678v.71h-1.406v-.878c-.019-.329.667-.462 1.063-.196V.132c-1.316-.382-2.722.248-2.713 1.67v.71l-.504.009zm8.687 4.138c1.415-.009 1.938-.586 2.244-1.43h-1.433c-.649.817-1.595.222-1.55-.444h3.029c0-1.634-.884-2.406-2.29-2.406-1.405 0-2.288.977-2.288 2.167s1.027 2.122 2.288 2.113zm-.532-2.824c.019-.488 1.1-.488 1.172 0h-1.172zm11.76 2.824c1.425-.009 1.948-.586 2.254-1.43H50.43c-.649.817-1.595.222-1.55-.444h3.028c0-1.634-.874-2.406-2.289-2.406-1.406 0-2.289.977-2.289 2.167s1.027 2.122 2.289 2.113zm-.531-2.824c.018-.488 1.1-.488 1.171 0h-1.171zm-2.19-1.234l-.486.977c-.613-.187-1.208-.151-1.19.017.018.107-.08.293.874.427 1.424.221 1.307 2.832-1.081 2.637-.658-.044-1.19-.213-1.631-.47l.532-1.049c.748.364 1.468.578 1.522.213.064-.452-.784-.293-1.297-.675-.92-.56-.397-2.29 1.108-2.309.532-.035 1.082.054 1.65.232zm5.642-.08v4.023h1.541v-2.46c.045-.613 1.27-.72 1.28 0v2.46h1.558V4.022c-.036-1.412-1.54-2.096-2.901-1.2v-.301h-1.478zM18.105 9.004l2.56-.027c1.288.018 1.9 1.66.702 2.753 1.406.826.595 3.241-1.379 3.241h-2.91l1.027-5.967zm1.18 3.56l-.207.986h.676c.766.036.676-.985.234-.985h-.703zm.342-2.14l-.17.8.207.008c.622.036.982-.808.234-.808h-.27zm2.398 4.556l3.145-5.94h1.667L28.252 15H26.62l-.298-1.067h-2l-.532 1.048h-1.766zm2.875-2.3H26l-.352-1.572-.748 1.572zm3.91 2.318h1.632l.414-3.739 2.334 3.721h1.748l.73-5.977h-1.63l-.46 3.739-2.335-3.757h-1.685l-.747 6.013zm8.03-6.012l-1.144 5.994h1.72l.46-2.238 1.541 2.238h2.262l-2.207-3.144 2.82-2.86h-2.19l-1.928 2.114.306-2.113-1.64.009z"/></g></svg>