<svg xmlns="http://www.w3.org/2000/svg" width="62" height="19"><g fill="none" fill-rule="evenodd"><path d="M-4-26h70v70H-4z"/><path fill="#4EAD33" fill-rule="nonzero" d="M4.632 18.999c-.053-.015-.106-.032-.16-.045a1.85 1.85 0 0 1-1.432-1.861 1.853 1.853 0 0 1 1.536-1.752c1.05-.187 2.047.532 2.18 1.572a1.843 1.843 0 0 1-1.516 2.063c-.02.004-.039.015-.058.023h-.55zm6.334 0a6.508 6.508 0 0 0-.2-.052 1.851 1.851 0 0 1-1.395-1.877c.03-.847.677-1.576 1.532-1.728 1.03-.184 2.016.503 2.178 1.516.16 1.002-.498 1.926-1.508 2.117-.02.004-.038.016-.058.024h-.55zM8.059 7.912l-1.74.001a.788.788 0 0 0-.182.018c-.087.02-.118.058-.118.146-.003.28-.003.561 0 .842 0 .076.032.108.108.123.038.008.078.008.117.008h.824c.133.002.153.021.155.149v3.108c0 .052-.001.104.005.155.01.086.045.122.128.141a.474.474 0 0 0 .104.015c.362.002.724.01 1.086 0 .257-.008.285-.088.276-.294V9.217c0-.147.02-.166.165-.167h.877c.043 0 .087 0 .13-.008.075-.015.106-.048.107-.125.002-.28.003-.561 0-.842-.001-.086-.034-.124-.121-.145a.804.804 0 0 0-.181-.017h-1.74zm3.038-1.917c.001-.032.004-.053.004-.074 0-.487.006-.975-.003-1.462a2.818 2.818 0 0 0-.067-.564c-.357-1.581-1.877-2.583-3.49-2.307-1.394.238-2.453 1.435-2.492 2.83-.015.5-.007 1-.01 1.501 0 .024.006.048.01.076h6.048zM.04 7.086V6.77c.053-.298.237-.493.504-.619.249-.117.516-.15.789-.151h2.023V4.709c.008-1.226.416-2.302 1.259-3.203A4.54 4.54 0 0 1 7.396.062c1.52-.203 2.848.222 3.959 1.269a4.48 4.48 0 0 1 1.368 2.591c.053.32.066.643.057.967-.011.35-.004.7-.003 1.05 0 .015.004.032.009.06h.143L14.8 6c.223 0 .444.02.656.095.07.025.14.052.204.087.35.189.516.51.44.898-.081.423-.182.843-.276 1.263l-.958 4.24c-.105.468-.205.936-.317 1.401-.12.49-.414.82-.923.934a1.628 1.628 0 0 1-.35.036c-3.467.002-6.934.003-10.401 0-.15 0-.307-.02-.451-.061-.458-.133-.72-.456-.826-.903-.146-.613-.28-1.228-.418-1.842l-.956-4.24-.183-.822z"/><path fill="#050406" fill-rule="nonzero" d="M17.855 6.397c.002-.26.083-.351.34-.38a2.07 2.07 0 0 1 .234-.015h6.646c.095 0 .192.008.286.021.188.027.28.127.28.314.003.522.003 1.044 0 1.566 0 .182-.077.257-.262.27-.073.005-.148.004-.222.004h-1.635c-.06 0-.122.008-.182.017-.079.014-.12.067-.126.144l-.004 6.124c0 .073-.007.146-.018.219a.265.265 0 0 1-.193.223.947.947 0 0 1-.268.05c-.72.005-1.439.003-2.158.002a.656.656 0 0 1-.117-.012c-.222-.041-.294-.126-.3-.352-.002-.034 0-.069 0-.103V8.455c-.002-.23-.05-.277-.287-.278H18.26c-.053 0-.105 0-.157-.006-.161-.015-.224-.076-.243-.233l-.005-1.54z"/><path fill="#040405" fill-rule="nonzero" d="M35.913 8.38c-.172.019-.285.107-.32.275-.024.117-.03.24-.03.36l-.025 3.274c-.052.248-.24.392-.497.389-.24-.003-.395-.135-.444-.391l-.025-3.365a.49.49 0 0 0-.212-.421.647.647 0 0 0-.39-.125h-1.741a.421.421 0 0 0-.403.257.866.866 0 0 0-.081.389v4.08c0 .22.028.439.084.652.13.49.404.865.885 1.07.264.113.545.152.83.153 1.05.003 2.102.002 3.153 0 .246 0 .485-.048.706-.16.393-.2.624-.527.753-.934.101-.316.123-.642.122-.972l-.016-4.117a.442.442 0 0 0-.35-.388 1.114 1.114 0 0 0-.259-.03l-1.74.004zm21.664.53a.879.879 0 0 0-.274-.403.502.502 0 0 0-.319-.13c-.697-.001-1.395-.001-2.093.001a.665.665 0 0 0-.192.031c-.123.039-.179.119-.163.246.01.08.037.16.068.234.788 1.932 1.577 3.863 2.368 5.793a.275.275 0 0 1-.004.233c-.29.673-.575 1.347-.861 2.022a1.25 1.25 0 0 0-.059.157c-.041.152.008.243.164.281.092.023.19.031.284.032.44.003.881 0 1.322.002a.577.577 0 0 0 .412-.165c.116-.109.195-.24.257-.385l3.44-8.009c.022-.05.033-.106.049-.159l-.002-.183c-.025-.064-.082-.09-.14-.101a1.694 1.694 0 0 0-.285-.03c-.476-.003-.951.005-1.426-.004a.603.603 0 0 0-.52.245 1.27 1.27 0 0 0-.167.29l-.985 2.418-.874-2.417z"/><path fill="#050406" fill-rule="nonzero" d="M42.975 8.131c.345.01.781.013 1.212.094.11.02.219.054.329.08.1.025.148.087.166.19a1.46 1.46 0 0 1-.013.515c-.037.211-.093.42-.152.626-.023.082-.071.157-.116.23a.186.186 0 0 1-.2.093c-.167-.023-.336-.042-.505-.064-.35-.046-.7-.099-1.054-.066a.781.781 0 0 0-.24.056c-.16.07-.181.232-.039.335.112.08.236.147.36.209.233.116.472.22.704.338.37.189.717.41 1.008.708.472.481.673 1.055.616 1.722-.027.31-.096.604-.252.875-.241.418-.616.671-1.063.833-.325.118-.664.18-1.008.204-.976.07-1.94-.019-2.895-.229-.114-.025-.225-.067-.34-.093-.108-.025-.161-.09-.174-.196-.016-.145-.04-.29-.05-.437a3.114 3.114 0 0 1 .04-.863.76.76 0 0 1 .057-.171c.045-.096.093-.113.2-.091.251.052.5.114.754.15a5.65 5.65 0 0 0 1.344.04c.102-.01.205-.041.3-.078.162-.063.23-.275.04-.4a2.404 2.404 0 0 0-.309-.167c-.303-.14-.613-.266-.913-.413a3.73 3.73 0 0 1-.524-.314c-.592-.423-.88-.997-.852-1.722.02-.564.285-.994.735-1.321.37-.27.794-.425 1.238-.528.495-.116.998-.152 1.596-.145m6.04.253h.689c.27-.019.426.106.465.41.02.161.016.326.016.49 0 .216.002.432-.01.647-.011.2-.092.27-.303.275-.205.005-.41.001-.615.001h-.159v2.578c0 .26.115.378.38.388.095.003.19 0 .286 0 .072.073.092.168.114.258.097.4.15.807.148 1.217 0 .3.001.253-.24.314-.568.143-1.147.214-1.734.148-.456-.052-.873-.201-1.203-.534a1.623 1.623 0 0 1-.47-.987c-.026-.23-.026-.465-.027-.697l-.002-2.716c-.033-.002-.066-.007-.1-.007h-.313c-.21-.005-.32-.104-.345-.312a1.373 1.373 0 0 1-.01-.181v-.803c0-.06.002-.121.01-.18.025-.168.118-.264.286-.29.073-.013.148-.016.221-.018.126-.003.252 0 .392 0v-.108c0-.224.005-.449-.002-.673-.007-.243.11-.397.323-.499.16-.076.334-.094.505-.123.399-.067.798-.131 1.198-.194.086-.013.174-.018.26-.014.134.006.2.064.22.194l.02 1.416zm2.517-2.516c-.234.006-.363.135-.37.363l.003 8.39c0 .055.01.111.021.166.017.079.067.133.148.146.098.015.198.026.298.027.588.002 1.177 0 1.766 0 .048 0 .096 0 .143-.004.203-.019.297-.107.326-.305l.006-8.479c-.025-.166-.098-.246-.264-.276-.075-.017-2.077-.028-2.077-.028"/><path fill="#040405" fill-rule="nonzero" d="M26.07 14.31c.001.085.008.172.024.256a.434.434 0 0 0 .344.364c.088.021.181.03.272.03.532.002 1.063 0 1.595 0 .044 0 .088 0 .131-.004.178-.019.29-.112.326-.285a1.41 1.41 0 0 0 .026-.282l.005-3.133c.018-.27.11-.505.345-.665.177-.122.37-.207.583-.246.302-.057.607-.058.911-.067.216-.006.304-.088.305-.298V8.595c0-.152-.052-.208-.206-.227a.905.905 0 0 0-.118-.005c-.213.002-.427.006-.64.007-.493.002-.986.001-1.478.003-.27.001-.541-.002-.81.009-.324.013-.642.064-.938.206-.339.163-.556.425-.627.793-.03.16-.047.325-.048.488l-.001 4.44z"/></g></svg>