<svg xmlns="http://www.w3.org/2000/svg" width="34" height="34" viewBox="0 0 34 34"><g fill="none" fill-rule="evenodd"><path d="M-18-18h70v70h-70z"/><path fill="#0068A3" fill-rule="nonzero" d="M16.936 0c2.66 0 5.178.622 7.42 1.725.353.168.704.352 1.057.556l-1.56 1.4-2.342-2.43-3.953 3.54-2.348-2.573L7.845 8.88l4.721 5.223-1.855 1.638 4.65 5.23-1.844 1.635 6.645 7.424 3.945-3.645 3.41 3.906a18.093 18.093 0 0 1-2.231 1.488 16.758 16.758 0 0 1-8.35 2.22C7.608 34 0 26.362 0 17 0 7.637 7.608 0 16.936 0zM13.85 15.926l4.027-3.64 3.626 4.043-4.027 3.639-3.626-4.042zm2.863 6.985l4.028-3.64 3.627 4.043-4.028 3.64-3.627-4.043zM10.968 9.022l4.027-3.639 3.626 4.042-4.028 3.64-3.625-4.043zm7.39-1.959l3.02-2.729 2.72 3.032-3.02 2.73-2.72-3.033zm5.367 12.504l3.021-2.73 2.72 3.032-3.02 2.73-2.721-3.032zm2.657 6.124l3.02-2.73 2.72 3.031-3.02 2.73-2.72-3.031zM27.6 11.655l2.013-1.82 1.813 2.022-2.012 1.82-1.814-2.022zM25.026 5.65l2.014-1.82 1.813 2.021-2.014 1.82-1.813-2.021zm5.147 12.01l2.014-1.82L34 17.863l-2.014 1.82-1.813-2.021zm-9.03-4.5l3.02-2.73 2.72 3.032-3.02 2.73-2.72-3.032z"/></g></svg>