<svg xmlns="http://www.w3.org/2000/svg" width="59" height="11" viewBox="0 0 59 11"><g fill="none" fill-rule="evenodd"><path d="M-6-30h70v70H-6z"/><path fill="#F00" fill-rule="nonzero" d="M3.739.857h-.552c-.834 0-1.64.541-1.64 2.11 0 1.517.739 2.005 1.64 2.005h.552V.857zm-.861 4.96L1.238 9.43H.04l1.802-3.864C.995 5.144.43 4.379.43 2.968.43.989 1.708 0 3.228 0h1.546v9.43H3.74V5.817h-.861z"/><path fill="#000" fill-rule="nonzero" d="M24.896 6.107c0-2.084.82-3.416 2.407-3.416.605 0 .955.158 1.25.342l-.147.977c-.283-.238-.686-.462-1.116-.462-.754 0-1.291.83-1.291 2.506 0 1.662.403 2.612 1.25 2.612.511 0 .901-.198 1.143-.41l.243.766c-.364.303-.794.5-1.413.5-1.452 0-2.326-1.147-2.326-3.415zm-3.067.013v3.31H20.78V2.783h1.05v3.073l1.627-3.073h1.062l-1.681 3.126L24.76 9.43h-1.143l-1.789-3.31zm-4.936-.62h1.735c0-1.134-.188-1.965-.793-1.965-.646 0-.874.778-.942 1.965zm1.157 4.023c-1.399 0-2.26-1.095-2.26-3.139 0-2.137.606-3.693 2.045-3.693 1.13 0 1.87.83 1.87 3.086v.567H16.88c0 1.504.43 2.295 1.264 2.295.592 0 1.063-.264 1.332-.448l.242.79c-.43.33-.996.542-1.668.542zm-4.465-5.91h-1.17v.12c0 1.398-.068 3.442-.632 4.853h1.802V3.614zm1.573 7.123h-.941V9.43h-2.905v1.306h-.941v-2.15h.416c.619-1.411.686-3.468.686-5.236v-.567h3.147v5.803h.538v2.15zM9.765 2.783V9.43H8.73V6.45H7.17v2.98H6.12V2.783h1.05v2.822h1.56V2.783h1.035zM35.055.54h-2.084c-.04 2.387-.108 4.207-.215 5.566-.121 1.41-.337 2.347-.7 2.783h3V.54zm.713 8.89h-4.115L31.559 11h-.525V8.89h.283c.47-.383.699-1.438.833-2.783.135-1.398.175-3.482.216-6.107h3.362v8.89h.66V11h-.526l-.094-1.57zm1.925-3.707h2.461c.108-1.767-.43-2.558-1.116-2.558-.713 0-1.291.896-1.345 2.558zm1.48 3.298c.9 0 1.37-.712 1.37-.712l.203.5s-.511.752-1.587.752c-1.439 0-2.098-1.28-2.098-3.455 0-2.177.833-3.456 1.977-3.456 1.17 0 1.923 1.2 1.708 3.561h-3.067c.027 1.82.511 2.81 1.493 2.81zm5.716-2.796h-2.313V9.43h-.632V2.783h.632v2.941h2.313V2.783h.632V9.43h-.632V6.225m2.758-.488v3.205h.404c.955 0 1.6-.461 1.6-1.609 0-1.12-.565-1.596-1.533-1.596h-.47zm-.632-2.954h.632v2.466h.498c1.291 0 2.125.686 2.125 2.071 0 1.411-.888 2.11-2.165 2.11h-1.09V2.783zm4.964.514V9.43h-.619V2.783h2.865v.514h-2.246m6.376 1.504c0-.343.026-.633.054-.91h-.04c-.095.29-.216.567-.364.857L55.8 9.43h-.538V2.783h.591v4.616c0 .356-.027.646-.053.937h.04c.094-.304.228-.594.363-.884l2.206-4.67h.551V9.43h-.605V4.801"/></g></svg>