<svg xmlns="http://www.w3.org/2000/svg" viewBox="0 0 83.8 26.188"><path d="M81.181 26.188H2.619A2.627 2.627 0 0 1 0 23.569V2.619A2.626 2.626 0 0 1 2.619 0h78.562A2.626 2.626 0 0 1 83.8 2.619v20.95a2.627 2.627 0 0 1-2.619 2.619Z"/><path fill="#FFF" d="M17.677 12.963c0-2.03 1.702-3.012 1.767-3.077-.982-1.375-2.422-1.571-2.946-1.637-1.244-.131-2.488.72-3.077.72-.655 0-1.637-.72-2.684-.72-1.375 0-2.619.786-3.339 2.03-1.44 2.487-.393 6.154.982 8.183.72.982 1.506 2.095 2.553 2.03 1.048-.066 1.441-.655 2.685-.655 1.243 0 1.571.655 2.684.655 1.113 0 1.833-.982 2.488-1.964.785-1.113 1.113-2.226 1.113-2.292-.066-.065-2.226-.851-2.226-3.273Zm-2.03-6.023c.524-.72.917-1.637.851-2.619-.786.065-1.833.524-2.357 1.244-.523.589-.982 1.571-.851 2.488.851.065 1.768-.459 2.357-1.113Zm16.956 13.421h-1.44l-.786-2.488h-2.749l-.72 2.488h-1.375l2.75-8.446h1.702l2.618 8.446Zm-2.487-3.536-.721-2.225c-.065-.197-.196-.786-.458-1.572-.065.328-.196.917-.393 1.572l-.72 2.225h2.292Zm9.493.459c0 1.047-.262 1.833-.851 2.488-.524.523-1.113.785-1.899.785s-1.375-.262-1.702-.851v3.208h-1.375v-6.547c0-.654 0-1.309-.066-2.029h1.179l.065.982c.459-.72 1.113-1.113 2.03-1.113.72 0 1.309.262 1.768.851.589.524.851 1.244.851 2.226Zm-1.375 0c0-.589-.131-1.113-.393-1.441-.262-.392-.655-.589-1.178-.589-.328 0-.655.131-.917.328a1.454 1.454 0 0 0-.524.851c-.065.196-.065.327-.065.392v1.048c0 .458.131.786.393 1.113.261.327.654.458 1.047.458.524 0 .917-.196 1.178-.589.328-.393.459-.917.459-1.571Zm8.38 0c0 1.047-.262 1.833-.851 2.488-.524.523-1.113.785-1.899.785s-1.375-.262-1.702-.851v3.208h-1.375v-6.547c0-.654 0-1.309-.065-2.029H41.9l.065.982c.459-.72 1.113-1.113 2.03-1.113.72 0 1.309.262 1.768.851.589.524.851 1.244.851 2.226Zm-1.375 0c0-.589-.131-1.113-.393-1.441-.262-.392-.655-.589-1.178-.589-.328 0-.655.131-.917.328a1.454 1.454 0 0 0-.524.851c-.065.196-.065.327-.065.392v1.048c0 .458.131.786.393 1.113.262.327.654.458 1.047.458.524 0 .917-.196 1.179-.589.327-.393.458-.917.458-1.571Zm9.231.72a2.42 2.42 0 0 1-.72 1.768c-.524.523-1.31.72-2.292.72-.916 0-1.636-.197-2.16-.524l.327-1.113c.59.327 1.244.524 1.964.524.524 0 .917-.131 1.179-.328.262-.261.393-.523.393-.916 0-.327-.131-.655-.328-.851-.262-.262-.654-.459-1.178-.655-1.506-.524-2.226-1.375-2.226-2.422 0-.72.262-1.244.786-1.702.523-.459 1.178-.655 2.095-.655.785 0 1.374.131 1.898.393l-.327 1.113c-.458-.262-.982-.393-1.637-.393-.458 0-.851.131-1.113.327a1.086 1.086 0 0 0-.327.786c0 .327.131.589.393.851.196.196.654.393 1.243.655a4.399 4.399 0 0 1 1.637 1.047c.197.327.393.786.393 1.375Zm4.452-2.684h-1.506v2.946c0 .72.262 1.113.786 1.113.262 0 .458 0 .589-.066l.065 1.048c-.261.131-.589.131-1.047.131-.524 0-.982-.131-1.244-.459-.327-.327-.458-.851-.458-1.636V15.32h-.917v-1.048h.917v-1.113l1.309-.393v1.506h1.506v1.048Zm6.743 1.964c0 .916-.262 1.702-.785 2.291-.59.589-1.31.917-2.226.917-.917 0-1.637-.328-2.161-.917s-.785-1.309-.785-2.226c0-.916.261-1.702.851-2.291.523-.589 1.309-.917 2.226-.917.916 0 1.636.328 2.16.917.458.589.72 1.309.72 2.226Zm-1.44.065c0-.589-.131-1.047-.393-1.44a1.404 1.404 0 0 0-1.244-.72c-.524 0-.982.262-1.244.72-.262.393-.393.916-.393 1.44 0 .589.131 1.048.393 1.441.262.458.72.72 1.244.72s.917-.262 1.244-.72c.262-.393.393-.917.393-1.441Zm5.827-1.898c-.131 0-.262-.066-.459-.066a1.4 1.4 0 0 0-1.113.524c-.196.327-.327.72-.327 1.178v3.208h-1.375v-4.19c0-.72 0-1.309-.065-1.898h1.178l.066 1.178h.065c.131-.393.393-.72.655-.982.327-.196.654-.327.982-.327h.327v1.375h.066Zm6.023 1.571c0 .262 0 .458-.066.589H71.95c0 .589.197 1.048.589 1.375a2.11 2.11 0 0 0 1.31.458c.589 0 1.178-.065 1.636-.262l.197.917c-.589.262-1.244.393-2.03.393-.916 0-1.702-.262-2.226-.851-.523-.524-.785-1.31-.785-2.226 0-.917.262-1.702.72-2.292.524-.654 1.244-.982 2.16-.982.852 0 1.572.328 1.964.982.459.524.59 1.179.59 1.899Zm-1.244-.327c0-.393-.066-.721-.262-1.048-.262-.393-.589-.589-1.048-.589-.458 0-.785.196-1.047.524-.196.261-.327.654-.393 1.047h2.75v.066ZM29.723 6.743c0 .72-.197 1.31-.655 1.702-.393.328-.982.524-1.768.524-.392 0-.72 0-.982-.065V4.845c.328-.066.721-.066 1.179-.066.72 0 1.244.131 1.637.459.327.327.589.851.589 1.505Zm-.72 0c0-.458-.131-.851-.393-1.113s-.655-.392-1.113-.392c-.197 0-.393 0-.524.065V8.38h.458c.524 0 .917-.131 1.179-.393s.393-.72.393-1.244Zm4.386.655c0 .458-.131.851-.393 1.113-.262.327-.654.458-1.113.458-.458 0-.785-.131-1.047-.458-.262-.262-.393-.655-.393-1.113 0-.458.131-.851.393-1.113.262-.327.654-.458 1.113-.458.458 0 .785.131 1.047.458.262.262.393.655.393 1.113Zm-.655 0c0-.262-.065-.524-.196-.72-.131-.262-.327-.328-.589-.328a.685.685 0 0 0-.589.328 1.318 1.318 0 0 0-.197.72c0 .262.066.524.197.72.13.262.327.327.589.327.262 0 .458-.13.589-.392.131-.131.196-.393.196-.655Zm5.696-1.506-.916 3.012h-.59l-.392-1.31c-.131-.327-.197-.654-.262-.982-.066.328-.131.655-.262.982l-.393 1.31h-.589l-.982-3.012h.654l.328 1.441.196.982c.066-.262.131-.59.262-.982l.393-1.441h.524l.392 1.375c.131.327.197.655.262.982l.197-.982.393-1.375h.785Zm3.405 3.012h-.655V7.202c0-.524-.197-.786-.589-.786a.595.595 0 0 0-.459.196.744.744 0 0 0-.196.524v1.768h-.655V5.892h.589v.458c.066-.13.197-.261.328-.392.196-.131.393-.197.589-.197.262 0 .524.066.72.262.262.197.328.524.328.982v1.899Zm1.833 0h-.655V4.517h.655v4.387Zm3.928-1.506c0 .458-.131.851-.393 1.113-.262.327-.655.458-1.113.458-.458 0-.786-.131-1.047-.458-.262-.262-.393-.655-.393-1.113 0-.458.131-.851.393-1.113a1.575 1.575 0 0 1 1.112-.458c.459 0 .786.131 1.048.458.262.262.393.655.393 1.113Zm-.655 0c0-.262-.065-.524-.196-.72-.131-.262-.328-.328-.59-.328a.688.688 0 0 0-.589.328 1.317 1.317 0 0 0-.196.72c0 .262.065.524.196.72.131.262.328.327.589.327.262 0 .459-.13.59-.392.131-.131.196-.393.196-.655Zm3.863 1.506h-.589l-.066-.328c-.196.262-.524.393-.851.393-.262 0-.524-.065-.655-.262-.131-.196-.262-.392-.262-.589 0-.393.131-.655.459-.851.327-.196.72-.262 1.309-.262V6.94c0-.393-.196-.59-.589-.59-.327 0-.524.066-.786.197l-.131-.458c.262-.197.59-.262 1.048-.262.785 0 1.178.393 1.178 1.244v1.113c-.065.327-.065.523-.065.72Zm-.655-1.048v-.458c-.72 0-1.113.196-1.113.589 0 .131.066.262.131.328.066.065.196.13.327.13s.262-.065.393-.13c.131-.066.197-.197.262-.328v-.131Zm4.452 1.048h-.589v-.459c-.197.393-.524.524-.982.524-.393 0-.655-.131-.917-.393-.262-.261-.327-.654-.327-1.113 0-.458.131-.851.393-1.178a1.29 1.29 0 0 1 .916-.393c.393 0 .655.131.851.393V4.583h.655v4.321Zm-.655-1.244v-.72a1.36 1.36 0 0 0-.262-.393c-.131-.131-.261-.131-.458-.131a.688.688 0 0 0-.589.327c-.131.197-.197.459-.197.786s.066.524.197.72a.688.688 0 0 0 .589.327c.197 0 .393-.065.524-.261.131-.262.196-.459.196-.655Zm6.351-.262c0 .458-.131.851-.393 1.113-.262.327-.655.458-1.113.458-.458 0-.786-.131-1.048-.458-.261-.262-.392-.655-.392-1.113 0-.458.131-.851.392-1.113.262-.327.655-.458 1.113-.458.459 0 .786.131 1.048.458.262.262.393.655.393 1.113Zm-.72 0c0-.262-.066-.524-.197-.72-.131-.262-.327-.328-.589-.328a.686.686 0 0 0-.589.328 1.318 1.318 0 0 0-.197.72c0 .262.066.524.197.72.131.262.327.327.589.327.262 0 .458-.13.589-.392.131-.131.197-.393.197-.655Zm4.321 1.506h-.655V7.202c0-.524-.197-.786-.589-.786a.595.595 0 0 0-.459.196.744.744 0 0 0-.196.524v1.768h-.655V5.892h.589v.458c.066-.13.197-.261.328-.392.196-.131.393-.197.589-.197.262 0 .524.066.72.262.262.197.328.524.328.982v1.899Zm4.451-2.488h-.72v1.44c0 .393.131.524.393.524h.327v.524c-.131.065-.327.065-.523.065-.262 0-.459-.065-.59-.262-.131-.131-.196-.458-.196-.785V6.416h-.458v-.524h.458v-.524l.655-.196v.72h.72v.524h-.066Zm3.536 2.488h-.655V7.202c0-.524-.196-.786-.589-.786-.328 0-.524.131-.655.458v2.03h-.655V4.517h.655V6.35c.197-.327.524-.523.917-.523.262 0 .523.065.654.262.197.196.328.589.328.982v1.833Zm3.6-1.637v.327h-1.964c0 .328.131.524.262.655.197.131.393.196.655.196.327 0 .589-.065.786-.13l.131.458c-.262.131-.59.196-.983.196-.458 0-.851-.131-1.112-.393-.262-.261-.393-.654-.393-1.113 0-.458.131-.851.393-1.113.261-.327.589-.458 1.047-.458.458 0 .786.131.982.458.131.197.196.524.196.917Zm-.589-.196c0-.197-.065-.393-.131-.524-.131-.197-.262-.262-.523-.262-.197 0-.393.065-.524.262a.743.743 0 0 0-.197.524h1.375Z"/></svg>