<svg xmlns="http://www.w3.org/2000/svg" viewBox="0 0 400 125"><path d="M387.5 125h-375C5.625 125 0 119.375 0 112.5v-100C0 5.625 5.625 0 12.5 0h375c6.875 0 12.5 5.625 12.5 12.5v100c0 6.875-5.625 12.5-12.5 12.5Z"/><linearGradient id="_lgradient_0" x1=".295" x2=".536" y1="-.061" y2=".925" gradientTransform="matrix(68.438 0 0 73.125 30.625 25)" gradientUnits="userSpaceOnUse"><stop offset="0%" stop-color="#006884"/><stop offset="100%" stop-color="#8ad1d0"/></linearGradient><path fill="url(#_lgradient_0)" fill-rule="evenodd" d="M30.625 61.25V28.438c0-1.875 1.563-3.438 3.125-3.438 1.563 0 2.188.313 3.125.938l60.313 33.125c1.25.625 1.875 1.562 1.875 2.499 0 .938-.625 1.875-1.875 2.5L36.875 97.187c-.625.313-1.562.938-3.125.938-1.562 0-3.125-1.563-3.125-3.438V61.25Z"/><linearGradient id="_lgradient_1" x1="-.075" x2=".915" y1=".158" y2=".693" gradientTransform="matrix(48.125 0 0 36.563 33.125 25)" gradientUnits="userSpaceOnUse"><stop offset="0%" stop-color="#24bbb6"/><stop offset="100%" stop-color="#dbe692"/></linearGradient><path fill="url(#_lgradient_1)" fill-rule="evenodd" d="M69.688 61.563 33.125 25h.625c1.563 0 2.188.313 3.125.938L81.25 50.313l-11.562 11.25Z"/><linearGradient id="_lgradient_2" x1=".499" x2=".499" y1="1.058" y2="-.031" gradientTransform="matrix(29.375 0 0 22.813 69.688 49.688)" gradientUnits="userSpaceOnUse"><stop offset="0%" stop-color="#fcc072"/><stop offset="100%" stop-color="#f58a5b"/></linearGradient><path fill="url(#_lgradient_2)" fill-rule="evenodd" d="m80.938 72.5-11.25-11.25L81.25 49.688l15.938 8.749c1.25.626 1.875 1.563 1.875 2.5 0 .938-.625 1.875-1.875 2.5L80.938 72.5Z"/><linearGradient id="_lgradient_3" x1=".111" x2=".904" y1="1.178" y2=".371" gradientTransform="matrix(47.5 0 0 36.25 33.438 61.25)" gradientUnits="userSpaceOnUse"><stop offset="0%" stop-color="#712b8f"/><stop offset="100%" stop-color="#ea1d27"/></linearGradient><path fill="url(#_lgradient_3)" fill-rule="evenodd" d="m33.438 97.5 36.25-36.25L80.937 72.5 36.875 96.563c-.937.625-1.562.937-3.437.937.312 0 .312 0 0 0Z"/><path fill="#FFF" fill-rule="evenodd" d="M222.188 105.938c-1.563-1.25-2.813-3.438-3.438-4.688l5-2.187c.313.625.938 1.562 1.563 2.499 1.25 1.25 3.125 2.5 5 2.5s4.062-.937 5.312-2.5c.938-1.562 1.563-3.125 1.563-5.312v-1.875c-3.75 4.687-11.563 4.062-15.938-.938-4.687-5-4.687-13.437 0-18.437 4.688-4.688 11.563-5.313 15.625-.937v-2.188h5.313v23.438c0 5.937-2.188 9.375-5.001 11.562-1.875 1.563-4.687 2.188-7.187 2.188-2.812-.313-5.625-1.25-7.812-3.125Zm130.937 1.25 5.313-12.5-9.375-21.563h5.312l6.563 15.313 6.562-15.313h5.313l-14.375 34.063h-5.313Zm-25.313-11.875c-1.562-1.563-2.187-3.75-2.187-5.938 0-1.875.625-3.75 1.875-5 2.188-2.187 5.313-3.125 8.75-3.125 2.188 0 4.063.313 5.625 1.25 0-3.75-3.125-5.312-5.625-5.312-2.187 0-4.375 1.249-5.312 3.437l-4.688-1.875c.938-2.188 3.438-6.25 9.688-6.25 3.125 0 6.25.937 8.125 3.125 1.875 2.188 2.5 4.688 2.5 8.125v13.125h-5.313v-2.187c-.625.937-1.875 1.562-2.812 2.187-1.25.625-2.813.938-4.375.938-1.875-.313-4.688-.938-6.251-2.5ZM161.25 84.063c0-6.25 4.688-13.125 13.125-13.125 8.125 0 13.125 6.875 13.125 13.125s-4.688 13.125-13.125 13.125c-8.437 0-13.125-6.875-13.125-13.125Zm28.125 0c0-6.25 4.688-13.125 13.125-13.125 8.125 0 13.125 6.875 13.125 13.125s-4.688 13.125-13.125 13.125c-8.125 0-13.125-6.875-13.125-13.125Zm-63.437 6.875c-7.813-7.813-7.5-20.625.312-28.75 4.063-4.063 9.063-5.938 14.375-5.938 5 0 10 1.875 13.75 5.625l-3.75 4.063c-5.625-5.625-14.687-5.313-20 .312-5.625 5.938-5.625 15 0 20.938 5.625 5.937 15 6.25 20.625.312 1.875-1.875 2.5-4.375 2.813-6.875h-13.125V75h18.437c.313 1.25.313 2.813.313 4.375 0 4.688-1.875 9.375-5 12.5-3.438 3.438-8.438 5.313-13.438 5.313-5.625-.313-11.25-2.188-15.312-6.25Zm132.187 2.187c-4.687-5-4.687-13.437 0-18.75 4.688-5 12.5-5 16.875 0 1.563 1.563 2.5 3.75 3.438 5.938L261.25 87.5c.938 2.188 3.125 4.062 6.25 4.062 2.813 0 4.688-.937 6.563-3.75l4.687 3.125c-.625.625-1.25 1.25-1.562 1.875-5.313 5.313-14.375 5.313-19.063.313Zm32.5 3.75V62.188h11.25c6.563 0 11.875 4.687 11.875 10.312 0 5.625-4.687 10.312-10.625 10.312h-6.875v13.75h-5.625v.313Zm26.25 0V62.188h5.312v34.687h-5.312Zm-70.625-.625V57.5h5.625v38.75h-5.625Zm95.313-9.687c-1.25-.938-3.125-1.25-5-1.25-3.75 0-5.938 1.875-5.938 4.062 0 2.188 2.188 3.438 4.375 3.438 3.125 0 6.563-2.5 6.563-6.25Zm-160-2.5c0-3.75-2.5-7.813-7.188-7.813-4.687 0-7.188 4.063-7.188 7.813s2.501 7.812 7.188 7.812c4.375 0 7.188-4.062 7.188-7.812Zm28.125 0c0-3.75-2.5-7.813-7.188-7.813-4.687 0-7.188 4.063-7.188 7.813s2.501 7.812 7.188 7.812c4.688 0 7.188-4.062 7.188-7.812ZM237.5 86.25c0-.312 0-.625.313-.937V82.5c0-.312-.313-.937-.313-1.25-.937-3.125-3.75-5.312-6.563-5.312-3.749 0-6.874 3.75-6.874 7.812 0 4.375 3.125 7.813 7.187 7.813 2.5.312 5-1.875 6.25-5.313Zm22.813-2.812 11.562-5c-1.25-2.188-3.125-2.813-4.687-2.813-4.688.313-7.5 5.313-6.875 7.813Zm47.812-10.625c0-3.126-2.5-5.313-5.937-5.313h-6.25v10.937h6.562a5.6 5.6 0 0 0 5.625-5.624Zm49.063 28.125h-.313v-.313h.313-.313v.313h.313Zm0 0c0-.313 0-.313 0 0 0-.313 0-.313 0 0Zm0-.313Zm0 .313v-.313.313Zm0 0Zm0-.313Zm0 0v.313-.313Zm0 .313v-.313.313Zm0 0c0-.313 0-.313 0 0Zm0 0c0-.313 0-.313 0 0Zm.312 0c0-.313 0-.313 0 0 0-.313 0-.313 0 0 0-.313 0-.313 0 0Zm0-.313Zm0 .313c0-.313 0-.313 0 0Zm0-.313v.313-.313Zm0 .313v-.313.313Zm0 0c0-.313 0-.313 0 0 0-.313 0-.313 0 0Zm0-.313c0 .313 0 .313 0 0 0 .313 0 .313 0 0Zm0 .313c0-.313 0-.313 0 0 0-.313 0-.313 0 0 0-.313 0-.313 0 0 0-.313 0-.313 0 0Zm.313 0c0-.313 0-.313 0 0-.313-.313-.313-.313 0 0-.313 0-.313 0 0 0Zm0-.313c0 .313 0 .313 0 0 0 .313-.313.313 0 0-.313 0 0 0 0 0Zm0 .313v-.313.313-.313.313-.313.313Zm0 0Zm0-.313Zm0 .313c0-.313 0-.313 0 0 0-.313 0-.313 0 0 0-.313 0-.313 0 0 0-.313 0-.313 0 0 0-.313 0-.313 0 0 0-.313 0-.313 0 0 0-.313 0-.313 0 0 0-.313 0-.313 0 0Zm.312-.313h-.312.312v.313-.313Zm0 .313v-.313.313Zm0 0c0-.313 0-.313 0 0 0-.313 0-.313 0 0Zm0-.313Z"/><path fill="#FFF" d="M121.563 31.563c0-5.625 4.062-9.063 9.062-9.063 3.438 0 5.625 1.563 7.188 3.75l-2.5 1.563c-.938-1.25-2.5-2.188-4.688-2.188-3.437 0-5.937 2.5-5.937 6.25s2.5 6.25 5.937 6.25c1.875 0 3.438-.937 4.063-1.562V33.75h-5v-2.812h8.437V37.5c-1.562 1.875-4.063 3.125-7.188 3.125-5.312 0-9.374-3.75-9.374-9.062Zm20.312 8.75V22.812h11.875v2.813h-9.062V30h8.75v2.812h-8.75v5h9.062v2.813l-11.875-.312Zm20.625 0V25.625h-5.312v-2.812h13.75v2.812h-5.313v14.688H162.5Zm19.063 0V22.812h3.125v17.501h-3.125Zm11.562 0V25.625h-5.312v-2.812h13.75v2.812h-5.313v14.688h-3.125Zm18.438-8.75c0-5.313 3.749-9.063 9.062-9.063 5.312 0 9.062 3.75 9.062 9.063 0 5.312-3.75 9.062-9.062 9.062-5.312 0-9.062-4.062-9.062-9.062Zm14.687 0c0-3.75-2.187-6.25-5.938-6.25-3.437 0-5.937 2.812-5.937 6.25 0 3.75 2.187 6.25 5.937 6.25 3.751 0 5.938-2.813 5.938-6.25Zm19.063 8.75-9.063-12.5v12.5h-3.125V22.812h3.125L245.313 35V22.812h3.125v17.501h-3.125Z"/></svg>