<svg xmlns="http://www.w3.org/2000/svg" width="24" height="24"><path d="M6.49 14.53H3.01l1.65-1.87.27-.32c.97-1.13 1.59-1.85 1.59-3.01 0-.72-.23-1.43-.77-1.93-.94-.87-2.58-.93-3.68-.32-.46.25-.84.62-1.21 1.08-.03.04-.03.09 0 .12l.79 1.01s.12.05.16 0c.59-.71 1.09-1.04 1.77-1.04s1.2.44 1.2 1.19c0 .68-.35 1.23-1.35 2.28l-2.7 3.02s-.03.04-.03.07v1.2c0 .06.04.1.1.1h5.69c.06 0 .1-.04.1-.1v-1.36c0-.06-.04-.1-.1-.1Zm16.17-2.69a5.77 5.77 0 0 0-1.94-1.17 5.9 5.9 0 0 1-1.42-.75c-.41-.36-.44-1.04 0-1.4.2-.17.5-.27.89-.27.7 0 1.34.26 2.06.76.05.03.12.01.15-.04l.6-1.26s0-.09-.03-.12a4.45 4.45 0 0 0-2.78-.9c-1.67 0-2.91 1.06-2.91 2.61s.93 2.17 2.63 2.89l.18.07c.64.27 1.49.62 1.49 1.39 0 .65-.49 1.01-1.3 1.01a3.7 3.7 0 0 1-2.39-.95c-.05-.04-.12-.02-.15.03l-.68 1.2s-.01.1.02.13c1.39 1.15 3.85 1.75 5.35.46 1.03-.89 1.18-2.66.22-3.66ZM11.58 6.8H8.81c-.06 0-.1.04-.1.1V16c0 .06.04.1.1.1h2.77c1.31 0 2.42-.47 3.2-1.28A4.69 4.69 0 0 0 16 11.5c0-1.25-.33-2.5-1.22-3.43a4.32 4.32 0 0 0-3.2-1.27Zm.04 7.74h-1.21V8.37h1.21c1.78 0 2.62 1.54 2.62 3.15 0 1.92-1.05 3.02-2.62 3.02Z"/></svg>