<svg xmlns="http://www.w3.org/2000/svg" width="24" height="24"><path d="M22.65 11.84a5.77 5.77 0 0 0-1.94-1.17 5.9 5.9 0 0 1-1.42-.75c-.41-.36-.44-1.04 0-1.4.2-.17.5-.27.89-.27.7 0 1.34.26 2.06.76.05.03.12.01.15-.04l.6-1.26s0-.09-.03-.12a4.45 4.45 0 0 0-2.78-.9c-1.67 0-2.91 1.06-2.91 2.61s.93 2.17 2.63 2.89c.65.28 1.67.62 1.67 1.47 0 .65-.49 1.01-1.3 1.01a3.7 3.7 0 0 1-2.39-.95c-.05-.04-.12-.02-.15.03l-.68 1.2s-.01.1.02.13c1.39 1.15 3.85 1.75 5.35.46 1.03-.89 1.18-2.66.22-3.66Zm-18.36-1.2 2.15-2.51.02-.07V6.89c0-.06-.04-.1-.1-.1H1.09c-.06 0-.1.04-.1.1v1.35c0 .06.04.1.1.1h3.2L2.23 10.8s-.03.05-.02.08l.19.95s.05.08.1.08h.11c.61 0 1.27 0 1.79.36.35.25.49.63.49 1.04 0 .82-.6 1.33-1.38 1.33s-1.4-.32-1.94-.88c-.04-.04-.12-.04-.15.01l-.78 1.09s-.02.09 0 .13a3.77 3.77 0 0 0 2.89 1.22c1.78 0 3.04-1.22 3.04-2.96 0-.72-.2-1.42-.75-1.91a3.1 3.1 0 0 0-1.53-.71Zm7.29-3.84H8.81c-.06 0-.1.04-.1.1V16c0 .06.04.1.1.1h2.77c1.31 0 2.42-.47 3.2-1.28A4.69 4.69 0 0 0 16 11.5c0-1.25-.33-2.5-1.22-3.43a4.32 4.32 0 0 0-3.2-1.27Zm.04 7.74h-1.21V8.37h1.21c1.78 0 2.62 1.54 2.62 3.15 0 1.92-1.05 3.02-2.62 3.02Z"/></svg>