<svg xmlns="http://www.w3.org/2000/svg" width="24" height="24"><path d="M7 5.5A1.5 1.5 0 1 0 8.5 7 1.5 1.5 0 0 0 7 5.5Zm5 0A1.5 1.5 0 1 0 13.5 7 1.5 1.5 0 0 0 12 5.5Zm5 3A1.5 1.5 0 1 0 15.5 7 1.5 1.5 0 0 0 17 8.5Zm-10 2A1.5 1.5 0 1 0 8.5 12 1.5 1.5 0 0 0 7 10.5Zm5 0a1.5 1.5 0 1 0 1.5 1.5 1.5 1.5 0 0 0-1.5-1.5Zm5 0a1.5 1.5 0 1 0 1.5 1.5 1.5 1.5 0 0 0-1.5-1.5Zm-10 5A1.5 1.5 0 1 0 8.5 17 1.5 1.5 0 0 0 7 15.5Zm5 0a1.5 1.5 0 1 0 1.5 1.5 1.5 1.5 0 0 0-1.5-1.5Zm5 0a1.5 1.5 0 1 0 1.5 1.5 1.5 1.5 0 0 0-1.5-1.5Z"/></svg>