<svg xmlns="http://www.w3.org/2000/svg" width="24" height="24"><path d="M13.2 7.8c.8 0 1.4.2 1.9.7.4.3.6.8.8 1.3h4c-.4-1.6-1.1-2.9-2.3-3.7-.4-.3-.8-.5-1.3-.7V3.1h-2.5v1.7h-.5c-.3 0-.6 0-.9.1V3.1H9.8v2.5c-.1 0-.2.1-.2.1-1.1.6-2 1.4-2.6 2.5 0 .2-.1.4-.2.5H4.1v2.5h2.1v.7c0 .3 0 .5.1.7H4.1v2.5h2.7c.3.8.7 1.4 1.2 2 .5.5 1.1.9 1.8 1.3v2.4h2.5v-1.7h1.4v1.7h2.5v-2.2c.5-.2 1-.4 1.4-.7 1.1-.9 1.9-2.1 2.2-3.7h-3.9c-.2.5-.4 1-.8 1.3-.5.5-1.2.7-2 .7-1 0-1.8-.4-2.4-1.1-.4-.7-.7-1.7-.7-3.1s.3-2.4.8-3.1c.6-.8 1.4-1.1 2.4-1.1z"/></svg>