<svg xmlns="http://www.w3.org/2000/svg" width="24" height="24"><path d="M12 1.25a.75.75 0 0 1 .75.75v12.19l2.07-2.07a.75.75 0 1 1 1.06 1.06l-3.35 3.35a.75.75 0 0 1-1.06 0l-3.35-3.35a.75.75 0 0 1 1.06-1.06l2.07 2.07V2a.75.75 0 0 1 .75-.75Zm3.693 7.586a.75.75 0 0 1 .811-.683c1.912.164 3.41.752 4.403 1.977.977 1.204 1.353 2.886 1.353 4.98v.13c0 2.31-.458 4.121-1.673 5.337-1.216 1.215-3.028 1.673-5.337 1.673H8.74c-2.31 0-4.121-.458-5.337-1.673C2.188 19.36 1.73 17.549 1.73 15.24v-.13c0-2.078.37-3.75 1.332-4.952.978-1.223 2.454-1.82 4.338-1.995a.75.75 0 0 1 .14 1.494c-1.656.154-2.675.648-3.307 1.438-.649.81-1.003 2.073-1.003 4.015v.13c0 2.16.437 3.48 1.234 4.276.797.797 2.115 1.234 4.276 1.234h6.51c2.16 0 3.479-.437 4.276-1.234.797-.797 1.234-2.115 1.234-4.276v-.13c0-1.956-.36-3.224-1.017-4.035-.642-.79-1.68-1.282-3.367-1.428a.75.75 0 0 1-.683-.811Z"/></svg>