<svg xmlns="http://www.w3.org/2000/svg" width="24" height="24"><path d="M3 13.5V20a1 1 0 0 0 .57.9.63.63 0 0 0 .73-.24l2-2.24a.51.51 0 0 1 .75 0L9 20.58a.51.51 0 0 0 .75 0l1.92-2.16a.5.5 0 0 1 .74 0l1.92 2.16a.51.51 0 0 0 .75 0L17 18.42a.51.51 0 0 1 .75 0l2 2.24a.63.63 0 0 0 .73.24A1 1 0 0 0 21 20v-6.5h-3a1 1 0 0 1-1 1h-1a1 1 0 0 1 0-2h1a1 1 0 0 1 1 1h3V9h-3a1 1 0 0 1-1 1H7a1 1 0 0 1 0-2h10a1 1 0 0 1 1 1h3V5a2 2 0 0 0-2-2H5a2 2 0 0 0-2 2v8.5h3a1 1 0 0 1 1-1h5a1 1 0 0 1 0 2H7a1 1 0 0 1-1-1Z"/></svg>