<svg xmlns="http://www.w3.org/2000/svg" width="24" height="24"><path d="M21.31 5.3a1 1 0 0 0-1.13.84l-.24 1.61A9.14 9.14 0 0 0 17.64 5a9 9 0 0 0-11.19-.08 8.87 8.87 0 0 0-2.38 2.83 9.65 9.65 0 0 0-.43.92c0 .09-.07.18-.11.28a.92.92 0 0 0 .69 1.19h.07a1.09 1.09 0 0 0 1.17-.51 1.24 1.24 0 0 0 .1-.2 6.89 6.89 0 0 1 .34-.73 6.93 6.93 0 0 1 10.44-2.1 6.87 6.87 0 0 1 1.8 2.18v.06l-1.54-.57a1 1 0 1 0-.68 1.88l4.24 1.54a1 1 0 0 0 1.33-.79l.66-4.47a1 1 0 0 0-.84-1.13Zm-1.54 8.63h-.07a1.12 1.12 0 0 0-1.18.51 1.24 1.24 0 0 0-.1.2 6 6 0 0 1-.35.72 6.74 6.74 0 0 1-1.69 2 6.94 6.94 0 0 1-8.32.33 7.08 7.08 0 0 1-1.85-1.89c-.12-.19-.24-.38-.34-.58l1.65.78a1 1 0 0 0 .81-1.83l-4.14-1.86a1 1 0 0 0-.85 0 1 1 0 0 0-.52.68l-1 4.41a1 1 0 0 0 2 .42l.32-1.48c.11.2.22.39.34.57A9 9 0 0 0 12.36 21a9 9 0 0 0 7.54-4.67 9.65 9.65 0 0 0 .43-.92c0-.09.08-.18.11-.27a.92.92 0 0 0-.67-1.21Z"/></svg>