<svg xmlns="http://www.w3.org/2000/svg" width="24" height="24"><path d="M5 6.62a.42.42 0 0 0 .09.29.42.42 0 0 0 .29.09h13.24a.39.39 0 0 0 .26-.09.43.43 0 0 0 .12-.29v-.87a.86.86 0 0 0-.22-.53.86.86 0 0 0-.53-.22h-3.5l-.28-.59a.65.65 0 0 0-.28-.29 1.07 1.07 0 0 0-.41-.12h-3.56a.93.93 0 0 0-.41.12.65.65 0 0 0-.28.29L9.25 5h-3.5a.75.75 0 0 0-.75.75Zm13 1.79a.54.54 0 0 0-.13-.29.37.37 0 0 0-.28-.12H6.41a.43.43 0 0 0-.29.12.55.55 0 0 0-.12.29l.63 10.18a1.22 1.22 0 0 0 .46 1 1.39 1.39 0 0 0 1 .41h7.68a1.48 1.48 0 0 0 1-.41 1.43 1.43 0 0 0 .46-1Z"/></svg>