<svg xmlns="http://www.w3.org/2000/svg" width="24" height="24"><path d="M21.5 13.75v4.37a1.74 1.74 0 0 1-.59 1.33 2 2 0 0 1-1.4.55H5a2.48 2.48 0 0 1-1.8-.74 2.39 2.39 0 0 1-.7-1.76V6.25a2.39 2.39 0 0 1 .7-1.76A2.48 2.48 0 0 1 5 3.75h13.38a1.77 1.77 0 0 1 1.32.55 1.77 1.77 0 0 1 .55 1.32.63.63 0 0 1-.2.47.54.54 0 0 1-.43.16h-14a.63.63 0 0 0-.46.2 1 1 0 0 0-.33.84 1.18 1.18 0 0 0 .33.89.73.73 0 0 0 .46.16h13.89a2 2 0 0 1 1.4.54 1.77 1.77 0 0 1 .59 1.33v3.54H19a1.07 1.07 0 0 0-.35-.86 1.19 1.19 0 0 0-.9-.39 1.24 1.24 0 0 0-.9.39 1.18 1.18 0 0 0-.35.86A1.2 1.2 0 0 0 17.75 15a1.18 1.18 0 0 0 .86-.35 1.24 1.24 0 0 0 .39-.9Z"/></svg>