<svg xmlns="http://www.w3.org/2000/svg" width="24" height="24"><path d="M12 19.2a1.494 1.494 0 0 1-1.5-1.493v-.016A1.499 1.499 0 0 1 12 16.2v-1.558a1.264 1.264 0 0 1-1.32-1.2V8.168a1.327 1.327 0 0 1 2.64 0v5.273a1.264 1.264 0 0 1-1.32 1.2v1.558c.828 0 1.496.668 1.5 1.492v.016a1.494 1.494 0 0 1-1.5 1.492v2.403h8.313c.859 0 1.652-.461 2.078-1.204a2.39 2.39 0 0 0 0-2.398L14.078 3.602A2.402 2.402 0 0 0 12 2.398c-.855 0-1.648.461-2.078 1.204L1.609 18a2.392 2.392 0 0 0 0 2.398 2.39 2.39 0 0 0 2.079 1.204H12Zm0 0"/></svg>