<?xml version="1.0" encoding="UTF-8"?>
<svg width="21px" height="21px" viewBox="0 0 21 21" version="1.1" xmlns="http://www.w3.org/2000/svg" xmlns:xlink="http://www.w3.org/1999/xlink">
    <!-- Generator: Sketch 45.2 (43514) - http://www.bohemiancoding.com/sketch -->
    <title>amex</title>
    <desc>Created with Sketch.</desc>
    <defs>
        <radialGradient cx="17.5409177%" cy="17.466056%" fx="17.5409177%" fy="17.466056%" r="93.2873442%" gradientTransform="translate(0.175409,0.174661),scale(1.000000,0.978498),translate(-0.175409,-0.174661)" id="radialGradient-1">
            <stop stop-color="#9DD5F6" offset="0%"></stop>
            <stop stop-color="#98D3F5" offset="7.11%"></stop>
            <stop stop-color="#89CEF3" offset="15.75%"></stop>
            <stop stop-color="#70C6EF" offset="25.16%"></stop>
            <stop stop-color="#4EBBEA" offset="35.14%"></stop>
            <stop stop-color="#23ADE3" offset="45.46%"></stop>
            <stop stop-color="#0DA6E0" offset="50%"></stop>
            <stop stop-color="#2E77BC" offset="100%"></stop>
        </radialGradient>
    </defs>
    <g id="Page-1" stroke="none" stroke-width="1" fill="none" fill-rule="evenodd">
        <g id="card-pay-methods" transform="translate(-635.000000, -296.000000)" fill-rule="nonzero">
            <g id="card-payments" transform="translate(270.000000, 272.000000)">
                <g id="cards" transform="translate(266.000000, 24.000000)">
                    <g id="amex" transform="translate(99.310234, 0.000000)">
                        <path d="M19.9613507,0.0432696177 L0.0451380939,0.0432696177 L0.0451380939,20.5179028 L19.9613507,20.5179028 L19.9613507,13.7607514 C20.040466,13.6436051 20.0795292,13.4937533 20.0795292,13.3105448 C20.0795292,13.1008536 20.040466,12.9709724 19.9613507,12.8615683" id="Shape" fill="url(#radialGradient-1)"></path>
                        <path d="M1.84034861,8.90297709 L1.4572046,7.94663171 L1.07625039,8.90297709 L1.84034861,8.90297709 Z M10.2809602,8.52216104 C10.2040348,8.56998917 10.1130522,8.57158102 10.0040568,8.57158102 L9.32401853,8.57158102 L9.32401853,8.03874245 L10.0133104,8.03874245 C10.1108624,8.03874245 10.2126527,8.0432286 10.2787705,8.08201207 C10.351387,8.11696061 10.3963132,8.19134383 10.3963132,8.29409108 C10.3963132,8.3989367 10.3535768,8.48330522 10.2809602,8.52216104 Z M15.1322811,8.90297709 L14.7448988,7.94663171 L14.3596356,8.90297709 L15.1322811,8.90297709 Z M6.0891218,9.93811949 L5.51525345,9.93811949 L5.51313429,8.05929191 L4.70142563,9.93811949 L4.20992194,9.93811949 L3.39609412,8.05762769 L3.39609412,9.93811949 L2.25754044,9.93811949 L2.04244577,9.40303784 L0.876908134,9.40303784 L0.659623663,9.93811949 L0.0516368492,9.93811949 L1.05406985,7.53918821 L1.88576926,7.53918821 L2.83783691,9.81048135 L2.83783691,7.53918821 L3.75147714,7.53918821 L4.48407052,9.16657445 L5.15704489,7.53918821 L6.08905116,7.53918821 L6.08905116,9.93811949 L6.0891218,9.93811949 Z M8.37633048,9.93811949 L6.50631364,9.93811949 L6.50631364,7.53918821 L8.37633048,7.53918821 L8.37633048,8.03874245 L7.0661249,8.03874245 L7.0661249,8.4711492 L8.34489628,8.4711492 L8.34489628,8.96288887 L7.0661249,8.96288887 L7.0661249,9.44196603 L8.37633048,9.44196603 L8.37633048,9.93811949 L8.37633048,9.93811949 Z M11.0129885,8.18526583 C11.0129885,8.56774609 10.7637754,8.76535366 10.6185423,8.82468658 C10.7410297,8.87244235 10.8456456,8.95681087 10.8954458,9.02670794 C10.9744905,9.146025 10.9881237,9.25260718 10.9881237,9.46685691 L10.9881237,9.93811949 L10.423509,9.93811949 L10.4213899,9.63559395 C10.4213899,9.49124129 10.4348819,9.28364843 10.3330209,9.16823866 C10.2512214,9.08387014 10.1265442,9.06556377 9.92501212,9.06556377 L9.32408917,9.06556377 L9.32408917,9.93811949 L8.76434855,9.93811949 L8.76434855,7.53918821 L10.0518791,7.53918821 C10.3379656,7.53918821 10.5487514,7.54693043 10.7297276,7.65409147 C10.9068186,7.76125252 11.0129885,7.91768883 11.0129885,8.18526583 Z M11.9088278,9.93811949 L11.3376437,9.93811949 L11.3376437,7.53918821 L11.9088278,7.53918821 L11.9088278,9.93811949 Z M18.5352978,9.93811949 L17.7420258,9.93811949 L16.6809627,8.13758242 L16.6809627,9.93811949 L15.5409256,9.93811949 L15.3230761,9.40303784 L14.1602227,9.40303784 L13.9488719,9.93811949 L13.2938397,9.93811949 C13.0217397,9.93811949 12.677235,9.87647113 12.4821311,9.67278556 C12.2854024,9.46909998 12.183047,9.1932019 12.183047,8.75696022 C12.183047,8.40117977 12.2442201,8.07593407 12.4848153,7.81892122 C12.6657915,7.62746401 12.9491938,7.53918821 13.3349514,7.53918821 L13.8768911,7.53918821 L13.8768911,8.0532139 L13.3463242,8.0532139 C13.1420373,8.0532139 13.0266844,8.0843275 12.9155698,8.19532348 C12.820137,8.29633416 12.7546549,8.48728486 12.7546549,8.7387262 C12.7546549,8.99573905 12.8045258,9.18104589 12.9085766,9.30209952 C12.9947557,9.39703219 13.1513616,9.42583037 13.2987138,9.42583037 L13.5501167,9.42583037 L14.3390797,7.53926056 L15.177843,7.53926056 L16.1256017,9.80831063 L16.1256017,7.53926056 L16.9779276,7.53926056 L17.9619239,9.20998878 L17.9619239,7.53926056 L18.5352978,7.53926056 L18.5352978,9.93811949 Z M0.0451380939,10.4093097 L1.00158534,10.4093097 L1.21724512,9.87647113 L1.70006026,9.87647113 L1.91515493,10.4093097 L3.79703906,10.4093097 L3.79703906,10.0019386 L3.96501776,10.4110463 L4.94195021,10.4110463 L5.10992891,9.99586055 L5.10992891,10.4093097 L9.78677229,10.4093097 L9.78458249,9.53465563 L9.8750706,9.53465563 C9.93843346,9.5368987 9.95694079,9.54290435 9.95694079,9.65006539 L9.95694079,10.4093097 L12.3758199,10.4093097 L12.3758199,10.2056965 C12.5709238,10.3127852 12.8743874,10.4093097 13.2737077,10.4093097 L14.291328,10.4093097 L14.509107,9.87647113 L14.9919221,9.87647113 L15.2048976,10.4093097 L17.165897,10.4093097 L17.165897,9.90317095 L17.4628619,10.4093097 L19.0342892,10.4093097 L19.0342892,7.06351184 L17.4791088,7.06351184 L17.4791088,7.45865462 L17.2613298,7.06351184 L15.6655322,7.06351184 L15.6655322,7.45865462 L15.4655542,7.06351184 L13.310016,7.06351184 C12.9491938,7.06351184 12.6320263,7.11510254 12.3758199,7.25887633 L12.3758199,7.06351184 L10.8883113,7.06351184 L10.8883113,7.25887633 C10.7252773,7.11068875 10.5031188,7.06351184 10.2560954,7.06351184 L4.8216526,7.06351184 L4.45701592,7.92767412 L4.08256046,7.06351184 L2.37084483,7.06351184 L2.37084483,7.45865462 L2.18280476,7.06351184 L0.722986527,7.06351184 L0.0450674552,8.65428533 L0.0450674552,10.4093097 L0.0451380939,10.4093097 Z" id="Shape" fill="#FFFFFF"></path>
                        <path d="M19.9613507,12.1788055 L18.9411168,12.1788055 C18.8392559,12.1788055 18.7715841,12.1827128 18.7145787,12.2221475 C18.6555248,12.2610033 18.6327791,12.318672 18.6327791,12.3947918 C18.6327791,12.4853107 18.68265,12.5468867 18.7551959,12.5735142 C18.8142498,12.5945701 18.8776833,12.6007205 18.9709263,12.6007205 L19.2743193,12.6090416 C19.5804672,12.6167838 19.7848248,12.6706899 19.9094313,12.802163 C19.9321063,12.8204694 19.9457396,12.8410188 19.9613507,12.8615683 L19.9613507,12.1788055 Z M19.9613507,13.7607514 C19.8253714,13.964437 19.5604058,14.0676908 19.2017028,14.0676908 L18.1206489,14.0676908 L18.1206489,13.5531586 L19.1973232,13.5531586 C19.3041288,13.5531586 19.3788645,13.5387595 19.4238613,13.4937533 C19.4628538,13.456634 19.4900497,13.4027279 19.4900497,13.3372446 C19.4900497,13.2673475 19.4628538,13.2118496 19.4216715,13.1785652 C19.3810543,13.1419525 19.3219297,13.1253103 19.2244484,13.1253103 C18.6988262,13.1070039 18.0430877,13.1419525 18.0430877,12.3826358 C18.0430877,12.0345976 18.2588181,11.668253 18.8462491,11.668253 L19.9612801,11.668253 L19.9612801,11.19084 L18.9252937,11.19084 C18.6126471,11.19084 18.3855439,11.2675387 18.2246997,11.3867834 L18.2246997,11.19084 L16.6923355,11.19084 C16.4472901,11.19084 16.1596495,11.2530672 16.0235995,11.3867834 L16.0235995,11.19084 L13.2871997,11.19084 L13.2871997,11.3867834 C13.0694207,11.2258609 12.7019585,11.19084 12.5323551,11.19084 L10.7273965,11.19084 L10.7273965,11.3867834 C10.5551088,11.2158756 10.1719648,11.19084 9.93843346,11.19084 L7.91838014,11.19084 L7.45612085,11.7032739 L7.0231766,11.19084 L4.00563498,11.19084 L4.00563498,14.5389533 L6.96638313,14.5389533 L7.44269951,14.0184155 L7.89139618,14.5389533 L9.7164162,14.5406176 L9.7164162,13.7530092 L9.89583836,13.7530092 C10.1379876,13.7568441 10.4235797,13.7468588 10.6755477,13.635284 L10.6755477,14.538881 L12.1808572,14.538881 L12.1808572,13.6662529 L12.2534738,13.6662529 C12.3461517,13.6662529 12.355264,13.6701602 12.355264,13.7650205 L12.355264,14.5388086 L16.9281273,14.5388086 C17.2184522,14.5388086 17.5219158,14.4626888 17.6899651,14.3245589 L17.6899651,14.5388086 L19.1404591,14.5388086 C19.442298,14.5388086 19.737073,14.4954666 19.9613507,14.3844707 L19.9613507,13.7607514 Z M17.7283925,12.802163 C17.837388,12.9177175 17.8958061,13.0635896 17.8958061,13.3105448 C17.8958061,13.8267412 17.5809697,14.0676908 17.0164256,14.0676908 L15.9261182,14.0676908 L15.9261182,13.5531586 L17.0120461,13.5531586 C17.1182159,13.5531586 17.1935167,13.5387595 17.2407033,13.4937533 C17.2792014,13.456634 17.3068211,13.4027279 17.3068211,13.3372446 C17.3068211,13.2673475 17.276941,13.2118496 17.2385135,13.1785652 C17.1957065,13.1419525 17.1366526,13.1253103 17.0391713,13.1253103 C16.5156683,13.1070039 15.860071,13.1419525 15.860071,12.3826358 C15.860071,12.0345976 16.073541,11.668253 16.6604069,11.668253 L17.782643,11.668253 L17.782643,12.1789502 L16.7557691,12.1789502 C16.6539788,12.1789502 16.5877904,12.1828575 16.5314914,12.2222922 C16.470177,12.261148 16.4474314,12.3188167 16.4474314,12.3949365 C16.4474314,12.4854554 16.499492,12.5470314 16.5699188,12.5736589 C16.6289727,12.5947148 16.6924062,12.6008652 16.7877684,12.6008652 L17.0891128,12.6091863 C17.3930003,12.6167838 17.6015962,12.6706176 17.7283925,12.802163 Z M12.6771644,12.6539754 C12.6022874,12.6994881 12.5096801,12.7033954 12.4007553,12.7033954 L11.7207171,12.7033954 L11.7207171,12.1644788 L12.410009,12.1644788 C12.5096801,12.1644788 12.6094219,12.1666495 12.6771644,12.2078208 C12.7497102,12.2466766 12.7930824,12.3209875 12.7930824,12.4236624 C12.7930824,12.5263373 12.7497102,12.6090416 12.6771644,12.6539754 Z M13.0152409,12.9525936 C13.1398475,12.9996982 13.2417084,13.0841391 13.2894601,13.1540361 C13.3685048,13.2711825 13.3799482,13.3805142 13.3822087,13.5920144 L13.3822087,14.0676908 L12.8202076,14.0676908 L12.8202076,13.7674807 C12.8202076,13.623128 12.8337702,13.4093848 12.7297195,13.2978099 C12.64792,13.2118496 12.5232427,13.1913001 12.3190264,13.1913001 L11.7207877,13.1913001 L11.7207877,14.0676908 L11.1582922,14.0676908 L11.1582922,11.6681806 L12.4506969,11.6681806 C12.7340991,11.6681806 12.9405052,11.6809879 13.1242363,11.7814197 C13.3009036,11.8907514 13.4120182,12.0405309 13.4120182,12.3142582 C13.4119475,12.697245 13.1625931,12.8926819 13.0152409,12.9525936 Z M13.7224044,11.6681806 L15.5907259,11.6681806 L15.5907259,12.1644064 L14.2798846,12.1644064 L14.2798846,12.6006481 L15.5587266,12.6006481 L15.5587266,13.0902171 L14.2798846,13.0902171 L14.2798846,13.56763 L15.5907259,13.5698007 L15.5907259,14.0676908 L13.7224044,14.0676908 L13.7224044,11.6681806 L13.7224044,11.6681806 Z M9.94556796,12.7755355 L9.22215761,12.7755355 L9.22215761,12.1644788 L9.95206672,12.1644788 C10.1541639,12.1644788 10.2944522,12.2488473 10.2944522,12.4586833 C10.2944522,12.6662038 10.1606626,12.7755355 9.94556796,12.7755355 Z M8.66460678,13.8494614 L7.8051464,12.8720601 L8.66460678,11.9257 L8.66460678,13.8494614 Z M6.44506993,13.56763 L5.06874658,13.56763 L5.06874658,13.0902171 L6.29771772,13.0902171 L6.29771772,12.6006481 L5.06874658,12.6006481 L5.06874658,12.1644064 L6.47219517,12.1644064 L7.08449094,12.8636666 L6.44506993,13.56763 Z M10.8954458,12.4586833 C10.8954458,13.125238 10.4099464,13.2628614 9.92063252,13.2628614 L9.22215761,13.2628614 L9.22215761,14.0676908 L8.13411056,14.0676908 L7.44481867,13.2733532 L6.72847217,14.0676908 L4.51112512,14.0676908 L4.51112512,11.6681806 L6.76259064,11.6681806 L7.45131742,12.4547036 L8.16335496,11.6681806 L9.95206672,11.6681806 C10.3963132,11.6681806 10.8954458,11.7941545 10.8954458,12.4586833 Z" id="Shape" fill="#FFFFFF"></path>
                    </g>
                </g>
            </g>
        </g>
    </g>
</svg>