<?xml version="1.0" encoding="UTF-8"?>
<svg width="28px" height="20px" viewBox="0 0 28 20" version="1.1" xmlns="http://www.w3.org/2000/svg" xmlns:xlink="http://www.w3.org/1999/xlink">
    <g id="Page-1" stroke="none" stroke-width="1" fill="none" fill-rule="evenodd">
        <g id="interface" transform="translate(-1148.000000, -578.000000)" fill="#9AA4B8">
            <g id="gray_card_icon" transform="translate(1148.000000, 578.000000)">
                <path d="M1.94805195,0.649350649 L26.0519481,0.649350649 L26.0519481,0.649350649 C27.1278274,0.649350649 28,1.52152321 28,2.5974026 L28,17.4025974 L28,17.4025974 C28,18.4784768 27.1278274,19.3506494 26.0519481,19.3506494 L1.94805195,19.3506494 L1.94805195,19.3506494 C0.872172565,19.3506494 -2.69576846e-14,18.4784768 -2.70894418e-14,17.4025974 L-2.84217094e-14,2.5974026 L-2.8643754e-14,2.5974026 C-2.87755113e-14,1.52152321 0.872172565,0.649350649 1.94805195,0.649350649 L1.94805195,0.649350649 Z M2.52958153,2.20779221 C1.99164184,2.20779221 1.55555556,2.64387849 1.55555556,3.18181818 L1.55555556,16.8181818 C1.55555556,17.3561215 1.99164184,17.7922078 2.52958153,17.7922078 L25.4704185,17.7922078 C26.0083582,17.7922078 26.4444444,17.3561215 26.4444444,16.8181818 L26.4444444,16.8181818 L26.4444444,3.18181818 C26.4444444,2.64387849 26.0083582,2.20779221 25.4704185,2.20779221 L2.52958153,2.20779221 Z" id="Shape-1"></path>
                <rect id="Shape-2" x="1.55555556" y="5.32467532" width="24.8888889" height="3.11688312"></rect>
                <rect id="Shape-3" x="3.88888889" y="10.7792208" width="4.66666667" height="4.67532468" rx="0.779220779"></rect>
                <rect id="Shape-4" x="14" y="13.8961039" width="10.1111111" height="1.55844156" rx="0.38961039"></rect>
                <rect id="Shape-5" x="14" y="10.7792208" width="6.22222222" height="1.55844156" rx="0.38961039"></rect>
            </g>
        </g>
    </g>
</svg>
