<?xml version="1.0" encoding="UTF-8"?>
<svg width="28px" height="18px" viewBox="0 0 28 18" version="1.1" xmlns="http://www.w3.org/2000/svg" xmlns:xlink="http://www.w3.org/1999/xlink">
    <g id="Page-1" stroke="none" stroke-width="1" fill="none" fill-rule="evenodd">
        <g id="interface" transform="translate(-1148.000000, -703.000000)" fill="#9AA4B8">
            <g id="gray_money_icon" transform="translate(1148.000000, 703.000000)">
                <path d="M0,1 L28,1 L28,17 L0,17 L0,1 Z M1.55555556,2.52380952 L1.55555556,15.4761905 L26.4444444,15.4761905 L26.4444444,2.52380952 L1.55555556,2.52380952 Z" id="Shape-1"></path>
                <path d="M-4.88759033e-12,6.83511511 C0.486544995,7.00357452 1.01012268,7.0952381 1.55555556,7.0952381 C4.13288439,7.0952381 6.22222222,5.04853981 6.22222222,2.52380952 C6.22222222,1.98950793 6.12864899,1.4766155 5.95668001,1 L4.25045539,1 C4.51516444,1.44826418 4.66666667,1.96870531 4.66666667,2.52380952 C4.66666667,4.20696305 3.27377478,5.57142857 1.55555556,5.57142857 C0.988886666,5.57142857 0.457603016,5.42301823 -3.06638048e-12,5.1637114 L-3.00381942e-12,6.83511511 Z" id="Corner-TL"></path>
                <path d="M21.7777778,6.83511511 C22.2643228,7.00357452 22.7879005,7.0952381 23.3333333,7.0952381 C25.9106622,7.0952381 28,5.04853981 28,2.52380952 C28,1.98950793 27.9064268,1.4766155 27.7344578,1 L26.0282332,1 C26.2929422,1.44826418 26.4444444,1.96870531 26.4444444,2.52380952 C26.4444444,4.20696305 25.0515526,5.57142857 23.3333333,5.57142857 C22.7666644,5.57142857 22.2353808,5.42301823 21.7777778,5.1637114 L21.7777778,6.83511511 Z" id="Corner-TR" transform="translate(24.888889, 4.047619) rotate(90.000000) translate(-24.888889, -4.047619) "></path>
                <path d="M21.7777778,16.739877 C22.2643228,16.9083364 22.7879005,17 23.3333333,17 C25.9106622,17 28,14.9533017 28,12.4285714 C28,11.8942698 27.9064268,11.3813774 27.7344578,10.9047619 L26.0282332,10.9047619 C26.2929422,11.3530261 26.4444444,11.8734672 26.4444444,12.4285714 C26.4444444,14.111725 25.0515526,15.4761905 23.3333333,15.4761905 C22.7666644,15.4761905 22.2353808,15.3277801 21.7777778,15.0684733 L21.7777778,16.739877 Z" id="Corner-BR" transform="translate(24.888889, 13.952381) rotate(-180.000000) translate(-24.888889, -13.952381) "></path>
                <path d="M-4.88004082e-12,16.739877 C0.486544995,16.9083364 1.01012268,17 1.55555556,17 C4.13288439,17 6.22222222,14.9533017 6.22222222,12.4285714 C6.22222222,11.8942698 6.12864899,11.3813774 5.95668001,10.9047619 L4.25045539,10.9047619 C4.51516444,11.3530261 4.66666667,11.8734672 4.66666667,12.4285714 C4.66666667,14.111725 3.27377478,15.4761905 1.55555556,15.4761905 C0.988886666,15.4761905 0.457603016,15.3277801 -3.05827585e-12,15.0684733 L-2.99582581e-12,16.739877 Z" id="Corner-BL" transform="translate(3.111111, 13.952381) rotate(-90.000000) translate(-3.111111, -13.952381) "></path>
                <path d="M14.2151421,11.8463542 L13.6553548,11.8463542 L13.6553548,11.2979911 C13.0927797,11.2570682 12.6402198,11.0892872 12.2976617,10.7946429 C11.9551035,10.4999985 11.7824345,10.1248783 11.7796495,9.66927083 L12.494005,9.66927083 C12.5162852,9.94208966 12.629077,10.1657977 12.8323839,10.3404018 C13.0356908,10.5150058 13.3100117,10.6227677 13.6553548,10.6636905 L13.6553548,8.53571429 L13.3211534,8.44568452 C12.8755493,8.33110062 12.5316039,8.14285845 12.2893066,7.88095238 C12.0470094,7.61904631 11.9258626,7.298489 11.9258626,6.91927083 C11.9258626,6.47184796 12.0811255,6.10491215 12.3916558,5.81845238 C12.7021862,5.53199262 13.1234149,5.36284748 13.6553548,5.3110119 L13.6553548,4.73809524 L14.2151421,4.73809524 L14.2151421,5.30691964 C14.7387269,5.35057065 15.1592595,5.51835172 15.4767524,5.81026786 C15.7942453,6.102184 15.9599518,6.46911981 15.973877,6.91108631 L15.263699,6.91108631 C15.2553439,6.6573648 15.1557808,6.44115913 14.9650065,6.2624628 C14.7742323,6.08376647 14.52428,5.97668669 14.2151421,5.94122024 L14.2151421,7.94233631 L14.5702311,8.02827381 C15.0798908,8.16195503 15.4586486,8.35633553 15.7065158,8.61142113 C15.9543831,8.86650673 16.0783149,9.20138682 16.0783149,9.61607143 C16.0783149,10.1016889 15.9146971,10.491132 15.5874566,10.7844122 C15.2602161,11.0776924 14.8027825,11.2475196 14.2151421,11.2938988 L14.2151421,11.8463542 Z M15.3556044,9.6733631 C15.3556044,9.40327246 15.2643962,9.18502067 15.081977,9.01860119 C14.8995578,8.85218171 14.6106158,8.728051 14.2151421,8.64620536 L14.2151421,10.6759673 C14.5799805,10.6568699 14.8612638,10.5593387 15.0590007,10.3833705 C15.2567375,10.2074024 15.3556044,9.97073561 15.3556044,9.6733631 Z M12.6443956,6.87834821 C12.6443956,7.12115697 12.7307301,7.32235783 12.9034017,7.48195685 C13.0760733,7.64155586 13.3267218,7.75545601 13.6553548,7.82366071 L13.6553548,5.94122024 C13.3629271,5.95758937 13.1213298,6.05307452 12.9305556,6.22767857 C12.7397813,6.40228262 12.6443956,6.61917033 12.6443956,6.87834821 Z" id="$"></path>
            </g>
        </g>
    </g>
</svg>
