<?xml version="1.0" encoding="UTF-8"?>
<svg width="28px" height="25px" viewBox="0 0 28 25" version="1.1" xmlns="http://www.w3.org/2000/svg" xmlns:xlink="http://www.w3.org/1999/xlink">
    <g id="Page-1" stroke="none" stroke-width="1" fill="none" fill-rule="evenodd">
        <g id="interface" transform="translate(-1079.000000, -617.000000)" fill="#57A63F">
            <g id="wallet_icon" transform="translate(1079.000000, 617.000000)">
                <path d="M0.854309687,5.64745196 L25.8642258,5.64745196 L25.8642258,5.64745196 C27.0437813,5.64745196 28,6.60367065 28,7.78322618 L28,22.6261305 L28,22.6261305 C28,23.8056861 27.0437813,24.7619048 25.8642258,24.7619048 L2.13577422,24.7619048 C0.956218688,24.7619048 -1.18781374e-15,23.8056861 -1.33226763e-15,22.6261305 L0,6.50176165 L1.11022302e-16,6.50176165 C5.32407463e-17,6.02993944 0.382487475,5.64745196 0.854309687,5.64745196 L0.854309687,5.64745196 Z M2.76485681,7.38512949 L2.76485681,7.38512949 C2.17507904,7.38512949 1.6969697,7.86323883 1.6969697,8.4530166 L1.6969697,21.9563401 C1.6969697,22.5461179 2.17507904,23.0242272 2.76485681,23.0242272 L25.2351432,23.0242272 C25.824921,23.0242272 26.3030303,22.5461179 26.3030303,21.9563401 L26.3030303,8.4530166 C26.3030303,7.86323883 25.824921,7.38512949 25.2351432,7.38512949 L2.76485681,7.38512949 Z" id="Shape-1"></path>
                <path d="M20.7878788,18.245614 C19.1477604,18.245614 17.8181818,16.8841408 17.8181818,15.2046784 C17.8181818,13.525216 19.1477604,12.1637427 20.7878788,12.1637427 C22.4279971,12.1637427 23.7575758,13.525216 23.7575758,15.2046784 C23.7575758,16.8841408 22.4279971,18.245614 20.7878788,18.245614 Z M20.7878788,16.5079365 C21.4907867,16.5079365 22.0606061,15.924448 22.0606061,15.2046784 C22.0606061,14.4849088 21.4907867,13.9014202 20.7878788,13.9014202 C20.0849709,13.9014202 19.5151515,14.4849088 19.5151515,15.2046784 C19.5151515,15.924448 20.0849709,16.5079365 20.7878788,16.5079365 Z" id="Shape-3"></path>
                <path d="M1.81180738,3.50384027 L21.2978347,0.513482436 C22.4637413,0.33456049 23.5539402,1.13466964 23.7328622,2.30057623 C23.749314,2.40778102 23.7575758,2.51608326 23.7575758,2.62454307 L23.7575758,6.51629073 L0,6.51629073 L0,5.6149009 L4.4408921e-16,5.6149009 C3.14955046e-16,4.56044043 0.769548334,3.66378706 1.81180738,3.50384027 L1.81180738,3.50384027 Z M2.58361227,5.36157802 L2.58361227,5.36157802 C2.0713085,5.44980757 1.6969697,5.89412635 1.6969697,6.4139721 L1.6969697,6.4139721 L1.6969697,6.51629073 L22.0606061,6.51629073 L22.0606061,3.27474833 C22.0606061,3.21400279 22.0554229,3.15336802 22.045113,3.09350379 C21.9450144,2.51228259 21.3926956,2.12225565 20.8114744,2.22235425 L20.8114744,2.22235425 L2.58361227,5.36157802 Z" id="Shape-4"></path>
            </g>
        </g>
    </g>
</svg>
