<?xml version="1.0" encoding="UTF-8"?>
<svg width="24px" height="24px" viewBox="0 0 24 24" version="1.1" xmlns="http://www.w3.org/2000/svg" xmlns:xlink="http://www.w3.org/1999/xlink">
    <g id="Page-1" stroke="none" stroke-width="1" fill="none" fill-rule="evenodd">
        <g id="interface" transform="translate(-1150.000000, -661.000000)">
            <g id="gray_bank_icon" transform="translate(1150.000000, 661.000000)">
                <path d="M11.8378755,1.59853848 L3.04660518,8.21076923 L20.6311674,8.21076923 L11.8378755,1.59853848 Z" id="Fill-3" stroke="#9AA4B8" stroke-width="2"></path>
                <path d="M4.6976129,16.8726923 L7.21993548,16.8726923 L7.21993548,11.0680769 L4.6976129,11.0680769 L4.6976129,16.8726923 Z" id="Fill-4" stroke="#9AA4B8" stroke-width="1.5"></path>
                <path d="M10.6976129,16.8726923 L13.2199355,16.8726923 L13.2199355,11.0680769 L10.6976129,11.0680769 L10.6976129,16.8726923 Z" id="Fill-4-Copy-3" stroke="#9AA4B8" stroke-width="1.5"></path>
                <path d="M16.6976129,16.8726923 L19.2199355,16.8726923 L19.2199355,11.0680769 L16.6976129,11.0680769 L16.6976129,16.8726923 Z" id="Fill-4-Copy-4" stroke="#9AA4B8" stroke-width="1.5"></path>
                <polygon id="Fill-7" fill="#9AA4B8" points="0.9 23.3096153 22.616129 23.3096153 22.616129 21.5096154 0.9 21.5096154"></polygon>
                <polygon id="Fill-8" fill="#9AA4B8" points="4.28632258 20.5296153 19.4020645 20.5296153 19.4020645 18.7296154 4.28632258 18.7296154"></polygon>
            </g>
        </g>
    </g>
</svg>
