<?xml version="1.0" encoding="UTF-8"?>
<svg width="77px" height="86px" viewBox="0 0 77 86" version="1.1" xmlns="http://www.w3.org/2000/svg" xmlns:xlink="http://www.w3.org/1999/xlink">
    <defs>
        <path d="M45.3028882,30.2241176 L49.1696059,30.0643316 C49.4249941,30.0537433 49.6265412,29.8416578 49.6265412,29.5835294 L49.6265412,29.556738 C49.6265412,29.2841711 49.4026,29.0659893 49.1329176,29.0757754 L45.2662,29.2167914 C45.0098588,29.2262567 44.8068824,29.4388235 44.8068824,29.697754 L44.8068824,29.7433155 C44.8068824,30.0168449 45.0322529,30.2353476 45.3028882,30.2241176 Z" id="path-1"></path>
        <polygon id="path-2" points="33.7178235 13.8882353 50.6125176 14.4253476 43.8714118 2.48454545 27.8885235 0.955347594"></polygon>
        <path d="M36.0704765,30.6059358 L40.3691941,30.4281818 C40.6244235,30.4175936 40.8261294,30.2053476 40.8261294,29.9472193 L40.8261294,29.877754 C40.8261294,29.6051872 40.6021882,29.3870053 40.3325059,29.3967914 L36.0337882,29.5536898 C35.7776059,29.5629947 35.5746294,29.7755615 35.5746294,30.0346524 L35.5746294,30.1249733 C35.5746294,30.3985027 35.8,30.6170053 36.0704765,30.6059358 Z" id="path-3"></path>
    </defs>
    <g id="Page-1" stroke="none" stroke-width="1" fill="none" fill-rule="evenodd">
        <g id="4-nalichka" transform="translate(-682.000000, -417.000000)">
            <g id="liqpay" transform="translate(682.000000, 417.000000)">
                <polyline id="Fill-40" fill="#1B1A18" points="25.9443647 4.97294118 25.9443647 56.3154545 30.2205294 58.1913369 30.2205294 14.8560963 25.9443647 4.97294118"></polyline>
                <polyline id="Fill-41" fill="#1B1A18" points="30.7471882 59.1012834 32.6735588 59.9708021 32.6735588 14.6717647 30.7471882 14.8554545 30.7471882 59.1012834"></polyline>
                <polygon id="Fill-42" fill="#98D131" points="52 15.2693583 52 57.1422995 33.2011706 59.9708021 33.2011706 14.6717647"></polygon>
                <g id="Path">
                    <use fill="#FFFFFF" fill-rule="evenodd" xlink:href="#path-1"></use>
                    <path stroke="#101110" stroke-width="0.5" d="M45.3132103,30.4739045 L45.313253,30.4739027 C44.9000222,30.4910496 44.5568824,30.1584087 44.5568824,29.7433155 L44.5568824,29.697754 C44.5568824,29.3048366 44.8657446,28.9814076 45.2570888,28.9669575 L49.1238517,28.8259398 C49.5356572,28.8109964 49.8765412,29.1431297 49.8765412,29.556738 L49.8765412,29.5835294 C49.8765412,29.9751851 49.5697988,30.2979546 49.1799279,30.3141184 L45.3132103,30.4739045 Z"></path>
                </g>
                <path d="M33.7178235,13.8882353 L50.6125176,14.4253476 L43.8714118,2.48454545 L27.8885235,0.955347594 L33.7178235,13.8882353 Z M44.3553471,1.72780749 L52,15.2693583 L33.2011706,14.6717647 L26.6015765,0.029197861 L44.3553471,1.72780749 L44.3553471,1.72780749 Z" id="Fill-43" fill="#7CC00D"></path>
                <g id="Path">
                    <use fill="#FFFFFF" fill-rule="evenodd" xlink:href="#path-2"></use>
                    <path stroke="#323031" stroke-width="1.07142857" d="M34.0688853,13.3634112 L49.6779696,13.8596517 L43.5422603,2.99121387 L28.7561247,1.57651793 L34.0688853,13.3634112 Z"></path>
                </g>
                <polyline id="Fill-44" fill="#1B1A18" points="30.7471882 14.8554545 32.6735588 14.6717647 26.0739647 0.029197861 25 1.57074866 30.7471882 14.8554545"></polyline>
                <g id="Path">
                    <use fill="#FFFFFF" fill-rule="evenodd" xlink:href="#path-3"></use>
                    <path stroke="#101110" stroke-width="0.5" d="M36.0808053,30.8557224 L36.0806994,30.8557267 C35.6676383,30.8726317 35.3246294,30.5399682 35.3246294,30.1249733 L35.3246294,30.0346524 C35.3246294,29.6415877 35.6335086,29.3180636 36.0246696,29.3038562 L40.32344,29.1469559 C40.7352455,29.1320125 41.0761294,29.4641457 41.0761294,29.877754 L41.0761294,29.9472193 C41.0761294,30.3388348 40.7692695,30.6617997 40.3795229,30.6779684 L36.0808053,30.8557224 Z"></path>
                </g>
                <g id="liqpay-logo" transform="translate(0.000000, 70.000000)" fill-rule="nonzero" fill="#7AB72B">
                    <polygon id="Shape" points="62.5749395 1.28918031 67.8970333 7.52027455 62.5749395 13.7523108 64.0511373 15.0394156 70.4726909 7.52027455 64.0511373 0.000662472506"></polygon>
                    <polygon id="Shape" points="69.0476296 1.28918031 74.3694907 7.52027455 69.0476296 13.7523108 70.5233615 15.0394156 76.9451479 7.52027455 70.5233615 0.000662472506"></polygon>
                    <path d="M6.65343739,13.2874704 C6.65343739,13.4206443 6.64686206,13.5322545 6.6337114,13.6220639 C6.62032593,13.7121103 6.59895611,13.7886497 6.56936718,13.8519192 C6.53954338,13.9154256 6.50337907,13.9618706 6.46040468,13.9917281 C6.41743022,14.0218225 6.36647147,14.0367513 6.30705875,14.0367513 L0.644061818,14.0367513 C0.49212489,14.0367513 0.348641951,13.98533 0.213378163,13.8820137 C0.0778795429,13.7786972 0.0102476494,13.5971826 0.0102476494,13.3374698 L0.0102476494,1.36935408 C0.0102476494,1.31603713 0.0233982956,1.26935517 0.0499344205,1.22954518 C0.0762357124,1.18949823 0.122497806,1.15798199 0.188485869,1.13452252 C0.254473931,1.11130003 0.343475625,1.09139503 0.455725784,1.07457057 C0.567975941,1.05822004 0.703239725,1.04968932 0.861751977,1.04968932 C1.02660472,1.04968932 1.16351234,1.05822004 1.27247483,1.07457057 C1.38143733,1.09139503 1.46879519,1.11130003 1.53501809,1.13452252 C1.60077131,1.15798199 1.64726824,1.18949823 1.67356953,1.22954518 C1.69987083,1.26959214 1.7132563,1.31603713 1.7132563,1.36935408 L1.7132563,12.5483789 L6.30705875,12.5483789 C6.36647147,12.5483789 6.41743022,12.5633076 6.46040468,12.5934021 C6.50314426,12.6234966 6.53954338,12.6666241 6.56936718,12.7230215 C6.59919097,12.7796561 6.62056074,12.8545367 6.6337114,12.9479007 C6.64686206,13.0412645 6.65343739,13.1542964 6.65343739,13.2874704 L6.65343739,13.2874704 L6.65343739,13.2874704 Z" id="Shape"></path>
                    <path d="M10.2372233,13.7770385 C10.2372233,13.8305924 10.2238378,13.8770374 10.1975365,13.9168473 C10.1710003,13.9568943 10.1247383,13.9884106 10.058985,14.0118701 C9.99276207,14.0353295 9.90563909,14.0549975 9.7964418,14.071822 C9.68747924,14.0881725 9.55057158,14.0967032 9.3857189,14.0967032 C9.22720663,14.0967032 9.091708,14.0881725 8.97969272,14.071822 C8.86744255,14.0549975 8.77844084,14.0350925 8.71245278,14.0118701 C8.64646471,13.9884106 8.60020268,13.9568943 8.57390135,13.9168473 C8.54736521,13.8768004 8.53421455,13.8305924 8.53421455,13.7770385 L8.53421455,1.36935408 C8.53421455,1.31603713 8.54900905,1.26935517 8.57883281,1.22954518 C8.60865663,1.18949823 8.65797154,1.15798199 8.72724729,1.13452252 C8.79652296,1.11130003 8.88575949,1.09139503 8.99448716,1.07457057 C9.10344971,1.05822004 9.23354718,1.04968932 9.3857189,1.04968932 C9.55057158,1.04968932 9.68747924,1.05822004 9.7964418,1.07457057 C9.90540421,1.09139503 9.99276207,1.11130003 10.058985,1.13452252 C10.1247383,1.15798199 10.1712352,1.18949823 10.1975365,1.22954518 C10.2238378,1.26959214 10.2372233,1.31603713 10.2372233,1.36935408 L10.2372233,13.7770385 L10.2372233,13.7770385 L10.2372233,13.7770385 Z" id="Shape"></path>
                    <path d="M25.9491924,15.1756014 C25.9491924,15.3286803 25.9409732,15.456878 25.9245349,15.5599574 C25.9078617,15.6632738 25.8832043,15.7431308 25.8503277,15.7997652 C25.8172162,15.8561627 25.7810519,15.8947879 25.7413651,15.9146929 C25.7016784,15.9345979 25.6619916,15.9447873 25.6225397,15.9447873 C25.4905635,15.9447873 25.27757,15.8898116 24.9840289,15.7800972 C24.6904877,15.6703828 24.3520933,15.5101949 23.9693156,15.3007185 C23.5865379,15.0907682 23.177224,14.8360316 22.7416089,14.5362719 C22.3059937,14.2365121 21.8835292,13.8869899 21.4744502,13.4872312 C21.1510852,13.6869921 20.7417714,13.8602129 20.2467435,14.0066568 C19.7517156,14.1531007 19.177549,14.2265596 18.5240089,14.2265596 C17.5602544,14.2265596 16.727067,14.0831963 16.0242119,13.7969435 C15.3213569,13.5106907 14.7403801,13.0910271 14.2817514,12.5381895 C13.8228878,11.9853519 13.4814407,11.2979187 13.2569403,10.4754158 C13.03244,9.65291295 12.9204246,8.70884735 12.9204246,7.64321927 C12.9204246,6.61763803 13.0425378,5.69015998 13.2867641,4.86102211 C13.5309904,4.03188425 13.8973298,3.32596779 14.3857824,2.74303577 C14.8742349,2.1603407 15.4848006,1.71081955 16.2172446,1.39447229 C16.9499235,1.07812503 17.8044807,0.919832924 18.7813858,0.919832924 C19.6986434,0.919832924 20.5057642,1.06319628 21.202044,1.34944908 C21.8983238,1.63593885 22.4823533,2.05394377 22.9543675,2.60322687 C23.426147,3.15274693 23.7809796,3.83046465 24.0186305,4.63614305 C24.2562815,5.44205842 24.375107,6.36787767 24.375107,7.41336393 C24.375107,7.95293149 24.3436394,8.46903956 24.280939,8.96192524 C24.2182385,9.45504778 24.119139,9.92115644 23.9841101,10.3607251 C23.8486115,10.8002937 23.6785924,11.2064505 23.4742877,11.5794321 C23.2695134,11.9526508 23.0285747,12.2886662 22.7514719,12.5884259 C23.2331143,12.9879476 23.6555787,13.2995556 24.0186305,13.5225389 C24.3814475,13.7457592 24.6820337,13.9140038 24.9194498,14.0270358 C25.1571008,14.1403047 25.3416794,14.2218204 25.4738904,14.2715829 C25.6056317,14.3215823 25.7047312,14.3782167 25.7709541,14.4414863 C25.8367074,14.5045187 25.8832043,14.5945651 25.9095055,14.7111516 C25.9358069,14.8275009 25.9491924,14.9824756 25.9491924,15.1756014 L25.9491924,15.1756014 L25.9491924,15.1756014 Z M22.5830966,7.53326785 C22.5830966,6.80057439 22.5187524,6.12143488 22.390064,5.49513841 C22.2613754,4.8690789 22.0467382,4.32477204 21.7463868,3.86174393 C21.4460354,3.39895277 21.0449407,3.03758231 20.5435724,2.77786951 C20.0419691,2.51815671 19.4215405,2.38830031 18.6822863,2.38830031 C17.9430321,2.38830031 17.3226034,2.52645045 16.8210002,2.80298772 C16.319397,3.07952498 15.911727,3.45226972 15.598225,3.92193284 C15.2847229,4.391359 15.0602226,4.93590281 14.9249589,5.55532733 C14.789695,6.17475186 14.7218283,6.83066885 14.7218283,7.52355229 C14.7218283,8.28278575 14.7845287,8.98040844 14.9099295,9.61642044 C15.0353303,10.2524324 15.2464452,10.8038482 15.5435089,11.2699569 C15.8405726,11.7363025 16.2381448,12.0976729 16.7364603,12.3538313 C17.2347759,12.6102265 17.860136,12.7384243 18.6125409,12.7384243 C19.3583704,12.7384243 19.9853744,12.5986153 20.493553,12.3189975 C21.0017314,12.0393797 21.4108105,11.6614218 21.7212597,11.1851237 C22.031474,10.7090625 22.2524518,10.155988 22.3846627,9.52684793 C22.5171086,8.89699695 22.5830966,8.23254931 22.5830966,7.53326785 L22.5830966,7.53326785 L22.5830966,7.53326785 Z" id="Shape"></path>
                    <path d="M35.1565231,4.89585585 C35.1565231,5.54205733 35.0508484,6.12475239 34.8397335,6.64417799 C34.6283838,7.16384055 34.3266235,7.60672669 33.9339828,7.97283651 C33.5413421,8.3391832 33.05923,8.62211847 32.488351,8.82187935 C31.9174721,9.02164015 31.2359869,9.12163913 30.4441301,9.12163913 L28.9886354,9.12163913 L28.9886354,13.7770385 C28.9886354,13.8305924 28.9738409,13.8770374 28.9440171,13.9168473 C28.9141933,13.9568943 28.8681661,13.9884106 28.8054657,14.0118701 C28.7427653,14.0353295 28.6570513,14.0549975 28.5480887,14.071822 C28.4391262,14.0881725 28.3022187,14.0967032 28.1373659,14.0967032 C27.9722783,14.0967032 27.8353707,14.0881725 27.7264082,14.071822 C27.6174457,14.0549975 27.529853,14.0350925 27.463865,14.0118701 C27.3978769,13.9884106 27.3516148,13.9568943 27.3253135,13.9168473 C27.2987774,13.8768004 27.2856267,13.8305924 27.2856267,13.7770385 L27.2856267,1.84873273 C27.2856267,1.58238493 27.3549024,1.39257657 27.4934539,1.27930767 C27.6320053,1.16603876 27.7869951,1.10940431 27.9588928,1.10940431 L30.7012722,1.10940431 C30.9786099,1.10940431 31.244206,1.12101556 31.4982953,1.14447502 C31.7523846,1.16793448 32.0525011,1.21769697 32.3991145,1.29423641 C32.7454932,1.37101283 33.0986819,1.51413923 33.458446,1.72385258 C33.8179753,1.93356593 34.1232582,2.19185695 34.3742946,2.49801474 C34.6250962,2.8044095 34.8181289,3.15914496 34.9533927,3.56198417 C35.0886565,3.96529729 35.1565231,4.4098422 35.1565231,4.89585585 L35.1565231,4.89585585 L35.1565231,4.89585585 Z M33.3645128,5.03566476 C33.3645128,4.50960415 33.2670572,4.07003549 33.0723806,3.71672181 C32.8777041,3.36388207 32.6367655,3.10085176 32.3495648,2.9276309 C32.0625989,2.75441004 31.7655352,2.64469561 31.4586085,2.59801365 C31.1516818,2.55156866 30.8529743,2.5281092 30.5624859,2.5281092 L28.9884006,2.5281092 L28.9884006,7.71288669 L30.523034,7.71288669 C31.0380227,7.71288669 31.4651839,7.64653673 31.805222,7.51312589 C32.1450253,7.38018895 32.4305822,7.19535682 32.6616578,6.95862953 C32.8927334,6.72237619 33.0674491,6.43920393 33.1865094,6.10958668 C33.3051001,5.77996942 33.3645128,5.42191646 33.3645128,5.03566476 L33.3645128,5.03566476 L33.3645128,5.03566476 Z" id="Shape"></path>
                    <path d="M47.3535125,13.4275162 C47.406115,13.5741971 47.434295,13.6922053 47.4375827,13.7822517 C47.4406355,13.8722981 47.415978,13.9405439 47.3633754,13.9872257 C47.3105381,14.0336708 47.2231802,14.0635282 47.101067,14.0770352 C46.9787191,14.0903052 46.8155102,14.0971772 46.6109707,14.0971772 C46.4064311,14.0971772 46.2429874,14.0922009 46.1208742,14.0822484 C45.9987611,14.0722959 45.9062369,14.0554715 45.8437714,14.0322489 C45.7808361,14.0090265 45.7348089,13.9772733 45.7052199,13.9374633 C45.6753961,13.8974164 45.647451,13.8474169 45.6211498,13.7877019 L44.5221314,10.6408168 L39.1956502,10.6408168 L38.1461816,13.747655 C38.1262208,13.8076069 38.0999196,13.859502 38.0668081,13.9023926 C38.0336966,13.945757 37.9860256,13.9824865 37.9233252,14.0123439 C37.8606248,14.0422015 37.7713882,14.0637652 37.6560853,14.0772722 C37.5405474,14.0905422 37.3902543,14.0974142 37.2056756,14.0974142 C37.0142868,14.0974142 36.8574183,14.0888834 36.73554,14.0725329 C36.6134269,14.0557084 36.5277129,14.0241922 36.4781631,13.9775103 C36.4288482,13.9310652 36.4053649,13.8625825 36.4088874,13.7727732 C36.412175,13.6827267 36.4401201,13.5644816 36.4929576,13.4180377 L40.7896963,1.40987497 C40.8159977,1.33665302 40.8507529,1.27670106 40.8934925,1.23001911 C40.9362321,1.18333716 40.9991673,1.14660769 41.0815937,1.1200677 C41.16402,1.09352771 41.2696949,1.0750445 41.3983833,1.065092 C41.526837,1.05513951 41.6905156,1.05016326 41.8884798,1.05016326 C42.0995946,1.05016326 42.2745452,1.05513951 42.4133314,1.065092 C42.5518829,1.0750445 42.664133,1.09352771 42.749847,1.1200677 C42.8355611,1.14684466 42.9015491,1.18499591 42.9478112,1.23499536 C42.9938385,1.28499481 43.0302376,1.34660551 43.0567738,1.41982746 L47.3535125,13.4275162 L47.3535125,13.4275162 L47.3535125,13.4275162 Z M41.83893,2.82786896 L41.829067,2.82786896 L39.6214023,9.27140051 L44.0764185,9.27140051 L41.83893,2.82786896 L41.83893,2.82786896 L41.83893,2.82786896 Z" id="Shape"></path>
                    <path d="M53.5707152,9.01168771 L53.5707152,13.7768015 C53.5707152,13.8303555 53.5575645,13.8768004 53.5312633,13.9166104 C53.5049619,13.9566574 53.4589347,13.9881736 53.3934164,14.0116331 C53.3278979,14.0350925 53.2391311,14.0547606 53.1275854,14.0715851 C53.0160397,14.0879356 52.8814805,14.0964663 52.7241424,14.0964663 C52.5599941,14.0964663 52.4240258,14.0879356 52.315533,14.0715851 C52.207275,14.0547606 52.1185081,14.0348556 52.0497021,14.0116331 C51.9806612,13.9881736 51.933225,13.9566574 51.9069237,13.9166104 C51.8806224,13.8765634 51.8677065,13.8303555 51.8677065,13.7768015 L51.8677065,9.01168771 L48.2442339,1.71887633 C48.1714357,1.56579743 48.1268174,1.44589353 48.110614,1.35916462 C48.0939409,1.27267267 48.110614,1.20608572 48.1601637,1.15940377 C48.2094786,1.11295878 48.2987152,1.08310128 48.4274036,1.06959433 C48.5560921,1.05632433 48.7291639,1.04945236 48.947089,1.04945236 C49.1450532,1.04945236 49.3049744,1.05632433 49.4273224,1.06959433 C49.5494355,1.08310128 49.6466564,1.10134753 49.7194545,1.12457003 C49.792018,1.14802948 49.8464992,1.18120448 49.8826635,1.22456893 C49.9190626,1.26793338 49.953583,1.32290909 49.9866945,1.38925908 L51.7587441,5.10556921 C51.9231271,5.45864592 52.0875102,5.82831013 52.2514237,6.21456184 C52.415337,6.60081352 52.5827729,6.99038276 52.7534965,7.38326945 L52.7732224,7.38326945 C52.9239853,7.00365276 53.0796795,6.62593173 53.2407749,6.24939556 C53.4014006,5.87333333 53.5641399,5.50201037 53.7289926,5.13566366 L55.5109053,1.39944854 C55.5308658,1.33286159 55.5588111,1.27622713 55.5952104,1.22954518 C55.6313745,1.1831002 55.6806895,1.14802948 55.7436247,1.12457003 C55.8063253,1.10134753 55.893683,1.08310128 56.0059332,1.06959433 C56.1181835,1.05632433 56.2600224,1.04945236 56.4316851,1.04945236 C56.6693359,1.04945236 56.8557935,1.05798308 56.9910576,1.07433361 C57.1263209,1.09115807 57.2202542,1.12267431 57.2733265,1.16935627 C57.3263989,1.21603822 57.344246,1.28262517 57.3278076,1.36911712 C57.3113694,1.45584603 57.2667511,1.57219547 57.1941877,1.71863937 L53.5707152,9.01168771 L53.5707152,9.01168771 L53.5707152,9.01168771 Z" id="Shape"></path>
                </g>
            </g>
        </g>
    </g>
</svg>