<?xml version="1.0" encoding="UTF-8"?>
<svg width="39px" height="40px" viewBox="0 0 39 40" version="1.1" xmlns="http://www.w3.org/2000/svg" xmlns:xlink="http://www.w3.org/1999/xlink">
    <!-- Generator: Sketch 47 (45396) - http://www.bohemiancoding.com/sketch -->
    <title>loading_icon</title>
    <desc>Created with Sketch.</desc>
    <defs></defs>
    <g id="Page-1" stroke="none" stroke-width="1" fill="none" fill-rule="evenodd">
        <g id="interface" transform="translate(-1044.000000, -60.000000)" fill-rule="nonzero" fill="#62BA46">
            <path d="M1063.5,71.0769231 C1062.5138,71.0769231 1061.7069,70.2857143 1061.7069,69.3186813 L1061.7069,61.7582418 C1061.7069,60.7912088 1062.5138,60 1063.5,60 C1064.4862,60 1065.2931,60.7912088 1065.2931,61.7582418 L1065.2931,69.3186813 C1065.2931,70.2857143 1064.4862,71.0769231 1063.5,71.0769231 Z M1058.16554,72.7912088 C1058.97243,72.2197802 1059.15174,71.1208791 1058.56899,70.3296703 L1053.99659,64.2197802 C1053.41383,63.4285714 1052.29315,63.2527473 1051.48626,63.8241758 C1050.67936,64.3956044 1050.50005,65.4945055 1051.08281,66.2857143 L1055.61038,72.3956044 C1055.969,72.8791209 1056.50692,73.0989011 1057.04485,73.0989011 C1057.4483,73.1428571 1057.85175,73.010989 1058.16554,72.7912088 Z M1054.84831,77.2307692 C1055.1621,76.3076923 1054.62417,75.2967033 1053.6828,75.032967 L1046.3311,72.7032967 C1045.38973,72.3956044 1044.3587,72.9230769 1044.08973,73.8461538 C1043.77594,74.7252747 1044.31387,75.7362637 1045.25525,76.043956 L1052.60694,78.3736264 C1052.78625,78.4175824 1052.96556,78.4615385 1053.14487,78.4615385 C1053.90694,78.4615385 1054.57935,77.978022 1054.84831,77.2307692 Z M1046.3311,87.2967033 L1053.6828,84.967033 C1054.62417,84.6593407 1055.1621,83.6923077 1054.84831,82.7692308 C1054.53452,81.8461538 1053.54832,81.3626374 1052.60694,81.6263736 L1045.25525,83.956044 C1044.31387,84.2637363 1043.77594,85.2307692 1044.08973,86.1538462 C1044.31387,86.9010989 1045.03111,87.3846154 1045.79318,87.3846154 C1045.97248,87.3846154 1046.15179,87.3846154 1046.3311,87.2967033 Z M1053.99659,95.7802198 L1058.56899,89.6703297 C1059.15174,88.8791209 1058.97243,87.7802198 1058.16554,87.2087912 C1057.35865,86.6373626 1056.23796,86.8131868 1055.6552,87.6043956 L1051.12764,93.7142857 C1050.54488,94.5054945 1050.72419,95.6043956 1051.53108,96.1758242 C1051.84487,96.3956044 1052.20349,96.5274725 1052.56211,96.5274725 C1053.10004,96.5274725 1053.63797,96.2637363 1053.99659,95.7802198 Z M1065.2931,98.2417582 L1065.2931,90.6813187 C1065.2931,89.7142857 1064.4862,88.9230769 1063.5,88.9230769 C1062.5138,88.9230769 1061.7069,89.7142857 1061.7069,90.6813187 L1061.7069,98.2417582 C1061.7069,99.2087912 1062.5138,100 1063.5,100 C1064.4862,100 1065.2931,99.2087912 1065.2931,98.2417582 Z M1075.51374,96.1758242 C1076.32064,95.6043956 1076.49995,94.5054945 1075.91719,93.7142857 L1071.3448,87.6043956 C1070.76204,86.8131868 1069.64135,86.6373626 1068.83446,87.2087912 C1068.02757,87.7802198 1067.84826,88.8791209 1068.43101,89.6703297 L1072.95858,95.7802198 C1073.3172,96.2637363 1073.85513,96.4835165 1074.39306,96.4835165 C1074.79651,96.5274725 1075.19995,96.3956044 1075.51374,96.1758242 Z M1082.91027,86.1978022 C1083.22406,85.2747253 1082.68613,84.2637363 1081.74475,84 L1074.39306,81.6703297 C1073.45168,81.3626374 1072.42065,81.8901099 1072.15169,82.8131868 C1071.8379,83.7362637 1072.37583,84.7472527 1073.3172,85.010989 L1080.6689,87.3406593 C1080.84821,87.3846154 1081.02752,87.4285714 1081.20682,87.4285714 C1081.96889,87.3846154 1082.68613,86.9010989 1082.91027,86.1978022 Z M1074.39306,78.3736264 L1081.74475,76.043956 C1082.68613,75.7362637 1083.22406,74.7692308 1082.91027,73.8461538 C1082.59647,72.9230769 1081.61027,72.4395604 1080.6689,72.7032967 L1073.3172,75.032967 C1072.37583,75.3406593 1071.8379,76.3076923 1072.15169,77.2307692 C1072.37583,77.978022 1073.09306,78.4615385 1073.85513,78.4615385 C1074.03444,78.4615385 1074.21375,78.4175824 1074.39306,78.3736264 Z M1071.3448,72.3956044 L1075.87236,66.2857143 C1076.45512,65.4945055 1076.27581,64.3956044 1075.46892,63.8241758 C1074.66202,63.2527473 1073.54134,63.4285714 1072.95858,64.2197802 L1068.43101,70.3296703 C1067.84826,71.1208791 1068.02757,72.2197802 1068.83446,72.7912088 C1069.14825,73.010989 1069.50687,73.1428571 1069.86549,73.1428571 C1070.44825,73.1428571 1070.98618,72.8791209 1071.3448,72.3956044 Z" id="loading_icon"></path>
        </g>
    </g>
</svg>