<?xml version="1.0" encoding="UTF-8" standalone="no"?>
<svg width="137px" height="31px" viewBox="0 0 137 31" version="1.1" xmlns="http://www.w3.org/2000/svg" xmlns:xlink="http://www.w3.org/1999/xlink">
    <defs>
        <polygon id="path-1" points="0.000176546392 30.7535121 30.1094575 30.7535121 30.1094575 0.217920817 0.000176546392 0.217920817 0.000176546392 30.7535121"></polygon>
    </defs>
    <g id="Landing-Design" stroke="none" stroke-width="1" fill="none" fill-rule="evenodd">
        <g id="Landing-Desktop-1440x900" transform="translate(-40.000000, -30.000000)">
            <g id="1-front" transform="translate(40.000000, 30.000000)">
                <g id="fondy_logo">
                    <g id="Group-25" transform="translate(0.000000, 0.139678)">
                        <polygon id="Fill-1" fill="#3D3D3D" points="51.3994693 7.67893742 43.7927915 7.67893742 43.7927915 12.9907126 51.1304126 12.9907126 51.1304126 16.1264981 43.7927915 16.1264981 43.7927915 26.6513512 40.4987889 26.6513512 40.4987889 4.54279438 51.3994693 4.54279438"></polygon>
                        <path d="M57.4785972,15.5321686 C57.4785972,17.9745696 58.2892982,19.9817727 59.9107003,21.5555658 C61.5222157,23.1290013 63.3837209,23.9160766 65.4948626,23.9160766 C67.7853755,23.9160766 69.7174992,23.1150549 71.2915869,21.5130115 C72.8656745,19.8909425 73.6530714,17.9166386 73.6530714,15.5900996 C73.6530714,13.2342375 72.875208,11.2599336 71.3201874,9.66683014 C69.7739941,8.06442912 67.8605843,7.26340741 65.5796049,7.26340741 C63.308159,7.26340741 61.390159,8.06442912 59.8256049,9.66683014 C58.2610508,11.2499208 57.4785972,13.2056296 57.4785972,15.5321686 M54.1563472,15.4964087 C54.1563472,12.38494 55.2823601,9.71224521 57.535092,7.47868199 C59.7782905,5.24404598 62.4738008,4.12726437 65.6223291,4.12726437 C68.7327235,4.12726437 71.3999863,5.25405875 73.6244709,7.50728991 C75.8584889,9.75944828 76.9753214,12.4661149 76.9753214,15.6258595 C76.9753214,18.8041992 75.8535456,21.5008531 73.6103472,23.7158212 C71.3576152,25.9400868 68.6380946,27.0515045 65.4524915,27.0515045 C62.634458,27.0515045 60.103842,26.0638161 57.8606436,24.0880817 C55.3907595,21.9017216 54.1563472,19.0384266 54.1563472,15.4964087" id="Fill-2" fill="#62BA46"></path>
                        <path d="M106.385055,23.5152797 L107.869457,23.5152797 C109.349622,23.5152797 110.579444,23.3575785 111.55963,23.0425338 C112.540168,22.7085364 113.426078,22.1785747 114.217712,21.453364 C115.838761,19.9546667 116.649462,18.0025338 116.649462,15.5969655 C116.649462,13.1720868 115.848295,11.2060077 114.24596,9.69729757 C112.803929,8.35165262 110.67831,7.67900894 107.869457,7.67900894 L106.385055,7.67900894 L106.385055,23.5152797 Z M103.090699,26.6514227 L103.090699,4.5428659 L107.671725,4.5428659 C109.867609,4.5428659 111.602001,4.76278927 112.874547,5.20156322 C114.241016,5.63103959 115.480725,6.3616143 116.592614,7.39257216 C118.845346,9.47308301 119.972065,12.2083576 119.972065,15.5969655 C119.972065,18.994871 118.798385,21.7448072 116.451377,23.8442708 C115.27346,24.894539 114.038694,25.6243985 112.747434,26.0352797 C111.540563,26.4458033 109.830181,26.6514227 107.614877,26.6514227 L103.090699,26.6514227 Z" id="Fill-4" fill="#3D3D3D"></path>
                        <polygon id="Fill-6" fill="#3D3D3D" points="126.363433 17.1001328 119.237668 4.5430447 123.027059 4.5430447 128.017673 13.3775275 133.02241 4.5430447 136.811802 4.5430447 129.657436 17.1001328 129.657436 26.6512439 126.363433 26.6512439"></polygon>
                        <polygon id="Fill-8" fill="#3D3D3D" points="96.0308915 4.54297318 96.0308915 20.8019259 83.2323374 4.54297318 80.0583863 4.54297318 80.0583863 26.6511724 83.352742 26.6511724 83.352742 10.3636117 96.150943 26.6511724 99.3252472 26.6511724 99.3252472 4.54297318"></polygon>
                        <g id="Group">
                            <g id="Group-12">
                                <mask id="mask-2" fill="white">
                                    <use xlink:href="#path-1"></use>
                                </mask>
                                <g id="Clip-11"></g>
                                <path d="M14.9257616,0.217920817 L14.4829832,0.484689655 L9.42704768,3.5493129 L9.03299613,3.80392337 L9.03299613,4.30277395 L9.03299613,9.21081992 L4.92582088,11.6943448 L4.51658634,11.9496705 L4.51658634,12.4474483 L4.51658634,17.3558519 L0.409411082,19.8393768 L0.000176546392,20.0943448 L0.000176546392,20.5928378 L0.000176546392,26.6634381 L0.000176546392,27.161931 L0.367039948,27.4168991 L5.4236817,30.4811648 L5.84739304,30.7443576 L6.28028479,30.4854559 L10.4912693,28.0044342 L14.6507023,30.4833103 L15.0899497,30.7454304 L15.5288441,30.4822375 L19.6473183,28.014447 L23.5415786,30.4718672 L23.9885941,30.7536552 L24.441259,30.4815223 L29.6126559,27.4172567 L30.1094575,27.1622886 L30.1094575,26.6634381 L30.1094575,20.5928378 L30.1094575,20.0943448 L29.7002229,19.8393768 L25.5930477,17.3558519 L25.5930477,12.4474483 L25.5930477,11.9496705 L25.1838131,11.6943448 L21.0766379,9.21081992 L21.0766379,4.30277395 L21.0766379,3.80392337 L20.5533544,3.5493129 L15.418326,0.484689655 L14.9257616,0.217920817 Z M15.0542874,1.2381507 L20.1730735,4.30277395 L20.1730735,9.7093129 L24.6894832,12.4474483 L24.6894832,17.8543448 L29.2062461,20.5928378 L29.2062461,26.6634381 L24.0539162,29.7277037 L19.6858054,26.9895683 L15.1012487,29.7277037 L10.4972719,26.9895683 L5.91659923,29.7277037 L0.903387887,26.6634381 L0.903387887,20.5928378 L5.41944459,17.8543448 L5.41944459,12.4474483 L9.93585438,9.7093129 L9.93585438,4.30277395 L15.0542874,1.2381507 Z" id="Fill-10" fill="#3D3D3D" mask="url(#mask-2)"></path>
                            </g>
                            <polygon id="Fill-13" fill="#5AC341" points="18.9689211 9.7501507 15.0541814 12.162871 11.140501 9.7501507 11.140501 4.92578289 15.0541814 2.51342018 18.9689211 4.92578289"></polygon>
                            <polygon id="Fill-15" fill="#3D3D3D" points="18.9689211 26.0401073 15.0541814 28.4528276 11.140501 26.0401073 11.140501 21.2157395 15.0541814 18.8033768 18.9689211 21.2157395"></polygon>
                            <polygon id="Fill-17" fill="#3D3D3D" points="28.0017407 26.0401073 24.0873541 28.4528276 20.1733206 26.0401073 20.1733206 21.2157395 24.0873541 18.8033768 28.0017407 21.2157395"></polygon>
                            <polygon id="Fill-19" fill="#3D3D3D" points="9.935925 26.0401073 5.87112088 28.4528276 1.80666985 26.0401073 1.80666985 21.2157395 5.87112088 18.8033768 9.935925 21.2157395"></polygon>
                            <polygon id="Fill-21" fill="#3D3D3D" points="14.4525113 17.8956833 10.5384778 20.3076884 6.62409124 17.8956833 6.62409124 13.0706003 10.5384778 10.6582375 14.4525113 13.0706003"></polygon>
                            <polygon id="Fill-23" fill="#3D3D3D" points="23.4853309 17.8956833 19.5712974 20.3076884 15.6569108 17.8956833 15.6569108 13.0706003 19.5712974 10.6582375 23.4853309 13.0706003"></polygon>
                        </g>
                    </g>
                </g>
            </g>
        </g>
    </g>
</svg>
