<svg xmlns="http://www.w3.org/2000/svg" width="140" height="50" viewBox="0 0 140 50" fill="none">
    <path d="M40.4838 17.6337V15.1836H33.6621H32.0103H30.9355V31.4155H33.6621V24.6834H39.8403V22.2333H33.6621V17.6337H40.4838Z" fill="currentColor"/>
    <path d="M66.6381 24.3563V31.4144H69.2124V23.7065C69.2124 21.9167 68.2857 18.6211 64.3599 18.6211C61.2923 18.6211 60.1125 20.4761 60.1125 20.4761L59.9183 18.8545H57.6348V31.4144H60.2433V25.0167C60.2433 22.2195 61.7235 20.9009 63.7164 20.9009C66.0847 20.9009 66.6381 22.7853 66.6381 24.3563Z" fill="currentColor"/>
    <path d="M94.7417 30.334L99.9996 18.832H97.316L93.4911 27.6315L89.4152 18.832H86.5879L92.1225 30.4707C92.0023 30.7526 91.2644 32.4393 90.7217 32.9819C90.2476 33.4425 89.5929 33.6259 88.8099 33.6259L89.19 35.8022C89.7631 35.8199 90.3338 35.7224 90.867 35.5154C91.4001 35.3085 91.8844 34.9967 92.2898 34.5992C93.4975 33.4004 94.4929 30.8766 94.4929 30.8766L94.7074 30.4118H94.7782L94.7417 30.334Z" fill="currentColor"/>
    <path d="M48.9903 18.6484H48.2974C46.6008 18.6484 44.9737 19.3092 43.774 20.4853C42.5744 21.6615 41.9004 23.2567 41.9004 24.92V25.3974C41.901 27.0603 42.5752 28.655 43.7748 29.8307C44.9744 31.0063 46.6012 31.6668 48.2974 31.6668H48.9903C50.6865 31.6668 52.3132 31.0063 53.5129 29.8307C54.7125 28.655 55.3867 27.0603 55.3872 25.3974V24.92C55.3872 23.2567 54.7133 21.6615 53.5136 20.4853C52.3139 19.3092 50.6869 18.6484 48.9903 18.6484ZM52.7937 25.3154C52.7937 26.3751 52.3643 27.3915 51.5999 28.1409C50.8355 28.8903 49.7988 29.3113 48.7178 29.3113H48.5848C47.5038 29.3113 46.4671 28.8903 45.7027 28.1409C44.9384 27.3915 44.509 26.3751 44.509 25.3154V24.9999C44.509 23.9401 44.9384 22.9237 45.7027 22.1743C46.4671 21.4249 47.5038 21.0039 48.5848 21.0039H48.705C49.7859 21.0039 50.8227 21.4249 51.587 22.1743C52.3514 22.9237 52.7808 23.9401 52.7808 24.9999L52.7937 25.3154Z" fill="currentColor"/>
    <path d="M82.2179 14.3789V20.0174C81.0867 19.13 79.6809 18.6471 78.2321 18.6483H77.8481C76.1517 18.6488 74.525 19.3097 73.3254 20.4858C72.1259 21.6618 71.4517 23.2566 71.4512 24.9198V25.3972C71.4517 27.0601 72.126 28.6548 73.3256 29.8305C74.5252 31.0062 76.1519 31.6666 77.8481 31.6666H78.2321C79.8421 31.6689 81.3932 31.0739 82.574 30.0009L82.7855 31.3911H84.8436V14.3789H82.2179ZM82.3466 25.3152C82.3466 26.375 81.9172 27.3913 81.1528 28.1407C80.3884 28.8901 79.3517 29.3111 78.2707 29.3111H78.1377C77.0568 29.3111 76.02 28.8901 75.2557 28.1407C74.4913 27.3913 74.0619 26.375 74.0619 25.3152V24.9997C74.0619 23.9399 74.4913 22.9235 75.2557 22.1741C76.02 21.4248 77.0568 21.0038 78.1377 21.0038H78.2707C79.3517 21.0038 80.3884 21.4248 81.1528 22.1741C81.9172 22.9235 82.3466 23.9399 82.3466 24.9997V25.3152Z" fill="currentColor"/>
    <path d="M14.1426 30.9406V28.2696C14.1425 28.1221 14.1027 27.9772 14.0274 27.8495C13.9521 27.7218 13.8439 27.6157 13.7136 27.5419L11.3539 26.2065C11.2234 26.1326 11.0755 26.0938 10.9248 26.0938C10.7742 26.0938 10.6262 26.1326 10.4958 26.2065L8.13607 27.5419C8.00576 27.6157 7.89752 27.7218 7.82221 27.8495C7.74691 27.9772 7.70719 28.1221 7.70703 28.2696V30.9406C7.70681 31.0885 7.74635 31.2338 7.82168 31.3619C7.897 31.49 8.00544 31.5964 8.13607 31.6704L10.4958 33.0059C10.6262 33.0797 10.7742 33.1186 10.9248 33.1186C11.0755 33.1186 11.2234 33.0797 11.3539 33.0059L13.7136 31.6704C13.8442 31.5964 13.9527 31.49 14.028 31.3619C14.1033 31.2338 14.1428 31.0885 14.1426 30.9406Z" fill="#08A835"/>
    <path d="M21.8497 30.9406V28.2696C21.8495 28.1221 21.8098 27.9772 21.7345 27.8495C21.6592 27.7218 21.5509 27.6157 21.4206 27.5419L19.0609 26.2065C18.9305 26.1326 18.7825 26.0938 18.6319 26.0938C18.4812 26.0938 18.3333 26.1326 18.2028 26.2065L15.8431 27.5419C15.7128 27.6157 15.6045 27.7218 15.5292 27.8495C15.4539 27.9772 15.4142 28.1221 15.4141 28.2696V30.9406C15.4138 31.0885 15.4534 31.2338 15.5287 31.3619C15.604 31.49 15.7125 31.5964 15.8431 31.6704L18.2028 33.0059C18.3333 33.0797 18.4812 33.1186 18.6319 33.1186C18.7825 33.1186 18.9305 33.0797 19.0609 33.0059L21.4206 31.6704C21.5512 31.5964 21.6597 31.49 21.735 31.3619C21.8103 31.2338 21.8499 31.0885 21.8497 30.9406Z" fill="#08A835"/>
    <path d="M10.2969 24.3937V21.7227C10.2975 21.5745 10.2582 21.4288 10.1828 21.3002C10.1075 21.1717 9.99882 21.065 9.86788 20.9909L7.50816 19.6596C7.37772 19.5857 7.22975 19.5469 7.07912 19.5469C6.9285 19.5469 6.78053 19.5857 6.65008 19.6596L4.29037 20.9909C4.16005 21.0646 4.05181 21.1707 3.97651 21.2984C3.90121 21.4261 3.86148 21.571 3.86133 21.7185V24.3895C3.86111 24.5374 3.90065 24.6827 3.97597 24.8108C4.0513 24.939 4.15974 25.0454 4.29037 25.1193L6.65008 26.459C6.78053 26.5328 6.9285 26.5717 7.07912 26.5717C7.22975 26.5717 7.37772 26.5328 7.50816 26.459L9.86788 25.1235C9.99851 25.0496 10.1069 24.9432 10.1823 24.815C10.2576 24.6869 10.2971 24.5416 10.2969 24.3937Z" fill="#08A835"/>
    <path d="M17.9961 24.3937V21.7227C17.996 21.5752 17.9563 21.4303 17.881 21.3026C17.8057 21.1749 17.6974 21.0688 17.5671 20.9951L15.2074 19.6596C15.0769 19.5857 14.929 19.5469 14.7783 19.5469C14.6277 19.5469 14.4797 19.5857 14.3493 19.6596L11.9896 20.9909C11.8593 21.0646 11.751 21.1707 11.6757 21.2984C11.6004 21.4261 11.5607 21.571 11.5605 21.7185V24.3895C11.5603 24.5374 11.5999 24.6827 11.6752 24.8108C11.7505 24.939 11.859 25.0454 11.9896 25.1193L14.3493 26.4548C14.4797 26.5286 14.6277 26.5675 14.7783 26.5675C14.929 26.5675 15.0769 26.5286 15.2074 26.4548L17.5671 25.1193C17.6971 25.0457 17.8051 24.94 17.8804 24.8127C17.9557 24.6853 17.9956 24.5409 17.9961 24.3937Z" fill="#08A835"/>
    <path d="M6.43559 30.9406V28.2696C6.43543 28.1221 6.39571 27.9772 6.32041 27.8495C6.2451 27.7218 6.13686 27.6157 6.00655 27.5419L3.64683 26.2065C3.51639 26.1326 3.36842 26.0938 3.21779 26.0938C3.06717 26.0938 2.9192 26.1326 2.78876 26.2065L0.42904 27.5419C0.298725 27.6157 0.190486 27.7218 0.115181 27.8495C0.039877 27.9772 0.000155276 28.1221 9.32392e-07 28.2696V30.9406C-0.000221399 31.0885 0.0393218 31.2338 0.114645 31.3619C0.189968 31.49 0.29841 31.5964 0.42904 31.6704L2.78876 33.0059C2.9192 33.0797 3.06717 33.1186 3.21779 33.1186C3.36842 33.1186 3.51639 33.0797 3.64683 33.0059L6.00655 31.6704C6.13718 31.5964 6.24562 31.49 6.32094 31.3619C6.39627 31.2338 6.43581 31.0885 6.43559 30.9406Z" fill="#08A835"/>
    <path d="M14.1426 17.8468V15.1759C14.1425 15.0284 14.1027 14.8835 14.0274 14.7557C13.9521 14.628 13.8439 14.522 13.7136 14.4482L11.3539 13.1127C11.2234 13.0389 11.0755 13 10.9248 13C10.7742 13 10.6262 13.0389 10.4958 13.1127L8.13607 14.4482C8.00576 14.522 7.89752 14.628 7.82221 14.7557C7.74691 14.8835 7.70719 15.0284 7.70703 15.1759V17.8468C7.70681 17.9947 7.74635 18.1401 7.82168 18.2682C7.897 18.3963 8.00544 18.5027 8.13607 18.5766L10.4958 19.9121C10.6262 19.986 10.7742 20.0248 10.9248 20.0248C11.0755 20.0248 11.2234 19.986 11.3539 19.9121L13.7136 18.5766C13.8442 18.5027 13.9527 18.3963 14.028 18.2682C14.1033 18.1401 14.1428 17.9947 14.1426 17.8468Z" fill="currentColor"/>
</svg>