<?xml version="1.0" encoding="UTF-8"?>
<svg width="25px" height="21px" viewBox="0 0 25 21" version="1.1" xmlns="http://www.w3.org/2000/svg" xmlns:xlink="http://www.w3.org/1999/xlink">
    <!-- Generator: Sketch 45.2 (43514) - http://www.bohemiancoding.com/sketch -->
    <title>mastercard</title>
    <desc>Created with Sketch.</desc>
    <defs></defs>
    <g id="Page-1" stroke="none" stroke-width="1" fill="none" fill-rule="evenodd">
        <g id="card-pay-methods" transform="translate(-536.000000, -297.000000)" fill-rule="nonzero">
            <g id="card-payments" transform="translate(270.000000, 272.000000)">
                <g id="cards" transform="translate(266.000000, 24.000000)">
                    <g id="mastercard" transform="translate(0.000000, 0.846154)">
                        <path d="M4.50505792,20.3484233 L4.50505792,19.0082418 C4.52009748,18.7802311 4.44102441,18.5564463 4.28801174,18.3939789 C4.13499907,18.2315116 3.92284376,18.146073 3.70567058,18.1594601 C3.41947165,18.1397478 3.14574429,18.2852504 2.99132444,18.5391782 C2.85053786,18.2928214 2.59275296,18.1471205 2.31949891,18.1594601 C2.08157857,18.1468238 1.85508071,18.2675043 1.72421046,18.4766364 L1.72421046,18.2130674 L1.2756181,18.2130674 L1.2756181,20.3484233 L1.72208443,20.3484233 L1.72208443,19.1645963 C1.70285627,19.0167497 1.74744322,18.8676025 1.84367789,18.7578555 C1.93991256,18.6481086 2.07774998,18.5892174 2.21957549,18.5972527 C2.51296765,18.5972527 2.66178977,18.79828 2.66178977,19.160129 L2.66178977,20.3484233 L3.1082561,20.3484233 L3.1082561,19.1645963 C3.08946248,19.015283 3.13539915,18.8649854 3.23341972,18.7550805 C3.33144029,18.6451756 3.47121041,18.5872508 3.61425128,18.5972527 C3.91614756,18.5972527 4.06071761,18.79828 4.06071761,19.160129 L4.06071761,20.3484233 L4.50505792,20.3484233 Z M11.1127597,18.2130674 L10.3899094,18.2130674 L10.3899094,17.5653129 L9.94344308,17.5653129 L9.94344308,18.2130674 L9.53099323,18.2130674 L9.53099323,18.6374582 L9.94344308,18.6374582 L9.94344308,19.6113235 C9.94344308,20.1071906 10.1262817,20.4020306 10.6492851,20.4020306 C10.8446797,20.4027202 11.036288,20.3454253 11.2020529,20.2367415 L11.0744911,19.8391543 C10.9559019,19.9134696 10.8213087,19.9549689 10.6833016,19.9597707 C10.4706986,19.9597707 10.3899094,19.816818 10.3899094,19.6023889 L10.3899094,18.6374582 L11.1127597,18.6374582 L11.1127597,18.2130674 Z M14.8822112,18.1594601 C14.6625747,18.1526737 14.4570015,18.2726615 14.3464516,18.4721691 L14.3464516,18.2130674 L13.9084893,18.2130674 L13.9084893,20.3484233 L14.3507036,20.3484233 L14.3507036,19.1511945 C14.3507036,18.79828 14.4952737,18.60172 14.7759096,18.60172 C14.8704934,18.6003608 14.9644067,18.6185761 15.0522936,18.6553273 L15.1883595,18.2086001 C15.089572,18.1746638 14.986137,18.1580614 14.8822112,18.1594601 L14.8822112,18.1594601 Z M9.18019825,18.3828237 C8.92988478,18.2264641 8.64208936,18.1489354 8.35104649,18.1594601 C7.83654719,18.1594601 7.50063442,18.4185619 7.50063442,18.8429527 C7.50063442,19.1913999 7.74725392,19.405829 8.20222438,19.472838 L8.41482739,19.5041089 C8.65719483,19.5398471 8.77200046,19.6068562 8.77200046,19.7274725 C8.77200046,19.8927616 8.61042217,19.9865743 8.30852588,19.9865743 C8.06569124,19.9939592 7.82755477,19.9152833 7.63244829,19.7632107 L7.41984527,20.1250597 C7.67743803,20.3140232 7.98596921,20.4111107 8.30002176,20.4020306 C8.88680609,20.4020306 9.22697091,20.1116579 9.22697091,19.7051362 C9.22697091,19.2986144 8.95909111,19.1333254 8.51687684,19.0663163 L8.30427382,19.0350454 C8.11293111,19.0082418 7.95985694,18.9680363 7.95985694,18.8250836 C7.95985694,18.6821309 8.10442699,18.5749164 8.34679443,18.5749164 C8.57080904,18.5776504 8.790411,18.640713 8.98460348,18.7580745 L9.18019825,18.3828237 Z M21.0243123,18.1594601 C20.8046758,18.1526737 20.5991026,18.2726615 20.4885527,18.4721691 L20.4885527,18.2130674 L20.0527165,18.2130674 L20.0527165,20.3484233 L20.4949308,20.3484233 L20.4949308,19.1511945 C20.4949308,18.79828 20.6395008,18.60172 20.9201368,18.60172 C21.0147205,18.6003608 21.1086338,18.6185761 21.1965207,18.6553273 L21.3325867,18.2086001 C21.2315943,18.1706426 21.1251935,18.1510045 21.0179342,18.1505256 L21.0243123,18.1594601 Z M15.3265515,19.2762781 C15.3159166,19.579703 15.4274751,19.8737897 15.6338444,20.0863527 C15.8402137,20.2989158 16.1222867,20.4102748 16.4108268,20.393096 C16.6763422,20.4072885 16.9372817,20.3164376 17.1421812,20.1384615 L16.9295782,19.7632107 C16.7767105,19.8856834 16.5903026,19.9530533 16.3980707,19.9553034 C16.0591178,19.9264902 15.7980174,19.629083 15.7980174,19.2718108 C15.7980174,18.9145386 16.0591178,18.6171314 16.3980707,18.5883182 C16.5903026,18.5905683 16.7767105,18.6579382 16.9295782,18.7804109 L17.1421812,18.4051601 C16.9366019,18.2309204 16.676642,18.1433317 16.4129529,18.1594601 C16.1244127,18.1422813 15.8423397,18.2536403 15.6359704,18.4662034 C15.4296012,18.6787665 15.3180426,18.9728532 15.3286775,19.2762781 L15.3265515,19.2762781 Z M19.4680582,19.2762781 L19.4680582,18.2130674 L19.02797,18.2130674 L19.02797,18.4721691 C18.8756194,18.2662167 18.6382636,18.1498445 18.3901609,18.1594601 C17.8030739,18.1594601 17.3271458,18.6594765 17.3271458,19.2762781 C17.3271458,19.8930796 17.8030739,20.393096 18.3901609,20.393096 C18.6382636,20.4027117 18.8756194,20.2863394 19.02797,20.080387 L19.02797,20.3484233 L19.4701842,20.3484233 L19.4680582,19.2762781 Z M17.8225109,19.2762781 C17.8421756,18.9257466 18.1249263,18.6560216 18.4589147,18.669192 C18.7929031,18.6823625 19.0556131,18.973597 19.0502116,19.324691 C19.0448102,19.6757849 18.7732787,19.9579473 18.4390596,19.9597707 C18.2688792,19.962033 18.1055332,19.8895179 17.9884608,19.7597339 C17.8713883,19.62995 17.81123,19.454693 17.8225109,19.2762781 L17.8225109,19.2762781 Z M12.4861752,18.1594601 C11.8990882,18.1680953 11.4298231,18.675112 11.4380423,19.2919135 C11.4462615,19.908715 11.9288526,20.4017312 12.5159396,20.393096 C12.8189363,20.4073589 13.1163369,20.3040029 13.3514694,20.1027234 L13.1388664,19.7587434 C12.970987,19.9001948 12.7630059,19.9787947 12.54783,19.982107 C12.2438856,20.0095696 11.9743505,19.7778791 11.9397854,19.4594362 L13.4492668,19.4594362 C13.4492668,19.4013617 13.4492668,19.3432871 13.4492668,19.2807453 C13.4492668,18.6106546 13.0538252,18.1639274 12.4840491,18.1639274 L12.4861752,18.1594601 Z M12.4861752,18.5749164 C12.6198181,18.571923 12.7491162,18.6248448 12.8456101,18.7220334 C12.942104,18.8192221 12.9978847,18.9527116 13.0006745,19.0931199 L11.9376594,19.0931199 C11.9536744,18.7948901 12.1935225,18.5647282 12.477671,18.5749164 L12.4861752,18.5749164 Z M23.5776745,19.2807453 L23.5776745,17.3553512 L23.1312082,17.3553512 L23.1312082,18.4721691 C22.9788576,18.2662167 22.7415018,18.1498445 22.4933991,18.1594601 C21.9063121,18.1594601 21.4303841,18.6594765 21.4303841,19.2762781 C21.4303841,19.8930796 21.9063121,20.393096 22.4933991,20.393096 C22.7415018,20.4027117 22.9788576,20.2863394 23.1312082,20.080387 L23.1312082,20.3484233 L23.5734225,20.3484233 L23.5776745,19.2807453 Z M21.9321272,19.2807453 C21.9517919,18.9302138 22.2345426,18.6604889 22.568531,18.6736593 C22.9025194,18.6868297 23.1652294,18.9780643 23.1598279,19.3291583 C23.1544265,19.6802522 22.882895,19.9624146 22.5486759,19.9642379 C22.3784955,19.9665002 22.2151495,19.8939852 22.0980771,19.7642012 C21.9810046,19.6344172 21.9208464,19.4591603 21.9321272,19.2807453 L21.9321272,19.2807453 Z M7.00101733,19.2807453 L7.00101733,18.2130674 L6.554551,18.2130674 L6.554551,18.4721691 C6.40220039,18.2662167 6.16484463,18.1498445 5.91674195,18.1594601 C5.32965493,18.1594601 4.85372687,18.6594765 4.85372687,19.2762781 C4.85372687,19.8930796 5.32965493,20.393096 5.91674195,20.393096 C6.16484463,20.4027117 6.40220039,20.2863394 6.554551,20.080387 L6.554551,20.3484233 L6.99676527,20.3484233 L7.00101733,19.2807453 Z M5.35546998,19.2807453 C5.3751347,18.9302138 5.65788542,18.6604889 5.99187384,18.6736593 C6.32586225,18.6868297 6.58857221,18.9780643 6.58317075,19.3291583 C6.57776929,19.6802522 6.30623782,19.9624146 5.97201873,19.9642379 C5.80110494,19.9677631 5.63662172,19.8958009 5.51860638,19.7658677 C5.40059103,19.6359346 5.33986796,19.459948 5.35121792,19.2807453 L5.35546998,19.2807453 Z" id="_Compound_Path_" fill="#000000"></path>
                        <g id="_Group_">
                            <rect id="Rectangle-path" fill="#FF5F00" x="9.0356282" y="1.94326326" width="6.69699502" height="12.644613"></rect>
                            <path d="M9.46083423,8.26445294 C9.45898402,5.79740238 10.5369475,3.46646419 12.3841257,1.94326326 C9.24606061,-0.647742853 4.73967328,-0.270340407 2.03193162,2.8102423 C-0.675810037,5.89082501 -0.675810037,10.6403145 2.03193162,13.7208972 C4.73967328,16.8014799 9.24606061,17.1788824 12.3841257,14.5878763 C10.5363597,13.0641916 9.45833033,10.7322873 9.46083423,8.26445294 Z" id="_Path_" fill="#EB001B"></path>
                            <path d="M24.7661254,8.26445294 C24.7654176,11.3423291 23.0924851,14.1497521 20.4575002,15.49495 C17.8225154,16.8401478 14.6878239,16.4870863 12.3841257,14.5856426 C14.2304979,13.0611485 15.3085426,10.7305202 15.3085426,8.26333612 C15.3085426,5.796152 14.2304979,3.46552371 12.3841257,1.94102962 C14.6881255,0.0393371875 17.8233043,-0.313547792 20.4584562,1.03221067 C23.093608,2.37796912 24.7662313,5.18617382 24.7661254,8.26445294 L24.7661254,8.26445294 Z" id="Shape" fill="#F79E1B"></path>
                        </g>
                    </g>
                </g>
            </g>
        </g>
    </g>
</svg>