<?xml version="1.0" encoding="UTF-8"?>
<svg width="51px" height="15px" viewBox="0 0 51 15" version="1.1" xmlns="http://www.w3.org/2000/svg" xmlns:xlink="http://www.w3.org/1999/xlink">
    <!-- Generator: Sketch 45.2 (43514) - http://www.bohemiancoding.com/sketch -->
    <title>mir</title>
    <desc>Created with Sketch.</desc>
    <defs>
        <linearGradient x1="30.0057035%" y1="50%" x2="100%" y2="50%" id="linearGradient-1">
            <stop stop-color="#13AAE3" offset="0%"></stop>
            <stop stop-color="#0076D0" offset="100%"></stop>
        </linearGradient>
    </defs>
    <g id="Page-1" stroke="none" stroke-width="1" fill="none" fill-rule="evenodd">
        <g id="card-pay-methods" transform="translate(-757.000000, -299.000000)">
            <g id="card-payments" transform="translate(270.000000, 272.000000)">
                <g id="cards" transform="translate(266.000000, 24.000000)">
                    <g id="mir" transform="translate(221.275730, 3.384615)">
                        <g id="g5" fill="#319B42">
                            <path d="M13.5623578,-6.6553496e-15 L13.5623578,0.00633427708 C13.5561365,0.00633427708 11.5964381,-6.6553496e-15 11.0738518,1.9066174 C10.5948144,3.65487787 9.24479987,8.48159701 9.20747228,8.61461682 L8.83419637,8.61461682 C8.83419637,8.61461682 7.45307553,3.68021498 6.96781686,1.90028312 C6.44523059,-0.00633427708 4.47931084,-6.6553496e-15 4.47931084,-6.6553496e-15 L0,-6.6553496e-15 L0,14.5054945 L4.47931084,14.5054945 L4.47931084,5.89087768 L4.66594879,5.89087768 L4.85258674,5.89087768 L7.46551806,14.5054945 L10.5761506,14.5054945 L13.1890819,5.89721196 L13.5623578,5.89721196 L13.5623578,14.5054945 L18.0416687,14.5054945 L18.0416687,-6.6553496e-15 L13.5623578,-6.6553496e-15 Z" id="path7"></path>
                        </g>
                        <g id="g9" transform="translate(19.970261, 0.000000)" fill="#319B42">
                            <path d="M9.95402408,0 C9.95402408,0 8.64133716,0.120351264 8.02543192,1.5202265 L4.85258674,8.61461682 L4.47931084,8.61461682 L4.47931084,0 L0,0 L0,14.5054945 L4.23046024,14.5054945 L4.23046024,14.5054945 C4.23046024,14.5054945 5.60535981,14.378809 6.22126505,12.985268 L9.33189758,5.89087768 L9.70517348,5.89087768 L9.70517348,14.5054945 L14.1844843,14.5054945 L14.1844843,0 L9.95402408,0 Z" id="path11"></path>
                        </g>
                        <g id="g13" transform="translate(36.145550, 6.587648)" fill="#319B42">
                            <path d="M0,0 L0,7.91784635 L4.47931084,7.91784635 L4.47931084,3.29382408 L9.33189758,3.29382408 C11.4471277,3.29382408 13.238852,1.91928595 13.9045274,0 L0,0 Z" id="path15"></path>
                        </g>
                        <g id="g17" transform="translate(35.461211, 0.000000)" fill="url(#linearGradient-1)">
                            <path d="M10.0162367,0 L0.0559913855,0 C0.55369259,2.76174481 2.58804626,4.97874178 5.21964138,5.70084937 L5.21964138,5.70084937 C5.81688282,5.86554057 6.44523059,5.95422045 7.09224216,5.95422045 L14.7692832,5.95422045 C14.8377171,5.62483804 14.8688235,5.28912136 14.8688235,4.94073612 C14.8688235,2.2106627 12.697602,0 10.0162367,0 Z" id="path24"></path>
                        </g>
                    </g>
                </g>
            </g>
        </g>
    </g>
</svg>