<?xml version="1.0" encoding="UTF-8"?>
<svg width="57px" height="57px" viewBox="0 0 57 57" version="1.1" xmlns="http://www.w3.org/2000/svg" xmlns:xlink="http://www.w3.org/1999/xlink">
    <defs></defs>
    <g id="Page-1" stroke="none" stroke-width="1" fill="none" fill-rule="evenodd">
        <g id="3-banks" transform="translate(-692.000000, -429.000000)">
            <g id="privat24" transform="translate(692.000000, 429.000000)">
                <path d="M29.0002681,57.0000009 C29.0024411,55.8232955 29.0170898,47.8661356 29.0170898,47.203125 C29.0170898,36.9858571 20.6523265,27.7978516 10.4350586,27.7978516 L0.015625,27.7978516 L0.015625,57 L0,57 L0,0 L57,0 L57,57 L29.0002681,57 Z M12,12 L12,16.2905273 C12,16.2905273 23.427002,17.0002441 31.4990234,25.152832 C39.5710449,33.3054199 40.5786133,45 40.5786133,45 L45,45 L45,12 L12,12 Z" id="Combined-Shape" fill="#2FAB33"></path>
                <rect id="Rectangle-9" fill="#000000" x="0" y="35" width="22" height="22"></rect>
            </g>
        </g>
    </g>
</svg>