<?xml version="1.0" encoding="UTF-8"?>
<svg width="90px" height="12px" viewBox="0 0 90 12" version="1.1" xmlns="http://www.w3.org/2000/svg" xmlns:xlink="http://www.w3.org/1999/xlink">
    <defs></defs>
    <g id="Page-1" stroke="none" stroke-width="1" fill="none" fill-rule="evenodd">
        <g id="3-banks" transform="translate(-556.000000, -454.000000)">
            <g id="platba24" transform="translate(556.000000, 454.000000)">
                <path d="M44.2926481,4.7381619 C44.9759743,4.74092381 45.6618032,4.75282857 46.2959422,4.67501905 C46.8191936,4.61073333 47.069461,4.1586381 47.0532898,3.61168571 C47.037985,3.0961619 46.7620171,2.69625714 46.2430011,2.64597143 C45.6010652,2.58387619 44.9483487,2.63111429 44.2926481,2.63111429 L44.2926481,4.7381619 Z M44.2898567,9.53159048 C45.0486481,9.53159048 45.7666267,9.56425714 46.479985,9.52225714 C47.1765947,9.48149524 47.591461,9.0214 47.6307337,8.3546381 C47.6716428,7.65711429 47.3068299,7.13787619 46.6128193,7.02130476 C45.8453647,6.8921619 45.0686695,6.98549524 44.2898567,6.96301905 L44.2898567,9.53159048 Z M41.2948299,11.8359714 L41.2948299,0.343304762 C41.4120706,0.333209524 41.5342203,0.313971429 41.6562738,0.313780952 C43.0824128,0.311590476 44.5085519,0.309780952 45.9346909,0.313495238 C46.6733647,0.3154 47.4060706,0.382733333 48.1114396,0.614447619 C49.6154503,1.10854286 50.392723,2.42882857 50.061985,3.92225714 C49.8788086,4.74873333 49.3551722,5.28406667 48.5351615,5.59930476 C48.6577925,5.64568571 48.7537604,5.68578095 48.834231,5.70920952 C51.1037711,6.61111429 51.2874289,8.95425714 50.1217604,10.3956857 C49.5396963,11.1155905 48.7546267,11.4868286 47.8649262,11.6331143 C47.2044128,11.741781 46.5314824,11.8147333 45.8626909,11.8273048 C44.3584877,11.8553048 42.8533219,11.8359714 41.2948299,11.8359714 L41.2948299,11.8359714 Z" id="Fill-1" fill="#075899"></path>
                <path d="M75.1733711,8.69454286 C75.7824834,8.28368571 76.3796599,7.9186381 76.9344834,7.49873333 C78.1330717,6.59178095 78.9199701,5.43168571 78.9711786,3.89349524 C79.0175743,2.50425714 78.5514995,1.34368571 77.2933283,0.595685714 C76.4677348,0.104828571 75.5575316,-0.00745714286 74.6126759,0.0196857143 C73.7496385,0.0445428571 72.9148043,0.181209524 72.190569,0.667019048 C70.7342053,1.64368571 70.4779701,3.11578095 70.4962588,4.73349524 L73.2183979,4.73349524 C73.2507401,4.48901905 73.2629647,4.25178095 73.317446,4.02444762 C73.372216,3.79578095 73.4488364,3.5674 73.5525048,3.35644762 C73.6743658,3.10882857 73.8590824,2.91473333 74.163831,2.87444762 C74.7487829,2.79701905 75.1179273,3.07501905 75.1952214,3.66425714 C75.2859914,4.35597143 75.0235957,4.95292381 74.6111358,5.47130476 C74.2264941,5.95473333 73.8055636,6.42235238 73.3385262,6.82673333 C72.4237989,7.61882857 71.4657561,8.3621619 70.4893283,9.15520952 L70.4893283,11.7242571 L79.1536813,11.7242571 L79.1536813,8.69330476 L75.1733711,8.69454286 Z" id="Fill-3" fill="#075899"></path>
                <path d="M26.5957027,7.22690476 C26.2400342,5.97271429 25.9014032,4.77366667 25.5628684,3.57995238 C25.5307187,3.57957143 25.499339,3.57957143 25.4672856,3.57957143 C25.120954,4.78357143 24.7745262,5.98747619 24.4179914,7.22690476 L26.5957027,7.22690476 Z M28.126184,11.8092857 C27.8728364,11.0638571 27.6237241,10.3311905 27.3676813,9.5777619 L23.6493818,9.5777619 C23.3969968,10.3254762 23.1452856,11.0711905 22.8918417,11.8222381 L19.6683979,11.8222381 C21.1180235,7.98404762 22.5567722,4.17471429 24.0048578,0.340333333 L27.0057561,0.340333333 C28.4479701,4.14185714 29.8953818,7.95719048 31.3568471,11.8092857 L28.126184,11.8092857 Z" id="Fill-5" fill="#075899"></path>
                <path d="M55.7113765,7.2284 L57.8888952,7.2284 C57.5364995,5.9776381 57.1939219,4.76144762 56.8513444,3.54525714 C56.8264139,3.54354286 56.8013872,3.54173333 56.7764567,3.54001905 C56.4272374,4.7496381 56.0779219,5.95925714 55.7113765,7.2284 M54.1874406,11.820781 L50.9654406,11.820781 C52.4193979,7.97182857 53.8602642,4.15754286 55.305462,0.331638095 L58.2990449,0.331638095 C59.7432802,4.13897143 61.1947348,7.96535238 62.6566813,11.8196381 L59.4342963,11.8196381 C59.1761358,11.0708762 58.9199005,10.3274476 58.6590449,9.57097143 L54.9499861,9.57097143 C54.7028952,10.2998286 54.4502214,11.0453524 54.1874406,11.820781" id="Fill-7" fill="#075899"></path>
                <path d="M3.09224599,5.37190476 C3.82620321,5.37980952 4.55217112,5.39171429 5.22500535,5.29085714 C5.87618182,5.19333333 6.17255615,4.70371429 6.17322995,4.048 C6.17390374,3.34114286 5.88340107,2.91228571 5.23386096,2.73561905 C4.53388235,2.54533333 3.81859893,2.61838095 3.09388235,2.62247619 C3.09388235,3.57514286 3.09224599,4.35209524 3.09224599,5.37190476 L3.09224599,5.37190476 Z M4.90283422,0.32447619 C5.55247059,0.340571429 6.21336898,0.431238095 6.84375401,0.588190476 C8.25121925,0.938857143 9.2333262,2.13066667 9.31341176,3.5707619 C9.34296257,4.10104762 9.31158289,4.65590476 9.18385027,5.16942857 C8.85186096,6.50380952 7.92462032,7.28209524 6.58751872,7.53152381 C5.83806417,7.67133333 5.06358289,7.68609524 4.2991123,7.73666667 C3.91706952,7.762 3.53194652,7.74114286 3.10427807,7.74114286 L3.10427807,11.8044762 L0.0129946524,11.8044762 L0.0129946524,0.345142857 L4.90283422,0.32447619 Z" id="Fill-9" fill="#075899"></path>
                <path d="M85.2627465,6.96872381 L85.2627465,2.9204381 C84.4636235,4.32348571 83.7223508,5.6252 82.9571102,6.96872381 L85.2627465,6.96872381 Z M84.7991743,0.0535809524 L88.1414952,0.0535809524 L88.1414952,6.98310476 L89.9732599,6.98310476 L89.9732599,9.52691429 L88.1822118,9.52691429 L88.1822118,11.908819 L85.1397305,11.908819 L85.1397305,9.55662857 L80.0928963,9.55662857 L80.0928963,7.06072381 C81.6491743,4.74358095 83.2256663,2.39634286 84.7991743,0.0535809524 L84.7991743,0.0535809524 Z" id="Fill-11" fill="#075899"></path>
                <polygon id="Fill-13" fill="#075899" points="39.6946973 0.350695238 39.6946973 2.67488571 36.4886759 2.67488571 36.4886759 11.810219 33.3530182 11.810219 33.3530182 2.69517143 30.174815 2.69517143 30.174815 0.350695238"></polygon>
                <polygon id="Fill-15" fill="#075899" points="13.6513925 9.4578381 18.935307 9.4578381 18.935307 11.8119333 10.6019807 11.8119333 10.6019807 0.339838095 13.6513925 0.339838095"></polygon>
                <path d="M63.5214225,6.2198381 C63.5513583,4.68421905 64.7920107,3.52726667 66.3696578,3.56374286 C67.838631,3.59774286 69.0542567,4.87364762 68.9985241,6.35174286 C68.9353797,8.02764762 67.5024064,9.05298095 66.1165027,8.98707619 C64.6620642,8.91774286 63.4925455,7.70212381 63.5214225,6.2198381" id="Fill-17" fill="#E63524"></path>
            </g>
        </g>
    </g>
</svg>