<?xml version="1.0" encoding="UTF-8"?>
<svg width="82px" height="16px" viewBox="0 0 82 16" version="1.1" xmlns="http://www.w3.org/2000/svg" xmlns:xlink="http://www.w3.org/1999/xlink">
    <!-- Generator: Sketch 45.2 (43514) - http://www.bohemiancoding.com/sketch -->
    <title>prostir</title>
    <desc>Created with Sketch.</desc>
    <defs></defs>
    <g id="Page-1" stroke="none" stroke-width="1" fill="none" fill-rule="evenodd">
        <g id="card-pay-methods" transform="translate(-824.000000, -298.000000)">
            <g id="card-payments" transform="translate(270.000000, 272.000000)">
                <g id="cards" transform="translate(266.000000, 24.000000)">
                    <g id="prostir" transform="translate(288.676692, 2.538462)">
                        <polyline id="Fill-1" fill="#054279" points="60.6198302 3.09273752 60.6198302 14.5789466 57.8276653 14.5789466 57.8276653 3.07983206 54.7350505 3.07983206 54.7350505 0.640079859 63.7357357 0.640079859 63.7357357 3.09273752 60.6198302 3.09273752"></polyline>
                        <polyline id="Fill-2" fill="#054279" points="11.1896602 0.632173811 11.1896602 14.5868139 8.3949333 14.5868139 8.3949333 3.08242866 2.80974941 3.08242866 2.80974941 14.5868139 0.00524040411 14.5868139 0.00524040411 0.632173811 11.1896602 0.632173811"></polyline>
                        <path d="M16.7567162,7.07626189 L17.7999448,7.07626189 C18.323597,7.07626189 18.9944464,7.07626189 19.5811387,6.63658485 C20.0841787,6.23899589 20.3352911,5.61124016 20.3352911,5.00464474 C20.3352911,4.23054962 19.9582149,3.70743277 19.5601771,3.41471521 C18.9944464,3.01681621 18.282062,2.97534821 17.6324459,2.97534821 L16.7567162,2.97534821 L16.7567162,7.07626189 Z M18.0304061,0.632173811 C19.6022944,0.632173811 20.691755,0.799673517 21.7184861,1.69929654 C22.8500252,2.70351967 23.1434878,4.06359248 23.1434878,5.06781562 C23.1434878,5.61124016 23.0596025,7.11772989 21.9910647,8.18481386 C21.215679,8.95890898 20.063023,9.41939753 18.4495608,9.41939753 L16.7567162,9.41939753 L16.7567162,14.5868139 L13.9649782,14.5868139 L13.9649782,0.632173811 L18.0304061,0.632173811 L18.0304061,0.632173811 Z" id="Fill-3" fill="#054279"></path>
                        <path d="M51.9405565,14.0845473 C51.1028682,14.523643 49.9919025,14.9006917 48.4830543,14.9006917 C46.0309334,14.9006917 44.543435,14.0639683 43.3699726,12.9548738 C41.7563163,11.4063735 41.127856,9.67033705 41.127856,7.61964768 C41.127856,5.0883946 42.1755487,3.26833705 43.3699726,2.1595138 C44.7740127,0.841141515 46.5130506,0.318334703 48.5036278,0.318334703 C49.4888237,0.318334703 50.6626743,0.48583441 51.9405565,1.17614093 L51.9405565,4.35631004 C50.6626743,2.89159836 49.0695914,2.78695948 48.5669008,2.78695948 C45.7584324,2.78695948 43.9355481,5.0883946 43.9355481,7.66165825 C43.9355481,10.7580388 46.3247842,12.4320282 48.6717089,12.4320282 C49.9713291,12.4320282 51.1234416,11.867172 51.9405565,10.9046882 L51.9405565,14.0845473" id="Fill-4" fill="#054279"></path>
                        <polygon id="Fill-5" fill="#054279" points="66.5298415 14.5868139 69.3216183 14.5868139 69.3216183 0.632173811 66.5298415 0.632173811"></polygon>
                        <path d="M74.9075009,7.07626189 L75.9505354,7.07626189 C76.4745758,7.07626189 77.1449594,7.07626189 77.7318847,6.63658485 C78.2349634,6.23899589 78.4861147,5.61124016 78.4861147,5.00464474 C78.4861147,4.23054962 78.1091937,3.70743277 77.710923,3.41471521 C77.1449594,3.01681621 76.4330408,2.97534821 75.7828425,2.97534821 L74.9075009,2.97534821 L74.9075009,7.07626189 Z M76.1811132,0.632173811 C77.7528463,0.632173811 78.8424621,0.799673517 79.8691932,1.69929654 C81.0007323,2.70351967 81.2941949,4.06359248 81.2941949,5.06781562 C81.2941949,5.61124016 81.2103484,7.11772989 80.1416942,8.18481386 C79.3661144,8.95890898 78.2140018,9.41939753 76.6003455,9.41939753 L74.9075009,9.41939753 L74.9075009,14.5868139 L72.1157242,14.5868139 L72.1157242,0.632173811 L76.1811132,0.632173811 L76.1811132,0.632173811 Z" id="Fill-6" fill="#054279"></path>
                        <path d="M30.7321752,7.6273212 C30.7321752,7.62146917 30.7313212,7.61561715 30.7313212,7.60980388 C30.7313212,6.83067058 31.3639739,6.19845802 32.1446,6.19845802 C32.9249932,6.19845802 33.557607,6.83067058 33.557607,7.60980388 C33.557607,8.38552672 32.929729,9.0152202 32.1535281,9.01994833 L32.1535281,10.9248796 C33.9834384,10.9198802 35.4655023,9.43788373 35.4655023,7.60980388 C35.4655023,5.77858485 33.9783921,4.2941468 32.1446,4.2941468 C30.3104974,4.2941468 28.8236201,5.77858485 28.8236201,7.60980388 C28.8236201,7.61561715 28.8244352,7.62146917 28.8244352,7.6273212 L30.7321752,7.6273212" id="Fill-7" fill="#F9C626"></path>
                        <path d="M37.0376236,5.21291486 C37.3935829,5.93635702 37.5938827,6.74943981 37.5938827,7.60976512 C37.5938827,10.6190628 35.1499135,13.0587763 32.1357107,13.0587763 C29.121275,13.0587763 26.6775775,10.6190628 26.6775775,7.60976512 C26.6775775,4.70871051 28.9490016,2.33743864 31.8126689,2.17079154 L33.1738542,0.0899894304 C32.8341207,0.04352202 32.4879823,0.0173623018 32.1357107,0.0173623018 C27.9356627,0.0173623018 24.5313021,3.41649794 24.5313021,7.60976512 C24.5313021,11.8024897 27.9356627,15.2016254 32.1357107,15.2016254 C36.3357976,15.2016254 39.7401194,11.8024897 39.7401194,7.60976512 C39.7401194,5.97476336 39.2207371,4.46164651 38.339961,3.22229595 L37.0376236,5.21291486" id="Fill-8" fill="#054279"></path>
                    </g>
                </g>
            </g>
        </g>
    </g>
</svg>