<?xml version="1.0" encoding="UTF-8"?>
<svg width="60px" height="63px" viewBox="0 0 60 63" version="1.1" xmlns="http://www.w3.org/2000/svg" xmlns:xlink="http://www.w3.org/1999/xlink">
    <!-- Generator: Sketch 47 (45396) - http://www.bohemiancoding.com/sketch -->
    <title>qiwi</title>
    <desc>Created with Sketch.</desc>
    <defs></defs>
    <g id="Page-1" stroke="none" stroke-width="1" fill="none" fill-rule="evenodd">
        <g id="interface" transform="translate(-245.000000, -511.000000)" fill="#FF9E16">
            <path d="M304,572.590909 C301.765419,568.716424 298.792718,566.203308 295.571429,564.136364 C294.432758,563.589666 293.144587,563.087043 291.357143,562.727273 C289.577347,561.981272 287.100096,561.780223 284.333333,561.318182 C281.947415,560.875501 280.064705,559.870254 278.714286,558.5 C277.092004,557.859761 276.200194,556.854514 275.904762,555.681818 C275.407474,555.648218 274.713844,554.844021 274.5,554.272727 C274.812934,554.642972 274.317484,556.452416 275.904762,558.5 C266.984822,558.663958 259.652161,554.039824 256.238095,548.636364 C250.139519,538.056403 252.319499,525.591346 260.452381,520.454545 C268.768442,514.533634 281.253785,518.454095 288.547619,528.909091 C292.054597,534.638565 293.144587,541.976865 291.357143,547.227273 C291.360967,547.90782 291.360967,548.008345 291.357143,548.636364 C287.793726,545.394703 284.523756,546.701524 284.333333,547.227273 C288.090996,546.39995 290.865517,549.21464 291.357143,548.636364 C291.360967,549.616739 291.757327,550.018838 291.357143,550.045455 C292.153687,550.521461 292.252777,550.621986 292.761905,551.454545 C293.243677,552.029331 293.838217,553.436676 294.166667,554.272727 C301.170879,545.897327 302.359959,533.432269 295.571429,523.272727 C288.090996,511.417369 271.146603,508.301105 257.642857,516.227273 C245.185018,525.189247 241.122327,541.976865 249.214286,554.272727 C255.58947,564.494388 270.948423,567.510128 280.119048,564.136364 C283.136495,563.690191 294.531848,562.684945 302.595238,572.590909 C302.459049,572.134262 303.152679,572.93846 304,574 C303.449949,573.742657 303.648129,574.144756 304,574 C303.945399,573.943706 304.242669,573.642132 304,572.590909 L304,572.590909 L304,572.590909 Z M287.142857,555.681818 C287.35648,555.713602 287.35648,555.713602 287.142857,555.681818 C287.35648,555.713602 287.35648,555.713602 287.142857,555.681818 C287.271031,555.713602 287.271031,555.713602 287.142857,555.681818 C287.271031,555.713602 287.271031,555.713602 287.142857,555.681818 C287.185582,555.713602 287.185582,555.713602 287.142857,555.681818 C286.843785,555.632584 286.501987,555.713602 285.738095,555.681818 C285.647494,556.19971 285.562045,557.090909 285.738095,557.090909 C286.331089,558.063126 286.587437,558.30618 287.142857,558.5 C286.929234,558.387198 286.929234,558.387198 287.142857,558.5 C286.929234,558.387198 286.929234,558.387198 287.142857,558.5 C287.014683,558.387198 287.014683,558.387198 287.142857,558.5 C287.014683,558.468216 287.014683,558.468216 287.142857,558.5 C287.100132,558.468216 287.100132,558.468216 287.142857,558.5 C287.44193,558.549234 287.783727,558.468216 288.547619,558.5 C288.63822,557.90109 288.723669,557.090909 288.547619,555.681818 C288.040075,556.118692 287.698278,555.875638 287.142857,555.681818 L287.142857,555.681818 L287.142857,555.681818 Z M291.357143,552.863636 C291.351729,552.708028 291.267021,553.368966 291.357143,554.272727 C291.690559,554.78526 292.029389,555.540617 292.761905,555.681818 C292.622342,555.823876 292.876465,555.446197 292.761905,554.272727 C292.622342,554.029903 292.36822,553.085707 291.357143,552.863636 L291.357143,552.863636 L291.357143,552.863636 Z" id="qiwi"></path>
        </g>
    </g>
</svg>