<svg width="19" height="19" version="1.1" xmlns="http://www.w3.org/2000/svg" xmlns:xlink="http://www.w3.org/1999/xlink">
  <g stroke="none" stroke-width="1" fill="#000000" fill-rule="nonzero" opacity="0.100000001" class="">
      <path
        d="M10.93631649017334,15.172944210469723 L10.93631649017334,12.911041401326656 C10.93631649017334,12.801086567342281 10.90152645111084,12.710785053670406 10.83194637298584,12.640106342732906 C10.76242733001709,12.569397114217281 10.673558235168457,12.534057758748531 10.565402030944824,12.534057758748531 L8.340124130249023,12.534057758748531 C8.231969833374023,12.534057758748531 8.143102645874023,12.569397114217281 8.073583602905273,12.640106342732906 C8.004003524780273,12.710785053670406 7.969274997711182,12.801086567342281 7.969274997711182,12.911041401326656 L7.969274997711182,15.172944210469723 C7.969274997711182,15.282899044454098 8.004003524780273,15.373231075704098 8.073583602905273,15.443909786641598 C8.143102645874023,15.514588497579098 8.231969833374023,15.549927853047848 8.340124130249023,15.549927853047848 L10.565402030944824,15.549927853047848 C10.673558235168457,15.549927853047848 10.76242733001709,15.514588497579098 10.83194637298584,15.443909786641598 C10.90152645111084,15.373231075704098 10.93631649017334,15.282899044454098 10.93631649017334,15.172944210469723 zM13.90335750579834,7.256286762654781 C13.90335750579834,6.565155170857906 13.68887996673584,5.925079487264156 13.26004695892334,5.336029194295406 C12.83121395111084,4.746978901326656 12.29617977142334,4.291473530232906 11.65488338470459,3.969451569020748 C11.01358699798584,3.647429846227169 10.356785774230957,3.486449621617794 9.684605598449707,3.486449621617794 C7.806983470916748,3.486449621617794 6.3736958503723145,4.322876118123531 5.384683132171631,5.995758198201656 C5.268778324127197,6.184234760701656 5.299722194671631,6.349151752889156 5.477395534515381,6.490539692342281 L7.0073018074035645,7.668609760701656 C7.061378002166748,7.715728901326656 7.134803295135498,7.739288471639156 7.227515697479248,7.739288471639156 C7.351111888885498,7.739288471639156 7.447669506072998,7.692169331014156 7.517249584197998,7.597931049764156 C7.926794528961182,7.063873432576656 8.259008407592773,6.702606342732906 8.513952255249023,6.514099262654781 C8.776707649230957,6.325592182576656 9.108922004699707,6.231353901326656 9.510716438293457,6.231353901326656 C9.881627082824707,6.231353901326656 10.211949348449707,6.333465717732906 10.501683235168457,6.537658832967281 C10.79141902923584,6.741851948201656 10.93631649017334,6.973541401326656 10.93631649017334,7.232727192342281 C10.93631649017334,7.531158588826656 10.85904598236084,7.770721577107906 10.704503059387207,7.951355122029781 C10.549960136413574,8.131988666951656 10.287266731262207,8.308685444295406 9.916356086730957,8.481475971639156 C9.429600715637207,8.701385639607906 8.983372688293457,9.041076801717281 8.57773494720459,9.500518940389156 C8.172094345092773,9.959961079061031 7.969274997711182,10.452789448201656 7.969274997711182,10.979004047811031 L7.969274997711182,11.403106831014156 C7.969274997711182,11.513061664998531 8.004003524780273,11.603393696248531 8.073583602905273,11.674072407186031 C8.143102645874023,11.744751118123531 8.231969833374023,11.780090473592281 8.340124130249023,11.780090473592281 L10.565402030944824,11.780090473592281 C10.673558235168457,11.780090473592281 10.76242733001709,11.744751118123531 10.83194637298584,11.674072407186031 C10.90152645111084,11.603393696248531 10.93631649017334,11.513061664998531 10.93631649017334,11.403106831014156 C10.93631649017334,11.253875873982906 11.01932430267334,11.059509418904781 11.18546199798584,10.819976948201656 C11.35159969329834,10.580413959920406 11.56217098236084,10.386047504842281 11.81711483001709,10.236816547811031 C12.06436824798584,10.095428608357906 12.25369930267334,9.983520649373531 12.38504695892334,9.901062153279781 C12.51639461517334,9.818603657186031 12.69412899017334,9.681152485311031 12.91818904876709,9.488739155232906 C13.14224910736084,9.296325825154781 13.31418514251709,9.107818745076656 13.43393611907959,8.923248432576656 C13.55368709564209,8.738708637654781 13.66184139251709,8.501129291951656 13.75846004486084,8.210540913045406 C13.85501766204834,7.919952534139156 13.90335750579834,7.601837299764156 13.90335750579834,7.256286762654781 zM18.353851318359375,9.518188618123531 C18.353851318359375,11.159637592732906 17.955963134765625,12.673462055623531 17.160064697265625,14.059662006795406 C16.364290237426758,15.445862911641598 15.28446102142334,16.543454311788082 13.92069149017334,17.352383755147457 C12.55692195892334,18.161343716084957 11.06766414642334,18.565823696553707 9.452794075012207,18.565823696553707 C7.837928295135498,18.565823696553707 6.3486104011535645,18.161343716084957 4.984842777252197,17.352383755147457 C3.62107253074646,16.543454311788082 2.54129958152771,15.445862911641598 1.7454630136489868,14.059662006795406 C0.949625551700592,12.673462055623531 0.5516762137413025,11.159637592732906 0.5516762137413025,9.518188618123531 C0.5516762137413025,7.876739643514156 0.949625551700592,6.362915180623531 1.7454630136489868,4.976715229451656 C2.54129958152771,3.590514563024044 3.62107253074646,2.492949865758419 4.984842777252197,1.6839903816580772 C6.3486104011535645,0.8750304207205772 7.837928295135498,0.4705808386206627 9.452794075012207,0.4705808386206627 C11.06766414642334,0.4705808386206627 12.55692195892334,0.8750304207205772 13.92069149017334,1.6839903816580772 C15.28446102142334,2.492949865758419 16.364290237426758,3.590514563024044 17.160064697265625,4.976715229451656 C17.955963134765625,6.362915180623531 18.353851318359375,7.876739643514156 18.353851318359375,9.518188618123531 z"
        id="question_icon"/>
  </g>
</svg>
