<?xml version="1.0" encoding="UTF-8"?>
<svg width="95px" height="25px" viewBox="0 0 95 25" version="1.1" xmlns="http://www.w3.org/2000/svg" xmlns:xlink="http://www.w3.org/1999/xlink">
    <defs></defs>
    <g id="Page-1" stroke="none" stroke-width="1" fill="none" fill-rule="evenodd">
        <g id="3-banks" transform="translate(-788.000000, -445.000000)">
            <g id="raiffeisen" transform="translate(788.000000, 445.000000)">
                <polygon id="polygon2229" fill="#000000" fill-rule="nonzero" points="0 0.42712766 24.932642 0.42712766 24.932642 24.9968085 0 24.9968085"></polygon>
                <polygon id="polygon2231" fill="#FFF200" points="0.721136364 1.13723404 24.2115057 1.13723404 24.2115057 24.2861702 0.721136364 24.2861702"></polygon>
                <path d="M1.96747159,19.6090426 L5.03176136,22.687234 L12.2112784,15.5090426 L19.6309943,22.8351064 L22.7400852,19.8010638 L15.394858,12.5638298 L16.8069034,11.2170213 L16.8069034,8.34574468 L17.6932102,7.60585106 L17.6932102,9.85531915 L18.8348295,10.7728723 L22.2440341,7.41329787 L23.3403125,8.24202128 C23.9864205,5.88882979 20.2463352,0.545744681 17.152358,3.50585106 L13.5472159,7.02819149 L14.2834659,7.90159574 L12.4509375,9.66276596 L10.6788636,7.94574468 L11.6099716,7.11648936 L7.65991477,3.35744681 C4.68630682,0.944680851 1.63713068,4.61595745 1.531875,8.19734043 L2.61303977,7.30957447 L5.93210227,10.8324468 L7.11852273,9.85585106 L7.11852273,7.69468085 L7.85423295,8.24202128 L7.85423295,11.0691489 L9.29596591,12.4898936 L1.96747159,19.6090426 L1.96747159,19.6090426 Z" id="path2233" fill="#000000" fill-rule="nonzero"></path>
                <path d="M28.6576136,1.25585106 L28.6576136,1.25638298 L32.5331818,1.25638298 C35.9126989,1.30053191 37.114233,5.50425532 33.8998864,7.04361702 L36.6780966,10.906383 L33.553892,10.906383 L31.3008807,7.76861702 L31.3008807,10.906383 L28.6576136,10.906383 L28.6576136,1.25585106 Z M31.3008807,3.37234043 L31.3008807,5.5037234 L32.2319886,5.5037234 C33.5085511,5.26702128 33.1630966,3.46117021 32.2319886,3.37234043 L31.3008807,3.37234043 Z M40.3275,3.94946809 C41.0486364,3.94946809 41.7244318,4.18617021 42.279858,4.57074468 L42.279858,4.20106383 L44.8632102,4.20106383 L44.8783239,10.9058511 L42.2647443,10.9058511 L42.279858,10.4914894 C41.7244318,10.8760638 41.0486364,11.0984043 40.3275,11.0984043 C38.4048295,11.0984043 36.8281534,9.5 36.8281534,7.53138298 C36.8281534,5.56276596 38.4053693,3.94946809 40.3275,3.94946809 Z M40.8834659,6.08085106 C40.0273864,6.08085106 39.3213636,6.73191489 39.3213636,7.53138298 C39.3213636,8.33031915 40.0273864,8.98191489 40.8834659,8.98191489 C41.7541193,8.98191489 42.460142,8.33031915 42.460142,7.53138298 C42.460142,6.73191489 41.7546591,6.08085106 40.8834659,6.08085106 Z M46.2455682,4.20106383 L48.9940909,4.20106383 L48.9940909,10.9058511 L46.2455682,10.9058511 L46.2455682,4.20106383 L46.2455682,4.20106383 Z M47.6268466,0.367553191 C48.4235511,0.367553191 49.0691193,1.01861702 49.0691193,1.80319149 C49.0691193,2.58776596 48.4235511,3.23882979 47.6268466,3.23882979 C46.816108,3.23882979 46.17,2.58723404 46.17,1.80319149 C46.1705398,1.01914894 46.816108,0.367553191 47.6268466,0.367553191 L47.6268466,0.367553191 Z M68.4896023,4.20106383 L71.238125,4.20106383 L71.238125,10.9058511 L68.4896023,10.9058511 L68.4896023,4.20106383 L68.4896023,4.20106383 Z M69.8563068,0.367553191 C70.6675852,0.367553191 71.3131534,1.01861702 71.3131534,1.80319149 C71.3131534,2.58776596 70.6675852,3.23882979 69.8563068,3.23882979 C69.060142,3.23882979 68.4145739,2.58723404 68.4145739,1.80319149 C68.4145739,1.01914894 69.060142,0.367553191 69.8563068,0.367553191 L69.8563068,0.367553191 Z M49.5047159,4.20106383 L49.5047159,6.33244681 L50.4509375,6.33244681 L50.4509375,10.9058511 L53.109858,10.9058511 L53.109858,6.33244681 L55.6030682,6.33244681 L55.6030682,10.9058511 L58.3515909,10.9058511 L58.3515909,6.30319149 L60.06375,6.30319149 L60.06375,4.23085106 L58.2760227,4.23085106 L58.2760227,2.73617021 C58.2312216,2.18882979 59.5380114,1.96648936 59.9887216,2.4106383 L59.9887216,0.219680851 C57.4652841,-0.564893617 55.4227841,0.841489362 55.437358,3.01702128 L55.437358,4.20106383 L53.0942045,4.20106383 L53.0942045,2.73617021 C53.0639773,2.18882979 54.2061364,1.96648936 54.8662784,2.4106383 L54.8662784,0.219680851 C52.6731818,-0.416489362 50.3305682,0.634042553 50.3456818,3.00212766 L50.3456818,4.18617021 L49.5047159,4.20106383 L49.5047159,4.20106383 Z M63.9835795,11.0984043 C66.3418466,11.0835106 67.2125,10.1218085 67.7236648,8.71542553 L65.3357102,8.71542553 C64.2540057,10.0771277 62.6767898,9.0856383 62.752358,7.97553191 L67.799233,7.97553191 C67.799233,5.25212766 66.326733,3.9643617 63.9841193,3.9643617 C61.6415057,3.9643617 60.1695455,5.59255319 60.1695455,7.57606383 C60.1695455,9.55957447 61.8811648,11.1132979 63.9835795,11.0984043 L63.9835795,11.0984043 Z M63.0972727,6.39202128 C63.1275,5.57765957 64.9298011,5.57765957 65.0496307,6.39202128 L63.0972727,6.39202128 L63.0972727,6.39202128 Z M82.6980398,11.0984043 C85.0708807,11.0835106 85.9426136,10.1218085 86.4526989,8.71542553 L84.0496307,8.71542553 C82.9684659,10.0771277 81.39125,9.0856383 81.4668182,7.97553191 L86.5136932,7.97553191 C86.5136932,5.25212766 85.0568466,3.9643617 82.6985795,3.9643617 C80.3554261,3.9643617 78.8840057,5.59255319 78.8840057,7.57606383 C78.8840057,9.55957447 80.5950852,11.1132979 82.6980398,11.0984043 L82.6980398,11.0984043 Z M81.811733,6.39202128 C81.8419602,5.57765957 83.6442614,5.57765957 83.7640909,6.39202128 L81.811733,6.39202128 L81.811733,6.39202128 Z M78.1623295,4.33457447 L77.3510511,5.96276596 C76.3298011,5.65159574 75.3382386,5.71117021 75.3684659,5.99202128 C75.3986932,6.16968085 75.2335227,6.48031915 76.8253125,6.70265957 C79.1981534,7.07234043 79.0032955,11.4239362 75.0230114,11.0984043 C73.926733,11.0244681 73.0404261,10.7430851 72.3047159,10.3138298 L73.1910227,8.56702128 C74.4378977,9.17393617 75.638892,9.52925532 75.7290341,8.92234043 C75.8342898,8.16755319 74.4222443,8.43404255 73.5661648,7.79734043 C72.0342898,6.86489362 72.9049432,3.9787234 75.4138068,3.94893617 C76.2995739,3.89042553 77.216108,4.03829787 78.1623295,4.33457447 L78.1623295,4.33457447 Z M87.5646307,4.20106383 L87.5646307,10.9058511 L90.1334091,10.9058511 L90.1334091,6.80585106 C90.2084375,5.78457447 92.2509375,5.60691489 92.2660511,6.80585106 L92.2660511,10.9058511 L94.8639773,10.9058511 L94.8639773,6.70265957 C94.8040625,4.34946809 92.2957386,3.20957447 90.0276136,4.70425532 L90.0276136,4.20106383 L87.5646307,4.20106383 L87.5646307,4.20106383 Z M30.174375,15.0058511 L34.4401989,14.9617021 C36.5879545,14.9914894 37.6092045,17.7292553 35.6115057,19.55 C37.9546591,20.9265957 36.6030682,24.9521277 33.3136932,24.9521277 L28.4622159,24.9521277 L30.174375,15.0058511 Z M32.1418466,20.9409574 L31.796392,22.5840426 L32.9228977,22.5840426 C34.1994602,22.6430851 34.0494034,20.9409574 33.3136932,20.9409574 L32.1418466,20.9409574 Z M32.7123864,17.3739362 L32.4273864,18.706383 L32.7728409,18.7207447 C33.8092045,18.7797872 34.4099716,17.3739362 33.1630966,17.3739362 L32.7123864,17.3739362 Z M36.7077841,24.9670213 L41.949517,15.0648936 L44.728267,15.0648936 L47.0859943,24.9968085 L44.3676989,24.9968085 L43.8721875,23.2202128 L40.5380114,23.2202128 L39.6517045,24.9670213 L36.7077841,24.9670213 Z M41.4993466,21.1335106 L43.331875,21.1335106 L42.7462216,18.5132979 L41.4993466,21.1335106 Z M48.017642,24.9968085 L50.7364773,24.9968085 L51.4268466,18.7654255 L55.3169886,24.9670213 L58.2306818,24.9670213 L59.4473295,15.0053191 L56.7290341,15.0053191 L55.9630966,21.2367021 L52.0724148,14.9755319 L49.2639773,14.9755319 L48.017642,24.9968085 L48.017642,24.9968085 Z M61.4002273,14.9760638 L59.4926705,24.9670213 L62.3615625,24.9670213 L63.1275,21.2367021 L65.6957386,24.9670213 L69.4655114,24.9670213 L65.7858807,19.7271277 L70.4873011,14.9611702 L66.837358,14.9611702 L63.6230114,18.4835106 L64.1336364,14.9611702 L61.4002273,14.9760638 L61.4002273,14.9760638 Z" id="path2235" fill="#000000" fill-rule="nonzero"></path>
            </g>
        </g>
    </g>
</svg>