<?xml version="1.0" encoding="UTF-8"?>
<svg width="198px" height="18px" viewBox="0 0 198 18" version="1.1" xmlns="http://www.w3.org/2000/svg" xmlns:xlink="http://www.w3.org/1999/xlink">
    <defs>
        <polygon id="path-1" points="0 14.7630667 29.8574157 14.7630667 29.8574157 6.66666667e-05 0 6.66666667e-05"></polygon>
    </defs>
    <g id="Page-1" stroke="none" stroke-width="1" fill="none" fill-rule="evenodd">
        <g id="interface" transform="translate(-459.000000, -748.000000)">
            <g id="sequire" transform="translate(459.000000, 748.000000)">
                <g id="mc_sequire" transform="translate(0.000000, 0.648370)" fill-rule="nonzero">
                    <path d="M4.27564702,10.1859005 C4.03075119,10.0284814 3.7670821,9.90320664 3.49097771,9.81308748 C3.21452181,9.72393473 2.92599355,9.67908771 2.63584831,9.68017153 C2.45574763,9.6785324 2.27612608,9.69921801 2.10099209,9.74176672 C1.95314661,9.77663706 1.81231497,9.83694747 1.68463695,9.92006861 C1.57540087,9.9913561 1.48344532,10.086651 1.41560748,10.1988679 C1.35091991,10.3097155 1.31767467,10.4364688 1.31952552,10.5651973 C1.31481102,10.679237 1.34380359,10.792109 1.40279655,10.8893825 C1.46410222,10.9814214 1.54652033,11.0570599 1.64300144,11.1098285 C1.76298577,11.1763418 1.89114058,11.2264858 2.02412653,11.2589537 C2.19197788,11.3016274 2.36196593,11.3351746 2.53336089,11.3594511 L2.9369051,11.4145626 C3.17122783,11.4477015 3.40256045,11.4997366 3.62869518,11.5701715 C3.84361691,11.6354832 4.04687377,11.7350699 4.23080877,11.8651801 C4.40602786,11.9900056 4.55154615,12.1528062 4.65677211,12.3417324 C4.76901936,12.5560556 4.82420823,12.7962664 4.8169087,13.0387307 C4.82249902,13.3165632 4.75742927,13.5911849 4.62794752,13.8362264 C4.50336025,14.0667732 4.32935987,14.2661608 4.11871316,14.4197599 C3.89291727,14.5833805 3.64026692,14.705212 3.37247664,14.7796055 C3.0796426,14.8630072 2.77670958,14.9044736 2.47250899,14.9027959 C2.26651132,14.9017673 2.06090898,14.8844245 1.85758447,14.8509262 C1.64062861,14.8178026 1.42648998,14.7679492 1.2170381,14.701801 C1.01842687,14.6347623 0.825610596,14.5512723 0.64054637,14.4521784 C0.457682659,14.3576251 0.286711336,14.2411635 0.131312006,14.1053002 L0.64054637,13.3434648 C0.750652822,13.4440626 0.872133841,13.5311174 1.00245507,13.602813 C1.30235283,13.7689929 1.6268069,13.8850336 1.96327462,13.9464494 C2.13333094,13.9785338 2.30592949,13.9948108 2.47891445,13.9950772 C2.65763336,13.9973939 2.83602275,13.978902 3.01056794,13.9399657 C3.16280752,13.906354 3.30876806,13.8483511 3.44293674,13.7681475 C3.55890167,13.6990773 3.6584095,13.6049951 3.73438533,13.4925901 C3.80750207,13.3825188 3.84550864,13.2523969 3.84327822,13.119777 C3.84779838,12.8953952 3.72266788,12.6889411 3.52300503,12.5913551 C3.20794557,12.4428838 2.86986807,12.3507512 2.5237527,12.3190395 L2.06896477,12.2542024 C1.85124818,12.2236033 1.63681113,12.1725951 1.4284184,12.1018353 C1.22827967,12.03512 1.04088742,11.9342491 0.874345794,11.8035849 C0.709596184,11.6737953 0.575100173,11.5088791 0.480409777,11.3205489 C0.372272499,11.1035314 0.317345799,10.8633497 0.320273185,10.6203087 C0.315455717,10.3464376 0.37820146,10.0756752 0.5028289,9.83253859 C0.622952696,9.60368926 0.792661973,9.40530848 0.999252336,9.252247 C1.22055865,9.08971293 1.46901033,8.96891158 1.73267793,8.89564322 C2.02433233,8.81182274 2.32626751,8.7703453 2.62944285,8.77245283 C3.02140124,8.7673019 3.41167372,8.8252994 3.78562904,8.94427101 C4.12509686,9.05565868 4.44825598,9.21266976 4.7464486,9.41109777 L4.27564702,10.1859005 Z M7.4623652,10.6397599 C7.72541808,10.6373176 7.98609475,10.6903106 8.22781812,10.7953688 C8.45506393,10.8949026 8.65829826,11.0431072 8.82352624,11.229777 C8.99408253,11.4261961 9.12565706,11.6540359 9.21105679,11.9008405 C9.30755731,12.1788345 9.35525011,12.4717782 9.35197699,12.7664151 C9.35197699,12.8215266 9.35197699,12.8798799 9.35197699,12.9349914 C9.35197699,12.9901029 9.35197699,13.0452144 9.35197699,13.097084 L6.37984184,13.097084 C6.40124399,13.2622071 6.45341066,13.4217188 6.53357297,13.5671527 C6.60272271,13.6920378 6.6951789,13.8021384 6.80580518,13.8913379 C6.91178628,13.9749911 7.03239165,14.0376801 7.16130841,14.0761235 C7.29441452,14.1157123 7.43252766,14.1353717 7.57125809,14.1344768 C7.7770006,14.1328712 7.98084238,14.0944584 8.17337168,14.021012 C8.3744367,13.9445666 8.56164707,13.8350307 8.72744428,13.6968268 L9.15981308,14.328988 C8.93355578,14.5299593 8.6685425,14.6811951 8.38154925,14.7731218 C8.10005417,14.8587071 7.80752312,14.9013199 7.51360891,14.899554 C7.2310905,14.9026202 6.95060525,14.8508999 6.6873041,14.747187 C6.44666828,14.6497731 6.22857242,14.5029678 6.04675773,14.3160206 C5.86164896,14.1242184 5.71771618,13.8957486 5.62399712,13.6449571 C5.52056219,13.3651824 5.4695155,13.0683535 5.47346873,12.7696569 C5.47040056,12.4744832 5.52031913,12.1811993 5.62079439,11.9040823 C5.71121926,11.6536782 5.85065425,11.4243287 6.03074407,11.229777 C6.2112064,11.040388 6.42960948,10.8922706 6.67129044,10.7953688 C6.92223132,10.6907288 7.1909649,10.6367661 7.4623652,10.636518 L7.4623652,10.6397599 Z M7.44635155,11.42753 C7.3043843,11.4247787 7.16316407,11.4489694 7.02999641,11.4988508 C6.91018467,11.543266 6.80102991,11.6128735 6.70972322,11.7030875 C6.61938984,11.7971035 6.54668166,11.9069487 6.49514019,12.0272727 C6.4372838,12.1550089 6.39739563,12.290321 6.37663911,12.4292624 L8.45200935,12.4292624 C8.42721766,12.1552183 8.31477005,11.8968443 8.13173616,11.6933619 C7.94878248,11.5112398 7.6995439,11.4138468 7.44314881,11.4242882 L7.44635155,11.42753 Z M12.08711,10.6397599 C12.3746593,10.6370177 12.659883,10.6921145 12.9262257,10.8018525 C13.1747849,10.9087789 13.3944273,11.0744112 13.5667721,11.2848885 L13.006294,11.8878731 C12.8774324,11.7561225 12.7281326,11.6466127 12.564317,11.5636878 C12.4012221,11.4899163 12.2240827,11.4533916 12.0454745,11.4567067 C11.8848658,11.4550131 11.7256526,11.4870239 11.5778756,11.5507204 C11.4369965,11.6176734 11.311532,11.7137494 11.2095615,11.8327616 C11.1005478,11.950954 11.0156543,12.0897648 10.9597484,12.241235 C10.8397758,12.581938 10.8397758,12.9541341 10.9597484,13.294837 C11.0152773,13.4474591 11.1001898,13.587403 11.2095615,13.7065523 C11.3150209,13.8203712 11.4426004,13.9108781 11.5842811,13.9723842 C11.7320581,14.0360807 11.8912712,14.0680915 12.0518799,14.0663979 C12.2405082,14.066739 12.4267252,14.0234968 12.5963444,13.9399657 C12.7582522,13.8633256 12.907368,13.761607 13.0383214,13.6384734 L13.579583,14.2641509 C13.3997885,14.4749318 13.1738762,14.6403303 12.9198203,14.747187 C12.6547195,14.85734 12.3704577,14.9124615 12.0839073,14.9092796 C11.787916,14.9135658 11.4940165,14.8584752 11.2191697,14.747187 C10.7144405,14.5429206 10.3187897,14.131836 10.1302408,13.6157804 C9.92948148,13.0699999 9.92948148,12.469314 10.1302408,11.9235334 C10.3188882,11.4131009 10.7104344,11.0061876 11.2095615,10.8018525 C11.4871758,10.6881849 11.7844746,10.6319671 12.0839073,10.636518 L12.08711,10.6397599 Z M18.0602049,13.0776329 C18.0675963,13.3628103 18.0129257,13.6461427 17.9000683,13.9075472 C17.8041968,14.1253512 17.6620331,14.319063 17.4837132,14.4748714 C17.3099335,14.6224256 17.1083573,14.7327166 16.8912078,14.7990566 C16.444518,14.937487 15.9671283,14.937487 15.5204385,14.7990566 C15.3023618,14.7326196 15.0997561,14.6223613 14.9247304,14.4748714 C14.7452936,14.3201169 14.6029273,14.1261291 14.5083753,13.9075472 C14.3976038,13.6455847 14.3440706,13.3624848 14.3514414,13.0776329 L14.3514414,10.7434991 L15.2289899,10.7434991 L15.2289899,13.0127959 C15.224543,13.1812283 15.2494792,13.3491346 15.3026528,13.5087993 C15.3470083,13.6313675 15.4181762,13.742194 15.5108303,13.8329846 C15.6016491,13.91935 15.7114113,13.9826787 15.8311035,14.0177702 C16.0818135,14.0938249 16.3490492,14.0938249 16.5997592,14.0177702 C16.7194514,13.9826787 16.8292136,13.91935 16.9200324,13.8329846 C17.0126865,13.742194 17.0838544,13.6313675 17.1282099,13.5087993 C17.1825366,13.3493488 17.2085596,13.1814255 17.2050755,13.0127959 L17.2050755,10.7434991 L18.082624,10.7434991 L18.0602049,13.0776329 Z M21.2469231,10.6397599 C21.3681524,10.6392424 21.4892117,10.6490021 21.6088318,10.6689365 C21.7183248,10.6866722 21.8256725,10.7160101 21.929105,10.7564666 L21.7209274,11.6317667 C21.6196323,11.5804204 21.5118764,11.5433358 21.4006542,11.5215437 C21.2880136,11.4969009 21.1731971,11.483867 21.0579619,11.4826415 C20.9264989,11.4810024 20.7959728,11.5052245 20.6736341,11.5539623 C20.5587708,11.6001417 20.4558127,11.6722058 20.3725773,11.7646827 C20.2852742,11.8647543 20.2188251,11.9816337 20.1772106,12.108319 C20.1280199,12.2565913 20.1041911,12.4122742 20.1067505,12.5686621 L20.1067505,14.7958148 L19.2163911,14.7958148 L19.2163911,10.7434991 L20.0811287,10.7434991 L20.0811287,11.2006003 C20.2044518,11.0143508 20.3762585,10.8662508 20.5775521,10.7726758 C20.7874264,10.6795679 21.0145977,10.6331364 21.2437203,10.636518 L21.2469231,10.6397599 Z M24.1774227,10.6397599 C24.4404756,10.6373176 24.7011523,10.6903106 24.9428756,10.7953688 C25.1701214,10.8949026 25.3733558,11.0431072 25.5385838,11.229777 C25.714799,11.4248739 25.8518569,11.6527908 25.942128,11.9008405 C26.0385645,12.1788511 26.0862554,12.4717832 26.0830482,12.7664151 C26.0830482,12.8215266 26.0830482,12.8798799 26.0830482,12.9349914 C26.0830482,12.9901029 26.0830482,13.0452144 26.0830482,13.097084 L23.0916966,13.097084 C23.1130988,13.2622071 23.1652654,13.4217188 23.2454277,13.5671527 C23.3145775,13.6920378 23.4070337,13.8021384 23.51766,13.8913379 C23.6236411,13.9749911 23.7442464,14.0376801 23.8731632,14.0761235 C24.0062693,14.1157123 24.1443824,14.1353717 24.2831129,14.1344768 C24.4888554,14.1328712 24.6926972,14.0944584 24.8852265,14.021012 C25.0862915,13.9445666 25.2735018,13.8350307 25.4392991,13.6968268 L25.8748706,14.3257461 C25.6486675,14.5267948 25.3836373,14.6780402 25.0966068,14.7698799 C24.8151117,14.8554652 24.5225806,14.898078 24.2286664,14.8963122 C23.946148,14.8993783 23.6656628,14.847658 23.4023616,14.7439451 C23.1617258,14.6465312 22.9436299,14.4997259 22.7618152,14.3127787 C22.5767065,14.1209766 22.4327737,13.8925068 22.3390546,13.6417153 C22.2356197,13.3619405 22.184573,13.0651117 22.1885262,12.7664151 C22.1854581,12.4712413 22.2353766,12.1779574 22.3358519,11.9008405 C22.4243705,11.6509725 22.561603,11.4216628 22.7393961,11.2265352 C22.9198584,11.0371462 23.1382615,10.8890287 23.3799425,10.7921269 C23.6321013,10.6881817 23.9019553,10.6353139 24.17422,10.636518 L24.1774227,10.6397599 Z M24.1614091,11.42753 C24.0194418,11.4247787 23.8782216,11.4489694 23.7450539,11.4988508 C23.6252422,11.543266 23.5160874,11.6128735 23.4247807,11.7030875 C23.3344474,11.7971035 23.2617392,11.9069487 23.2101977,12.0272727 C23.1523808,12.1550239 23.1124943,12.2903303 23.0916966,12.4292624 L25.1734723,12.4292624 C25.1486806,12.1552183 25.036233,11.8968443 24.8531991,11.6933619 C24.6687031,11.5095537 24.4167928,11.412024 24.1582063,11.4242882 L24.1614091,11.42753 Z M29.8334472,8.75300172 C30.0866731,8.75213096 30.3391757,8.78040865 30.5860891,8.83728988 C30.8204404,8.89118303 31.0473887,8.97392593 31.2618656,9.08367067 C31.4669543,9.18878064 31.6575403,9.32065966 31.8287491,9.47593482 C31.9957155,9.62615058 32.1393214,9.80101975 32.2547124,9.99463122 L31.4668404,10.526295 C31.2910861,10.2640764 31.0547042,10.0492906 30.7782531,9.9006175 C30.4822354,9.74355621 30.1515544,9.66545483 29.8174335,9.67368782 C29.5346223,9.67067468 29.2539462,9.72353135 28.9911287,9.82929674 C28.7502603,9.93072593 28.5323178,10.0807371 28.3505823,10.2701887 C28.1627639,10.4654323 28.0157173,10.6969654 27.9182135,10.9509777 C27.7091493,11.5153254 27.7091493,12.1372304 27.9182135,12.701578 C28.0157173,12.9555903 28.1627639,13.1871234 28.3505823,13.3823671 C28.5323178,13.5718186 28.7502603,13.7218298 28.9911287,13.823259 C29.2539462,13.9290244 29.5346223,13.9818811 29.8174335,13.9788679 C30.4678368,13.9933153 31.0812985,13.6736881 31.447624,13.1295026 L32.2162797,13.7000686 C32.0912589,13.8854127 31.942654,14.0532727 31.7743027,14.1993139 C31.609079,14.3508668 31.4262466,14.4815014 31.2298382,14.5883362 C31.0202174,14.6947937 30.798705,14.7753381 30.5700755,14.8282333 C29.9122375,14.9755416 29.22612,14.9236797 28.5971927,14.6791081 C27.8634291,14.3885091 27.282919,13.8009081 26.9958267,13.0581818 C26.6955032,12.2695144 26.6955032,11.3960088 26.9958267,10.6073413 C27.282919,9.86461503 27.8634291,9.27701408 28.5971927,8.98641509 C28.9904764,8.82838002 29.410324,8.74910989 29.8334472,8.75300172 Z M34.9898454,10.6267925 C35.2836861,10.6233608 35.5753269,10.678436 35.8481776,10.7888851 C36.1022505,10.8914899 36.3340076,11.0434765 36.5303595,11.2362607 C36.723827,11.42828 36.8773708,11.657551 36.9819446,11.910566 C37.1991735,12.4532206 37.1991735,13.0601585 36.9819446,13.602813 C36.8773708,13.8558281 36.723827,14.0850991 36.5303595,14.2771184 C36.3340076,14.4699026 36.1022505,14.6218892 35.8481776,14.724494 C35.2960612,14.9416325 34.6836297,14.9416325 34.1315133,14.724494 C33.8771314,14.6224949 33.6452634,14.4704356 33.4493314,14.2771184 C33.2540659,14.0895731 33.0973334,13.8648233 32.988138,13.6157804 C32.7709092,13.0731259 32.7709092,12.466188 32.988138,11.9235334 C33.0920653,11.6709579 33.2444686,11.4417645 33.4365205,11.2492281 C33.6324524,11.0559109 33.8643205,10.9038516 34.1187024,10.8018525 C34.3963167,10.6881849 34.6936156,10.6319671 34.9930482,10.636518 L34.9898454,10.6267925 Z M34.9898454,11.4599485 C34.8198911,11.4581452 34.6512361,11.4900854 34.493422,11.5539623 C34.3444705,11.6141402 34.2093031,11.7046169 34.0962832,11.8197942 C33.983009,11.9371075 33.8937576,12.0759251 33.8336592,12.2282676 C33.7055186,12.5674925 33.7055186,12.9426447 33.8336592,13.2818696 C33.8937576,13.4342122 33.983009,13.5730297 34.0962832,13.6903431 C34.2094182,13.8053781 34.3445548,13.8958341 34.493422,13.956175 C34.812567,14.0827058 35.1671238,14.0827058 35.4862689,13.956175 C35.7887473,13.8361511 36.02948,13.5959924 36.1524371,13.2915952 C36.2805778,12.9523703 36.2805778,12.577218 36.1524371,12.2379931 C36.0918475,12.0851366 36.0014378,11.9462117 35.8866104,11.8295197 C35.7721975,11.7145404 35.6360305,11.6241237 35.4862689,11.5636878 C35.3294535,11.5002263 35.1619266,11.4682937 34.9930482,11.4696741 L34.9898454,11.4599485 Z M39.7715241,10.6267925 C40.261753,10.6075968 40.7308135,10.8298903 41.0301977,11.2232933 L41.0301977,8.69464837 L41.9045435,8.69464837 L41.9045435,14.7925729 L41.0301977,14.7925729 L41.0301977,14.306295 C40.8905901,14.4868012 40.7134549,14.6340033 40.5113551,14.7374614 C40.2810858,14.8505618 40.0273881,14.9061455 39.7715241,14.899554 C39.2374085,14.9047187 38.7245702,14.6879378 38.3527139,14.2998113 C38.1670406,14.1028679 38.0222058,13.8702858 37.9267505,13.6157804 C37.7208959,13.0642384 37.7208959,12.4556244 37.9267505,11.9040823 C38.0234128,11.6530769 38.1681798,11.4239088 38.3527139,11.229777 C38.7245702,10.8416506 39.2374085,10.6248696 39.7715241,10.6300343 L39.7715241,10.6267925 Z M39.8772142,11.4599485 C39.7031205,11.4571925 39.5304973,11.4925812 39.3711826,11.5636878 C39.2274368,11.6290279 39.0987252,11.7239806 38.9932602,11.8424871 C38.8886073,11.9628534 38.8081088,12.1026937 38.7562581,12.2542024 C38.6449774,12.5797251 38.6449774,12.933654 38.7562581,13.2591767 C38.8081088,13.4106854 38.8886073,13.5505257 38.9932602,13.6708919 C39.0987252,13.7893985 39.2274368,13.8843511 39.3711826,13.9496913 C39.6909718,14.0844084 40.0506458,14.0844084 40.3704349,13.9496913 C40.5147064,13.8865604 40.6444794,13.793837 40.75156,13.6773756 C40.8558535,13.5653509 40.9384221,13.4344868 40.9949676,13.2915952 C41.1119825,12.9581651 41.1119825,12.5941162 40.9949676,12.2606861 C40.9399422,12.1095157 40.8561571,11.9707382 40.7483573,11.8522127 C40.6410942,11.7359629 40.5113678,11.6432728 40.3672322,11.5798971 C40.2132945,11.5089064 40.0463675,11.4713584 39.8772142,11.4696741 L39.8772142,11.4599485 Z M44.8094213,10.6267925 C45.072483,10.6242553 45.3331788,10.6772522 45.5748742,10.7824014 C45.8021705,10.8818452 46.0054227,11.0300628 46.1705823,11.2168096 C46.3411386,11.4132287 46.4727131,11.6410684 46.5581129,11.8878731 C46.6546776,12.1658504 46.7023722,12.4588057 46.6990331,12.7534477 C46.6990331,12.8085592 46.6990331,12.8669125 46.6990331,12.922024 C46.6990331,12.9771355 46.6990331,13.032247 46.6990331,13.0841166 L43.7429116,13.0841166 C43.7638506,13.2493467 43.8160457,13.4089453 43.8966427,13.5541852 C43.9657251,13.6791178 44.0581916,13.7892306 44.1688749,13.8783705 C44.2748145,13.9620894 44.3954328,14.0247851 44.5243781,14.0631561 C44.657494,14.1026994 44.7956005,14.1223579 44.9343278,14.1215094 C45.1400703,14.1199038 45.3439121,14.081491 45.5364414,14.0080446 C45.7374813,13.9315454 45.9246833,13.8220144 46.090514,13.6838593 L46.5260855,14.3127787 C46.2997742,14.5136729 46.0347777,14.6648991 45.7478217,14.7569125 C45.466337,14.8425452 45.1737989,14.885159 44.8798814,14.8833448 C44.597363,14.8864109 44.3168777,14.8346906 44.0535766,14.7309777 C43.8129407,14.6335638 43.5948449,14.4867585 43.4130302,14.2998113 C43.2279214,14.1080092 43.0839886,13.8795394 42.9902696,13.6287479 C42.8868347,13.3489731 42.835788,13.0521443 42.8397412,12.7534477 C42.836673,12.4582739 42.8865916,12.16499 42.9870669,11.8878731 C43.0775711,11.6375079 43.2169968,11.4081737 43.3970165,11.2135678 C43.5774789,11.0241788 43.7958819,10.8760613 44.0375629,10.7791595 C44.2836124,10.6825971 44.5455355,10.634193 44.8094213,10.636518 L44.8094213,10.6267925 Z M47.1185909,14.7828473 L47.1185909,14.5883362 L47.1986592,14.5883362 L47.1986592,14.5461921 L46.9904817,14.5461921 L46.9904817,14.5883362 L47.0801582,14.5883362 L47.0801582,14.7925729 L47.1185909,14.7828473 Z M47.5189324,14.7828473 L47.5189324,14.5364666 L47.4548778,14.5364666 L47.381215,14.7050429 L47.3075521,14.5364666 L47.2434975,14.5364666 L47.2434975,14.7828473 L47.2883357,14.7828473 L47.2883357,14.5980617 L47.3555931,14.7569125 L47.4004313,14.7569125 L47.4676887,14.5980617 L47.4676887,14.7828473 L47.5189324,14.7828473 Z M44.7934076,11.4145626 C44.6514404,11.4118113 44.5102201,11.436002 44.3770525,11.4858834 C44.2572407,11.5302986 44.148086,11.5999061 44.0567793,11.6901201 C43.9664459,11.7841361 43.8937377,11.8939813 43.8421963,12.0143053 C43.7844186,12.1420714 43.7445338,12.2773722 43.7236952,12.416295 L45.7990654,12.416295 C45.7763241,12.1388386 45.6637426,11.8767383 45.4787922,11.670669 C45.2929192,11.4976469 45.0454588,11.4086904 44.7934076,11.4242882 L44.7934076,11.4145626 Z" id="Shape" fill="#F79E1B"></path>
                    <path d="M7.14849748,6.44156089 L6.16846154,6.44156089 L6.16846154,1.39075472 L4.39735083,5.83533448 L3.36607117,5.83533448 L1.60136592,1.4393825 L1.60136592,6.44156089 L0.614924515,6.44156089 L0.614924515,0.304734134 L2.11700575,0.304734134 L3.881711,4.69096055 L5.64321352,0.304734134 L7.14529475,0.304734134 L7.14849748,6.44156089 Z M12.3048958,6.44156089 L11.3985226,6.44156089 L11.3985226,5.93907376 C11.2537588,6.12634141 11.0700637,6.27907689 10.8604637,6.3864494 C10.6219915,6.5025665 10.3595372,6.5592555 10.0950108,6.55178388 C9.54034483,6.55775502 9.00763738,6.33269163 8.62175413,5.9293482 C8.43023981,5.72772893 8.28002972,5.48974564 8.17977714,5.22910806 C7.96603785,4.65669034 7.96603785,4.02499062 8.17977714,3.4525729 C8.28010524,3.19197415 8.43030636,2.95400508 8.62175413,2.75233276 C9.00763738,2.34898933 9.54034483,2.12392594 10.0950108,2.12989708 C10.3598575,2.1227975 10.6224724,2.1806334 10.8604637,2.29847341 C11.0699817,2.40740069 11.2535802,2.56116207 11.3985226,2.74909091 L11.3985226,2.24336192 L12.3048958,2.24336192 L12.3048958,6.44156089 Z M10.2007009,2.9954717 C10.0200438,2.99235897 9.84086059,3.02885452 9.67545291,3.10245283 C9.5268571,3.17017082 9.39379618,3.26842553 9.28471963,3.3909777 C9.17611118,3.5162516 9.09237996,3.66154413 9.03810927,3.81890223 C8.92243437,4.15701107 8.92243437,4.52466989 9.03810927,4.86277873 C9.09289314,5.02060241 9.17777099,5.16599637 9.28792236,5.29070326 C9.39687243,5.41339729 9.52996499,5.51167536 9.67865564,5.57922813 C10.0106291,5.7197098 10.3843673,5.7197098 10.7163408,5.57922813 C10.8653727,5.51355645 10.9994641,5.41755283 11.1102768,5.29718696 C11.2219672,5.17369605 11.3089751,5.02948035 11.3664953,4.87250429 C11.4876454,4.52644308 11.4876454,4.14875417 11.3664953,3.80269297 C11.3089751,3.64571691 11.2219672,3.5015012 11.1102768,3.37801029 C10.999344,3.25778367 10.865283,3.16180185 10.7163408,3.09596913 C10.5534665,3.02576925 10.3776826,2.99150923 10.2007009,2.9954717 Z M16.458839,3.29372213 C16.3830304,3.24963072 16.3049902,3.20959291 16.2250395,3.17377358 C16.1208742,3.12793552 16.013894,3.08895222 15.9047664,3.0570669 C15.7869386,3.0210124 15.6671755,2.99178829 15.5460604,2.96953688 C15.4192861,2.94586588 15.2906457,2.9339298 15.1617326,2.9338765 C14.9592097,2.92217375 14.757722,2.97062569 14.5820381,3.07327616 C14.4545439,3.14855523 14.3764086,3.28696219 14.3770633,3.43636364 C14.3747381,3.50233111 14.3938657,3.567248 14.4315097,3.62114923 C14.4696071,3.67283272 14.5189134,3.71497773 14.5756326,3.74433962 C14.644554,3.77980353 14.717774,3.80596156 14.7934184,3.82214408 C14.8766894,3.8415952 14.9663659,3.85888508 15.0624479,3.87401372 L15.4916139,3.93885077 C15.8731366,3.97884803 16.2381411,4.11725709 16.5517182,4.34084048 C16.8150132,4.53866098 16.9648353,4.8553107 16.9520597,5.18696398 C16.9539271,5.37947852 16.9099864,5.5696196 16.8239504,5.74132075 C16.7339822,5.90710534 16.608055,6.05008815 16.4556362,6.15951973 C16.2768306,6.28940947 16.0760068,6.3850045 15.8631308,6.44156089 C15.6020438,6.51202302 15.3326299,6.54583841 15.0624479,6.54205832 C14.9556902,6.54205832 14.8318512,6.53557461 14.690931,6.5226072 C14.5387146,6.50796812 14.3877751,6.48196248 14.2393458,6.44480274 C14.0730545,6.40265433 13.910284,6.34737345 13.7525306,6.27946827 C13.585131,6.20729447 13.4270343,6.11476134 13.281729,6.00391081 L13.7012868,5.31663808 C13.7786452,5.37724434 13.8599669,5.43248203 13.9446945,5.48197256 C14.0396212,5.53655361 14.1393302,5.58213355 14.2425485,5.61813036 C14.3625105,5.65982542 14.4857128,5.69127332 14.6108627,5.71214408 C14.7622611,5.73706989 14.9154699,5.74899913 15.0688533,5.74780446 C15.3115395,5.76168209 15.5537906,5.71375466 15.7734543,5.6084048 C15.9176321,5.54116418 16.0109986,5.39625348 16.0136592,5.23559177 C16.011443,5.11326406 15.9457255,5.00116504 15.8407117,4.94058319 C15.6729933,4.8461684 15.4874465,4.78871966 15.2962473,4.77200686 L14.8638785,4.71365352 C14.4822475,4.68233806 14.1175764,4.54053986 13.8133825,4.3051801 C13.5747195,4.10114466 13.4413944,3.79779767 13.4514738,3.48174957 C13.4488612,3.28677242 13.4904982,3.09378991 13.5731776,2.91766724 C13.6524663,2.75056656 13.7699393,2.6049877 13.9158699,2.49298456 C14.0775858,2.37170091 14.2599785,2.28158849 14.4539288,2.22715266 C14.6863516,2.16150181 14.9268573,2.12984324 15.168138,2.13313894 C15.4793019,2.1313439 15.7893717,2.17057606 16.0905248,2.24984563 C16.3586801,2.31722257 16.6147857,2.42660398 16.8495723,2.57403087 L16.458839,3.29372213 Z M20.7569051,3.07327616 L19.1555392,3.07327616 L19.1555392,4.90168096 C19.1553168,5.02532888 19.1758948,5.14811253 19.2163911,5.26476844 C19.245828,5.3549998 19.293861,5.43787431 19.3573113,5.50790738 C19.414871,5.57034288 19.4862059,5.6181101 19.5654889,5.64730703 C19.6486394,5.67781164 19.7364681,5.69317732 19.8249101,5.69269297 C19.9729044,5.69151245 20.1194377,5.66294651 20.2572789,5.6084048 C20.3981096,5.55526782 20.5333045,5.48793078 20.6608231,5.40740995 L21.0195291,6.14006861 C20.843137,6.25945164 20.6540588,6.35840783 20.4558483,6.43507719 C20.2294616,6.52006086 19.9894727,6.56182995 19.7480446,6.55826758 C19.3445015,6.58202355 18.9488675,6.4379961 18.6527103,6.15951973 C18.3615099,5.81739744 18.218402,5.37114765 18.2555715,4.92113208 L18.2555715,3.07651801 L17.4324694,3.07651801 L17.4324694,2.24336192 L18.2555715,2.24336192 L18.2555715,0.972555746 L19.1651474,0.972555746 L19.1651474,2.24336192 L20.7665133,2.24336192 L20.7569051,3.07327616 Z M23.5432818,2.12989708 C23.8160688,2.12641337 24.0865792,2.18051383 24.3375593,2.28874786 C24.5734018,2.39188477 24.7843039,2.54563341 24.9556866,2.73936535 C25.1331571,2.94332249 25.2701663,3.17996358 25.3592308,3.43636364 C25.4586511,3.72489401 25.5074276,4.0288079 25.5033537,4.33435678 C25.5033537,4.39271012 25.5033537,4.45106346 25.5033537,4.50941681 C25.5033537,4.56777015 25.5033537,4.62288165 25.5033537,4.67475129 L22.4191229,4.67475129 C22.4416059,4.84564412 22.4959476,5.01066031 22.5792595,5.16102916 C22.652093,5.28617001 22.7477327,5.39617899 22.8610999,5.48521441 C22.9709944,5.57169187 23.0959201,5.63656706 23.2294141,5.6764837 C23.3676586,5.71800606 23.5111767,5.73875908 23.6553774,5.7380789 C23.8741002,5.73861099 24.0911127,5.69907161 24.2959238,5.62137221 C24.5032272,5.54572351 24.6968878,5.43621171 24.8692128,5.29718696 L25.320798,5.94555746 C25.0860397,6.15374347 24.8112437,6.31048027 24.5137096,6.40590051 C24.2219095,6.495215 23.9185887,6.54001236 23.6137419,6.53881647 C23.3159001,6.54931241 23.0188981,6.50085925 22.7393961,6.39617496 C22.4868305,6.29616836 22.2577308,6.14377822 22.0668224,5.94879931 C21.8746628,5.74956506 21.7252775,5.51226461 21.6280482,5.25180103 C21.5205367,4.9617085 21.4673188,4.65389151 21.4711143,4.34408233 C21.46732,4.03800736 21.5183191,3.73376691 21.6216427,3.44608919 C21.7156585,3.18605292 21.8605364,2.9478884 22.047606,2.74584906 C22.2277732,2.55211079 22.4459526,2.39862393 22.6881524,2.29523156 C22.959348,2.18292877 23.2503171,2.12777459 23.5432818,2.13313894 L23.5432818,2.12989708 Z M23.5272682,2.94684391 C23.3798057,2.94409603 23.2331438,2.96938808 23.0948994,3.02140652 C22.974678,3.06955166 22.8656248,3.14240591 22.7746262,3.23536878 C22.681558,3.32917241 22.6056535,3.43893204 22.5504349,3.55955403 C22.4869134,3.69406525 22.4426963,3.83706993 22.4191229,3.98423671 L24.5713587,3.98423671 C24.5425855,3.69852734 24.420925,3.43056944 24.2254637,3.22240137 C24.0391714,3.03868001 23.7872536,2.93925538 23.5272682,2.94684391 L23.5272682,2.94684391 Z M28.6516391,2.12989708 C28.7771286,2.1290953 28.9024667,2.13885446 29.0263587,2.15907376 C29.1358604,2.17835257 29.2431614,2.20876383 29.3466319,2.24984563 L29.1288462,3.15756432 C29.027531,3.10553554 28.9198288,3.06737931 28.808573,3.04409949 C28.691648,3.01917757 28.5725552,3.00614541 28.4530697,3.00519726 C28.3171785,3.00389627 28.1823218,3.02921557 28.055931,3.07975986 C27.933706,3.12706318 27.8240497,3.20254024 27.7356578,3.30020583 C27.6442924,3.40387927 27.5745715,3.5251758 27.530683,3.65680961 C27.4795803,3.81027581 27.4546699,3.97143019 27.4570201,4.13336192 L27.4570201,6.44480274 L26.550647,6.44480274 L26.550647,2.23039451 L27.4474119,2.23039451 L27.4474119,2.70370497 C27.5743135,2.51537234 27.74916,2.36527347 27.9534436,2.26929674 C28.1707291,2.17464459 28.4055284,2.12821657 28.6420309,2.13313894 L28.6516391,2.12989708 Z M31.7486808,2.12989708 C32.0472549,2.1268082 32.3434307,2.18412166 32.6198239,2.29847341 C32.8831045,2.40767372 33.1161469,2.58013977 33.298803,2.80096055 L32.7191086,3.42663808 C32.5847091,3.29429128 32.430049,3.18481628 32.2611179,3.10245283 C32.0919865,3.02567527 31.9084094,2.98696288 31.723059,2.98898799 C31.5569619,2.98739012 31.3923256,3.02049886 31.2394464,3.08624357 C31.0916769,3.1495726 30.9585943,3.24342669 30.8487132,3.36180103 C30.7365602,3.48493928 30.6494937,3.62925227 30.5924946,3.7864837 C30.467598,4.13967983 30.467598,4.52579187 30.5924946,4.87898799 C30.6495693,5.03618242 30.7366273,5.18048119 30.8487132,5.30367067 C30.9586559,5.42197275 31.0917225,5.51581552 31.2394464,5.57922813 C31.3923256,5.64497284 31.5569619,5.67808158 31.723059,5.6764837 C31.9156031,5.67833386 32.1060826,5.63622676 32.2803343,5.55329331 C32.4487951,5.47011888 32.6033343,5.36072943 32.7383249,5.22910806 L33.2956003,5.8612693 C33.1090955,6.08070436 32.874349,6.25280787 32.6102157,6.36375643 C32.3349667,6.47818903 32.03982,6.53551411 31.7422753,6.53233276 C31.4352829,6.5367046 31.1304819,6.47940727 30.8455104,6.36375643 C30.3241246,6.153411 29.9139369,5.73115578 29.7149461,5.19993139 C29.5068146,4.63429712 29.5068146,4.01172346 29.7149461,3.44608919 C29.9139369,2.9148648 30.3241246,2.49260958 30.8455104,2.28226415 C31.130808,2.17367321 31.434436,2.12300121 31.7390726,2.13313894 L31.7486808,2.12989708 Z M38.112509,6.44156089 L37.2061359,6.44156089 L37.2061359,5.93907376 C37.061372,6.12634141 36.877677,6.27907689 36.6680769,6.3864494 C36.4296048,6.5025665 36.1671504,6.5592555 35.902624,6.55178388 C35.3479581,6.55775502 34.8152506,6.33269163 34.4293674,5.9293482 C34.237853,5.72772893 34.0876429,5.48974564 33.9873904,5.22910806 C33.7736511,4.65669034 33.7736511,4.02499062 33.9873904,3.4525729 C34.0877185,3.19197415 34.2379196,2.95400508 34.4293674,2.75233276 C34.8152506,2.34898933 35.3479581,2.12392594 35.902624,2.12989708 C36.1674708,2.1227975 36.4300857,2.1806334 36.6680769,2.29847341 C36.877595,2.40740069 37.0611934,2.56116207 37.2061359,2.74909091 L37.2061359,2.24336192 L38.112509,2.24336192 L38.112509,6.44156089 Z M36.0115169,2.9954717 C35.8308597,2.99235897 35.6516765,3.02885452 35.4862689,3.10245283 C35.3376731,3.17017082 35.2046121,3.26842553 35.0955356,3.3909777 C34.9869271,3.5162516 34.9031959,3.66154413 34.8489252,3.81890223 C34.7332503,4.15701107 34.7332503,4.52466989 34.8489252,4.86277873 C34.9031959,5.02013683 34.9869271,5.16542936 35.0955356,5.29070326 C35.2045491,5.41332617 35.3376258,5.51159251 35.4862689,5.57922813 C35.8183139,5.71934824 36.191909,5.71934824 36.523954,5.57922813 C36.672941,5.51347569 36.8070171,5.41748302 36.91789,5.29718696 C37.0299759,5.17399749 37.1170339,5.02969872 37.1741086,4.87250429 C37.2957813,4.52653425 37.2957813,4.14866301 37.1741086,3.80269297 C37.1170339,3.64549854 37.0299759,3.50119977 36.91789,3.37801029 C36.8069572,3.25778367 36.6728963,3.16180185 36.523954,3.09596913 C36.3630292,3.02676195 36.1895425,2.99252433 36.0147196,2.9954717 L36.0115169,2.9954717 Z M41.5490403,2.13313894 C41.6745297,2.13233715 41.7998679,2.14209631 41.9237599,2.16231561 C42.0332616,2.18159443 42.1405625,2.21200568 42.2440331,2.25308748 L42.0262473,3.16080617 C41.9249322,3.10877739 41.8172299,3.07062116 41.7059741,3.04734134 C41.5890424,3.02246207 41.4699539,3.00943037 41.3504709,3.00843911 C41.2145726,3.00705615 41.0797004,3.03237834 40.9533321,3.08300172 C40.8311071,3.13030504 40.7214509,3.20578209 40.633059,3.30344768 C40.5416935,3.40712113 40.4719726,3.52841765 40.4280841,3.66005146 C40.3769815,3.81351766 40.3520711,3.97467204 40.3544213,4.13660377 L40.3544213,6.4480446 L39.4480482,6.4480446 L39.4480482,2.23363636 L40.3544213,2.23363636 L40.3544213,2.70694683 C40.4816414,2.51686039 40.6577162,2.36553687 40.8636556,2.26929674 C41.0809705,2.17474088 41.315749,2.12831696 41.552243,2.13313894 L41.5490403,2.13313894 Z M44.5211754,2.13313894 C44.7860222,2.12603936 45.0486371,2.18387525 45.2866283,2.30171527 C45.4960898,2.41072932 45.6796712,2.56447637 45.8246873,2.75233276 L45.8246873,0.129674099 L46.7310604,0.129674099 L46.7310604,6.44156089 L45.8246873,6.44156089 L45.8246873,5.93907376 C45.6799234,6.12634141 45.4962284,6.27907689 45.2866283,6.3864494 C45.0481562,6.5025665 44.7857018,6.5592555 44.5211754,6.55178388 C43.9665095,6.55775502 43.433802,6.33269163 43.0479188,5.9293482 C42.8530236,5.72854094 42.699519,5.49051267 42.5963336,5.22910806 C42.3825943,4.65669034 42.3825943,4.02499062 42.5963336,3.4525729 C42.6966617,3.19197415 42.8468628,2.95400508 43.0383106,2.75233276 C43.4241938,2.34898933 43.9569013,2.12392594 44.5115672,2.12989708 L44.5211754,2.13313894 Z M47.7879619,6.05578045 C47.8241326,6.05491617 47.8600968,6.061535 47.893652,6.07523156 C47.9259113,6.08888121 47.9552708,6.10869329 47.9801258,6.13358491 C48.0045012,6.15768168 48.0240727,6.186297 48.037775,6.21787307 C48.065912,6.28410043 48.065912,6.35912427 48.037775,6.42535163 C48.0240037,6.45688863 48.0044407,6.48549143 47.9801258,6.50963979 C47.9551718,6.5344082 47.925837,6.55420359 47.893652,6.56799314 C47.8603858,6.58298171 47.8243749,6.59071369 47.7879619,6.59068611 C47.6801198,6.59222598 47.5817928,6.52842594 47.5381488,6.42859348 C47.5100118,6.36236613 47.5100118,6.28734228 47.5381488,6.22111492 C47.5655334,6.15605627 47.6173991,6.10472365 47.6822717,6.07847341 C47.7166407,6.06340743 47.7537113,6.05568203 47.7911646,6.05578045 L47.7879619,6.05578045 Z M47.7879619,6.53233276 C47.8154813,6.53269859 47.8427666,6.52717488 47.8680302,6.5161235 C47.8919843,6.50515842 47.9137074,6.48976651 47.9320848,6.47073756 C48.0114302,6.3888003 48.0114302,6.25766625 47.9320848,6.17572899 C47.9138081,6.15658023 47.892061,6.1411713 47.8680302,6.13034305 C47.8416176,6.12483989 47.8143745,6.12483989 47.7879619,6.13034305 C47.7615239,6.12509883 47.7343316,6.12509883 47.7078936,6.13034305 C47.6501959,6.15866634 47.608918,6.212689 47.5963421,6.27633657 C47.5837662,6.33998414 47.6013417,6.40592125 47.643839,6.4545283 C47.6621669,6.47361624 47.6839017,6.48901646 47.7078936,6.49991424 C47.7332327,6.51563546 47.7616462,6.52559104 47.7911646,6.52909091 L47.7879619,6.53233276 Z M47.7879619,6.20814751 C47.8143931,6.20667056 47.8404878,6.21470945 47.8616247,6.23084048 C47.8787715,6.24511882 47.8882662,6.26674289 47.8872466,6.28919383 C47.8883945,6.30845924 47.8814099,6.32731246 47.8680302,6.34106346 C47.8522453,6.35602972 47.8319335,6.36516746 47.810381,6.36699828 L47.8904493,6.46101201 L47.8263947,6.46101201 L47.7527318,6.36699828 L47.7303127,6.36699828 L47.7303127,6.46101201 L47.679069,6.46101201 L47.679069,6.21138937 L47.7879619,6.20814751 Z M47.72711,6.25353345 L47.72711,6.3183705 L47.7879619,6.3183705 C47.7984234,6.32143246 47.8095277,6.32143246 47.8199892,6.3183705 C47.8239937,6.31020068 47.8239937,6.30060549 47.8199892,6.29243568 C47.8245661,6.28441142 47.8245661,6.27452512 47.8199892,6.26650086 C47.809505,6.26360611 47.7984461,6.26360611 47.7879619,6.26650086 L47.72711,6.25353345 Z M44.6140546,3.01168096 C44.4333975,3.00856823 44.2542143,3.04506379 44.0888066,3.11866209 C43.9402108,3.18638009 43.8071499,3.28463479 43.6980733,3.40718696 C43.5894649,3.53246087 43.5057337,3.67775339 43.451463,3.83511149 C43.3357881,4.17322034 43.3357881,4.54087915 43.451463,4.87898799 C43.5057337,5.03634609 43.5894649,5.18163862 43.6980733,5.30691252 C43.8070868,5.42953543 43.9401635,5.52780177 44.0888066,5.59543739 C44.4208516,5.7355575 44.7944467,5.7355575 45.1264917,5.59543739 C45.2754787,5.52968496 45.4095548,5.43369228 45.5204277,5.31339623 C45.6435012,5.1846334 45.7384363,5.03110285 45.7990654,4.86277873 C45.9204762,4.51676296 45.9204762,4.13898318 45.7990654,3.79296741 C45.7419907,3.63577298 45.6549327,3.49147421 45.5428469,3.36828473 C45.431914,3.24805812 45.2978531,3.15207629 45.1489109,3.08624357 C44.9852925,3.01946662 44.8095552,2.98853029 44.633271,2.9954717 L44.6140546,3.01168096 Z" id="Shape" fill="#EB001B"></path>
                </g>
                <g id="verified_byVisa" transform="translate(56.000000, 1.000000)">
                    <path d="M1.59495506,5.1721 L0.000235955056,0.3371 L0.68147191,0.3371 L1.44360674,2.71876667 C1.65360674,3.37143333 1.83461798,3.95943333 1.96574157,4.52643333 L1.98057303,4.52643333 C2.1184382,3.96643333 2.32102247,3.3571 2.5384382,2.72576667 L3.36529213,0.3371 L4.0401236,0.3371 L2.29135955,5.1721 L1.59495506,5.1721 Z" id="Fill-1" fill="#1A1F71"></path>
                    <path d="M6.24559551,3.09886667 C6.25334831,2.6972 6.07907865,2.07253333 5.36076404,2.07253333 C4.71492135,2.07253333 4.43244944,2.66086667 4.38188764,3.09886667 L6.24559551,3.09886667 Z M4.37413483,3.55053333 C4.38896629,4.40453333 4.93975281,4.75586667 5.57851685,4.75586667 C6.03559551,4.75586667 6.31098876,4.67686667 6.55065169,4.5762 L6.65952809,5.02853333 C6.43469663,5.12853333 6.05042697,5.24353333 5.49155056,5.24353333 C4.4108764,5.24353333 3.76469663,4.54053333 3.76469663,3.4932 C3.76469663,2.44586667 4.38896629,1.62086667 5.41132584,1.62086667 C6.55773034,1.62086667 6.86278652,2.6182 6.86278652,3.25653333 C6.86278652,3.38553333 6.84795506,3.48586667 6.8408764,3.55053333 L4.37413483,3.55053333 Z" id="Fill-3" fill="#1A1F71"></path>
                    <path d="M7.36314607,2.7828 C7.36314607,2.37413333 7.35606742,2.0228 7.33449438,1.69946667 L7.89303371,1.69946667 L7.91494382,2.38146667 L7.94359551,2.38146667 C8.10337079,1.91513333 8.48764045,1.62113333 8.91573034,1.62113333 C8.98786517,1.62113333 9.0394382,1.62813333 9.09707865,1.64246667 L9.09707865,2.23813333 C9.03168539,2.22346667 8.96629213,2.21646667 8.87898876,2.21646667 C8.43,2.21646667 8.1111236,2.5538 8.02382022,3.0268 C8.00898876,3.1128 7.9941573,3.21346667 7.9941573,3.32113333 L7.9941573,5.1718 L7.36314607,5.1718 L7.36314607,2.7828 Z" id="Fill-5" fill="#1A1F71"></path>
                    <mask id="mask-2" fill="white">
                        <use xlink:href="#path-1"></use>
                    </mask>
                    <g id="Clip-8"></g>
                    <path d="M9.47460674,5.1714 L10.1137079,5.1714 L10.1137079,1.69973333 L9.47460674,1.69973333 L9.47460674,5.1714 Z M10.1855056,0.7244 C10.1929213,0.9394 10.0331461,1.11173333 9.77932584,1.11173333 C9.55449438,1.11173333 9.39505618,0.9394 9.39505618,0.7244 C9.39505618,0.502066667 9.56157303,0.329733333 9.7941573,0.329733333 C10.0331461,0.329733333 10.1855056,0.502066667 10.1855056,0.7244 L10.1855056,0.7244 Z" id="Fill-7" fill="#1A1F71" mask="url(#mask-2)"></path>
                    <path d="M10.947573,5.1721 L10.947573,2.1801 L10.4540899,2.1801 L10.4540899,1.69976667 L10.947573,1.69976667 L10.947573,1.53476667 C10.947573,1.04743333 11.0564494,0.602433333 11.3537528,0.322433333 C11.5927416,0.0931 11.911618,-0.000233333333 12.2099326,-0.000233333333 C12.434764,-0.000233333333 12.6299326,0.0501 12.7533034,0.100433333 L12.6666742,0.587766667 C12.5722921,0.544766667 12.4415056,0.509433333 12.2604944,0.509433333 C11.7164494,0.509433333 11.5785843,0.982766667 11.5785843,1.51276667 L11.5785843,1.69976667 L12.4266742,1.69976667 L12.4266742,2.1801 L11.5785843,2.1801 L11.5785843,5.1721 L10.947573,5.1721 Z" id="Fill-9" fill="#1A1F71" mask="url(#mask-2)"></path>
                    <path d="M13.0564045,5.1714 L13.6944944,5.1714 L13.6944944,1.69973333 L13.0564045,1.69973333 L13.0564045,5.1714 Z M13.7666292,0.7244 C13.7747191,0.9394 13.6139326,1.11173333 13.3604494,1.11173333 C13.135618,1.11173333 12.9758427,0.9394 12.9758427,0.7244 C12.9758427,0.502066667 13.1433708,0.329733333 13.3752809,0.329733333 C13.6139326,0.329733333 13.7666292,0.502066667 13.7666292,0.7244 L13.7666292,0.7244 Z" id="Fill-10" fill="#1A1F71" mask="url(#mask-2)"></path>
                    <path d="M16.6904157,3.09886667 C16.6974944,2.6972 16.5238989,2.07253333 15.8055843,2.07253333 C15.1597416,2.07253333 14.8772697,2.66086667 14.8256966,3.09886667 L16.6904157,3.09886667 Z M14.8189551,3.55053333 C14.8337865,4.40453333 15.384573,4.75586667 16.0233371,4.75586667 C16.4804157,4.75586667 16.755809,4.67686667 16.9954719,4.5762 L17.1043483,5.02853333 C16.8795169,5.12853333 16.494236,5.24353333 15.9363708,5.24353333 C14.8553596,5.24353333 14.2095169,4.54053333 14.2095169,3.4932 C14.2095169,2.44586667 14.8337865,1.62086667 15.8561461,1.62086667 C17.0025506,1.62086667 17.3065955,2.6182 17.3065955,3.25653333 C17.3065955,3.38553333 17.2927753,3.48586667 17.2850225,3.55053333 L14.8189551,3.55053333 Z" id="Fill-11" fill="#1A1F71" mask="url(#mask-2)"></path>
                    <path d="M20.201764,3.1132 C20.201764,3.03453333 20.1946854,2.9262 20.1731124,2.8472 C20.0787303,2.4462 19.730191,2.1162 19.2515393,2.1162 C18.5918764,2.1162 18.200191,2.68953333 18.200191,3.4572 C18.200191,4.16053333 18.5480562,4.74153333 19.2377191,4.74153333 C19.6644607,4.74153333 20.0568202,4.46186667 20.1731124,3.9882 C20.1946854,3.9022 20.201764,3.81586667 20.201764,3.71586667 L20.201764,3.1132 Z M20.8408652,0.0785333333 L20.8408652,4.27486667 C20.8408652,4.58386667 20.8476067,4.9352 20.8691798,5.1722 L20.2964831,5.1722 L20.2668202,4.5692 L20.2519888,4.5692 C20.0568202,4.9562 19.6290674,5.25053333 19.0553596,5.25053333 C18.2072697,5.25053333 17.5543483,4.54053333 17.5543483,3.48586667 C17.5472697,2.33053333 18.2723258,1.62086667 19.1281685,1.62086667 C19.6644607,1.62086667 20.0278315,1.8722 20.1869326,2.1512 L20.201764,2.1512 L20.201764,0.0785333333 L20.8408652,0.0785333333 Z" id="Fill-12" fill="#1A1F71" mask="url(#mask-2)"></path>
                    <path d="M23.8645281,3.78016667 C23.8645281,3.8585 23.8793596,3.93816667 23.894191,4.00983333 C24.0172247,4.44683333 24.3866629,4.74816667 24.8511573,4.74816667 C25.5189101,4.74816667 25.9173371,4.21016667 25.9173371,3.41416667 C25.9173371,2.7185 25.5549775,2.12283333 24.8730674,2.12283333 C24.438236,2.12283333 24.0320562,2.41683333 23.9012697,2.89816667 C23.8864382,2.9695 23.8645281,3.0555 23.8645281,3.1565 L23.8645281,3.78016667 Z M23.2045281,5.17216667 C23.2193596,4.93516667 23.2335169,4.5835 23.2335169,4.27483333 L23.2335169,0.0788333333 L23.8645281,0.0788333333 L23.8645281,2.2595 L23.8793596,2.2595 C24.104191,1.87216667 24.5103708,1.62083333 25.0763258,1.62083333 C25.947,1.62083333 26.5631798,2.33883333 26.5564382,3.39283333 C26.5564382,4.63383333 25.7656517,5.25016667 24.9819438,5.25016667 C24.4739663,5.25016667 24.0674494,5.05683333 23.8068876,4.59783333 L23.7853146,4.59783333 L23.7556517,5.17216667 L23.2045281,5.17216667 Z" id="Fill-13" fill="#1A1F71" mask="url(#mask-2)"></path>
                    <path d="M27.2527753,1.69976667 L28.0216517,3.75143333 C28.1022135,3.9811 28.1888427,4.25343333 28.2464831,4.46176667 L28.2613146,4.46176667 C28.3270449,4.25343333 28.3991798,3.9881 28.4861461,3.7371 L29.1832247,1.69976667 L29.8577191,1.69976667 L28.8997416,4.17476667 C28.4426629,5.36543333 28.1305281,5.9751 27.6956966,6.34843333 C27.3838989,6.62076667 27.071427,6.72843333 26.9119888,6.7571 L26.7528876,6.22643333 C26.9119888,6.1761 27.1219888,6.07543333 27.3110899,5.91776667 C27.4853596,5.78143333 27.7024382,5.53743333 27.8483933,5.21476667 C27.877382,5.15043333 27.898618,5.1001 27.898618,5.06443333 C27.898618,5.02843333 27.8837865,4.9781 27.8551348,4.8991 L26.5567079,1.69976667 L27.2527753,1.69976667 Z" id="Fill-14" fill="#1A1F71" mask="url(#mask-2)"></path>
                    <path d="M10.5884494,7.54123333 L8.6532809,12.3805667 L7.87058427,8.2659 C7.77991011,7.80723333 7.41721348,7.54123333 7.01339326,7.54123333 L3.84923596,7.54123333 L3.80642697,7.7469 C4.45496629,7.88823333 5.19350562,8.11156667 5.64047191,8.35123333 C5.91350562,8.49956667 5.99170787,8.6269 6.08069663,8.97723333 L7.56451685,14.6509 L9.53103371,14.6509 L12.5435056,7.54123333 L10.5884494,7.54123333 Z" id="Fill-15" fill="#1A1F71" mask="url(#mask-2)"></path>
                    <polygon id="Fill-16" fill="#1A1F71" mask="url(#mask-2)" points="13.3403596 7.54123333 11.803618 14.6509 13.6629438 14.6509 15.198 7.54123333"></polygon>
                    <path d="M17.6387865,9.5113 C17.6448539,9.25696667 17.8905843,8.98563333 18.4275506,8.91496667 C18.695191,8.8803 19.4283371,8.85463333 20.2626067,9.23196667 L20.5885618,7.72663333 C20.1415955,7.5653 19.5635056,7.40963333 18.8488989,7.40963333 C17.0094607,7.40963333 15.7174382,8.3773 15.7053034,9.7613 C15.6958652,10.7836333 16.6302472,11.3559667 17.3337303,11.6976333 C18.0581124,12.0443 18.3021573,12.2666333 18.2977753,12.5799667 C18.2944045,13.0579667 17.7196854,13.2666333 17.186427,13.2749667 C16.2500225,13.2886333 15.708,13.0249667 15.2748539,12.8266333 L14.9391236,14.3853 C15.3722697,14.5816333 16.175191,14.7543 17.0084494,14.7629667 C18.9584494,14.7629667 20.2373258,13.8063 20.2444045,12.3303 C20.2521573,10.4519667 17.6205843,10.3496333 17.6387865,9.5113" id="Fill-17" fill="#1A1F71" mask="url(#mask-2)"></path>
                    <path d="M23.7292247,7.54123333 C23.3719213,7.54123333 23.070573,7.74556667 22.9367528,8.06323333 L20.147427,14.6509 L22.1007978,14.6509 L22.4887753,13.5892333 L24.8698989,13.5892333 L25.0930449,14.6509 L26.8168652,14.6509 L25.3175393,7.54123333 L23.7292247,7.54123333 Z M23.0230449,12.1319 L24.0120337,9.46223333 L24.5678764,12.1319 L23.0230449,12.1319 Z" id="Fill-18" fill="#1A1F71" mask="url(#mask-2)"></path>
                </g>
                <g id="verified-pci" transform="translate(93.199497, 0.000000)">
                    <g id="COMPLIANT" transform="translate(28.533786, 8.067310)" font-size="2.2272" font-family="Arial-Black, Arial Black" fill="#225E63" font-weight="700">
                        <text>
                            <tspan x="0" y="2">COMPLIANT</tspan>
                        </text>
                    </g>
                    <g id="Rectangle-3-+-Letters" transform="translate(0.000000, 0.329674)" fill-rule="nonzero">
                        <path d="M23.819719,11.0675115 L25.248679,10.6132751 L24.7860214,9.57370304 C24.4420231,10.0020889 24.1031415,10.5558556 23.8197188,11.0675117 L23.819719,11.0675115 Z M23.3330159,6.30886115 L20.5308607,0.0125370624 L0.0172393815,1.18727927 L5.70035618,16.8272767 L16.6406468,13.3495879 C15.9471298,12.3407808 15.689771,11.1416241 16.4940986,10.5554792 C17.3943564,9.8994261 18.7487931,10.6581816 19.6188589,11.7369799 C20.4538904,10.3217553 22.796756,7.05351111 23.3330159,6.30886115 Z" id="Rectangle-3" fill="#225E63"></path>
                        <g id="Letters" transform="translate(3.922273, 1.603752)" fill="#FEFEFE">
                            <path d="M15.971778,2.95803163 C16.8304564,2.95803163 17.5265528,2.29585369 17.5265528,1.47901581 C17.5265528,0.662177933 16.8304564,0 15.971778,0 C15.1130995,0 14.4170031,0.662177933 14.4170031,1.47901581 C14.4170031,2.29585369 15.1130995,2.95803163 15.971778,2.95803163 Z M14.6996894,3.59953246 L17.2438665,3.59953246 L17.2438665,10.2996523 L14.6996894,10.2996523 L14.6996894,3.59953246 Z" id="Oval-1"></path>
                            <path d="M13.4436553,5.5549118 C13.46186,5.56570442 13.4766179,5.55688751 13.4766179,5.53573328 L13.4766179,3.83835153 C13.4766179,3.81696692 13.4620669,3.79106693 13.4430229,3.78083802 C13.4430229,3.78083802 13.109368,3.56149208 12.0909924,3.50038079 C12.0366111,3.47003662 11.1503403,3.46557143 10.9044268,3.50038079 C7.20446582,3.79963126 7.06721934,6.49943234 7.06721934,6.62273434 L7.06721934,7.27862729 C7.06721934,7.3591523 7.06721934,10.1194114 10.904273,10.3641579 C11.279141,10.3929271 12.0136397,10.3641579 12.0908473,10.3641579 C12.9745673,10.3641577 13.5869887,10.0957478 13.5869887,10.0957478 C13.6064665,10.087787 13.6222565,10.0637433 13.6222565,10.0425878 L13.6222565,8.4533589 C13.6222565,8.43196013 13.6081766,8.42436681 13.5898231,8.43563766 C13.5898231,8.43563766 13.3151908,8.6583015 12.1073771,8.77710496 C11.7649871,8.81593789 11.6025496,8.79773013 11.4791124,8.77710496 C9.76666659,8.48664718 9.68513703,7.22118905 9.68513703,7.22118905 C9.68277918,7.20025427 9.68086781,7.16584684 9.68086781,7.1446534 L9.68086781,6.65989407 C9.68086781,6.63855941 9.68282002,6.60410382 9.68576804,6.58312241 C9.68576804,6.58312241 9.80154784,5.22742887 11.4791849,5.08443654 L12.1074563,5.08443654 C12.8484927,5.18537057 13.4436553,5.5549118 13.4436553,5.5549118 Z" id="Path-3"></path>
                            <path d="M0.0102480791,10.2730789 C0.0102475618,10.2943969 0.0272358572,10.3116785 0.0483421629,10.3116785 L2.52677779,10.3116785 C2.54781709,10.3116785 2.56487281,10.2942016 2.56487281,10.2730994 L2.56487281,8.32864993 C2.56487281,8.30734327 2.5818131,8.29115676 2.60312483,8.29234471 C2.60312483,8.29234471 6.5591637,8.58100519 6.55916405,5.90256545 C6.55916378,3.78908097 4.07713929,3.55717106 3.2599848,3.59587729 C3.24354871,3.59665582 0.0489765139,3.59588637 0.0489765139,3.59588637 C0.027676874,3.59588136 0.0104096789,3.61339626 0.0104091674,3.63447689 L0.0102480791,10.2730789 Z M2.52072997,6.80724655 L2.52072997,5.05536929 L3.12723219,5.05536929 C3.12723219,5.05536929 4.00917512,5.09541223 4.07783868,5.7005772 C4.09387216,5.74786051 4.09000541,6.04408673 4.07775019,6.06041287 C3.96412838,6.77253055 3.19788917,6.80739207 3.19788917,6.80739207 L2.52072997,6.80724655 Z" id="Path-1"></path>
                        </g>
                        <path d="M19.9639794,15.1382758 C20.1707269,15.1382758 20.3290979,15.1382758 20.590508,15.0213061 C21.4938364,14.5422135 24.5344087,7.0528658 27.7414378,4.74925297 C27.7609825,4.73448568 27.7871918,4.71297994 27.8023493,4.6911038 C27.8233892,4.66073791 27.8242412,4.62974668 27.8242412,4.62974668 C27.8242412,4.62974668 27.8242409,4.47525265 27.3487458,4.47525265 C24.4936949,4.39676421 21.5247274,10.4332443 19.9639794,12.8215897 C19.9444854,12.8478982 19.8371271,12.8215897 19.8371271,12.8215897 C19.8371271,12.8215897 18.7912611,11.5772602 17.8826532,11.0996551 C17.863709,11.0896971 17.7603458,11.0579215 17.6530849,11.0659453 C17.5812393,11.0659453 17.1586067,11.151724 16.9616825,11.3612903 C16.7289418,11.6089722 16.7337575,11.7479769 16.7358033,12.0493818 C16.7359699,12.0739331 16.7515957,12.1731936 16.7804186,12.2240271 C17.0025438,12.6157776 18.0172627,14.0229384 18.8486824,14.7992467 C18.9773367,14.8915816 19.1730828,15.1382758 19.9639794,15.1382758 Z" id="Path-7" fill="#2BBC5D"></path>
                    </g>
                    <g id="DSS" transform="translate(28.033868, 0.000000)" font-size="7.2192" font-family="Arial-Black, Arial Black" fill="#225E63" font-weight="700">
                        <text id="DS">
                            <tspan x="0" y="8">DS</tspan>
                        </text>
                        <text id="S">
                            <tspan x="10.5982635" y="8">S</tspan>
                        </text>
                    </g>
                </g>
                <g id="comodo" transform="translate(143.489879, 0.000000)" fill-rule="nonzero">
                    <path d="M13.0680385,4.37382467 C13.0019722,4.88815715 12.8646067,5.2799026 12.6496188,5.57171299 C12.3502492,5.95790649 11.8951987,6.19908311 11.261355,6.19908311 L10.8915583,6.19908311 C10.2614213,6.19908311 9.80637085,5.97722727 9.6138411,5.61102078 C9.48345289,5.33608831 9.44878445,4.94745194 9.516377,4.43045455 L9.66399041,3.27964675 C9.74379323,2.66093766 9.93741318,2.20723247 10.2553162,1.89299221 C10.5627533,1.58608052 11.0045033,1.43906493 11.535868,1.43906493 L11.8801539,1.43906493 C12.2460258,1.43906493 12.7283314,1.50058052 12.9982655,1.86478831 C13.2237194,2.16659221 13.2939284,2.61163636 13.216524,3.22212857 L13.0680385,4.37382467 L13.0680385,4.37382467 L13.0680385,4.37382467 Z M11.9625732,0.174331169 L11.961483,0.174331169 L11.6250465,0.174553247 C9.22224039,0.200314285 7.96741739,1.21765325 7.70206212,3.16572078 L7.54332865,4.42912208 C7.44215786,5.29944545 7.5947862,5.95168831 8.00819096,6.42538052 C8.5194959,7.00922338 9.41367994,7.43161558 10.7727263,7.44605065 L11.1098169,7.44605065 C13.4605114,7.42162208 14.713372,6.4335974 15.009689,4.62210779 L15.0131777,4.62210779 L15.0297487,4.49219221 L15.18761,3.23056753 C15.2929236,2.32582208 15.1376788,1.65159351 14.7124998,1.16546493 C14.1998866,0.579179221 13.3089732,0.188322078 11.9625732,0.174331169 L11.9625732,0.174331169 L11.9625732,0.174331169 Z M32.4237104,4.37382467 C32.356554,4.88815715 32.2183163,5.2799026 32.0035464,5.57171299 C31.704831,5.95790649 31.2486903,6.19908311 30.6161548,6.19908311 L30.2472303,6.19908311 C29.615567,6.19908311 29.1620428,5.97722727 28.9679868,5.61102078 C28.8380347,5.33608831 28.8044564,4.94745194 28.8705227,4.43045455 L29.0192263,3.27964675 C29.098157,2.66093766 29.292213,2.20723247 29.6094619,1.89299221 C29.9175531,1.58608052 30.358649,1.43906493 30.8913219,1.43906493 L31.2347357,1.43906493 C31.6001715,1.43906493 32.0840034,1.50058052 32.3535014,1.86478831 C32.5778651,2.16659221 32.6485102,2.61163636 32.5713239,3.22212857 L32.4237104,4.37382467 L32.4237104,4.37382467 L32.4237104,4.37382467 Z M31.3184632,0.174331169 L31.3162828,0.174331169 L30.9805005,0.174553247 C28.57595,0.200314285 27.3215631,1.21765325 27.0568619,3.16572078 L26.8979104,4.42912208 C26.7967396,5.29944545 26.949586,5.95168831 27.3627727,6.42538052 C27.8742957,7.00922338 28.7682617,7.43161558 30.12709,7.44605065 L30.4654888,7.44605065 C32.8153112,7.42162208 34.0681718,6.4335974 34.3642708,4.62210779 L34.3679775,4.62210779 L34.3838944,4.49219221 L34.5417557,3.23056753 C34.6464152,2.32582208 34.4913884,1.65159351 34.0670816,1.16546493 C33.5542504,0.579179221 32.663773,0.188322078 31.3184632,0.174331169 L31.3184632,0.174331169 L31.3184632,0.174331169 Z M50.3826151,4.37382467 C50.3156766,4.88815715 50.1783111,5.2799026 49.9626691,5.57171299 C49.6637356,5.95790649 49.208249,6.19908311 48.5746234,6.19908311 L48.2061349,6.19908311 C47.5755618,6.19908311 47.1209474,5.97722727 46.9277636,5.61102078 C46.7960671,5.33608831 46.7635791,4.94745194 46.8285551,4.43045455 L46.9781309,3.27964675 C47.0574977,2.66093766 47.2511176,2.20723247 47.5679304,1.89299221 C47.8764577,1.58608052 48.3186438,1.43906493 48.8506626,1.43906493 L49.1942944,1.43906493 C49.5590761,1.43906493 50.0420358,1.50058052 50.3130601,1.86478831 C50.5367697,2.16659221 50.6080689,2.61163636 50.5306646,3.22212857 L50.3826151,4.37382467 L50.3826151,4.37382467 L50.3826151,4.37382467 Z M52.0259862,1.16546493 C51.5138091,0.579179221 50.6226776,0.188322078 49.2769318,0.174331169 L49.2758416,0.174331169 L48.938969,0.174553247 C46.5355087,0.200314285 45.2804677,1.21765325 45.0164207,3.16572078 L44.8579052,4.42912208 C44.7558623,5.29944545 44.9080545,5.95168831 45.3223315,6.42538052 C45.8336364,7.00922338 46.7262942,7.43161558 48.0875209,7.44605065 L48.4235213,7.44605065 C50.7737797,7.42162208 52.0275125,6.4335974 52.3233934,4.62210779 L52.3257919,4.62210779 L52.3430171,4.49219221 L52.5013145,3.23056753 C52.606628,2.32582208 52.4513832,1.65159351 52.0259862,1.16546493 L52.0259862,1.16546493 L52.0259862,1.16546493 Z M37.3782444,2.31871558 C37.4473632,2.31871558 37.5101589,2.32515584 37.5685937,2.33625974 C37.7973182,2.37845455 37.9440595,2.4926026 38.0325839,2.59209351 C38.200039,2.78174806 38.2787516,3.05557013 38.2464816,3.34316104 L37.9942088,5.45712078 L37.9937727,5.45934156 L37.9270523,6.00254416 L37.9226915,6.03918701 L37.9344657,6.03918701 L37.9325033,6.04096364 L39.0802684,6.04118572 C39.1520038,6.04118572 39.2512122,6.03563376 39.368954,6.02253117 C39.8844017,5.96678961 40.731053,5.75181818 40.9746042,5.07048311 C40.9817995,5.05160649 40.9870325,5.03317402 40.9942278,5.01385325 C41.0478658,4.83041689 41.092346,4.63743117 41.1165485,4.43178701 L41.2144487,3.69337792 L41.2142307,3.69204545 L41.2144487,3.69204545 L41.2615455,3.34671428 C41.2975221,3.06734026 41.3049355,2.80284545 41.2770263,2.56322338 C41.1974416,1.88188831 40.4024659,1.66647273 39.9003187,1.60962078 C39.7869377,1.59651818 39.6881653,1.5922987 39.6159939,1.5922987 L38.4706272,1.59252078 L38.4706272,1.59363117 L37.5716463,1.59363117 L37.569684,1.58941169 C37.2982235,1.57009091 37.1200845,1.5238987 37.0180415,1.44772598 C36.7744903,1.26695455 36.6495531,0.972257146 36.6388691,0.545645455 L36.6325459,0.332006493 L36.8542931,0.332006493 L39.3587061,0.332450649 C39.3713525,0.332450649 39.3822545,0.332894806 39.3946828,0.332894806 L39.6892555,0.333338961 C41.2087797,0.346663636 42.2165628,0.659571428 42.7690774,1.29005065 C43.1846625,1.76596364 43.3390352,2.40665844 43.2402629,3.24922208 L43.1835723,3.69471039 L43.1039876,4.38492857 C43.0922134,4.47664675 43.0771686,4.64142857 43.0612516,4.72848311 C42.9895163,5.17485974 42.8630528,5.56060909 42.6836055,5.87662598 C42.4819181,6.23150649 42.2154726,6.51287922 41.872931,6.73717792 C41.7634747,6.80802078 41.6422441,6.87064675 41.5153446,6.9294974 C41.2497713,7.05430519 40.9473491,7.15357402 40.6098224,7.22197402 C40.5075615,7.24173896 40.3409785,7.26039351 40.1366746,7.27638311 C39.8992285,7.29525974 39.6114151,7.30458701 39.3172784,7.30947273 L37.246548,7.30991689 L36.9685463,7.30991689 C36.4561512,7.29592598 36.1541651,7.20576234 35.9897626,7.0169961 C35.9592369,6.98168572 35.9339442,6.9426 35.9138845,6.90107143 C35.8591563,6.79092078 35.8388786,6.65722987 35.8569759,6.49489091 L36.1092488,4.54282598 L36.3772205,2.31871558 L37.3782444,2.31871558 L37.3782444,2.31871558 Z M6.32557253,6.03918701 L3.58654795,6.03918701 L3.58611187,6.04207402 C3.2141348,6.03918701 2.91890798,6.00787402 2.68931135,5.94213896 C2.45862452,5.87729221 2.28441017,5.77402598 2.17081108,5.63478311 C2.08403096,5.53040649 2.02537807,5.40271169 1.99332612,5.25236493 C1.99070964,5.2385961 1.98809315,5.22349481 1.98656687,5.20905974 C1.97479268,5.14332467 1.96498086,5.07581299 1.96083809,5.00141689 C1.94993606,4.8241987 1.95560512,4.62410649 1.98547666,4.39536624 L2.12284217,3.32917013 C2.13875913,3.20391818 2.16252554,3.08843766 2.18890844,2.97695455 C2.19653985,2.94652987 2.2070058,2.90966493 2.21921606,2.8616961 C2.22074235,2.85436753 2.22292275,2.84637273 2.2253212,2.83904416 C2.25017781,2.74999091 2.27765091,2.6636026 2.31057503,2.58365455 C2.31842449,2.56366753 2.3260559,2.54412467 2.33477752,2.5248039 C2.36486711,2.45707013 2.40084379,2.39688701 2.43594831,2.33625974 C2.46996262,2.28251689 2.50702951,2.23099481 2.54780308,2.18324806 C2.70021338,2.00025584 2.91694562,1.85701558 3.19342096,1.75574806 C3.46684372,1.65647922 3.81788891,1.60717792 4.26530798,1.60673376 L5.78068936,1.60673376 L5.78417801,1.60162598 C6.06130747,1.58252727 6.25165681,1.53633507 6.37354144,1.45905194 C6.51897445,1.368 6.64020496,1.24674545 6.74028554,1.0944 C6.75642053,1.07085974 6.76775864,1.04176753 6.78214931,1.01711689 C6.85889956,0.882759739 6.92452975,0.731524675 6.97293474,0.552974026 L7.03507628,0.334227273 L4.16348308,0.334227273 L3.97575022,0.334671428 C3.63669726,0.338224675 3.32359113,0.364874026 3.03098079,0.40928961 C1.3269944,0.668232467 0.410134154,1.61561689 0.192529749,3.2187974 L0.0392472874,4.43756104 C-0.0584348502,5.27701558 0.0887424777,5.90594026 0.487538526,6.36231039 C0.949784356,6.89063376 1.74148936,7.25972727 2.91781778,7.31813376 L4.98811219,7.31391428 C5.26676794,7.29503766 5.54062679,7.28104675 5.6618573,7.20376364 C5.84348502,7.09028182 5.98542938,6.92683247 6.09575786,6.71807922 C6.12279488,6.66744545 6.14852366,6.61658961 6.17229007,6.55995974 C6.17229007,6.55995974 6.27738559,6.31034416 6.32557253,6.03918701 L6.32557253,6.03918701 Z M18.6282889,6.19908311 L18.618041,6.28569351 C18.5807561,6.57461689 18.4368494,6.84732857 18.2220795,7.03698311 C18.0818794,7.16179091 17.842253,7.31080519 17.5018918,7.31080519 L16.480154,7.31080519 L16.5745656,6.51554416 L16.6127227,6.19908311 L17.3161213,0.329119481 L18.1525246,0.329119481 C18.6858516,0.329119481 19.0462725,0.470583117 19.2231034,0.749290909 L21.0781918,3.76777402 L23.7166997,0.719532467 C23.9458603,0.459923376 24.3243786,0.329119481 24.8413526,0.329119481 L25.7132965,0.329119481 L24.9974695,6.19908311 L24.9874397,6.28458311 C24.9497187,6.57328442 24.806248,6.84577402 24.5914782,7.03631689 C24.4512781,7.16045844 24.2116516,7.30880649 23.8715085,7.30880649 L22.8866196,7.30814026 L23.3820076,3.23611948 L21.3066982,5.90283117 C21.2454289,5.97522857 21.0528991,6.19286493 20.8200319,6.19508572 L20.8036788,6.19508572 C20.5843301,6.19286493 20.4186193,5.97078701 20.357786,5.87107402 L18.9889279,3.22390519 L18.628725,6.19908311 L18.6282889,6.19908311 Z" id="Shape" fill="#D12138"></path>
                    <path d="M3.06543119,13.4334935 C3.05670957,13.7537299 2.92196055,14.0126727 2.66183825,14.2096558 C2.40149791,14.406861 2.06615164,14.5061299 1.65318296,14.5061299 C1.13729917,14.5061299 0.733706235,14.3337974 0.440223741,13.9900208 C0.146087126,13.6451338 0,13.1714416 0,12.5658351 C0,11.9511234 0.146087126,11.4669935 0.440223741,11.1174428 C0.733706235,10.7663376 1.13729917,10.5917844 1.65318296,10.5917844 C2.08468509,10.5917844 2.42766277,10.6875 2.68320622,10.8820402 C2.93809555,11.0765806 3.06543119,11.3370779 3.06543119,11.6639766 L2.54693091,11.6639766 C2.54693091,11.4738779 2.46952654,11.3197558 2.31428172,11.2020545 C2.15990905,11.0847974 1.95778552,11.0261689 1.70594876,11.0261689 C1.32764852,11.0261689 1.03569231,11.1554182 0.828771887,11.4139169 C0.622287547,11.6713052 0.518500275,12.0361792 0.518500275,12.5060961 C0.518500275,13.0062156 0.620325182,13.3930753 0.823538915,13.6673416 C1.02784285,13.942274 1.31303981,14.079074 1.68152823,14.079074 C1.92660573,14.079074 2.12545866,14.0222221 2.27961328,13.908074 C2.43333182,13.7934818 2.52163822,13.6353624 2.54693091,13.4334935 L3.06543119,13.4334935 L3.06543119,13.4334935 Z M3.66983942,11.8081052 L4.14494964,11.8081052 L4.14494964,12.0750428 C4.32962993,11.8458584 4.57012858,11.7312662 4.86513736,11.733487 L4.99312713,11.7385948 L4.99312713,12.1896351 L4.89631715,12.1843052 C4.63292424,12.1843052 4.44104862,12.2567026 4.32243459,12.4019416 C4.20316645,12.5469584 4.14494964,12.7792519 4.14494964,13.0977117 L4.14494964,14.4308455 L3.66983942,14.4308455 L3.66983942,11.8081052 L3.66983942,11.8081052 Z M7.36562565,12.8381026 C7.35014478,12.5980364 7.30130371,12.4219285 7.21910245,12.3093351 C7.11662342,12.1674273 6.9404467,12.0959182 6.69035427,12.0959182 C6.47362202,12.0959182 6.30485869,12.1785311 6.18471838,12.3446455 C6.0937955,12.4692311 6.03754105,12.6337909 6.01704525,12.8381026 L7.36562565,12.8381026 L7.36562565,12.8381026 L7.36562565,12.8381026 Z M6.72960155,14.5061299 C6.34977503,14.5061299 6.05302193,14.386874 5.83847009,14.1488065 C5.62413629,13.9096285 5.51642429,13.5811753 5.51642429,13.1607818 C5.51642429,12.7161818 5.62413629,12.3672974 5.83999637,12.1139065 C6.05563841,11.8594052 6.3528276,11.733487 6.72960155,11.733487 C7.09481937,11.733487 7.37347511,11.8431935 7.56491466,12.0634948 C7.7574444,12.2820194 7.85338222,12.6027 7.85338222,13.0219831 L7.84880337,13.1980909 L6.01115815,13.1980909 C6.02424058,13.4970078 6.07940483,13.7241935 6.17948541,13.8785376 C6.29286646,14.0553117 6.47253182,14.1436987 6.71608304,14.1436987 C6.88942523,14.1436987 7.03136959,14.0941753 7.14169807,13.996461 C7.25268068,13.8985247 7.31918303,13.7630572 7.34033296,13.5911689 L7.82961581,13.5911689 C7.79342109,13.8876428 7.68156632,14.1152727 7.49361542,14.2718376 C7.30479236,14.4272922 7.05033911,14.5061299 6.72960155,14.5061299 L6.72960155,14.5061299 L6.72960155,14.5061299 Z M10.0793575,13.1554519 L9.64371265,13.1554519 C9.37552285,13.1554519 9.17427148,13.1996455 9.04017658,13.2889208 C8.90651777,13.3781961 8.8393613,13.511887 8.8393613,13.6895493 C8.8393613,13.8339 8.8873302,13.944939 8.98130565,14.0246649 C9.0752811,14.1037247 9.20872188,14.1436987 9.38228211,14.1436987 C9.6138411,14.1436987 9.78827349,14.0768533 9.90339887,13.9427182 C10.0193964,13.8099156 10.0771771,13.6133766 10.0789215,13.3531013 L10.0793575,13.1554519 L10.0793575,13.1554519 L10.0793575,13.1554519 Z M9.30269733,14.5061299 C9.00856071,14.5061299 8.77700172,14.4335104 8.61020074,14.2884935 C8.44318173,14.1436987 8.36010831,13.9427182 8.36010831,13.6873285 C8.36010831,13.4088428 8.47414348,13.1923169 8.70308599,13.0341974 C8.93181046,12.8769662 9.24753309,12.7985727 9.64894562,12.7985727 L10.0789215,12.7985727 L10.0782673,12.576939 C10.0782673,12.4101584 10.0313886,12.2873493 9.93632298,12.2116208 C9.84256557,12.1338935 9.69080939,12.0959182 9.48061836,12.0959182 C9.33736577,12.0959182 9.22224039,12.1307844 9.13546028,12.2016273 C9.04824408,12.272026 8.99940301,12.3692961 8.98850099,12.4938818 L8.49115064,12.4938818 C8.51012016,12.2304974 8.60300541,12.0381779 8.76871618,11.9162572 C8.93377283,11.7943364 9.18560959,11.733487 9.52008369,11.733487 C9.83013726,11.733487 10.0789215,11.8107701 10.2686167,11.9655584 C10.4580939,12.1201247 10.5529415,12.3246584 10.5529415,12.576939 L10.5529415,13.4896792 C10.5529415,13.7377402 10.5586105,13.9464935 10.572129,14.1141624 C10.5834671,14.2807208 10.6009104,14.386874 10.6231505,14.4308455 L10.1726789,14.4308455 C10.1541454,14.4084156 10.1391006,14.3495649 10.1288527,14.2549598 C10.1201311,14.1927779 10.1133719,14.1181598 10.1096652,14.0317715 C10.0789215,14.0879572 10.0435989,14.1425883 10.0023892,14.1934442 C9.83318983,14.4021974 9.59988651,14.5061299 9.30269733,14.5061299 L9.30269733,14.5061299 L9.30269733,14.5061299 Z M12.6262885,14.4692649 C12.4911034,14.4936935 12.3356405,14.5061299 12.1598999,14.5061299 C11.9811067,14.5061299 11.8300046,14.4568285 11.7065937,14.3571156 C11.5823106,14.2565143 11.5203871,14.1352598 11.5203871,13.9911311 L11.5203871,12.1574338 L10.986406,12.1574338 L10.986406,11.8081052 L11.5203871,11.8081052 L11.5203871,11.3355234 L11.9941891,11.1358753 L11.9941891,11.8081052 L12.6262885,11.8081052 L12.6262885,12.1574338 L11.9941891,12.1574338 L11.9941891,13.8785376 C11.9941891,13.9722545 12.0177375,14.0384338 12.0633079,14.0804065 C12.1075701,14.1226013 12.1803957,14.1436987 12.2804762,14.1436987 C12.4058495,14.1414779 12.521629,14.1299299 12.6262885,14.1088325 L12.6262885,14.4692649 L12.6262885,14.4692649 Z M13.237674,11.8081052 L13.7123481,11.8081052 L13.7123481,14.4310675 L13.237674,14.4310675 L13.237674,11.8081052 L13.237674,11.8081052 Z M13.2147797,10.6659584 L13.7356784,10.6659584 L13.7356784,11.1594156 L13.2147797,11.1594156 L13.2147797,10.6659584 L13.2147797,10.6659584 Z M14.6239754,11.8081052 L15.0648532,11.8081052 L15.0648532,12.1705364 C15.0894918,12.1338935 15.1158747,12.0992493 15.1457463,12.0666039 C15.3413286,11.8451922 15.6060297,11.733487 15.9367971,11.733487 C16.2758501,11.733487 16.5244163,11.8254273 16.6840219,12.0088636 C16.8429734,12.1916338 16.9223401,12.4776701 16.9223401,12.867639 L16.9223401,14.4308455 L16.4485382,14.4308455 L16.4485382,12.8754117 C16.4485382,12.6069194 16.3981708,12.4123792 16.2985263,12.2915689 C16.199972,12.1700922 16.0399303,12.109687 15.8216718,12.109687 C15.5689629,12.109687 15.3847186,12.1758662 15.2700293,12.3082247 C15.1555581,12.4408052 15.0988676,12.6542221 15.0988676,12.9473649 L15.0988676,14.4308455 L14.6239754,14.4308455 L14.6239754,11.8081052 L14.6239754,11.8081052 Z M18.8020672,12.0908104 C18.5777035,12.0908104 18.4052335,12.1747558 18.2826947,12.3442013 C18.1590658,12.5112039 18.0977964,12.7486052 18.0977964,13.0539624 C18.0977964,13.3853026 18.1555771,13.631587 18.2711386,13.7934818 C18.3877903,13.9560428 18.564403,14.036213 18.8020672,14.036213 C19.0255587,14.036213 19.1989009,13.9504909 19.3220937,13.7814896 C19.4457227,13.6116 19.5069921,13.3719779 19.5069921,13.0619572 C19.5069921,12.7530467 19.4457227,12.5134247 19.3220937,12.3446455 C19.1989009,12.1758662 19.0255587,12.0908104 18.8020672,12.0908104 L18.8020672,12.0908104 L18.8020672,12.0908104 Z M18.7970522,15.1226182 C19.0545581,15.1226182 19.2379301,15.0586598 19.3460782,14.9309649 C19.4527,14.8023818 19.5069921,14.5838572 19.5069921,14.2765013 L19.5069921,13.9269507 L19.4280614,14.0388779 C19.2361858,14.2758351 18.9836949,14.3946467 18.6710248,14.3946467 C18.3363327,14.3946467 18.0725037,14.2749467 17.8817183,14.036213 C17.6896246,13.7977013 17.594559,13.4688039 17.594559,13.0484104 C17.594559,12.6646598 17.7005266,12.3493091 17.912462,12.1023584 C18.1246154,11.8569624 18.3965119,11.733487 18.7288056,11.733487 C19.0430019,11.733487 19.2898237,11.8516325 19.4677448,12.0885896 L19.5069921,12.1385572 L19.5069921,11.8081052 L19.9816662,11.8081052 L19.9816662,14.2765013 C19.9816662,14.6964507 19.8857284,15.0033624 19.6942888,15.1956818 C19.5032854,15.3895558 19.2004271,15.4857156 18.7861502,15.4857156 C18.4244211,15.4857156 18.1597199,15.4175376 17.9909566,15.2802935 C17.8221932,15.1432715 17.7382476,14.9283 17.7382476,14.6340467 L18.2340717,14.6340467 C18.2340717,14.8030481 18.27877,14.9271896 18.3692568,15.005361 C18.4610519,15.0837545 18.6027782,15.1226182 18.7970522,15.1226182 L18.7970522,15.1226182 L18.7970522,15.1226182 Z" id="Shape" fill="#545554"></path>
                    <polyline id="Shape" fill="#545554" points="23.5339433 11.0929091 22.2938381 11.0929091 22.2938381 10.6658182 25.2790688 10.6658182 25.2790688 11.0929091 24.0397652 11.0929091 24.0397652 14.4310909 23.5339433 14.4310909 23.5339433 11.0929091"></polyline>
                    <path d="M25.8643985,11.8081052 L26.3386366,11.8081052 L26.3386366,12.0750428 C26.524189,11.8458584 26.7638155,11.7312662 27.0594784,11.733487 L27.1879043,11.7385948 L27.1879043,12.1896351 L27.0915304,12.1843052 C26.8266112,12.1843052 26.6351716,12.2567026 26.5176478,12.4019416 C26.3983797,12.5469584 26.3386366,12.7792519 26.3386366,13.0977117 L26.3386366,14.4308455 L25.8643985,14.4308455 L25.8643985,11.8081052 L25.8643985,11.8081052 Z M28.2818134,13.3781961 C28.2818134,13.6462442 28.3317446,13.8407844 28.4316072,13.962261 C28.5312517,14.0826273 28.6899852,14.1436987 28.9082437,14.1436987 C29.173599,14.1436987 29.3639483,14.0764091 29.4777654,13.9407194 C29.5913645,13.8056961 29.6430401,13.5896143 29.6286495,13.2926961 L29.6286495,11.8081052 L30.1028875,11.8081052 L30.1028875,14.4308455 L29.6630999,14.4308455 L29.6630999,14.0897338 L29.6105521,14.1588 C29.4114811,14.3906493 29.1476521,14.5061299 28.8190651,14.5061299 C28.4706364,14.5061299 28.2157471,14.4126351 28.0526528,14.2249792 C27.8891225,14.0373234 27.8071392,13.7437364 27.8071392,13.3435519 L27.8071392,11.8081052 L28.2818134,11.8081052 L28.2818134,13.3781961 L28.2818134,13.3781961 Z M32.3988538,12.5149792 C32.3988538,12.386174 32.3530653,12.2820194 32.2610522,12.2089558 C32.1699113,12.1338935 32.0423576,12.0959182 31.8799175,12.0959182 C31.7135526,12.0959182 31.5831644,12.1281194 31.489843,12.1896351 C31.39783,12.252261 31.3513873,12.3399818 31.3513873,12.4512428 C31.3513873,12.5334117 31.3760259,12.6004792 31.4272654,12.6542221 C31.4763245,12.7072987 31.5532928,12.7486052 31.6572981,12.7770311 L32.1823396,12.9211598 C32.4494392,12.9957779 32.641969,13.0912715 32.7579665,13.2065299 C32.873746,13.3200117 32.9308726,13.4712467 32.9308726,13.660013 C32.9308726,13.9238416 32.836025,14.130374 32.6469839,14.2807208 C32.4577248,14.4308455 32.1960762,14.5061299 31.8629103,14.5061299 C31.5133914,14.5061299 31.247382,14.4330662 31.0646641,14.2858285 C30.8823823,14.1392572 30.7905872,13.9253961 30.7905872,13.6444675 L31.2813963,13.6444675 C31.2813963,13.8014766 31.3328539,13.9227311 31.435551,14.0111182 C31.538248,14.0992831 31.6806285,14.1436987 31.8629103,14.1436987 C32.0517334,14.1436987 32.2002189,14.104613 32.3048784,14.0284402 C32.4097559,13.9516013 32.4618675,13.8434493 32.4618675,13.7030961 C32.4618675,13.6211493 32.4291615,13.551861 32.3639674,13.4938987 C32.2994274,13.4383792 32.2002189,13.3899662 32.0652519,13.3531013 L31.5413006,13.2091948 C31.3049447,13.144126 31.1326927,13.0550727 31.0291235,12.9442558 C30.9257723,12.8343273 30.8747508,12.6857572 30.8747508,12.4954364 C30.8747508,12.2584792 30.9628392,12.0712675 31.1414143,11.9362442 C31.3195534,11.8016649 31.5657211,11.733487 31.8799175,11.733487 C32.1938958,11.733487 32.4407176,11.8032194 32.6212551,11.9409078 C32.7998303,12.0803727 32.8892269,12.2715818 32.8892269,12.5149792 L32.3988538,12.5149792 L32.3988538,12.5149792 Z M35.1016837,14.4692649 C34.9664986,14.4936935 34.8110357,14.5061299 34.6352951,14.5061299 C34.457156,14.5061299 34.3053998,14.4568285 34.1817709,14.3571156 C34.0566156,14.2565143 33.9957823,14.1352598 33.9957823,13.9911311 L33.9957823,12.1574338 L33.4613651,12.1574338 L33.4613651,11.8081052 L33.9957823,11.8081052 L33.9957823,11.3355234 L34.4695843,11.1358753 L34.4695843,11.8081052 L35.1016837,11.8081052 L35.1016837,12.1574338 L34.4695843,12.1574338 L34.4695843,13.8785376 C34.4695843,13.9722545 34.4922605,14.0384338 34.538049,14.0804065 C34.5825293,14.1226013 34.6557909,14.1436987 34.7552174,14.1436987 C34.8814628,14.1414779 34.9963701,14.1299299 35.1016837,14.1088325 L35.1016837,14.4692649 L35.1016837,14.4692649 Z M39.8569286,13.6746701 C40.0577439,13.4050675 40.1584786,13.0242039 40.1584786,12.5311909 C40.1584786,12.0508364 40.0577439,11.6786338 39.8569286,11.414361 C39.6548051,11.1500883 39.3724427,11.0175078 39.0052625,11.0175078 C38.6391725,11.0175078 38.3570281,11.1500883 38.1562129,11.414361 C37.9549615,11.6786338 37.8548809,12.0508364 37.8548809,12.5311909 C37.8548809,13.0242039 37.9549615,13.4050675 38.1562129,13.6746701 C38.3570281,13.944939 38.6391725,14.079074 39.0052625,14.079074 C39.3724427,14.079074 39.6548051,13.944939 39.8569286,13.6746701 L39.8569286,13.6746701 L39.8569286,13.6746701 Z M37.790995,13.9795831 C37.4959863,13.6273675 37.349245,13.144126 37.349245,12.525861 C37.349245,11.9226974 37.4959863,11.4496715 37.790995,11.1058948 C38.0851317,10.7627844 38.4900328,10.5917844 39.0052625,10.5917844 C39.5241989,10.5917844 39.9304083,10.7627844 40.2234547,11.1058948 C40.5169372,11.4496715 40.6630243,11.9226974 40.6630243,12.525861 C40.6630243,13.144126 40.5169372,13.6273675 40.2234547,13.9795831 C39.9304083,14.3304662 39.5241989,14.5061299 39.0052625,14.5061299 C38.4900328,14.5061299 38.0851317,14.3304662 37.790995,13.9795831 L37.790995,13.9795831 L37.790995,13.9795831 Z M41.3140932,11.8081052 L41.7536628,11.8081052 L41.7536628,12.1705364 C41.7778653,12.1338935 41.8046843,12.0992493 41.8347739,12.0666039 C42.0310103,11.8451922 42.2946213,11.733487 42.6262609,11.733487 C42.9648777,11.733487 43.2134439,11.8254273 43.3730495,12.0088636 C43.5322191,12.1916338 43.6113678,12.4776701 43.6113678,12.867639 L43.6113678,14.4308455 L43.1371297,14.4308455 L43.1371297,12.8754117 C43.1371297,12.6069194 43.0869804,12.4123792 42.98799,12.2915689 C42.8879094,12.1700922 42.729612,12.109687 42.5113535,12.109687 C42.2584266,12.109687 42.0730921,12.1758662 41.9594931,12.3082247 C41.8450218,12.4408052 41.7883313,12.6542221 41.7883313,12.9473649 L41.7883313,14.4308455 L41.3140932,14.4308455 L41.3140932,11.8081052 L41.3140932,11.8081052 Z" id="Shape" fill="#545554"></path>
                    <polygon id="Shape" fill="#545554" points="44.4129231 10.6658182 44.8858785 10.6658182 44.8858785 14.4310909 44.4129231 14.4310909"></polygon>
                    <path d="M45.8264411,11.8081052 L46.3013332,11.8081052 L46.3013332,14.4310675 L45.8264411,14.4310675 L45.8264411,11.8081052 L45.8264411,11.8081052 Z M45.8031107,10.6659584 L46.3248816,10.6659584 L46.3248816,11.1594156 L45.8031107,11.1594156 L45.8031107,10.6659584 L45.8031107,10.6659584 Z M47.2129605,11.8081052 L47.6542745,11.8081052 L47.6542745,12.1705364 C47.6778228,12.1338935 47.705732,12.0992493 47.7351675,12.0666039 C47.9300957,11.8451922 48.1943607,11.733487 48.5262184,11.733487 C48.8650533,11.733487 49.1138375,11.8254273 49.2732251,12.0088636 C49.4317405,12.1916338 49.5111072,12.4776701 49.5111072,12.867639 L49.5111072,14.4308455 L49.0373053,14.4308455 L49.0373053,12.8754117 C49.0373053,12.6069194 48.9869379,12.4123792 48.8879475,12.2915689 C48.788303,12.1700922 48.6293515,12.109687 48.4108749,12.109687 C48.1577299,12.109687 47.9739218,12.1758662 47.8594506,12.3082247 C47.7449793,12.4408052 47.6876347,12.6542221 47.6876347,12.9473649 L47.6876347,14.4308455 L47.2129605,14.4308455 L47.2129605,11.8081052 L47.2129605,11.8081052 Z M52.035798,12.8381026 C52.0198811,12.5980364 51.971258,12.4219285 51.8888387,12.3093351 C51.7861417,12.1674273 51.6090928,12.0959182 51.3594364,12.0959182 C51.1427042,12.0959182 50.9739409,12.1785311 50.8546727,12.3446455 C50.7628777,12.4692311 50.7072773,12.6337909 50.6865635,12.8381026 L52.035798,12.8381026 L52.035798,12.8381026 L52.035798,12.8381026 Z M51.3991198,14.5061299 C51.0203835,14.5061299 50.7227582,14.386874 50.5084244,14.1488065 C50.2938726,13.9096285 50.1865967,13.5811753 50.1865967,13.1607818 C50.1865967,12.7161818 50.2938726,12.3672974 50.5095146,12.1139065 C50.7253747,11.8594052 51.0214737,11.733487 51.3991198,11.733487 C51.7632474,11.733487 52.0427753,11.8431935 52.2344329,12.0634948 C52.4269627,12.2820194 52.5231185,12.6027 52.5231185,13.0219831 L52.5176675,13.1980909 L50.6813305,13.1980909 C50.6926686,13.4970078 50.7495772,13.7241935 50.8490037,13.8785376 C50.9621667,14.0553117 51.141614,14.1436987 51.3858193,14.1436987 C51.5591615,14.1436987 51.6997976,14.0941753 51.8114344,13.996461 C51.922417,13.8985247 51.9884832,13.7630572 52.0100692,13.5911689 L52.4991341,13.5911689 C52.4629393,13.8876428 52.3513026,14.1152727 52.1626976,14.2718376 C51.9749647,14.4272922 51.7200754,14.5061299 51.3991198,14.5061299 L51.3991198,14.5061299 L51.3991198,14.5061299 Z M53.6440646,11.7870078 L53.7227773,11.7870078 C53.8145723,11.7870078 53.8878339,11.7565831 53.8878339,11.6808545 C53.8878339,11.6146753 53.839865,11.5704818 53.7360777,11.5704818 C53.6915975,11.5704818 53.6610718,11.5747013 53.6440646,11.5789208 L53.6440646,11.7870078 L53.6440646,11.7870078 L53.6440646,11.7870078 Z M53.6401399,12.1958533 L53.4739931,12.1958533 L53.4739931,11.4727675 C53.5400593,11.4589987 53.6314183,11.4458961 53.748506,11.4458961 C53.883037,11.4458961 53.9445244,11.4681039 53.9962,11.5036364 C54.0358834,11.5347273 54.0664091,11.5924675 54.0664091,11.6588689 C54.0664091,11.7428143 54.0060119,11.8054402 53.9181415,11.8320896 L53.9181415,11.8405285 C53.9883506,11.8627364 54.0275979,11.9204766 54.0494019,12.0181909 C54.0698977,12.1285636 54.0834162,12.1736455 54.1012955,12.1958533 L53.9233745,12.1958533 C53.9017885,12.1685376 53.8878339,12.1065779 53.8660299,12.0224104 C53.8525114,11.9424624 53.8093393,11.9067078 53.7179804,11.9067078 L53.6401399,11.9067078 L53.6401399,12.1958533 L53.6401399,12.1958533 L53.6401399,12.1958533 Z M53.748506,11.2373649 C53.4351819,11.2373649 53.2003523,11.4989727 53.2003523,11.8185428 C53.2003523,12.1423325 53.4351819,12.3997208 53.7567916,12.3997208 C54.0698977,12.4039402 54.3021108,12.1423325 54.3021108,11.8185428 C54.3021108,11.4989727 54.0698977,11.2373649 53.7524308,11.2373649 L53.748506,11.2373649 L53.748506,11.2373649 L53.748506,11.2373649 Z M53.7567916,11.0910156 C54.1664897,11.0910156 54.4837386,11.4148052 54.4837386,11.8185428 C54.4837386,12.2311636 54.1664897,12.5500675 53.7524308,12.5500675 C53.344259,12.5500675 53.0171983,12.2311636 53.0171983,11.8185428 C53.0171983,11.4148052 53.344259,11.0910156 53.7524308,11.0910156 L53.7567916,11.0910156 L53.7567916,11.0910156 L53.7567916,11.0910156 Z" id="Shape" fill="#545554"></path>
                </g>
            </g>
        </g>
    </g>
</svg>
