<?xml version="1.0" encoding="UTF-8"?>
<svg width="33px" height="12px" viewBox="0 0 33 12" version="1.1" xmlns="http://www.w3.org/2000/svg"
     xmlns:xlink="http://www.w3.org/1999/xlink">
  <g fill="#9AA4B8">
      <path
        d="M0.0186854305,10.8833394 L0.356771523,10.8489908 C0.377096026,10.9638165 0.418400662,11.0480367 0.480576159,11.1019817 C0.542860927,11.1558165 0.626781457,11.1826789 0.73244702,11.1826789 C0.84434106,11.1826789 0.928589404,11.158789 0.985410596,11.1110092 C1.04212252,11.0631193 1.07042384,11.0071927 1.07042384,10.9431193 C1.07042384,10.902055 1.05851325,10.867156 1.03480132,10.8382018 C1.01098013,10.8093578 0.969456954,10.784367 0.910122517,10.7628991 C0.86947351,10.7489174 0.777029801,10.7238165 0.632682119,10.6877064 C0.446811258,10.6414679 0.316559603,10.5844404 0.241599338,10.5167339 C0.136261589,10.4216147 0.0835927152,10.305578 0.0835927152,10.1686239 C0.0835927152,10.0806606 0.108397351,9.99820183 0.158115894,9.92157798 C0.207725166,9.84484404 0.279407285,9.78638532 0.372834437,9.74631193 C0.466370861,9.70623853 0.579248344,9.68609174 0.711466887,9.68609174 C0.927387417,9.68609174 1.08987417,9.73398165 1.19903642,9.82954128 C1.30819868,9.92521101 1.36545695,10.0528073 1.37092053,10.2124404 L1.02267219,10.2262018 C1.00781126,10.1370275 0.975903974,10.0729541 0.926950331,10.0337615 C0.87810596,9.9946789 0.804784768,9.97508257 0.706986755,9.97508257 C0.606019868,9.97508257 0.527125828,9.996 0.469976821,10.0378349 C0.433152318,10.0645872 0.414794702,10.1004771 0.414794702,10.1453945 C0.414794702,10.1864587 0.432059603,10.2214679 0.466480132,10.2507523 C0.510188742,10.2877431 0.616509934,10.3263853 0.785443709,10.3663486 C0.954268212,10.406422 1.07916556,10.4479266 1.16013576,10.4910826 C1.24099669,10.5341284 1.30437417,10.5930275 1.35015894,10.6676697 C1.39583444,10.7425321 1.41878146,10.834789 1.41878146,10.9446606 C1.41878146,11.0444037 1.3913543,11.1376514 1.3365,11.2246239 C1.2816457,11.3115963 1.20417219,11.3762202 1.1039702,11.4184954 C1.00376821,11.4607706 0.878870861,11.4820183 0.729278146,11.4820183 C0.511609272,11.4820183 0.344423841,11.4310459 0.227721854,11.3291009 C0.111129139,11.227156 0.0414139073,11.0786422 0.0186854305,10.8833394"
        id="Fill-1"></path>
      <path
        d="M1.7797053,11.4509725 L2.11339337,11.4509725 L2.11339337,10.1952661 L1.7797053,10.1952661 L1.7797053,11.4509725 Z M1.7797053,10.0233028 L2.11339337,10.0233028 L2.11339337,9.71702752 L1.7797053,9.71702752 L1.7797053,10.0233028 Z"
        id="Fill-2"></path>
      <path
        d="M3.65677152,11.4509725 L3.32556954,11.4509725 L3.32556954,10.8086972 C3.32556954,10.672844 3.31846689,10.5849908 3.30448013,10.5451376 C3.29038411,10.5052844 3.26765563,10.4741284 3.23607616,10.452 C3.20449669,10.4299817 3.1664702,10.4188624 3.12210596,10.4188624 C3.0651755,10.4188624 3.0141457,10.4347156 2.96890728,10.4663119 C2.92366887,10.4979083 2.89274503,10.5397431 2.87602649,10.5919266 C2.85919868,10.644 2.85089404,10.7403303 2.85089404,10.8810275 L2.85089404,11.4509725 L2.51969205,11.4509725 L2.51969205,10.1952661 L2.82696358,10.1952661 L2.82696358,10.3797798 C2.93568874,10.2361101 3.07271523,10.1643303 3.23771523,10.1643303 C3.31049007,10.1643303 3.37703642,10.1776514 3.43724503,10.2040734 C3.49745364,10.2304954 3.54301987,10.2642936 3.57394371,10.3053578 C3.60486755,10.346422 3.62639404,10.3929908 3.63852318,10.4451743 C3.65065232,10.4972477 3.65677152,10.5718899 3.65677152,10.6689908 L3.65677152,11.4509725"
        id="Fill-3"></path>
      <path
        d="M4.32660596,10.7960367 C4.32660596,10.9296881 4.35195695,11.0275596 4.40287748,11.0895413 C4.45368874,11.1517431 4.5164106,11.1826789 4.59104305,11.1826789 C4.67092053,11.1826789 4.73845033,11.1508624 4.79363245,11.0872294 C4.8487053,11.0235963 4.87635099,10.9292477 4.87635099,10.8042936 C4.87635099,10.673945 4.84990728,10.5770642 4.79712914,10.5137615 C4.74424172,10.4505688 4.67758609,10.4188624 4.59683444,10.4188624 C4.51837748,10.4188624 4.45368874,10.4500183 4.40287748,10.512 C4.35195695,10.5742018 4.32660596,10.6687706 4.32660596,10.7960367 Z M4.02949669,11.5335413 L4.40506291,11.5748257 C4.41140066,11.6216147 4.42593377,11.6537615 4.44866225,11.6713761 C4.48013245,11.6964771 4.52963245,11.7090275 4.59716225,11.7090275 C4.68359603,11.7090275 4.74839404,11.6960367 4.79166556,11.670055 C4.82062252,11.6526606 4.84269536,11.6246972 4.85766556,11.586055 C4.86782781,11.5583119 4.87296358,11.5075596 4.87296358,11.4333578 L4.87394702,11.250055 C4.77625828,11.3840367 4.65234437,11.4509725 4.50198675,11.4509725 C4.33425497,11.4509725 4.20159934,11.379633 4.10369205,11.2366239 C4.02687417,11.1236697 3.98851987,10.9829725 3.98851987,10.8147523 C3.98851987,10.6038165 4.03878477,10.4427523 4.13942384,10.3313394 C4.24006291,10.2200367 4.36528808,10.1643303 4.51488079,10.1643303 C4.66917219,10.1643303 4.79647351,10.2326972 4.89678477,10.369211 L4.89678477,10.1952661 L5.20416556,10.1952661 L5.20416556,11.3240367 C5.20416556,11.4725505 5.19203642,11.5835229 5.16766887,11.656844 C5.1434106,11.7303853 5.10931788,11.7879633 5.06539073,11.8297982 C5.02146358,11.871633 4.96289404,11.9044404 4.88957285,11.9281101 C4.81625166,11.9517798 4.7235894,11.9636697 4.61158609,11.9636697 C4.39992715,11.9636697 4.24978808,11.9268991 4.16116887,11.8534679 C4.07254967,11.7800367 4.0282947,11.6868991 4.0282947,11.574055 C4.0282947,11.5629358 4.02873179,11.5495046 4.02949669,11.5335413 L4.02949669,11.5335413 Z"
        id="Fill-4"></path>
      <polygon id="Fill-5"
               points="5.60082119 11.4509725 5.93450927 11.4509725 5.93450927 9.71702752 5.60082119 9.71702752"></polygon>
      <path
        d="M7.08516556,10.7182018 C7.08287086,10.6204404 7.05806623,10.5462385 7.01075166,10.4952661 C6.96354636,10.4444037 6.90606954,10.4188624 6.83832119,10.4188624 C6.76587417,10.4188624 6.70599338,10.4458349 6.65878808,10.4994495 C6.61147351,10.5530642 6.58830795,10.626055 6.58907285,10.7182018 L7.08516556,10.7182018 Z M7.06811921,11.0554128 L7.39593377,11.1104587 C7.35353642,11.2314495 7.28655298,11.3237064 7.19509272,11.3870092 C7.10363245,11.450422 6.98911589,11.4820183 6.85176159,11.4820183 C6.63420199,11.4820183 6.47324503,11.4103486 6.36889073,11.2671193 C6.28639073,11.1524037 6.24519536,11.007633 6.24519536,10.8325872 C6.24519536,10.6238532 6.29928477,10.4601468 6.40768212,10.3417982 C6.5159702,10.2234495 6.65288742,10.1643303 6.81843377,10.1643303 C7.00452318,10.1643303 7.15127483,10.226422 7.25879801,10.3504954 C7.36632119,10.474789 7.41767881,10.6649174 7.41298013,10.921211 L6.58328146,10.921211 C6.58557616,11.0200734 6.61245695,11.0969174 6.66381457,11.1519633 C6.71517219,11.206789 6.7792053,11.2343119 6.85591391,11.2343119 C6.90803642,11.2343119 6.95196358,11.2202202 6.98747682,11.1919266 C7.02299007,11.1637431 7.04998013,11.1181651 7.06811921,11.0554128 L7.06811921,11.0554128 Z"
        id="Fill-6"></path>
      <polyline id="Fill-7"
                points="8.4967351 11.4509725 8.4967351 9.71702752 9.77051325 9.71702752 9.77051325 10.0095413 8.84509272 10.0095413 8.84509272 10.3948624 9.70560596 10.3948624 9.70560596 10.6872661 8.84509272 10.6872661 8.84509272 11.1585688 9.80460596 11.1585688 9.80460596 11.4509725 8.4967351 11.4509725"></polyline>
      <path
        d="M10.9884536,11.4509725 L10.9884536,11.2629358 C10.9428874,11.3299817 10.8831159,11.3832661 10.8089205,11.422789 C10.7347252,11.4622018 10.6564868,11.4820183 10.574096,11.4820183 C10.4900662,11.4820183 10.4148874,11.4634128 10.3481225,11.4263119 C10.2814669,11.389211 10.2331689,11.3370275 10.2033377,11.2699817 C10.1735066,11.2028257 10.1586457,11.1100183 10.1586457,10.9915596 L10.1586457,10.1952661 L10.4898477,10.1952661 L10.4898477,10.7728073 C10.4898477,10.9496147 10.4958576,11.057945 10.508096,11.0976881 C10.5202252,11.1377615 10.542298,11.1692477 10.5744238,11.1925872 C10.6065497,11.2158165 10.6471987,11.2273761 10.6965894,11.2273761 C10.7529735,11.2273761 10.8035662,11.2119633 10.848149,11.1806972 C10.8928411,11.1495413 10.9233278,11.1108991 10.9398278,11.0646606 C10.9562185,11.0185321 10.9645232,10.9054679 10.9645232,10.725578 L10.9645232,10.1952661 L11.2957252,10.1952661 L11.2957252,11.4509725 L10.9884536,11.4509725"
        id="Fill-8"></path>
      <path
        d="M12.0235828,11.4509725 L11.6923808,11.4509725 L11.6923808,10.1952661 L11.9996523,10.1952661 L11.9996523,10.3738349 C12.0522119,10.2895046 12.0994172,10.233578 12.1413775,10.2058349 C12.1833377,10.1782018 12.2308709,10.1643303 12.2841954,10.1643303 C12.3593742,10.1643303 12.4319305,10.1853578 12.5016457,10.2273028 L12.4008974,10.518055 C12.3451689,10.4818349 12.2931556,10.4636697 12.2452947,10.4636697 C12.1988543,10.4636697 12.1596258,10.4765505 12.1273907,10.5020917 C12.0951556,10.5278532 12.0698046,10.5742018 12.0513377,10.6412477 C12.0328709,10.7082936 12.0235828,10.8488807 12.0235828,11.0626789 L12.0235828,11.4509725"
        id="Fill-9"></path>
      <path
        d="M12.9732616,10.8231193 C12.9732616,10.9482936 13.0026556,11.0439633 13.061553,11.1104587 C13.1204503,11.1769541 13.1930066,11.2102018 13.2794404,11.2102018 C13.3657649,11.2102018 13.4382119,11.1769541 13.4966722,11.1104587 C13.5551325,11.0439633 13.5844172,10.9474128 13.5844172,10.8208073 C13.5844172,10.6973945 13.5551325,10.6022752 13.4966722,10.5358899 C13.4382119,10.4693945 13.3657649,10.4361468 13.2794404,10.4361468 C13.1930066,10.4361468 13.1204503,10.4693945 13.061553,10.5358899 C13.0026556,10.6022752 12.9732616,10.6981651 12.9732616,10.8231193 Z M12.6351755,10.8052844 C12.6351755,10.6945321 12.6621656,10.5873028 12.716255,10.4835963 C12.7702351,10.38 12.8467252,10.300844 12.9458344,10.2462385 C13.0448344,10.191633 13.1555265,10.1643303 13.2776921,10.1643303 C13.466404,10.1643303 13.6210232,10.2262018 13.7416589,10.350055 C13.8621854,10.4739083 13.9225033,10.6304587 13.9225033,10.8195963 C13.9225033,11.0102752 13.8615298,11.1684771 13.7398013,11.2938716 C13.6180728,11.4192661 13.4647649,11.4820183 13.2799868,11.4820183 C13.1656887,11.4820183 13.0566358,11.4558165 12.9529371,11.4037431 C12.8491291,11.3514495 12.7702351,11.2749358 12.716255,11.1739817 C12.6621656,11.0730275 12.6351755,10.9502752 12.6351755,10.8052844 L12.6351755,10.8052844 Z"
        id="Fill-10"></path>
      <path
        d="M15.3493709,10.0095413 L15.3493709,10.5049541 L15.5390662,10.5049541 C15.6756556,10.5049541 15.7670066,10.4959266 15.8131192,10.4776514 C15.8591225,10.4593761 15.8952914,10.4307523 15.9214073,10.3917798 C15.9475232,10.3529174 15.9606358,10.3076697 15.9606358,10.2560367 C15.9606358,10.1925138 15.9422781,10.1401101 15.9055629,10.0988257 C15.8688477,10.0575413 15.8224073,10.0317798 15.7662417,10.0214312 C15.7248278,10.0135046 15.6417815,10.0095413 15.5167748,10.0095413 L15.3493709,10.0095413 Z M15.0011225,11.4509725 L15.0011225,9.71702752 L15.5586258,9.71702752 C15.7698477,9.71702752 15.9076391,9.72583486 15.9717815,9.74311927 C16.0703444,9.76910092 16.1528444,9.82579817 16.2193907,9.91299083 C16.2859371,10.0000734 16.3191556,10.1126972 16.3191556,10.2507523 C16.3191556,10.357211 16.3000331,10.4466055 16.2616788,10.5193761 C16.2234338,10.5918165 16.1746987,10.648844 16.1156921,10.6902385 C16.0566854,10.7317431 15.9966954,10.7590459 15.9357219,10.7724771 C15.8527848,10.7891009 15.7328046,10.7973578 15.5757815,10.7973578 L15.3493709,10.7973578 L15.3493709,11.4509725 L15.0011225,11.4509725 L15.0011225,11.4509725 Z"
        id="Fill-11"></path>
      <path
        d="M17.3596391,10.8489908 C17.317351,10.8633028 17.2505861,10.8802569 17.1592351,10.9000734 C17.0678841,10.9197798 17.0081126,10.9392661 16.9801391,10.9582018 C16.9370861,10.9891376 16.9157781,11.0283303 16.9157781,11.0757798 C16.9157781,11.1225688 16.9328245,11.1628624 16.9671358,11.1969908 C17.0015563,11.2310092 17.0452649,11.2480734 17.0984801,11.2480734 C17.1578146,11.2480734 17.2143079,11.2282569 17.2682881,11.1887339 C17.3080629,11.1585688 17.3342881,11.1217982 17.346745,11.0782018 C17.3552682,11.0496881 17.3596391,10.9954128 17.3596391,10.9153761 L17.3596391,10.8489908 Z M16.9157781,10.5771743 L16.6186689,10.5221284 C16.6523245,10.4004771 16.7102384,10.3105321 16.7924106,10.2520734 C16.8746921,10.1936147 16.9968576,10.1643303 17.1589073,10.1643303 C17.306096,10.1643303 17.4158046,10.181945 17.4878146,10.2169541 C17.5598245,10.2522936 17.6106358,10.2968807 17.6399205,10.3509358 C17.6693146,10.4049908 17.6840662,10.5044037 17.6840662,10.6489541 L17.6806788,11.037578 C17.6806788,11.1481101 17.6859238,11.2297982 17.6964139,11.2822018 C17.7070132,11.3347156 17.7267914,11.3909725 17.7557483,11.4509725 L17.4279338,11.4509725 C17.4191921,11.4292844 17.408702,11.3970275 17.3961358,11.3543119 C17.3906722,11.3348257 17.3867384,11.322055 17.384553,11.3157798 C17.3281689,11.371156 17.2679603,11.4127706 17.2038179,11.4405138 C17.1396755,11.4681468 17.0713808,11.4820183 16.998606,11.4820183 C16.8703212,11.4820183 16.7691358,11.446789 16.6952682,11.3765505 C16.6214007,11.3062018 16.5844669,11.2172477 16.5844669,11.1097982 C16.5844669,11.038789 16.6012947,10.9753761 16.6348411,10.9196697 C16.668606,10.8639633 16.7158113,10.8212477 16.776457,10.791633 C16.8372119,10.7621284 16.9247384,10.7360367 17.0390364,10.7139083 C17.1932185,10.6847339 17.3000861,10.6575413 17.3596391,10.6322202 L17.3596391,10.5986422 C17.3596391,10.5339083 17.343904,10.4877798 17.3124338,10.4601468 C17.2808543,10.4326239 17.2215199,10.4188624 17.1341026,10.4188624 C17.075096,10.4188624 17.0290927,10.4306422 16.9959834,10.4539817 C16.9628742,10.4774312 16.9361026,10.5184954 16.9157781,10.5771743 L16.9157781,10.5771743 Z"
        id="Fill-12"></path>
      <path
        d="M17.9218411,10.1952661 L18.2734768,10.1952661 L18.5723344,11.086789 L18.8643079,10.1952661 L19.2057815,10.1952661 L18.6863046,11.6245872 C18.6572384,11.6981284 18.6295927,11.7541651 18.6033675,11.7929174 C18.5771424,11.8315596 18.5468742,11.8630459 18.5127815,11.8870459 C18.4785795,11.911156 18.4368377,11.9300917 18.3870099,11.9434128 C18.3371821,11.9569541 18.2809073,11.9636697 18.2181854,11.9636697 C18.1546987,11.9636697 18.0921954,11.9569541 18.0311126,11.9435229 L18.000298,11.683156 C18.052202,11.6936147 18.0991887,11.6986789 18.1408212,11.6986789 C18.2180762,11.6986789 18.2750066,11.6756697 18.3120497,11.6298716 C18.3490927,11.5838532 18.377394,11.5253945 18.3970629,11.4544954 L17.9218411,10.1952661"
        id="Fill-13"></path>
      <path
        d="M19.4640993,10.1952661 L19.7679834,10.1952661 L19.7679834,10.366789 C19.8771457,10.2318165 20.0070695,10.1643303 20.1578642,10.1643303 C20.237851,10.1643303 20.3073477,10.180844 20.366245,10.2139817 C20.4251424,10.2472294 20.4734404,10.2974312 20.5110298,10.3644771 C20.5658841,10.2974312 20.6252185,10.2472294 20.688596,10.2139817 C20.7521921,10.180844 20.8198311,10.1643303 20.8919503,10.1643303 C20.9837384,10.1643303 21.0613212,10.1830459 21.1248079,10.2206972 C21.1882947,10.2580183 21.2358278,10.3131743 21.2671887,10.385945 C21.2898079,10.4395596 21.3011722,10.526422 21.3011722,10.6465321 L21.3011722,11.4509725 L20.9699702,11.4509725 L20.9699702,10.7317431 C20.9699702,10.6068991 20.958606,10.526422 20.9359868,10.4900917 C20.9053907,10.4425321 20.8585132,10.4188624 20.795245,10.4188624 C20.7490232,10.4188624 20.7055331,10.4330642 20.6648841,10.461578 C20.6242351,10.4900917 20.5949503,10.5317064 20.5770298,10.5866422 C20.559,10.6414679 20.5499305,10.7282202 20.5499305,10.8466789 L20.5499305,11.4509725 L20.2187285,11.4509725 L20.2187285,10.7614679 C20.2187285,10.6388257 20.2129371,10.56 20.2011358,10.5243303 C20.1894437,10.4887706 20.1713046,10.4623486 20.1466093,10.4449541 C20.1219139,10.4276697 20.0885861,10.4188624 20.046298,10.4188624 C19.9954868,10.4188624 19.949702,10.4327339 19.909053,10.460367 C19.868404,10.488 19.8393377,10.5279633 19.8216358,10.5800367 C19.804043,10.6322202 19.7953013,10.7186422 19.7953013,10.8395229 L19.7953013,11.4509725 L19.4640993,11.4509725 L19.4640993,10.1952661"
        id="Fill-14"></path>
      <path
        d="M22.4420762,10.7182018 C22.4396722,10.6204404 22.4149768,10.5462385 22.367553,10.4952661 C22.320457,10.4444037 22.2628709,10.4188624 22.1951225,10.4188624 C22.1227848,10.4188624 22.0627947,10.4458349 22.0156987,10.4994495 C21.9683841,10.5530642 21.9452185,10.626055 21.9459834,10.7182018 L22.4420762,10.7182018 Z M22.4250298,11.0554128 L22.7528444,11.1104587 C22.7103377,11.2314495 22.6434636,11.3237064 22.5520033,11.3870092 C22.4604338,11.450422 22.3460265,11.4820183 22.2085629,11.4820183 C21.9911126,11.4820183 21.8301556,11.4103486 21.7256921,11.2671193 C21.6431921,11.1524037 21.6019967,11.007633 21.6019967,10.8325872 C21.6019967,10.6238532 21.6563046,10.4601468 21.7644834,10.3417982 C21.8728808,10.2234495 22.0096887,10.1643303 22.1753444,10.1643303 C22.3614338,10.1643303 22.5080762,10.226422 22.6155993,10.3504954 C22.7231225,10.474789 22.7745894,10.6649174 22.7698907,10.921211 L21.9400828,10.921211 C21.9424868,11.0200734 21.9693675,11.0969174 22.0207252,11.1519633 C22.0719735,11.206789 22.1360066,11.2343119 22.2128245,11.2343119 C22.264947,11.2343119 22.3087649,11.2202202 22.3442781,11.1919266 C22.3800099,11.1637431 22.4068907,11.1181651 22.4250298,11.0554128 L22.4250298,11.0554128 Z"
        id="Fill-15"></path>
      <path
        d="M24.2438543,11.4509725 L23.9126523,11.4509725 L23.9126523,10.8086972 C23.9126523,10.672844 23.9055497,10.5849908 23.8916722,10.5451376 C23.8775762,10.5052844 23.8547384,10.4741284 23.8231589,10.452 C23.7915795,10.4299817 23.753553,10.4188624 23.7091887,10.4188624 C23.6523675,10.4188624 23.6012285,10.4347156 23.5560993,10.4663119 C23.5108609,10.4979083 23.4799371,10.5397431 23.4631093,10.5919266 C23.4463907,10.644 23.4379768,10.7403303 23.4379768,10.8810275 L23.4379768,11.4509725 L23.1067748,11.4509725 L23.1067748,10.1952661 L23.4140464,10.1952661 L23.4140464,10.3797798 C23.5228808,10.2361101 23.659798,10.1643303 23.824798,10.1643303 C23.8975728,10.1643303 23.9642285,10.1776514 24.0243278,10.2040734 C24.0845364,10.2304954 24.1302119,10.2642936 24.1611358,10.3053578 C24.1920596,10.346422 24.2134768,10.3929908 24.225606,10.4451743 C24.2378444,10.4972477 24.2438543,10.5718899 24.2438543,10.6689908 L24.2438543,11.4509725"
        id="Fill-16"></path>
      <path
        d="M25.2210695,10.1952661 L25.2210695,10.4601468 L24.9956424,10.4601468 L24.9956424,10.9682202 C24.9956424,11.0710459 24.9977185,11.1310459 25.0019801,11.148 C25.0061325,11.1650642 25.0157483,11.1790459 25.0307185,11.1901651 C25.045798,11.2011743 25.0639371,11.206789 25.0854636,11.206789 C25.1156225,11.206789 25.158894,11.1961101 25.2159338,11.1748624 L25.2448907,11.4322569 C25.1685099,11.4653945 25.0820762,11.4820183 24.9855894,11.4820183 C24.926255,11.4820183 24.8730397,11.4718899 24.8255066,11.4517431 C24.7780828,11.4317064 24.7432252,11.4055046 24.7209338,11.3734679 C24.6987517,11.3415413 24.6834536,11.2982752 24.6749305,11.2437798 C24.6678278,11.2050275 24.6644404,11.1267523 24.6644404,11.0090642 L24.6644404,10.4601468 L24.5141921,10.4601468 L24.5141921,10.1952661 L24.6644404,10.1952661 L24.6644404,9.94414679 L24.9956424,9.74807339 L24.9956424,10.1952661 L25.2210695,10.1952661"
        id="Fill-17"></path>
      <path
        d="M25.4073775,11.0966972 L25.7385795,11.0450642 C25.7526755,11.1092477 25.7811954,11.1579083 25.8241391,11.1912661 C25.8671921,11.2246239 25.9272914,11.2411376 26.0046556,11.2411376 C26.0899967,11.2411376 26.1541391,11.2252844 26.1970828,11.193578 C26.2260397,11.1712294 26.2405728,11.1416147 26.2405728,11.1041835 C26.2405728,11.0788624 26.232596,11.0577248 26.2168609,11.041211 C26.2002517,11.0252477 26.1633179,11.0106055 26.1058411,10.9970642 C25.8382351,10.9375046 25.6685364,10.8832294 25.5970728,10.8342385 C25.4978543,10.7663119 25.4483543,10.6717431 25.4483543,10.5509725 C25.4483543,10.4417615 25.4910795,10.350055 25.5768576,10.2758532 C25.662745,10.2015413 25.7957285,10.1643303 25.9759172,10.1643303 C26.1474735,10.1643303 26.2748841,10.1921835 26.3583675,10.2477798 C26.4417417,10.3034862 26.4992185,10.3857248 26.530798,10.4946055 L26.2200298,10.5530642 C26.2065894,10.5042936 26.1810199,10.4667523 26.1434305,10.4407706 C26.1057318,10.4146789 26.0520795,10.4016881 25.9824735,10.4016881 C25.8946192,10.4016881 25.8315695,10.4139083 25.7936523,10.4386789 C25.7681921,10.4560734 25.7556258,10.4786422 25.7556258,10.5063853 C25.7556258,10.5302752 25.766553,10.5505321 25.7886258,10.5672661 C25.818457,10.5893945 25.9217185,10.6207706 26.0981921,10.6612844 C26.2746656,10.7017982 26.3979238,10.7513394 26.4679669,10.8100183 C26.5370265,10.8694679 26.5717748,10.952367 26.5717748,11.0586055 C26.5717748,11.1743119 26.5239139,11.2738349 26.4285199,11.3570642 C26.3329073,11.4404037 26.1917285,11.4820183 26.0046556,11.4820183 C25.834957,11.4820183 25.700553,11.4473394 25.601553,11.3783119 C25.502553,11.3090642 25.4378642,11.2153761 25.4073775,11.0966972"
        id="Fill-18"></path>
      <path
        d="M28.5875066,10.766422 L28.3468907,10.1230459 L28.1143609,10.766422 L28.5875066,10.766422 Z M29.2261987,11.4509725 L28.8511788,11.4509725 L28.702351,11.0588257 L28.0086954,11.0588257 L27.8668609,11.4509725 L27.4982881,11.4509725 L28.1649536,9.71702752 L28.5312318,9.71702752 L29.2261987,11.4509725 L29.2261987,11.4509725 Z"
        id="Fill-19"></path>
      <path
        d="M29.7948477,11.4509725 L29.4636457,11.4509725 L29.4636457,10.1952661 L29.7709172,10.1952661 L29.7709172,10.3738349 C29.8234768,10.2895046 29.8705728,10.233578 29.9126424,10.2058349 C29.9544934,10.1782018 30.0020265,10.1643303 30.0554603,10.1643303 C30.1306391,10.1643303 30.2030861,10.1853578 30.2729106,10.2273028 L30.1721623,10.518055 C30.1163245,10.4818349 30.0644205,10.4636697 30.0165596,10.4636697 C29.9700099,10.4636697 29.9307815,10.4765505 29.8985464,10.5020917 C29.8663113,10.5278532 29.8409603,10.5742018 29.8226026,10.6412477 C29.8040265,10.7082936 29.7948477,10.8488807 29.7948477,11.0626789 L29.7948477,11.4509725"
        id="Fill-20"></path>
      <path
        d="M31.2293642,10.7182018 C31.2269603,10.6204404 31.2021556,10.5462385 31.1549503,10.4952661 C31.1076358,10.4444037 31.0501589,10.4188624 30.9825199,10.4188624 C30.9099636,10.4188624 30.8501921,10.4458349 30.8029868,10.4994495 C30.7556722,10.5530642 30.7323974,10.626055 30.7332715,10.7182018 L31.2293642,10.7182018 Z M31.2123179,11.0554128 L31.5401325,11.1104587 C31.4977351,11.2314495 31.4307517,11.3237064 31.3392914,11.3870092 C31.2478311,11.450422 31.1333146,11.4820183 30.9959603,11.4820183 C30.7784007,11.4820183 30.6173344,11.4103486 30.5129801,11.2671193 C30.4304801,11.1524037 30.3892848,11.007633 30.3892848,10.8325872 C30.3892848,10.6238532 30.4434834,10.4601468 30.5518808,10.3417982 C30.6600596,10.2234495 30.7970861,10.1643303 30.9626325,10.1643303 C31.1486126,10.1643303 31.2953642,10.226422 31.4029967,10.3504954 C31.5104106,10.474789 31.5618775,10.6649174 31.5571788,10.921211 L30.7273709,10.921211 C30.7297748,11.0200734 30.7566556,11.0969174 30.807904,11.1519633 C30.8593709,11.206789 30.923404,11.2343119 31.0000033,11.2343119 C31.0522351,11.2343119 31.096053,11.2202202 31.1316755,11.1919266 C31.1671887,11.1637431 31.1940695,11.1181651 31.2123179,11.0554128 L31.2123179,11.0554128 Z"
        id="Fill-21"></path>
      <path
        d="M32.5837848,10.8489908 C32.541606,10.8633028 32.4747318,10.8802569 32.3833808,10.9000734 C32.2920298,10.9197798 32.2323675,10.9392661 32.2042848,10.9582018 C32.1612318,10.9891376 32.1399238,11.0283303 32.1399238,11.0757798 C32.1399238,11.1225688 32.1569702,11.1628624 32.1913907,11.1969908 C32.225702,11.2310092 32.2694106,11.2480734 32.3226258,11.2480734 C32.3819603,11.2480734 32.4384536,11.2282569 32.4924338,11.1887339 C32.5322086,11.1585688 32.5584338,11.1217982 32.5708907,11.0782018 C32.5794139,11.0496881 32.5837848,10.9954128 32.5837848,10.9153761 L32.5837848,10.8489908 Z M32.1399238,10.5771743 L31.8428146,10.5221284 C31.8764702,10.4004771 31.9343841,10.3105321 32.0165563,10.2520734 C32.0988377,10.1936147 32.2210033,10.1643303 32.383053,10.1643303 C32.5302417,10.1643303 32.6399503,10.181945 32.7119603,10.2169541 C32.7839702,10.2522936 32.8347815,10.2968807 32.8640662,10.3509358 C32.8934603,10.4049908 32.9082119,10.5044037 32.9082119,10.6489541 L32.9048245,11.037578 C32.9048245,11.1481101 32.9100695,11.2297982 32.9205596,11.2822018 C32.9311589,11.3347156 32.9509371,11.3909725 32.9797848,11.4509725 L32.6520795,11.4509725 C32.6433377,11.4292844 32.632957,11.3970275 32.6202815,11.3543119 C32.6149272,11.3348257 32.6108841,11.322055 32.6086987,11.3157798 C32.5523146,11.371156 32.4922152,11.4127706 32.4280728,11.4405138 C32.3639305,11.4681468 32.2955265,11.4820183 32.2227517,11.4820183 C32.0944669,11.4820183 31.9932815,11.446789 31.9194139,11.3765505 C31.8456556,11.3062018 31.8087219,11.2172477 31.8087219,11.1097982 C31.8087219,11.038789 31.8254404,10.9753761 31.859096,10.9196697 C31.8927517,10.8639633 31.939957,10.8212477 32.0006026,10.791633 C32.0613576,10.7621284 32.1488841,10.7360367 32.2631821,10.7139083 C32.4173642,10.6847339 32.5242318,10.6575413 32.5837848,10.6322202 L32.5837848,10.5986422 C32.5837848,10.5339083 32.5680497,10.4877798 32.5365795,10.4601468 C32.5051093,10.4326239 32.4456656,10.4188624 32.3582483,10.4188624 C32.2992417,10.4188624 32.2532384,10.4306422 32.2201291,10.4539817 C32.1871291,10.4774312 32.1602483,10.5184954 32.1399238,10.5771743 L32.1399238,10.5771743 Z"
        id="Fill-22"></path>
      <path
        d="M7.33266556,2.90377982 L5.07751987,2.90377982 C5.07751987,2.53089908 5.0340298,2.28066055 4.94748675,2.1532844 C4.81330132,1.96480734 4.44287086,1.87045872 3.83663245,1.87045872 C3.24787748,1.87045872 2.8575596,1.92473394 2.66709934,2.0333945 C2.47674834,2.14238532 2.38146358,2.37941284 2.38146358,2.74436697 C2.38146358,3.07475229 2.46582119,3.29229358 2.63497351,3.39655046 C2.75615563,3.47053211 2.91623841,3.51401835 3.11587748,3.52700917 L3.57066556,3.55937615 C4.54536755,3.62455046 5.15411921,3.67045872 5.39692053,3.69655046 C6.16772185,3.77482569 6.72653642,3.9813578 7.07325497,4.3160367 C7.34610596,4.57717431 7.50881126,4.91845872 7.56071523,5.33988991 C7.59109272,5.592 7.60617219,5.87724771 7.60617219,6.19420183 C7.60617219,6.92477064 7.53700331,7.45981651 7.39844702,7.79889908 C7.14734106,8.42102752 6.58328146,8.81394495 5.70561258,8.97897248 C5.33791391,9.04877064 4.77538411,9.08366972 4.01878808,9.08366972 C2.75582781,9.08366972 1.8756457,9.00792661 1.37867881,8.85566972 C0.768725166,8.66917431 0.36660596,8.29133945 0.171993377,7.72238532 C0.0635960265,7.40565138 0.00994370861,6.87820183 0.00994370861,6.13981651 L2.2650894,6.13981651 C2.2650894,6.22216514 2.26530795,6.28513761 2.26530795,6.32851376 C2.26530795,6.72253211 2.37774834,6.9759633 2.60208278,7.08880734 C2.75757616,7.1666422 2.94530464,7.20748624 3.16603311,7.21233028 L3.99507616,7.21233028 C4.4181755,7.21233028 4.68818543,7.19053211 4.80466887,7.1467156 C5.01195695,7.06458716 5.148,6.93236697 5.21301656,6.7493945 C5.24754636,6.63677064 5.26470199,6.49100917 5.26470199,6.31266055 C5.26470199,5.91313761 5.11991722,5.67005505 4.83089404,5.58286239 C4.7228245,5.54840367 4.21995695,5.50040367 3.32240066,5.43952294 C2.6016457,5.38766972 2.10096358,5.33779817 1.82057285,5.28946789 C1.08222517,5.15031193 0.590175497,4.86418349 0.344642384,4.42976147 C0.128831126,4.06062385 0.0208708609,3.50212844 0.0208708609,2.75504587 C0.0208708609,2.18609174 0.0792218543,1.72987156 0.19581457,1.3867156 C0.312516556,1.04344954 0.500572848,0.782862385 0.760092715,0.604623853 C1.14024834,0.331045872 1.62672517,0.170422018 2.21886755,0.122422018 C2.71157285,0.0791559633 3.25814901,0.0570275229 3.85936093,0.0570275229 C4.80587086,0.0570275229 5.48040397,0.111853211 5.88252318,0.220513761 C6.86389073,0.486165138 7.35451987,1.23027523 7.35451987,2.45306422 C7.35451987,2.5533578 7.34719868,2.70330275 7.33266556,2.90377982"
        id="Fill-23"></path>
      <path
        d="M19.6737914,4.63563303 L21.1850166,4.63563303 C21.6641722,4.61823853 21.9555993,4.58113761 22.0605,4.52300917 C22.203755,4.44363303 22.2999139,4.28477064 22.3477748,4.04642202 C22.3783709,3.88777982 22.3936689,3.6519633 22.3936689,3.3386422 C22.3936689,2.95486239 22.3632914,2.67038532 22.3022086,2.48455046 C22.2150099,2.22429358 22.0061921,2.06576147 21.6754272,2.00818349 C21.6100828,1.99948624 21.4534967,1.99486239 21.2054503,1.99486239 L19.6737914,1.99486239 L19.6737914,4.63563303 Z M17.2497119,9.08366972 L17.2497119,0.00902752294 L21.7660132,0.00902752294 C22.3854735,0.00902752294 22.8581821,0.06 23.1829371,0.161834862 C23.9257649,0.396330275 24.4241523,0.876440367 24.6794106,1.60205505 C24.8111921,1.98286239 24.8770828,2.55622018 24.8770828,3.32179817 C24.8770828,4.24227523 24.8039801,4.90381651 24.6594139,5.30653211 C24.3697351,6.10293578 23.7734404,6.56168807 22.873043,6.68058716 C22.7671589,6.69842202 22.3166325,6.71438532 21.5214636,6.72715596 L21.1190166,6.74069725 L19.6737914,6.74069725 L19.6737914,9.08366972 L17.2497119,9.08366972 L17.2497119,9.08366972 Z"
        id="Fill-24"></path>
      <path
        d="M29.5701854,5.74744954 L28.4344172,1.81376147 L27.3321954,5.74744954 L29.5701854,5.74744954 Z M30.0516358,7.51530275 L26.8105331,7.51530275 L26.3750861,9.08366972 L23.8670861,9.08366972 L26.5733046,0.00902752294 L30.2299669,0.00902752294 L32.969404,9.08366972 L30.5140728,9.08366972 L30.0516358,7.51530275 L30.0516358,7.51530275 Z"
        id="Fill-25"></path>
      <path
        d="M13.9039272,1.28576147 C14.9037616,1.28576147 15.7960728,1.74979817 16.3826424,2.47662385 L16.9051788,1.34785321 C16.0879371,0.569614679 14.9756623,0.0898348624 13.7488709,0.0898348624 C11.8388046,0.0898348624 10.2048675,1.25207339 9.53426821,2.8972844 L8.51531126,2.8972844 L7.91366225,4.19680734 L9.22448344,4.19680734 C9.21464901,4.3173578 9.20831126,4.43801835 9.20831126,4.56110092 C9.20831126,4.71005505 9.21596026,4.85724771 9.23060265,5.0026789 L8.57180464,5.0026789 L7.9702649,6.3026422 L9.56551987,6.3026422 C10.2552417,7.90623853 11.868745,9.0320367 13.7488709,9.0320367 C14.6963642,9.0320367 15.5755629,8.74601835 16.3035298,8.25743119 L16.3035298,6.66429358 C15.7172881,7.33673394 14.8598344,7.76168807 13.9039272,7.76168807 C12.7865166,7.76168807 11.8036192,7.18117431 11.231255,6.3026422 L14.5717947,6.3026422 L15.1733344,5.0026789 L10.7397517,5.0026789 C10.7169139,4.84623853 10.7046755,4.68638532 10.7046755,4.52355963 C10.7046755,4.41346789 10.7103576,4.30447706 10.7208477,4.19680734 L15.5461689,4.19680734 L16.1477086,2.8972844 L11.1381556,2.8972844 C11.6921623,1.93398165 12.7231391,1.28576147 13.9039272,1.28576147"
        id="Fill-26"></path>
      <path
        d="M11.1381556,2.93636697 L16.1477086,2.93636697 L16.1126325,2.88077064 L15.5113113,4.18040367 L15.5461689,4.15794495 L10.6859901,4.15794495 L10.6822748,4.1932844 C10.671457,4.30293578 10.6659934,4.41412844 10.6659934,4.52355963 C10.6659934,4.68429358 10.6780132,4.84766972 10.7015066,5.00851376 L10.7065331,5.04187156 L15.1733344,5.04187156 L15.1384768,4.98638532 L14.5368278,6.28601835 L14.5717947,6.26355963 L11.1594636,6.26355963 L11.1989106,6.32366972 C11.8008874,7.24866055 12.8121954,7.80011009 13.9039272,7.80011009 C14.8319702,7.80011009 15.7172881,7.39574312 16.3328146,6.68994495 L16.2648477,6.66429358 L16.2648477,8.25743119 L16.281894,8.2252844 C15.5333841,8.72741284 14.6576821,8.99295413 13.7488709,8.99295413 C11.935947,8.99295413 10.3079106,7.93078899 9.60125166,6.28689908 L9.59098013,6.26355963 L7.9702649,6.26355963 L8.00566887,6.31926606 L8.60699007,5.01919266 L8.57180464,5.04187156 L9.27321854,5.04187156 L9.26895695,4.9987156 C9.25442384,4.85185321 9.24688411,4.70433028 9.24688411,4.56110092 C9.24688411,4.45089908 9.25223841,4.33277064 9.26305629,4.20022018 L9.26644371,4.15794495 L7.91366225,4.15794495 L7.94851987,4.21354128 L8.55027815,2.91368807 L8.51531126,2.93636697 L9.56027483,2.93636697 L9.57,2.91214679 C9.90109272,2.09988991 10.4642781,1.40741284 11.1983642,0.909027523 C11.9502616,0.398862385 12.8324106,0.129137615 13.7488709,0.129137615 C14.9225563,0.129137615 16.0338477,0.571706422 16.8785166,1.3760367 L16.8698841,1.33111927 L16.3476755,2.46022018 L16.4126921,2.45207339 C15.7942152,1.68605505 14.8800497,1.2466789 13.9039272,1.2466789 C12.755702,1.2466789 11.6833113,1.87166972 11.1043907,2.87779817 L11.0707351,2.93636697 L11.1381556,2.93636697 Z M13.9039272,1.32473394 C14.8566656,1.32473394 15.7490861,1.75365138 16.3524834,2.5012844 L16.3914934,2.54961468 L16.4179371,2.49324771 L16.940255,1.36436697 L16.951947,1.3387156 L16.9318411,1.31933945 C16.0728576,0.501357798 14.9424437,0.0509724771 13.7488709,0.0509724771 C12.816894,0.0509724771 11.9199934,0.325321101 11.1550927,0.844513761 C10.4082219,1.35126606 9.83542053,2.05618349 9.49875497,2.88253211 L9.53426821,2.85831193 L8.49050662,2.85831193 L8.48012583,2.88077064 L7.85301656,4.236 L9.22448344,4.236 L9.1859106,4.19372477 C9.17487417,4.32858716 9.16962914,4.44858716 9.16962914,4.56110092 C9.16962914,4.70697248 9.17695033,4.85702752 9.19192053,5.00653211 L9.23060265,4.96392661 L8.54732781,4.96392661 L8.53694702,4.98638532 L7.93518874,6.28601835 L7.90972848,6.34150459 L9.56551987,6.34150459 L9.53011589,6.31794495 C10.2492318,7.99023853 11.9052417,9.07100917 13.7488709,9.07100917 C14.6730894,9.07100917 15.5636523,8.80106422 16.324947,8.29001835 L16.3421026,8.27845872 L16.3421026,6.56069725 L16.2744636,6.63853211 C15.673798,7.32737615 14.8097881,7.72238532 13.9039272,7.72238532 C12.838202,7.72238532 11.8511523,7.18348624 11.2634901,6.28095413 L11.231255,6.34150459 L14.5964901,6.34150459 L14.6068709,6.31926606 L15.2085199,5.01919266 L15.2341987,4.96392661 L10.7397517,4.96392661 L10.7782152,4.99706422 C10.7552682,4.83974312 10.7434669,4.68055046 10.7434669,4.52355963 C10.7434669,4.41666055 10.7488212,4.30822018 10.7595298,4.20077064 L10.7208477,4.236 L15.5711921,4.236 L15.5813543,4.21354128 L16.182894,2.91368807 L16.2087914,2.85831193 L11.1381556,2.85831193 L11.1713742,2.91677064 C11.7363079,1.93475229 12.783457,1.32473394 13.9039272,1.32473394 L13.9039272,1.32473394 Z"
        id="Fill-27"></path>
  </g>
</svg>
