<?xml version="1.0" encoding="UTF-8"?>
<svg width="62px" height="62px" viewBox="0 0 62 62" version="1.1" xmlns="http://www.w3.org/2000/svg" xmlns:xlink="http://www.w3.org/1999/xlink">
    <!-- Generator: Sketch 47 (45396) - http://www.bohemiancoding.com/sketch -->
    <title>webmoney</title>
    <desc>Created with Sketch.</desc>
    <defs></defs>
    <g id="Page-1" stroke="none" stroke-width="1" fill="none" fill-rule="evenodd">
        <g id="interface" transform="translate(-322.000000, -512.000000)" fill="#0068A3">
            <path d="M352.883459,512 C357.732701,512 362.325178,513.133494 366.415343,515.145884 C367.057879,515.451777 367.698544,515.788322 368.34108,516.159898 L365.49797,518.714013 L361.226448,514.28075 L354.017088,520.735161 L349.734972,516.044172 L336.305295,528.194828 L344.915022,537.718806 L341.531583,540.7058 L350.01168,550.244166 L346.648185,553.224279 L358.765993,566.763028 L365.959149,560.115948 L372.17822,567.239071 C370.941136,568.204292 369.593744,569.112589 368.109244,569.952075 C363.612119,572.526207 358.414499,574 352.883459,574 C335.873407,574 322,560.072786 322,543.000938 C322,525.925338 335.873407,512 352.883459,512 Z M347.255197,541.041095 L354.599172,534.402773 L361.212115,541.776114 L353.868763,548.411934 L347.255197,541.041095 Z M352.477122,553.778515 L359.82172,547.14207 L366.435286,554.513535 L359.091311,561.151857 L352.477122,553.778515 Z M342.000241,528.452554 L349.344216,521.816109 L355.955289,529.187574 L348.611314,535.824019 L342.000241,528.452554 Z M355.47666,524.880046 L360.984641,519.903181 L365.943569,525.43178 L360.435588,530.410521 L355.47666,524.880046 Z M365.263017,547.680668 L370.772868,542.701926 L375.731796,548.231776 L370.223815,553.209266 L365.263017,547.680668 Z M370.10852,558.847961 L375.615255,553.868594 L380.575429,559.397193 L375.067448,564.374683 L370.10852,558.847961 Z M372.327168,533.25364 L375.999156,529.935104 L379.304692,533.620837 L375.634574,536.938747 L372.327168,533.25364 Z M367.6356,522.30216 L371.307587,518.98425 L374.613747,522.669983 L370.941136,525.987893 L367.6356,522.30216 Z M377.021853,544.204494 L380.69384,540.885958 L384,544.571065 L380.328013,547.889601 L377.021853,544.204494 Z M360.553999,535.998547 L366.061357,531.01918 L371.020285,536.547779 L365.514173,541.525269 L360.553999,535.998547 Z" id="webmoney"></path>
        </g>
    </g>
</svg>