<?xml version="1.0" encoding="UTF-8"?>
<svg width="168px" height="32px" viewBox="0 0 168 32" version="1.1" xmlns="http://www.w3.org/2000/svg" xmlns:xlink="http://www.w3.org/1999/xlink">
    <!-- Generator: Sketch 47 (45396) - http://www.bohemiancoding.com/sketch -->
    <title>yamoney</title>
    <desc>Created with Sketch.</desc>
    <defs></defs>
    <g id="Page-1" stroke="none" stroke-width="1" fill="none" fill-rule="evenodd">
        <g id="interface" transform="translate(-237.000000, -591.000000)">
            <g id="yamoney" transform="translate(237.000000, 591.000000)">
                <path d="M10.6453232,2.49408 L9.07519392,2.49408 C6.7008365,2.49408 4.40345247,4.0672 4.40345247,8.63328 C4.40345247,13.04544 6.50920152,14.46528 9.07519392,14.46528 L10.6453232,14.46528 L10.6453232,2.49408 Z M8.19431179,16.92096 L3.52257034,27.43392 L0.114022814,27.43392 L5.2460076,16.19168 C2.83268441,14.96384 1.22422814,12.73856 1.22422814,8.63328 C1.22422814,2.87776 4.86241825,0 9.1901749,0 L13.5942662,0 L13.5942662,27.43392 L10.6453232,27.43392 L10.6453232,16.92096 L8.19431179,16.92096 L8.19431179,16.92096 Z" id="Fill-1" fill="#FF0000"></path>
                <path d="M70.8889734,17.76512 C70.8889734,11.7024 73.2256426,7.82752 77.7447148,7.82752 C79.4675133,7.82752 80.4633764,8.288 81.3059316,8.82464 L80.884654,11.66464 C80.0804259,10.97344 78.9315741,10.3216 77.7060684,10.3216 C75.5613536,10.3216 74.0298707,12.73856 74.0298707,17.61152 C74.0298707,22.44576 75.178403,25.20896 77.5910875,25.20896 C79.0462357,25.20896 80.1570798,24.63328 80.846327,24.01952 L81.5355741,26.24448 C80.5017034,27.12672 79.2761977,27.7024 77.5144335,27.7024 C73.3783118,27.7024 70.8889734,24.3648 70.8889734,17.76512 Z M62.1577643,17.80288 L62.1577643,27.43392 L59.1704943,27.43392 L59.1704943,8.09568 L62.1577643,8.09568 L62.1577643,17.03584 L66.7914981,8.09568 L69.8170951,8.09568 L65.0300532,17.18944 L70.5060228,27.43392 L67.2511027,27.43392 L62.1577643,17.80288 Z M48.1029354,16 L53.0432852,16 C53.0432852,12.70016 52.5070266,10.28288 50.7839087,10.28288 C48.9454905,10.28288 48.2945703,12.54656 48.1029354,16 Z M51.3965019,27.7024 C47.4136882,27.7024 44.9629962,24.5184 44.9629962,18.57152 C44.9629962,12.35488 46.6864335,7.82752 50.7839087,7.82752 C54.0008213,7.82752 56.1072091,10.24448 56.1072091,16.80512 L56.1072091,18.45568 L48.0646084,18.45568 C48.0646084,22.83008 49.2901141,25.13216 51.6644715,25.13216 C53.3495817,25.13216 54.6900684,24.3648 55.4559696,23.82784 L56.1455361,26.12864 C54.9200304,27.08864 53.3112548,27.7024 51.3965019,27.7024 Z M38.6821597,10.51296 L35.3502662,10.51296 L35.3502662,10.85888 C35.3502662,14.92576 35.1589506,20.87232 33.5504943,24.97824 L38.6821597,24.97824 L38.6821597,10.51296 Z M43.1625856,31.23264 L40.482251,31.23264 L40.482251,27.43392 L32.2100076,27.43392 L32.2100076,31.23264 L29.529673,31.23264 L29.529673,24.97824 L30.7168517,24.97824 C32.4779772,20.87232 32.6696122,14.88736 32.6696122,9.7456 L32.6696122,8.09568 L41.6311027,8.09568 L41.6311027,24.97824 L43.1625856,24.97824 L43.1625856,31.23264 Z M27.8062357,8.09568 L27.8062357,27.43392 L24.8572928,27.43392 L24.8572928,18.76288 L20.4148745,18.76288 L20.4148745,27.43392 L17.4276046,27.43392 L17.4276046,8.09568 L20.4148745,8.09568 L20.4148745,16.30624 L24.8572928,16.30624 L24.8572928,8.09568 L27.8062357,8.09568 L27.8062357,8.09568 Z" id="Fill-2" fill="#000000"></path>
                <path d="M99.8191483,1.57312 L93.8835741,1.57312 C93.7682738,8.51776 93.5766388,13.8128 93.2703422,17.76512 C92.9257186,21.87008 92.3128061,24.59424 91.2792548,25.86144 L99.8191483,25.86144 L99.8191483,1.57312 Z M101.848882,27.43392 L90.130403,27.43392 L89.8617947,32 L88.3686388,32 L88.3686388,25.86144 L89.1728669,25.86144 C90.5133536,24.74784 91.1639544,21.67872 91.5469049,17.76512 C91.9298555,13.69824 92.0448365,7.6352 92.1601369,0 L101.733901,0 L101.733901,25.86144 L103.611285,25.86144 L103.611285,32 L102.116532,32 L101.848882,27.43392 L101.848882,27.43392 Z" id="Fill-3" fill="#000000"></path>
                <path d="M107.328365,16.65152 L114.337734,16.65152 C114.643392,11.51072 113.111909,9.20896 111.158829,9.20896 C109.129095,9.20896 107.481673,11.8176 107.328365,16.65152 Z M111.541141,26.24448 C114.106494,26.24448 115.446981,24.17312 115.446981,24.17312 L116.021886,25.62976 C116.021886,25.62976 114.566738,27.81696 111.503452,27.81696 C107.406297,27.81696 105.528913,24.09504 105.528913,17.76512 C105.528913,11.43392 107.902951,7.712 111.158829,7.712 C114.490084,7.712 116.63416,11.20416 116.021886,18.07264 L107.290677,18.07264 C107.367331,23.36704 108.745506,26.24448 111.541141,26.24448 L111.541141,26.24448 Z" id="Fill-4" fill="#000000"></path>
                <polyline id="Fill-5" fill="#000000" points="127.819894 18.1104 121.23276 18.1104 121.23276 27.43392 119.433308 27.43392 119.433308 8.09568 121.23276 8.09568 121.23276 16.65152 127.819894 16.65152 127.819894 8.09568 129.619346 8.09568 129.619346 27.43392 127.819894 27.43392 127.819894 18.1104"></polyline>
                <path d="M135.673095,16.69056 L135.673095,26.01408 L136.822586,26.01408 C139.541247,26.01408 141.379665,24.672 141.379665,21.33344 C141.379665,18.07264 139.771529,16.69056 137.013582,16.69056 L135.673095,16.69056 Z M133.874601,8.09568 L135.673095,8.09568 L135.673095,15.27104 L137.091513,15.27104 C140.767392,15.27104 143.141749,17.26624 143.141749,21.29536 C143.141749,25.40032 140.614084,27.43392 136.975894,27.43392 L133.874601,27.43392 L133.874601,8.09568 L133.874601,8.09568 Z" id="Fill-6" fill="#000000"></path>
                <polyline id="Fill-7" fill="#000000" points="148.007042 9.59264 148.007042 27.43392 146.246236 27.43392 146.246236 8.09568 154.402859 8.09568 154.402859 9.59264 148.007042 9.59264"></polyline>
                <path d="M166.163179,13.9664 C166.163179,12.96864 166.238555,12.12448 166.316487,11.31872 L166.200867,11.31872 C165.932897,12.16288 165.588593,12.96864 165.167316,13.8128 L158.887118,27.43392 L157.355316,27.43392 L157.355316,8.09568 L159.040426,8.09568 L159.040426,21.5248 C159.040426,22.56064 158.962494,23.4048 158.887118,24.24896 L159.00146,24.24896 C159.26943,23.36704 159.651741,22.52288 160.035331,21.67872 L166.316487,8.09568 L167.885977,8.09568 L167.885977,27.43392 L166.163179,27.43392 L166.163179,13.9664" id="Fill-8" fill="#000000"></path>
            </g>
        </g>
    </g>
</svg>