<svg width="77" height="86" xmlns="http://www.w3.org/2000/svg" xmlns:xlink="http://www.w3.org/1999/xlink"><defs><path d="M45.303 30.224l3.867-.16a.479.479 0 0 0 .457-.48v-.027a.479.479 0 0 0-.494-.481l-3.867.14a.48.48 0 0 0-.46.482v.045a.48.48 0 0 0 .497.481z" id="a"/><path id="b" d="M33.718 13.888l16.895.537-6.742-11.94L27.89.955z"/><path d="M36.07 30.606l4.3-.178a.48.48 0 0 0 .456-.48v-.07a.479.479 0 0 0-.493-.481l-4.3.157a.479.479 0 0 0-.458.48v.091c0 .274.225.492.495.48z" id="c"/></defs><g fill="none" fill-rule="evenodd"><path fill="#1B1A18" d="M25.944 4.973v51.342l4.277 1.876V14.856l-4.277-9.883m4.803 54.128l1.927.87v-45.3l-1.927.184v44.246"/><path fill="#98D131" d="M52 15.27v41.872l-18.799 2.829v-45.3z"/><use fill="#FFF" xlink:href="#a"/><path stroke="#101110" stroke-width=".5" d="M45.313 30.474a.729.729 0 0 1-.756-.73v-.046a.73.73 0 0 1 .7-.731l3.867-.141a.729.729 0 0 1 .753.73v.028a.729.729 0 0 1-.697.73l-3.867.16z"/><path d="M33.718 13.888l16.895.537-6.742-11.94L27.89.955l5.829 12.933zm10.637-12.16L52 15.269l-18.799-.597-6.6-14.643 17.754 1.699z" fill="#7CC00D"/><use fill="#FFF" xlink:href="#b"/><path stroke="#323031" stroke-width="1.071" d="M34.069 13.363l15.609.497-6.136-10.87-14.786-1.413 5.313 11.786z"/><path fill="#1B1A18" d="M30.747 14.855l1.927-.183-6.6-14.643L25 1.571l5.747 13.284"/><use fill="#FFF" xlink:href="#c"/><path stroke="#101110" stroke-width=".5" d="M36.08 30.856a.729.729 0 0 1-.755-.731v-.09a.73.73 0 0 1 .7-.731l4.298-.157a.729.729 0 0 1 .753.73v.07a.73.73 0 0 1-.696.731l-4.3.178z"/><g fill-rule="nonzero" fill="#7AB72B"><path d="M62.575 71.29l5.322 6.23-5.322 6.232 1.476 1.287 6.422-7.519L64.05 70z"/><path d="M69.048 71.29l5.321 6.23-5.321 6.232 1.475 1.287 6.422-7.519L70.523 70zM6.653 83.287c0 .134-.006.245-.02.335a.833.833 0 0 1-.064.23.341.341 0 0 1-.109.14.26.26 0 0 1-.153.045H.644a.697.697 0 0 1-.43-.155c-.136-.103-.204-.285-.204-.545V71.37c0-.053.013-.1.04-.14a.265.265 0 0 1 .138-.094c.066-.024.155-.044.268-.06.112-.017.247-.025.406-.025.165 0 .302.008.41.025.11.016.197.036.263.06a.265.265 0 0 1 .139.095.25.25 0 0 1 .04.14v11.178h4.593c.06 0 .11.015.153.045a.36.36 0 0 1 .11.13.72.72 0 0 1 .064.225c.013.093.02.206.02.34zm3.584.49c0 .054-.013.1-.04.14a.266.266 0 0 1-.138.095 1.492 1.492 0 0 1-.263.06 2.84 2.84 0 0 1-.41.025c-.159 0-.294-.009-.406-.025a1.509 1.509 0 0 1-.268-.06.265.265 0 0 1-.138-.095.246.246 0 0 1-.04-.14V71.369c0-.053.015-.1.045-.14a.294.294 0 0 1 .148-.094c.07-.024.159-.044.267-.06.11-.017.24-.025.392-.025.165 0 .301.008.41.025.11.016.197.036.263.06a.265.265 0 0 1 .139.095.25.25 0 0 1 .04.14v12.407zm15.713 1.399c0 .153-.009.28-.025.384a.713.713 0 0 1-.075.24.283.283 0 0 1-.109.115.261.261 0 0 1-.118.03c-.132 0-.345-.055-.639-.165a8.015 8.015 0 0 1-1.015-.48c-.382-.21-.792-.464-1.227-.764a9.656 9.656 0 0 1-1.268-1.049c-.323.2-.732.373-1.227.52-.495.146-1.07.22-1.723.22-.964 0-1.797-.144-2.5-.43a4.355 4.355 0 0 1-1.742-1.259c-.46-.553-.8-1.24-1.025-2.063-.225-.822-.337-1.766-.337-2.832 0-1.025.123-1.953.367-2.782.244-.83.61-1.535 1.099-2.118a4.868 4.868 0 0 1 1.831-1.349c.733-.316 1.587-.474 2.564-.474.918 0 1.725.143 2.421.43a4.56 4.56 0 0 1 1.752 1.253c.472.55.827 1.227 1.065 2.033.237.806.356 1.732.356 2.777 0 .54-.031 1.056-.094 1.549-.063.493-.162.96-.297 1.399a6.44 6.44 0 0 1-.51 1.218 5 5 0 0 1-.723 1.01c.482.399.905.71 1.268.934.362.223.663.391.9.504.238.113.423.195.555.245.132.05.23.106.297.17a.523.523 0 0 1 .139.27c.026.116.04.27.04.464zm-3.367-7.643c0-.732-.064-1.412-.193-2.038a4.716 4.716 0 0 0-.644-1.633 3.115 3.115 0 0 0-1.202-1.084c-.502-.26-1.122-.39-1.862-.39-.739 0-1.36.138-1.861.415-.502.277-.91.65-1.223 1.119a4.725 4.725 0 0 0-.673 1.633 9.207 9.207 0 0 0-.203 1.969c0 .759.063 1.456.188 2.092.125.636.336 1.188.634 1.654.297.466.694.828 1.192 1.084.499.256 1.124.384 1.877.384.745 0 1.372-.14 1.88-.419a3.39 3.39 0 0 0 1.228-1.134c.31-.476.531-1.029.664-1.658a9.67 9.67 0 0 0 .198-1.994zm12.574-2.637c0 .646-.106 1.229-.317 1.748-.212.52-.513.963-.906 1.329s-.875.65-1.446.849c-.57.2-1.252.3-2.044.3H28.99v4.655c0 .054-.015.1-.045.14a.296.296 0 0 1-.139.095 1.355 1.355 0 0 1-.257.06 2.84 2.84 0 0 1-.41.025c-.166 0-.303-.009-.412-.025a1.513 1.513 0 0 1-.262-.06.265.265 0 0 1-.139-.095.246.246 0 0 1-.04-.14V71.849c0-.267.07-.456.208-.57a.716.716 0 0 1 .466-.17h2.74c.278 0 .543.012.797.035.254.024.555.074.901.15.346.077.7.22 1.06.43.359.21.664.468.915.774s.444.661.58 1.064c.135.403.203.848.203 1.334zm-1.792.14c0-.526-.098-.966-.293-1.32-.194-.352-.435-.615-.722-.788a2.418 2.418 0 0 0-.891-.33 5.988 5.988 0 0 0-.897-.07h-1.574v5.185h1.535c.515 0 .942-.066 1.282-.2.34-.133.626-.318.857-.554.23-.237.405-.52.525-.85a3.15 3.15 0 0 0 .178-1.073zm13.989 8.392c.052.146.08.264.084.354.003.09-.022.159-.075.205-.052.047-.14.077-.262.09a4.75 4.75 0 0 1-.49.02c-.205 0-.368-.005-.49-.015a1.097 1.097 0 0 1-.277-.05.293.293 0 0 1-.139-.095.773.773 0 0 1-.084-.15l-1.099-3.146h-5.326l-1.05 3.107a.52.52 0 0 1-.08.154.383.383 0 0 1-.143.11.881.881 0 0 1-.267.065c-.115.014-.266.02-.45.02-.192 0-.349-.008-.47-.024-.123-.017-.208-.049-.258-.095-.05-.047-.073-.115-.07-.205.004-.09.032-.209.085-.355L40.79 71.41a.526.526 0 0 1 .103-.18.427.427 0 0 1 .189-.11 1.44 1.44 0 0 1 .316-.055 6.57 6.57 0 0 1 .49-.015c.212 0 .387.005.525.015.139.01.251.029.337.055a.443.443 0 0 1 .198.115c.046.05.082.112.109.185l4.297 12.008zm-5.515-10.6h-.01l-2.208 6.443h4.455l-2.237-6.443zm11.731 6.184v4.765c0 .053-.012.1-.039.14a.264.264 0 0 1-.138.095 1.473 1.473 0 0 1-.265.06 2.83 2.83 0 0 1-.404.024c-.164 0-.3-.008-.408-.024a1.645 1.645 0 0 1-.266-.06.265.265 0 0 1-.143-.095.248.248 0 0 1-.04-.14v-4.765l-3.623-7.293a1.603 1.603 0 0 1-.133-.36c-.017-.086 0-.153.05-.2.048-.046.138-.076.266-.09.13-.013.302-.02.52-.02a4.7 4.7 0 0 1 .48.02c.122.014.22.032.292.056a.344.344 0 0 1 .164.1.84.84 0 0 1 .104.164l1.772 3.717c.164.353.329.722.492 1.109.164.386.332.775.502 1.168h.02a57.28 57.28 0 0 1 .956-2.247l1.782-3.737a.512.512 0 0 1 .084-.17.328.328 0 0 1 .149-.104 1.2 1.2 0 0 1 .262-.055c.112-.014.254-.02.426-.02.237 0 .424.008.56.024.134.017.228.049.281.095.053.047.071.114.055.2a1.472 1.472 0 0 1-.134.35l-3.623 7.293z"/></g></g></svg>