<svg width="52" height="60" xmlns="http://www.w3.org/2000/svg"><g fill="none"><path d="M44.883 4.497C42.003 1.35 36.796 0 30.135 0h-19.33C9.44 0 8.282.95 8.07 2.239L.02 51.184c-.16.965.62 1.84 1.64 1.84h11.935l2.997-18.228-.093.57c.214-1.288 1.363-2.238 2.724-2.238h5.671c11.141 0 19.865-4.339 22.413-16.89.076-.371.141-.732.198-1.085-.322-.164-.322-.164 0 0 .759-4.64-.005-7.797-2.622-10.656" fill="#003087"/><path d="M44.883 4.497C42.003 1.35 36.796 0 30.135 0h-19.33C9.44 0 8.282.95 8.07 2.239L.02 51.184c-.16.965.62 1.84 1.64 1.84h11.935l2.997-18.228-.093.57c.214-1.288 1.363-2.238 2.724-2.238h5.671c11.141 0 19.865-4.339 22.413-16.89.076-.371.141-.732.198-1.085-.322-.164-.322-.164 0 0 .759-4.64-.005-7.797-2.622-10.656" fill="#003087"/><path d="M19.813 15.214a2.335 2.335 0 0 1 1.346-1.732 2.513 2.513 0 0 1 1.044-.226H37.36c1.794 0 3.468.112 4.998.348a21.755 21.755 0 0 1 2.48.53c.194.054.385.11.572.17.752.24 1.453.52 2.096.849.759-4.64-.005-7.797-2.622-10.656C42 1.35 36.796 0 30.135 0H10.802C9.442 0 8.283.95 8.07 2.239L.02 51.184c-.16.967.62 1.84 1.639 1.84h11.936l2.997-18.229 3.221-19.58z" fill="#002F86"/><path d="M46.87 15.349c-.058.356-.12.717-.195 1.09-2.51 12.595-11.1 16.951-22.07 16.951h-5.586c-1.34 0-2.472.954-2.68 2.247l-2.86 17.72-.812 5.027c-.138.848.533 1.616 1.41 1.616h9.908c1.172 0 2.17-.835 2.353-1.965l.097-.494 1.867-11.564.12-.639c.183-1.13 1.181-1.965 2.354-1.965h1.482c9.597 0 17.111-3.81 19.307-14.83.917-4.604.442-8.449-1.982-11.15-.735-.817-1.649-1.493-2.713-2.044" fill="#009CDE"/><path d="M45.123 14.84c-.388-.11-.788-.21-1.2-.299a23.202 23.202 0 0 0-1.273-.234c-1.527-.24-3.195-.354-4.986-.354H22.553a2.45 2.45 0 0 0-1.042.23 2.347 2.347 0 0 0-1.341 1.75l-3.212 19.77-.093.576c.21-1.3 1.357-2.26 2.714-2.26h5.657c11.11 0 19.81-4.381 22.35-17.054.076-.375.14-.738.198-1.096a13.95 13.95 0 0 0-2.09-.856 17.38 17.38 0 0 0-.571-.173" fill="#012069"/></g></svg>