<svg xmlns="http://www.w3.org/2000/svg" width="130" height="121"><g filter="url(#a1)"><ellipse cx="65" cy="60.5" fill="#D5DAE0" rx="33" ry="28.5" vector-effect="non-scaling-stroke"/></g><defs><filter id="a1" width="400%" height="400%" x="-200%" y="-200%" color-interpolation-filters="sRGB" filterUnits="objectBoundingBox"><feGaussianBlur xmlns="http://www.w3.org/2000/svg" stdDeviation="16"/></filter></defs><path fill="#FFF" fill-rule="evenodd" d="M34.5 40a5 5 0 0 1 5-5h46a5 5 0 0 1 5 5v3h-56v-3zm0 9h56v17a5 5 0 0 1-5 5h-46a5 5 0 0 1-5-5V49zm4 5h12v3h-12v-3zm15 0h4v3h-4v-3z"/><path fill="#30D769" d="M93.667 72.888c0 5.891-4.776 10.667-10.667 10.667s-10.666-4.776-10.666-10.667S77.109 62.222 83 62.222s10.667 4.775 10.667 10.666z"/><path fill="#FFF" d="M90.368 69.805a1.333 1.333 0 1 0-1.936-1.834l-6.611 6.978-3.453-3.645a1.334 1.334 0 0 0-1.936 1.834l4.421 4.667a1.333 1.333 0 0 0 1.936 0l7.579-8z"/><path fill="#FFF" fill-rule="evenodd" d="M82.999 85.554c6.996 0 12.667-5.671 12.667-12.666 0-6.996-5.671-12.667-12.667-12.667-6.995 0-12.666 5.671-12.666 12.667 0 6.995 5.671 12.666 12.666 12.666zm10.667-12.666c0 5.891-4.776 10.666-10.667 10.666s-10.666-4.775-10.666-10.666 4.775-10.667 10.666-10.667 10.667 4.776 10.667 10.667z"/></svg>