<svg width="33" height="33" viewBox="0 0 33 33" fill="none" xmlns="http://www.w3.org/2000/svg">
<rect width="33" height="33" rx="16.5" fill="#313539"/>
<path fill-rule="evenodd" clip-rule="evenodd" d="M17.8893 10.334C18.2037 10.3339 18.5027 10.4704 18.7086 10.708L23.4199 16.1474C23.6369 16.398 23.6369 16.7699 23.4199 17.0204L19.5389 21.5011L21.1948 21.5018L25.4515 16.5852L20.9953 11.4382C20.7543 11.1599 20.7846 10.7389 21.063 10.4979C21.3413 10.2569 21.7624 10.2872 22.0034 10.5655L26.8373 16.1488C27.0542 16.3993 27.0542 16.7711 26.8373 17.0216L22.128 22.4609C21.9222 22.6987 21.6231 22.8353 21.3086 22.8351L18.0797 22.8339C17.8188 22.8338 17.5819 22.6815 17.4735 22.4441C17.3651 22.2068 17.4052 21.928 17.576 21.7308L22.034 16.5839L17.7755 11.6674L16.1197 11.668L19.9943 16.1492C20.2108 16.3996 20.2108 16.7709 19.9943 17.0213L15.2913 22.4604C15.0856 22.6984 14.7865 22.8352 14.4719 22.8352H9.47194C8.10672 22.8352 7 21.7285 7 20.3633V12.8072C7 11.4419 8.10672 10.3352 9.47194 10.3352H11.8506C12.2188 10.3352 12.5172 10.6337 12.5172 11.0019C12.5172 11.3701 12.2188 11.6685 11.8506 11.6685H9.47194C8.8431 11.6685 8.33333 12.1783 8.33333 12.8072V20.3633C8.33333 20.9921 8.8431 21.5019 9.47194 21.5019H14.3575L18.6087 16.5852L14.1581 11.4379C13.9875 11.2406 13.9477 10.9619 14.0561 10.7247C14.1645 10.4875 14.4013 10.3353 14.6622 10.3352L17.8893 10.334Z" fill="white"/>
</svg>
