<svg xmlns="http://www.w3.org/2000/svg" width="36" height="22" fill="none"><path fill="currentColor" d="M35.703 10.294 27.08.503a1.048 1.048 0 0 0-.884-.483c-.573 0-1.036.449-1.036 1.006 0 .293.131.556.337.742l7.815 9.205-7.724 9.03H22.25l7.303-8.258.015-.015a1.043 1.043 0 0 0 0-1.445l-.015-.015-8.73-9.752-.005-.005a1.047 1.047 0 0 0-.89-.493h-6.126c-.573 0-1.035.449-1.035 1.006 0 .33.3.68.564.99l7.673 9.03-6.916 8.063c-.04.04-.638.864-1.683.864H4.136c-1.126 0-2.055-.85-2.055-1.982V4.014c0-.986.93-1.997 2.08-1.997h5.142c.608 0 1.035-.4 1.035-.991S9.906 0 9.303 0L4.11.02C1.654.02 0 1.992 0 3.995v14c0 2.16 1.955 3.995 4.111 3.995h8.258c1.215 0 2.459-.543 3.246-1.45l7.785-8.815c.367-.405.417-.996.005-1.435l-.015-.015-7.363-8.258h3.398l7.694 8.99-7.671 8.996c-.282.33-.53.592-.53.991 0 .557.462 1.006 1.035 1.006h6.126c.377 0 .709-.2.89-.493l.005-.005 8.72-9.752.014-.015c.413-.44.362-1.026-.005-1.436"/></svg>