<svg xmlns="http://www.w3.org/2000/svg" width="131" height="121"><g filter="url(#a2)" opacity=".35"><ellipse cx="65.5" cy="60.5" fill="#DE4761" rx="33" ry="28.5"/></g><path fill="#fff" fill-rule="evenodd" d="M35 40a5 5 0 0 1 5-5h46a5 5 0 0 1 5 5v3H35v-3zm0 9h56v17a5 5 0 0 1-5 5H40a5 5 0 0 1-5-5V49zm4 5h12v3H39v-3zm15 0h4v3h-4v-3z" clip-rule="evenodd"/><path fill="#DE4761" d="M81.19 62.888c1.027-1.778 3.593-1.778 4.62 0l9.237 16c1.026 1.778-.257 4-2.31 4H74.263c-2.052 0-3.335-2.222-2.309-4l9.238-16z"/><path fill="#fff" d="M83.5 66.615c.81 0 1.466.597 1.466 1.334v5.83c0 .737-.656 1.334-1.466 1.334-.81 0-1.467-.597-1.467-1.334v-5.83c0-.737.657-1.334 1.467-1.334zm1.666 11.931c0-.916-.746-1.658-1.667-1.658-.92 0-1.666.742-1.666 1.658v.017c0 .916.746 1.658 1.666 1.658.92 0 1.667-.742 1.667-1.658v-.017z"/><path fill="#fff" fill-rule="evenodd" d="m87.54 61.888 9.238 16c1.796 3.111-.449 7-4.041 7H74.262c-3.593 0-5.838-3.889-4.042-7l9.238-16c1.796-3.111 6.286-3.111 8.083 0zm-1.732 1c-1.026-1.778-3.592-1.778-4.618 0l-9.238 16c-1.026 1.778.257 4 2.31 4h18.475c2.053 0 3.336-2.222 2.31-4l-9.239-16z" clip-rule="evenodd"/><defs><filter id="a2" width="130" height="121" x=".5" y="0" color-interpolation-filters="sRGB" filterUnits="userSpaceOnUse"><feFlood flood-opacity="0" result="BackgroundImageFix"/><feBlend in="SourceGraphic" in2="BackgroundImageFix" result="shape"/><feGaussianBlur result="effect1_foregroundBlur" stdDeviation="16"/></filter></defs></svg>