<svg xmlns="http://www.w3.org/2000/svg" viewBox="0 0 100 23"><path fill="#08A835" d="M14.14 17.94v-2.67a.83.83 0 0 0-.43-.72l-2.36-1.34a.87.87 0 0 0-.85 0l-2.36 1.34a.85.85 0 0 0-.43.72v2.67a.83.83 0 0 0 .43.73l2.36 1.34a.87.87 0 0 0 .85 0l2.36-1.34a.85.85 0 0 0 .43-.73zm7.71 0v-2.67a.83.83 0 0 0-.43-.72l-2.36-1.34a.87.87 0 0 0-.86 0l-2.36 1.34a.85.85 0 0 0-.43.72v2.67a.83.83 0 0 0 .43.73l2.36 1.34a.87.87 0 0 0 .86 0l2.36-1.34a.85.85 0 0 0 .43-.73zM10.3 11.4V8.73a.83.83 0 0 0-.43-.74L7.5 6.66a.87.87 0 0 0-.86 0L4.29 8a.85.85 0 0 0-.43.73v2.67a.83.83 0 0 0 .43.73l2.36 1.34a.87.87 0 0 0 .86 0l2.36-1.33a.85.85 0 0 0 .43-.73zm7.7 0V8.73a.83.83 0 0 0-.43-.73L15.2 6.66a.87.87 0 0 0-.86 0L11.99 8a.85.85 0 0 0-.43.73v2.67a.83.83 0 0 0 .43.73l2.36 1.34a.87.87 0 0 0 .86 0l2.36-1.34a.85.85 0 0 0 .43-.72zM6.44 17.94v-2.67a.83.83 0 0 0-.43-.72L3.65 13.2a.87.87 0 0 0-.86 0L.43 14.55a.85.85 0 0 0-.43.72v2.67a.83.83 0 0 0 .43.73l2.36 1.34a.87.87 0 0 0 .86 0L6 18.67a.85.85 0 0 0 .43-.73z"/><path fill="currentColor" d="M40.48 4.63V2.18h-9.54v16.23h2.72v-6.73h6.18V9.23h-6.18v-4.6h6.82zm26.16 6.72v7.06h2.57v-7.7c0-1.8-.92-5.09-4.85-5.09-3.07 0-4.25 1.85-4.25 1.85l-.2-1.62h-2.27v12.56h2.6v-6.4c0-2.8 1.48-4.11 3.48-4.11 2.37 0 2.92 1.88 2.92 3.45zm28.1 5.98L100 5.83h-2.68l-3.83 8.8-4.07-8.8h-2.83l5.53 11.64c-.12.28-.86 1.97-1.4 2.51-.47.46-1.13.64-1.91.64l.38 2.18a4.27 4.27 0 0 0 3.1-1.2c1.2-1.2 2.2-3.72 2.2-3.72l.22-.47h.07l-.04-.08zM49 5.65h-.7c-1.7 0-3.33.66-4.52 1.83a6.21 6.21 0 0 0-1.88 4.44v.47c0 1.67.68 3.26 1.88 4.44a6.46 6.46 0 0 0 4.52 1.83h.7c1.69 0 3.31-.66 4.51-1.83a6.21 6.21 0 0 0 1.88-4.44v-.47c0-1.67-.68-3.26-1.88-4.44A6.46 6.46 0 0 0 49 5.65zm3.8 6.66c0 1.06-.43 2.08-1.2 2.83a4.12 4.12 0 0 1-2.88 1.17h-.13a4.12 4.12 0 0 1-2.89-1.17 3.96 3.96 0 0 1-1.19-2.83V12c0-1.06.43-2.08 1.2-2.83A4.12 4.12 0 0 1 48.58 8h.12c1.08 0 2.11.42 2.88 1.17.76.75 1.2 1.77 1.2 2.83v.31zM82.22 1.38V7a6.45 6.45 0 0 0-3.99-1.36h-.38c-1.7 0-3.32.66-4.52 1.83a6.21 6.21 0 0 0-1.88 4.44v.47c0 1.67.68 3.26 1.88 4.44a6.46 6.46 0 0 0 4.52 1.83h.38c1.61 0 3.16-.59 4.35-1.66l.2 1.39h2.06v-17h-2.62zm.13 10.93c0 1.06-.43 2.08-1.2 2.83a4.12 4.12 0 0 1-2.88 1.17h-.13a4.12 4.12 0 0 1-2.88-1.17 3.96 3.96 0 0 1-1.2-2.83V12c0-1.06.43-2.08 1.2-2.83A4.12 4.12 0 0 1 78.14 8h.13c1.08 0 2.12.42 2.88 1.17.77.75 1.2 1.77 1.2 2.83v.31zM14.14 4.85V2.18a.83.83 0 0 0-.43-.73L11.35.1a.87.87 0 0 0-.86 0L8.14 1.45a.85.85 0 0 0-.43.73v2.67a.83.83 0 0 0 .43.73l2.35 1.33a.87.87 0 0 0 .86 0l2.36-1.33a.85.85 0 0 0 .43-.73z"/></svg>