<svg xmlns="http://www.w3.org/2000/svg" width="77" height="27"><path fill="currentColor" d="m51.66 3.13.39-2.58-.26-.08-.26-.09-1.02-.25A4.46 4.46 0 0 0 49.39 0c-3.25 0-5.48 2.92-5.48 7.15 0 3.13 1.63 5.08 4.24 5.08.69 0 1.24-.08 2.14-.34l.43-2.7c-.81.37-1.46.59-2.06.59-1.4 0-2.26-1.1-2.26-2.88 0-2.58 1.28-4.4 3.08-4.4.68 0 1.32.17 2.18.63zM43.7 2.3c.09 0 .17 0 .26.04h.13c-.43.8-.73 1.65-.95 2.79h-.17c-1.15 0-1.37.97-2.27 6.86h-2.44l1.5-9.57h2.14l-.21 1.44c.77-1.14 1.24-1.56 2.01-1.56zm-14.25 9.56c-.64.21-1.2.34-1.76.34-1.24 0-1.92-.72-1.92-2.12 0-.22.03-.47.07-.76l.01-.13.18-.93.12-.76L27.22.97h2.4l-.3 1.4h1.24l-.34 2.33h-1.24l-.64 3.98c-.05.16-.05.3-.05.38 0 .5.26.72.82.72.3 0 .47-.05.64-.09l-.3 2.16zm-7.7-3.77c-1.29-.63-1.84-1.44-1.84-2.66-.05-1.78.9-3.22 3.68-3.18.55 0 1.5.09 2.14.21l-.35 2.2a15.2 15.2 0 0 0-1.75-.16c-.81 0-1.2.25-1.2.76 0 .46.09.59 1.11 1.06 1.24.59 1.72 1.35 1.72 2.66 0 2.16-1.16 3.18-3.73 3.18-.24 0-.6-.03-1.02-.07l-.3-.02c-.3 0-.48-.04-.65-.08l-.42-.09-.13-.04.34-2.2c.81.25 1.45.38 2.18.38.94 0 1.37-.3 1.37-.89 0-.42-.17-.6-1.15-1.06zm49.64 3.9h-2.31l.13-.93a2.87 2.87 0 0 1-2.23 1.06c-1.8 0-2.95-1.57-2.95-3.98 0-3.18 1.8-5.88 3.94-5.88.94 0 1.62.42 2.3 1.3L70.8.18h2.4l-1.8 11.8zm-3.6-2.24c1.16 0 1.93-1.32 1.93-3.22 0-1.23-.47-1.9-1.28-1.9-1.11 0-1.89 1.35-1.89 3.21 0 1.23.43 1.9 1.25 1.9zm-33.12 2.4c.86 0 1.67-.12 2.48-.37l.35-2.37c-.9.38-1.67.59-2.53.59-1.41 0-2.14-.55-2.14-1.7 0-.08 0-.12.04-.3h4.88c.22-.96.3-1.68.3-2.36 0-2.16-1.24-3.51-3.25-3.51-2.44 0-4.24 2.4-4.24 5.7 0 2.84 1.42 4.33 4.11 4.33zm1.16-6.55c0 .08 0 .25-.04.46v.04h-2.66c.22-1.14.77-1.73 1.54-1.73.73 0 1.16.46 1.16 1.23zm-25.69 6.39h-2.4l1.37-9.06L6 11.98H4.36l-.21-9.02-1.46 9.02H.43L2.3.2h3.47l.13 7.3L8.26.21h3.76l-1.88 11.77zm5.7-4.32c.16 0 .3 0 .55.04-.04 1.4-.77 2.42-1.71 2.37-.56 0-.9-.38-.9-.97 0-.93.68-1.44 2.05-1.44zm.3 4.32h2l.05-.26.04-.33.04-.51.09-.6.51-3.38c.17-1.1.22-1.44.22-1.9 0-1.82-1.07-2.8-3.17-2.8-.9 0-1.71.13-2.91.51l-.34 2.16.21-.09.3-.12c.56-.17 1.33-.3 2.01-.3 1.11 0 1.54.26 1.54.89 0 .17 0 .3-.08.63-.35-.04-.69-.08-.99-.08-2.7 0-4.28 1.35-4.28 3.68 0 1.57.9 2.63 2.23 2.63 1.15 0 1.97-.34 2.57-1.15l-.05 1.02zm40.1-4.28c-.26-.04-.39-.04-.56-.04-1.37 0-2.1.5-2.1 1.44 0 .6.35.97.9.97.99.05 1.72-.97 1.76-2.37zm1.75 4.28h-2l.04-1.02c-.6.8-1.42 1.14-2.57 1.14-1.33 0-2.23-1.05-2.23-2.62 0-2.33 1.59-3.68 4.28-3.68.26 0 .64.04.99.08.08-.33.08-.46.08-.63 0-.64-.43-.89-1.54-.89-.68 0-1.45.13-2.01.3l-.34.08-.22.09.35-2.16c1.2-.38 2-.51 2.9-.51 2.1 0 3.17.97 3.17 2.8 0 .46-.04.8-.21 1.9l-.51 3.38-.09.6-.09.46-.04.34.04.34zm6.51-9.7c.09 0 .17 0 .26.05h.09c-.43.8-.73 1.65-.95 2.79h-.17c-1.15 0-1.37.97-2.27 6.86h-2.44l1.5-9.57h2.19l-.22 1.44c.77-1.14 1.24-1.56 2.01-1.56zm-9.93 19c0 2.16-.68 3.48-1.75 3.48-.77.04-1.24-.85-1.24-2.12 0-1.52.68-3.26 1.8-3.26.9-.04 1.2.89 1.2 1.9zm2.4 0c0-2.4-1.2-4.31-3.47-4.31-2.6 0-4.32 2.28-4.32 5.63 0 2.4 1.03 4.4 3.47 4.4 2.52.04 4.32-1.7 4.32-5.71zM49.6 17.9l.39-2.58-.05-.02-.04-.02c-.16-.06-.24-.1-.43-.13l-.94-.25c-.3-.09-.64-.13-1.02-.13-3.04 0-5.14 2.92-5.14 7.15 0 3.13 1.54 5.08 3.98 5.08.64 0 1.2-.09 2.01-.34l.39-2.7c-.73.37-1.37.58-1.93.58-1.33 0-2.1-1.1-2.1-2.87 0-2.58 1.2-4.4 2.87-4.4.64 0 1.2.17 2.01.63zm-14.63-.85c-.09-.04-.17-.04-.26-.04-.73 0-1.16.42-1.88 1.57l.21-1.44H31l-1.37 9.56h2.27c.85-5.84 1.07-6.85 2.14-6.85.08 0 .08 0 .17.04.21-1.14.47-1.99.85-2.8l-.08-.04zm27.48 9.57h2.14l1.75-11.8h-2.22l-.52 3.38c-.64-.9-1.28-1.31-2.18-1.31-1.97 0-3.68 2.7-3.68 5.88 0 2.41 1.11 3.98 2.74 3.98.81 0 1.5-.34 2.1-1.06l-.13.93zm.55-5.46c0 1.9-.72 3.22-1.8 3.22-.77 0-1.15-.64-1.15-1.87 0-1.9.73-3.21 1.75-3.21.77 0 1.2.63 1.2 1.86zm-49.26 5.42c-.77.25-1.5.38-2.3.38-2.53 0-3.86-1.48-3.86-4.32 0-3.26 1.67-5.71 3.94-5.71 1.88 0 3.04 1.35 3.04 3.51 0 .68-.09 1.4-.3 2.37h-4.5c-.04.17-.04.21-.04.3 0 1.1.68 1.65 2.01 1.65.81 0 1.54-.21 2.35-.6l-.34 2.42zm-1.28-5.67a2.29 2.29 0 0 1 .04-.47c0-.76-.38-1.23-1.07-1.23-.73 0-1.24.6-1.45 1.74h2.48v-.04zm25.93 6.05c.81 0 1.54-.13 2.31-.38l.34-2.41c-.8.38-1.54.59-2.35.59-1.33 0-2.01-.55-2.01-1.65 0-.09 0-.13.04-.3h4.54c.21-.97.3-1.7.3-2.37 0-2.16-1.2-3.51-3.08-3.51-2.27 0-3.94 2.45-3.94 5.71 0 2.84 1.28 4.32 3.85 4.32zm1.07-6.52c0 .09 0 .26-.04.47v.04h-2.49c.22-1.14.73-1.74 1.46-1.74.69 0 1.07.47 1.07 1.23zm32.83 6.14c-.77.25-1.54.38-2.31.38-2.53 0-3.86-1.48-3.86-4.32 0-3.26 1.72-5.71 3.99-5.71 1.88 0 3.03 1.35 3.03 3.51 0 .68-.08 1.4-.3 2.37h-4.49c-.04.17-.04.21-.04.3 0 1.1.68 1.65 2.01 1.65.81 0 1.54-.21 2.35-.6l-.38 2.42zM71 20.9a2.29 2.29 0 0 1 .05-.47c0-.76-.39-1.23-1.07-1.23-.73 0-1.24.6-1.46 1.74H71v-.04zM5.14 16.93c.8 0 1.45.25 1.88.55l.68-2.41a5.26 5.26 0 0 0-2.65-.55c-1.88 0-3.85.93-3.85 4.02 0 1.92 1.08 2.52 2.01 3.03.7.4 1.33.74 1.33 1.58 0 1.23-1.12 1.44-1.84 1.44-.77 0-1.67-.26-2.14-.68L0 26.32c.73.34 1.75.64 2.65.64 2.02 0 4.2-.9 4.2-4.2 0-2.16-1.18-2.8-2.14-3.34-.65-.36-1.2-.66-1.2-1.35 0-.93.68-1.14 1.63-1.14zm15.23 9.65c-.47.2-1.11.38-2.01.38-1.97 0-3.21-1.95-3.21-4.36 0-3.13 1.8-5.59 4.4-5.59.56 0 1.46.26 2.15.64l-.52 2.28a2.78 2.78 0 0 0-1.54-.5c-1.2 0-2.1 1.1-2.1 3.04 0 1.14.65 2.07 1.63 2.07.6 0 1.03-.12 1.5-.42l-.3 2.46zm8.18.04c.08-.85.17-1.65.3-2.45l1.07-7.03h-2.36l-.68 4.4c-.17 1.44-.77 2.63-1.76 2.63-.68.04-.94-.55-.94-1.1 0-.47.09-.98.17-1.44l.6-4.45h-2.44l-.6 4.45c-.13.97-.17 1.35-.17 1.99 0 1.81.73 3.25 2.1 3.25 1.28 0 1.97-.72 2.65-1.77h.04l-.17 1.52h2.19zM74.5 12a1.5 1.5 0 1 0 0-3 1.5 1.5 0 0 0 0 3zm0-.36a1.14 1.14 0 1 1 0-2.28 1.14 1.14 0 0 1 0 2.28zm-.53-.46h.3v-.47h.31l.24.46h.34l-.29-.53a.47.47 0 0 0 .23-.4c0-.3-.25-.45-.42-.45h-.7v1.39zm.3-.7v-.46h.3c.07 0 .2.04.2.21 0 .17-.13.25-.21.25h-.28zm2.4 14.76-.57 1.3h-.18l-.57-1.3v1.3h-.33v-1.9h.4l.59 1.39.59-1.4h.4v1.9h-.33v-1.3zm-2.56 1.3h-.33v-1.62h-.58v-.29h1.49v.3h-.58v1.6z"/></svg>