<svg width="272" height="540" fill="none" xmlns="http://www.w3.org/2000/svg"><rect x="110.5" y="21.5" width="7" height="7" rx="3.5" stroke="#A9B2BD"/><rect x="124.5" y="21.5" width="37" height="7" rx="3.5" stroke="#A9B2BD"/><g opacity=".6" filter="url(#a)"><rect x="45.328" y="136.328" width="180" height="290" rx="18" fill="#A9B2BD"/></g><rect x="31.828" y="120.828" width="207" height="299" rx="11.5" fill="#fff"/><rect x="47.328" y="343.328" width="176" height="32" rx="8" fill="#FA5255"/><path d="M87.951 355.055v7.273h-1.094v-6.335h-3.423v6.335H82.34v-7.273h5.611Zm1.593 7.273v-5.455h1.062v5.455h-1.062Zm.536-6.296a.676.676 0 0 1-.476-.185.6.6 0 0 1-.195-.447c0-.176.065-.325.195-.448a.67.67 0 0 1 .476-.188c.185 0 .342.063.472.188a.588.588 0 0 1 .2.448.595.595 0 0 1-.2.447.663.663 0 0 1-.472.185Zm1.421 7.869v-2.493h.444c.114-.104.21-.228.288-.373.08-.144.148-.316.202-.515.057-.199.105-.431.142-.696.038-.267.071-.573.1-.916l.17-2.035h3.708v4.535h.838v2.493h-1.037v-1.573h-3.803v1.573H91.5Zm1.58-2.493h2.437v-3.626h-1.719l-.114 1.126c-.054.573-.123 1.07-.206 1.492-.082.419-.215.755-.397 1.008Zm5.044-3.618v-.917h4.602v.917h-1.779v4.538h-1.037v-4.538h-1.786Zm5.725 4.538v-5.455h2.263c.615 0 1.103.132 1.463.395.359.26.539.614.539 1.061 0 .32-.101.573-.305.76-.204.187-.473.313-.81.377.244.028.468.101.672.22.203.116.366.272.49.469.125.196.188.43.188.703 0 .289-.075.544-.224.767a1.48 1.48 0 0 1-.65.518c-.282.123-.621.185-1.019.185h-2.607Zm.998-.888h1.609c.263 0 .469-.063.618-.188a.634.634 0 0 0 .224-.511c0-.254-.075-.453-.224-.597-.149-.147-.355-.22-.618-.22h-1.609v1.516Zm0-2.294h1.275c.199 0 .37-.028.512-.085a.72.72 0 0 0 .33-.242.618.618 0 0 0 .117-.376.566.566 0 0 0-.259-.494c-.173-.118-.41-.177-.71-.177h-1.265v1.374Zm7.017 3.292c-.537 0-1-.115-1.388-.344a2.345 2.345 0 0 1-.895-.977c-.208-.421-.312-.915-.312-1.481 0-.559.104-1.051.312-1.477.211-.426.504-.759.881-.998.379-.239.821-.359 1.328-.359.308 0 .606.051.895.153.289.102.548.262.777.479.23.218.411.501.544.849.132.346.199.766.199 1.261v.376h-4.336v-.795h3.295c0-.28-.057-.527-.17-.742a1.288 1.288 0 0 0-.48-.515 1.332 1.332 0 0 0-.717-.189c-.298 0-.559.074-.781.221-.22.144-.391.333-.512.568a1.643 1.643 0 0 0-.177.756v.622c0 .364.064.674.192.93.13.256.311.451.543.586.232.133.503.199.813.199.201 0 .385-.029.55-.085a1.136 1.136 0 0 0 .707-.693l1.005.181c-.08.296-.225.555-.433.778-.206.22-.465.392-.778.515-.31.121-.664.181-1.062.181Zm3.519 1.935v-7.5h1.037v.885h.088a3.06 3.06 0 0 1 .267-.395c.116-.149.277-.279.483-.39.206-.114.478-.171.816-.171.441 0 .834.112 1.179.334.346.223.617.543.814.962.199.42.298.924.298 1.513 0 .59-.098 1.095-.295 1.517a2.294 2.294 0 0 1-.809.969 2.1 2.1 0 0 1-1.176.337c-.331 0-.602-.055-.813-.166a1.551 1.551 0 0 1-.49-.391 2.908 2.908 0 0 1-.274-.398h-.064v2.894h-1.061Zm1.04-4.772c0 .383.056.719.167 1.008.111.289.272.515.483.678.211.161.469.242.774.242.317 0 .583-.084.796-.252.213-.171.374-.402.483-.693.111-.291.167-.619.167-.983 0-.36-.055-.683-.164-.97a1.48 1.48 0 0 0-.483-.678c-.213-.166-.479-.249-.799-.249-.308 0-.568.08-.781.238-.211.159-.371.38-.479.664a2.77 2.77 0 0 0-.164.995Zm4.599 4.3v-2.493h.444a1.41 1.41 0 0 0 .287-.373c.081-.144.148-.316.203-.515.057-.199.104-.431.142-.696.038-.267.071-.573.099-.916l.171-2.035h3.707v4.535h.838v2.493h-1.037v-1.573h-3.803v1.573h-1.051Zm1.58-2.493h2.436v-3.626h-1.719l-.113 1.126c-.055.573-.123 1.07-.206 1.492-.083.419-.216.755-.398 1.008Zm6.39-.568 2.404-3.967h1.143v5.455h-1.04v-3.97l-2.394 3.97h-1.154v-5.455h1.041v3.967Zm4.298-3.05v-.917h4.602v.917h-1.779v4.538h-1.037v-4.538h-1.786Zm6.766 3.05 2.404-3.967h1.144v5.455h-1.041v-3.97l-2.393 3.97h-1.154v-5.455h1.04v3.967Zm7.622 1.488v-5.455h4.449v5.455h-1.04v-4.538h-2.376v4.538h-1.033Zm8.166.11c-.511 0-.957-.117-1.338-.352a2.36 2.36 0 0 1-.888-.983c-.211-.422-.316-.914-.316-1.478 0-.565.105-1.06.316-1.484.21-.424.506-.753.888-.987.381-.234.827-.352 1.338-.352.512 0 .958.118 1.339.352.381.234.677.563.888.987.211.424.316.919.316 1.484 0 .564-.105 1.056-.316 1.478a2.373 2.373 0 0 1-.888.983c-.381.235-.827.352-1.339.352Zm.004-.891c.331 0 .606-.088.824-.263.218-.175.379-.409.483-.7.106-.291.16-.612.16-.962 0-.348-.054-.668-.16-.959a1.566 1.566 0 0 0-.483-.707c-.218-.177-.493-.266-.824-.266-.334 0-.611.089-.831.266-.218.178-.38.414-.487.707a2.833 2.833 0 0 0-.156.959c0 .35.052.671.156.962.107.291.269.525.487.7.22.175.497.263.831.263Zm3.724.781v-5.455h1.062v2.287h.511l1.801-2.287h1.314l-2.113 2.653 2.138 2.802h-1.318l-1.644-2.181h-.689v2.181h-1.062Zm6.238 2.045a2.23 2.23 0 0 1-.725-.117l.256-.87c.194.052.367.075.518.068a.624.624 0 0 0 .402-.171c.118-.106.222-.28.312-.522l.132-.362-1.996-5.526h1.136l1.382 4.233h.056l1.382-4.233h1.14l-2.248 6.183a2.471 2.471 0 0 1-.398.721 1.54 1.54 0 0 1-.575.447c-.223.1-.481.149-.774.149Zm4.993-2.045v-5.455h4.449v5.455h-1.04v-4.538h-2.376v4.538h-1.033Zm5.869 0v-5.455h1.062v2.287h.511l1.8-2.287h1.314l-2.113 2.653 2.138 2.802h-1.317l-1.645-2.181h-.688v2.181h-1.062Zm6.237 2.045c-.158 0-.303-.013-.433-.039a1.295 1.295 0 0 1-.291-.078l.256-.87c.194.052.367.075.518.068a.622.622 0 0 0 .401-.171c.119-.106.223-.28.313-.522l.131-.362-1.996-5.526h1.137l1.381 4.233h.057l1.381-4.233h1.14l-2.248 6.183a2.47 2.47 0 0 1-.397.721 1.536 1.536 0 0 1-.576.447c-.222.1-.48.149-.774.149Z" fill="#fff"/><path d="M115.496 391.42h-1.108a1.7 1.7 0 0 0-.664-1.083 1.853 1.853 0 0 0-.565-.284 2.202 2.202 0 0 0-.657-.096c-.419 0-.794.105-1.126.316-.329.211-.589.52-.781.927-.189.407-.284.904-.284 1.492 0 .591.095 1.091.284 1.498.192.407.454.715.785.923.331.209.704.313 1.119.313.229 0 .447-.031.653-.092.208-.064.397-.158.565-.281a1.712 1.712 0 0 0 .671-1.069l1.108.004a2.957 2.957 0 0 1-.345.987 2.716 2.716 0 0 1-.65.774 2.947 2.947 0 0 1-.902.501 3.34 3.34 0 0 1-1.108.177c-.629 0-1.19-.149-1.683-.447a3.141 3.141 0 0 1-1.165-1.289c-.281-.559-.422-1.225-.422-1.999 0-.777.142-1.443.426-2 .284-.558.672-.987 1.165-1.285.492-.301 1.052-.451 1.679-.451.386 0 .746.055 1.08.167.336.109.638.27.906.483.267.21.488.468.664.774.175.303.293.65.355 1.04Zm1.228 4.908v-5.455h1.061v2.287h.512l1.8-2.287h1.314l-2.113 2.653 2.138 2.802h-1.318l-1.644-2.181h-.689v2.181h-1.061Zm7.124.121a2.22 2.22 0 0 1-.937-.192 1.583 1.583 0 0 1-.665-.565c-.161-.246-.241-.548-.241-.905 0-.308.059-.561.178-.76.118-.199.278-.357.479-.473a2.49 2.49 0 0 1 .675-.262c.248-.06.502-.105.76-.135l.795-.093c.204-.026.352-.067.444-.124.092-.057.138-.149.138-.277v-.025c0-.31-.087-.55-.262-.721-.173-.17-.431-.255-.774-.255-.358 0-.64.079-.846.238-.203.156-.344.33-.422.522l-.998-.228c.118-.331.291-.599.518-.802.23-.206.494-.355.792-.448a3.116 3.116 0 0 1 1.634-.064c.246.05.476.142.689.277.215.135.391.328.529.579.137.249.206.572.206.97v3.622h-1.037v-.746h-.043a1.495 1.495 0 0 1-.309.405 1.614 1.614 0 0 1-.529.33 2.04 2.04 0 0 1-.774.132Zm.231-.853c.293 0 .544-.058.753-.174.21-.116.37-.267.479-.454.111-.19.167-.392.167-.607v-.704a.548.548 0 0 1-.22.107 3.494 3.494 0 0 1-.366.082l-.401.06-.327.043a2.614 2.614 0 0 0-.565.131.966.966 0 0 0-.404.266.664.664 0 0 0-.15.455c0 .263.098.462.292.596.194.133.441.199.742.199Zm6.173.842c-.528 0-.983-.12-1.364-.359a2.373 2.373 0 0 1-.874-.998c-.203-.423-.305-.909-.305-1.456 0-.554.104-1.042.312-1.466.209-.426.502-.759.881-.998s.825-.359 1.339-.359c.414 0 .784.077 1.108.231a1.937 1.937 0 0 1 1.143 1.602h-1.033a1.239 1.239 0 0 0-.391-.661c-.201-.184-.471-.277-.809-.277-.296 0-.555.078-.778.235-.22.153-.392.374-.515.66-.123.284-.185.62-.185 1.009 0 .397.061.741.182 1.029.12.289.291.513.511.672.222.158.484.238.785.238.201 0 .383-.037.547-.111.165-.075.304-.183.415-.323.114-.139.193-.307.238-.504h1.033a2.006 2.006 0 0 1-.344.945 1.987 1.987 0 0 1-.771.653c-.319.159-.695.238-1.125.238Zm4.047 1.935c-.159 0-.303-.013-.433-.039a1.28 1.28 0 0 1-.291-.078l.255-.87c.194.052.367.075.519.068a.624.624 0 0 0 .401-.171c.118-.106.223-.28.312-.522l.132-.362-1.996-5.526h1.137l1.381 4.233h.057l1.381-4.233h1.14l-2.248 6.183a2.471 2.471 0 0 1-.398.721 1.533 1.533 0 0 1-.575.447c-.222.1-.48.149-.774.149Zm4.993-2.045v-5.455h2.262c.616 0 1.103.132 1.463.395.36.26.54.614.54 1.061 0 .32-.102.573-.306.76-.203.187-.473.313-.809.377.244.028.467.101.671.22.204.116.367.272.49.469.125.196.188.43.188.703 0 .289-.074.544-.224.767-.149.22-.365.393-.649.518-.282.123-.622.185-1.02.185h-2.606Zm.998-.888h1.608c.263 0 .469-.063.618-.188a.634.634 0 0 0 .224-.511c0-.254-.075-.453-.224-.597-.149-.147-.355-.22-.618-.22h-1.608v1.516Zm0-2.294h1.275c.198 0 .369-.028.511-.085a.72.72 0 0 0 .33-.242.618.618 0 0 0 .117-.376.566.566 0 0 0-.259-.494c-.173-.118-.409-.177-.71-.177h-1.264v1.374Zm6.253 3.303c-.345 0-.658-.064-.937-.192a1.574 1.574 0 0 1-.664-.565c-.161-.246-.242-.548-.242-.905 0-.308.059-.561.178-.76.118-.199.278-.357.479-.473a2.49 2.49 0 0 1 .675-.262 6.39 6.39 0 0 1 .76-.135l.795-.093c.204-.026.352-.067.444-.124.093-.057.139-.149.139-.277v-.025c0-.31-.088-.55-.263-.721-.173-.17-.431-.255-.774-.255-.358 0-.639.079-.845.238-.204.156-.345.33-.423.522l-.998-.228c.119-.331.291-.599.519-.802.229-.206.493-.355.792-.448.298-.094.612-.142.941-.142.217 0 .448.026.692.078.246.05.476.142.689.277.215.135.392.328.529.579.137.249.206.572.206.97v3.622h-1.037v-.746h-.042a1.537 1.537 0 0 1-.309.405 1.63 1.63 0 0 1-.53.33 2.04 2.04 0 0 1-.774.132Zm.231-.853c.294 0 .545-.058.753-.174.211-.116.37-.267.479-.454.112-.19.167-.392.167-.607v-.704a.548.548 0 0 1-.22.107 3.382 3.382 0 0 1-.366.082l-.401.06-.327.043a2.591 2.591 0 0 0-.564.131.976.976 0 0 0-.405.266.664.664 0 0 0-.149.455c0 .263.097.462.291.596.194.133.441.199.742.199Zm3.199-3.806v-.917h4.602v.917h-1.779v4.538h-1.037v-4.538h-1.786Zm6.766 3.05 2.404-3.967h1.143v5.455h-1.04v-3.97l-2.394 3.97h-1.154v-5.455h1.041v3.967Z" fill="#FA5255"/><path d="M95.773 305.192v-.711l2.515-3.971h.56v1.045h-.356l-1.798 2.847v.045h3.446v.745h-4.367Zm2.759 1.136v-1.352l.006-.324v-4.142h.832v5.818h-.838Zm4.727 0v-4.364h3.559v4.364h-.832v-3.631h-1.901v3.631h-.826Zm4.351 0-.003-.736h.156a.551.551 0 0 0 .304-.077.56.56 0 0 0 .205-.267c.053-.125.094-.297.122-.517.029-.221.049-.5.063-.835l.076-1.932h3.046v4.364h-.833v-3.631h-1.426l-.068 1.483a5.95 5.95 0 0 1-.111.943 2.194 2.194 0 0 1-.241.674 1.052 1.052 0 0 1-.409.4c-.167.087-.37.131-.608.131h-.273Zm6.372.096c-.277 0-.527-.051-.75-.153a1.264 1.264 0 0 1-.532-.452 1.292 1.292 0 0 1-.193-.724c0-.246.047-.449.142-.608.095-.159.223-.285.384-.378a1.99 1.99 0 0 1 .539-.21c.199-.047.402-.083.608-.108l.637-.074a.947.947 0 0 0 .355-.099c.074-.046.111-.12.111-.222v-.02c0-.248-.07-.44-.211-.577-.138-.136-.344-.204-.619-.204-.286 0-.511.063-.676.19a1.01 1.01 0 0 0-.338.418l-.798-.182c.094-.265.233-.479.414-.642.184-.165.395-.284.634-.358a2.47 2.47 0 0 1 1.307-.051c.197.04.38.114.551.222.172.107.313.262.423.463.11.198.165.457.165.775v2.898h-.83v-.597h-.034c-.055.11-.137.218-.247.324-.11.106-.251.194-.423.264s-.379.105-.619.105Zm.184-.681c.235 0 .436-.047.602-.14a.97.97 0 0 0 .384-.363.947.947 0 0 0 .134-.486v-.562a.466.466 0 0 1-.177.085 2.885 2.885 0 0 1-.292.065l-.321.048-.262.034a2.07 2.07 0 0 0-.451.106.766.766 0 0 0-.324.213.53.53 0 0 0-.12.363c0 .211.078.37.233.478.156.106.354.159.594.159Zm2.559-3.046v-.733h3.682v.733h-1.423v3.631h-.83v-3.631h-1.429Zm6.258 3.719c-.43 0-.8-.092-1.111-.276a1.867 1.867 0 0 1-.716-.781c-.166-.337-.25-.732-.25-1.185 0-.446.084-.84.25-1.181.169-.341.404-.607.705-.799a1.95 1.95 0 0 1 1.062-.287c.247 0 .485.041.716.123.231.081.439.209.622.383a1.8 1.8 0 0 1 .435.679c.106.277.159.613.159 1.009v.301h-3.469v-.637h2.637a1.25 1.25 0 0 0-.137-.593 1.022 1.022 0 0 0-.383-.412 1.066 1.066 0 0 0-.574-.151c-.239 0-.447.059-.625.176a1.18 1.18 0 0 0-.409.455 1.306 1.306 0 0 0-.142.605v.497c0 .292.051.54.153.744.104.205.249.361.435.469.186.106.402.159.65.159.161 0 .308-.022.441-.068a.952.952 0 0 0 .344-.21.923.923 0 0 0 .221-.344l.804.145c-.064.237-.18.444-.346.622a1.68 1.68 0 0 1-.623.412 2.318 2.318 0 0 1-.849.145Zm2.435-.088 1.69-2.233-1.67-2.131h.988l1.35 1.813h.304v-1.813h.849v1.813h.295l1.35-1.813h.988l-1.661 2.131 1.681 2.233h-1.008l-1.361-1.818h-.284v1.818h-.849v-1.818h-.285l-1.369 1.818h-1.008Zm7.86-1.19 1.924-3.174h.914v4.364h-.832v-3.176l-1.915 3.176h-.923v-4.364h.832v3.174Zm6.098 1.19v-4.364h3.559v4.364h-.832v-3.631h-1.901v3.631h-.826Zm6.533.088c-.409 0-.766-.094-1.071-.281a1.896 1.896 0 0 1-.71-.787c-.169-.337-.253-.731-.253-1.182 0-.453.084-.849.253-1.188.168-.339.405-.602.71-.789a2 2 0 0 1 1.071-.282 2 2 0 0 1 1.071.282c.305.187.542.45.71.789.169.339.253.735.253 1.188 0 .451-.084.845-.253 1.182a1.896 1.896 0 0 1-.71.787 2.008 2.008 0 0 1-1.071.281Zm.003-.713c.265 0 .485-.07.659-.21a1.23 1.23 0 0 0 .386-.56 2.21 2.21 0 0 0 .128-.77 2.2 2.2 0 0 0-.128-.767 1.246 1.246 0 0 0-.386-.565 1.009 1.009 0 0 0-.659-.213c-.267 0-.489.071-.665.213-.174.142-.304.33-.389.565a2.273 2.273 0 0 0-.125.767c0 .28.042.537.125.77.085.233.215.42.389.56.176.14.398.21.665.21Zm7.116.704a2.326 2.326 0 0 1-.767-.142 1.792 1.792 0 0 1-.681-.454c-.205-.212-.369-.497-.492-.855-.121-.358-.182-.805-.182-1.341 0-.508.05-.959.151-1.352.102-.394.249-.727.44-.998a1.96 1.96 0 0 1 .693-.622c.271-.142.575-.213.912-.213.347 0 .655.068.924.205.269.136.486.325.653.565.169.241.276.514.321.821h-.866a1.129 1.129 0 0 0-.35-.594c-.174-.153-.401-.23-.682-.23-.426 0-.758.186-.997.557-.237.371-.356.887-.358 1.548h.043c.1-.164.223-.305.369-.42a1.752 1.752 0 0 1 1.074-.367c.337 0 .642.083.915.248.274.162.493.388.656.676.163.288.244.617.244.988 0 .372-.084.708-.253 1.009-.166.301-.401.54-.704.716a2.055 2.055 0 0 1-1.063.255Zm-.002-.738c.223 0 .423-.055.599-.165.176-.11.315-.258.418-.443.102-.186.153-.393.153-.622 0-.224-.05-.427-.151-.611a1.127 1.127 0 0 0-.409-.438 1.088 1.088 0 0 0-.591-.162 1.14 1.14 0 0 0-.843.364 1.309 1.309 0 0 0-.256.392c-.061.146-.091.3-.091.463a1.243 1.243 0 0 0 .568 1.054c.178.112.379.168.603.168Zm5.083.755c-.449-.001-.833-.12-1.151-.355-.318-.234-.561-.576-.73-1.025-.169-.449-.253-.99-.253-1.622 0-.631.084-1.17.253-1.617.17-.447.415-.788.733-1.023.32-.234.703-.352 1.148-.352.445 0 .826.119 1.145.355.318.235.561.576.73 1.023.17.445.255.983.255 1.614 0 .634-.084 1.176-.252 1.625-.169.447-.412.788-.731 1.025-.318.235-.7.352-1.147.352Zm0-.758c.394 0 .701-.192.923-.577.223-.384.335-.94.335-1.667 0-.483-.051-.891-.153-1.225-.101-.335-.245-.589-.435-.761a.952.952 0 0 0-.67-.262c-.392 0-.7.194-.924.58-.223.386-.336.942-.338 1.668 0 .484.05.895.151 1.23.102.333.247.586.435.758a.965.965 0 0 0 .676.256Zm5.164.758c-.449-.001-.833-.12-1.151-.355-.318-.234-.561-.576-.73-1.025-.169-.449-.253-.99-.253-1.622 0-.631.084-1.17.253-1.617.171-.447.415-.788.733-1.023.32-.234.703-.352 1.148-.352.445 0 .826.119 1.145.355.318.235.561.576.73 1.023.17.445.255.983.255 1.614 0 .634-.084 1.176-.252 1.625-.169.447-.412.788-.731 1.025-.318.235-.7.352-1.147.352Zm0-.758c.394 0 .701-.192.923-.577.224-.384.335-.94.335-1.667 0-.483-.051-.891-.153-1.225-.101-.335-.245-.589-.435-.761a.952.952 0 0 0-.67-.262c-.392 0-.7.194-.924.58-.223.386-.336.942-.338 1.668 0 .484.051.895.151 1.23.102.333.247.586.435.758a.965.965 0 0 0 .676.256Zm7.397-4.486c-.304 0-.528.067-.67.202-.14.132-.212.312-.216.54h-.92c.007-.281.073-.534.196-.759a1.31 1.31 0 0 1 .579-.534c.263-.133.605-.199 1.026-.199.369 0 .683.053.94.159.26.104.457.257.591.458.134.2.202.444.202.73 0 .115-.018.229-.054.341-.034.11-.085.214-.154.312a1.241 1.241 0 0 1-.241.267l-.759-.216a2.08 2.08 0 0 0 .236-.324.67.67 0 0 0 .097-.358.53.53 0 0 0-.213-.448c-.142-.114-.355-.171-.64-.171Zm2.125 1.946h-4.298v-.69h4.298v.69Zm0 1.196h-4.298v-.682h4.298v.682Zm-2.147 2.085c-.582 0-1.034-.119-1.358-.358-.322-.238-.484-.578-.486-1.019a1.144 1.144 0 0 1 .233-.671c.074-.1.161-.184.261-.25l.81.142c-.14.116-.241.235-.301.358a.882.882 0 0 0-.094.389.564.564 0 0 0 .244.478c.163.113.393.17.691.17.282 0 .513-.057.693-.17.182-.116.275-.307.278-.574h.924c-.006.344-.086.629-.239.852a1.341 1.341 0 0 1-.648.494c-.28.106-.616.159-1.008.159Z" fill="#818C99"/><path d="M92.88 285.328v-2.284l6.059-5.941a28.93 28.93 0 0 0 1.449-1.559c.386-.455.676-.895.869-1.321.193-.426.29-.881.29-1.364 0-.551-.125-1.023-.375-1.415a2.5 2.5 0 0 0-1.031-.92c-.438-.216-.935-.324-1.492-.324-.574 0-1.077.119-1.508.358a2.463 2.463 0 0 0-1.006.997c-.233.432-.35.946-.35 1.543h-3.008c0-1.108.253-2.071.758-2.889a5.115 5.115 0 0 1 2.089-1.901c.892-.449 1.914-.673 3.068-.673 1.17 0 2.199.218 3.085.656.886.437 1.574 1.037 2.062 1.798.495.762.742 1.631.742 2.608a5.18 5.18 0 0 1-.375 1.926c-.25.631-.69 1.33-1.321 2.097-.625.767-1.503 1.696-2.634 2.787l-3.008 3.06v.119h7.602v2.642H92.879Zm20.543-3.239v-2.514l7.407-11.702h2.096v3.58h-1.278l-4.986 7.9v.137H127v2.599h-13.577Zm8.327 3.239v-4.006l.034-1.125v-12.324h2.983v17.455h-3.017Zm14.425.332c-1.404 0-2.608-.355-3.614-1.065-1-.716-1.77-1.747-2.31-3.094-.534-1.352-.801-2.98-.801-4.883.006-1.904.276-3.523.81-4.858.54-1.341 1.31-2.364 2.31-3.068 1.005-.705 2.207-1.057 3.605-1.057 1.397 0 2.599.352 3.605 1.057 1.006.704 1.775 1.727 2.309 3.068.54 1.341.81 2.96.81 4.858 0 1.909-.27 3.539-.81 4.892-.534 1.346-1.303 2.375-2.309 3.085-1 .71-2.202 1.065-3.605 1.065Zm0-2.667c1.091 0 1.951-.537 2.582-1.611.636-1.08.955-2.668.955-4.764 0-1.387-.145-2.551-.435-3.495-.29-.943-.699-1.653-1.227-2.13a2.69 2.69 0 0 0-1.875-.725c-1.086 0-1.943.54-2.574 1.62-.631 1.073-.949 2.65-.955 4.73-.005 1.392.134 2.562.418 3.511.29.949.699 1.665 1.227 2.148a2.718 2.718 0 0 0 1.884.716Zm16.008 2.667c-1.404 0-2.608-.355-3.614-1.065-1-.716-1.77-1.747-2.31-3.094-.534-1.352-.801-2.98-.801-4.883.006-1.904.276-3.523.81-4.858.54-1.341 1.309-2.364 2.309-3.068 1.006-.705 2.208-1.057 3.606-1.057 1.397 0 2.599.352 3.605 1.057 1.005.704 1.775 1.727 2.309 3.068.54 1.341.81 2.96.81 4.858 0 1.909-.27 3.539-.81 4.892-.534 1.346-1.304 2.375-2.309 3.085-1 .71-2.202 1.065-3.605 1.065Zm0-2.667c1.09 0 1.951-.537 2.582-1.611.636-1.08.954-2.668.954-4.764 0-1.387-.144-2.551-.434-3.495-.29-.943-.699-1.653-1.227-2.13a2.69 2.69 0 0 0-1.875-.725c-1.086 0-1.944.54-2.574 1.62-.631 1.073-.949 2.65-.955 4.73-.006 1.392.134 2.562.418 3.511.29.949.699 1.665 1.227 2.148a2.716 2.716 0 0 0 1.884.716Zm22.566-12.733c-.79 0-1.375.167-1.756.503-.375.335-.574.798-.597 1.389h-3.238c.045-.909.27-1.702.673-2.378.403-.676 1.006-1.202 1.807-1.577.807-.375 1.832-.562 3.076-.562 1.16 0 2.143.162 2.949.485.807.324 1.421.787 1.841 1.39.426.602.637 1.315.631 2.139.006.369-.057.721-.188 1.057a3.496 3.496 0 0 1-.528.937c-.222.29-.472.546-.75.767l-2.616-.716a3.56 3.56 0 0 0 .69-.852c.176-.307.261-.642.256-1.006a1.333 1.333 0 0 0-.563-1.142c-.375-.289-.937-.434-1.687-.434Zm6.545 5.539h-13.27v-2.258h13.27v2.258Zm0 3.623h-13.27v-2.216h13.27v2.216Zm-6.614 6.145c-1.846 0-3.264-.367-4.252-1.1-.983-.733-1.478-1.758-1.483-3.077 0-.369.071-.733.213-1.091.142-.357.335-.684.579-.98.245-.295.523-.537.835-.724l2.677.579c-.375.285-.651.603-.827.955-.176.352-.267.71-.273 1.074.006.551.23.98.673 1.287.449.301 1.069.452 1.858.452.779 0 1.409-.151 1.892-.452.489-.307.745-.824.767-1.551h3.265c-.046 1.062-.296 1.937-.75 2.625-.455.681-1.114 1.187-1.978 1.517-.858.324-1.923.486-3.196.486Z" fill="#3D3D3D"/><g clip-path="url(#b)"><g clip-path="url(#c)"><path d="M121.959 194.131c-.175-.043-.351-.084-.526-.132a5.468 5.468 0 0 1-2.535-1.483c-1.216-1.259-1.87-2.763-1.927-4.521a7.33 7.33 0 0 1 .211-1.951c.18-.753.461-1.465.83-2.144.588-1.085 1.354-2.028 2.259-2.863a13.423 13.423 0 0 1 2.222-1.651 16.363 16.363 0 0 0 2.107-1.515c.838-.702 1.618-1.465 2.392-2.235.684-.681 1.359-1.369 2.072-2.018a15.17 15.17 0 0 1 1.694-1.363c.752-.51 1.554-.913 2.449-1.108a5.48 5.48 0 0 1 2.026-.063 8.787 8.787 0 0 1 2.224.641 6.604 6.604 0 0 1 2.686 2.17c.484.658.865 1.373 1.207 2.112.362.783.68 1.585 1.014 2.381.377.896.772 1.782 1.238 2.637.464.852 1 1.656 1.606 2.413.734.915 1.355 1.9 1.843 2.968.415.916.718 1.865.871 2.86.119.776.143 1.551.046 2.331-.146 1.185-.546 2.272-1.264 3.234-.664.892-1.514 1.553-2.518 2.019-.738.343-1.509.567-2.323.623a5.703 5.703 0 0 1-.867-.002c-.04-.003-.08-.002-.119-.003-.041.015-.079-.008-.119-.01-.033-.001-.064-.022-.099-.007l-.727-.128c-.025-.026-.061-.017-.091-.027l-.083-.014-.07-.013c-.617-.129-1.196-.365-1.772-.611-.976-.417-1.918-.906-2.885-1.343a19.089 19.089 0 0 0-2.403-.913c-.572-.17-1.155-.28-1.741-.363a9.462 9.462 0 0 0-1.418-.071c-.935.011-1.866.099-2.796.185-.984.093-1.969.185-2.958.173a7.096 7.096 0 0 1-1.2-.094c-.081-.016-.164-.018-.246-.034-.104-.025-.211-.024-.31-.067Zm24.162-36.452c1.281.388 2.162 1.231 2.741 2.417.396.814.582 1.681.634 2.581a8.83 8.83 0 0 1-.184 2.304 10.049 10.049 0 0 1-1.69 3.832 8.447 8.447 0 0 1-2.073 2.059c-.724.497-1.509.859-2.377 1.017a4.383 4.383 0 0 1-1.821-.032c-1.046-.247-1.869-.826-2.493-1.695-.532-.741-.836-1.577-.991-2.47a7.996 7.996 0 0 1-.093-1.886 9.03 9.03 0 0 1 .171-1.283c.208-.998.56-1.943 1.053-2.834a9.205 9.205 0 0 1 1.991-2.508c.685-.601 1.446-1.077 2.311-1.375a5.017 5.017 0 0 1 1.963-.278c.369.027.515.055.858.151Zm-31.03 10.349a5.62 5.62 0 0 1 .406-1.146c.335-.716.788-1.342 1.41-1.837a3.86 3.86 0 0 1 2.372-.87c.721-.015 1.397.165 2.036.493a5.8 5.8 0 0 1 1.864 1.547c.803.991 1.304 2.125 1.57 3.368.139.651.198 1.31.178 1.976-.01.323-.043.643-.093.962a6.776 6.776 0 0 1-.513 1.749c-.337.744-.798 1.395-1.439 1.908a3.857 3.857 0 0 1-2.522.876c-.692-.009-1.34-.2-1.951-.523-.82-.437-1.48-1.055-2.026-1.801a7.739 7.739 0 0 1-1.174-2.39 8.255 8.255 0 0 1-.354-2.595c.004-.156.012-.312.019-.467-.004-.072.015-.142.01-.214-.002-.03.007-.057.011-.087.001-.038.024-.074.008-.115l.099-.558c.043-.045.036-.104.05-.158.01-.04.007-.085.039-.118Zm10.15-7.291c.2-1.107.533-2.078 1.072-2.975.407-.678.907-1.275 1.541-1.753.684-.517 1.444-.84 2.303-.903.86-.065 1.658.138 2.402.566a5.498 5.498 0 0 1 1.648 1.49c.724.96 1.172 2.045 1.421 3.216a9.62 9.62 0 0 1 .204 2.258c-.011.431-.05.861-.116 1.289a9.075 9.075 0 0 1-.395 1.581c-.379 1.074-.935 2.039-1.764 2.833a4.76 4.76 0 0 1-1.78 1.099 3.98 3.98 0 0 1-2.3.081c-.699-.179-1.311-.526-1.856-.996-.712-.612-1.243-1.362-1.647-2.205a8.982 8.982 0 0 1-.831-3.168 9.993 9.993 0 0 1 .019-1.814 5.54 5.54 0 0 1 .079-.599Zm31.136 15.236-.023.129c-.237 1.06-.7 2.015-1.329 2.893a8.184 8.184 0 0 1-1.757 1.797c-.872.651-1.831 1.11-2.909 1.296a4.802 4.802 0 0 1-1.929-.04 3.922 3.922 0 0 1-2.3-1.491c-.483-.641-.747-1.371-.856-2.16a6.158 6.158 0 0 1 .081-2.11c.32-1.535 1.054-2.852 2.124-3.988a7.732 7.732 0 0 1 1.189-1.031c.886-.619 1.85-1.046 2.927-1.194a4.707 4.707 0 0 1 1.82.091c.914.236 1.661.73 2.227 1.492.51.687.77 1.47.862 2.314.05.467.046.934-.021 1.399a5.9 5.9 0 0 1-.023.13c-.032.157-.06.314-.083.473Z" fill="#000"/></g></g><rect x="31.828" y="120.828" width="207" height="299" rx="11.5" stroke="#EEF0F2"/><rect x="9.5" y="9.5" width="253" height="521" rx="28.407" stroke="#A9B2BD"/><rect x="1" y="1" width="270" height="538" rx="35.133" stroke="#A9B2BD" stroke-width="2"/><defs><clipPath id="b"><path fill="#fff" transform="translate(111 152)" d="M0 0h48v48H0z"/></clipPath><clipPath id="c"><path fill="#fff" transform="translate(109.553 150.553)" d="M0 0h50.893v50.893H0z"/></clipPath><filter id="a" x="13.328" y="104.328" width="244" height="354" filterUnits="userSpaceOnUse" color-interpolation-filters="sRGB"><feFlood flood-opacity="0" result="BackgroundImageFix"/><feBlend in="SourceGraphic" in2="BackgroundImageFix" result="shape"/><feGaussianBlur stdDeviation="16" result="effect1_foregroundBlur_10583_39306"/></filter></defs></svg>