<svg xmlns="http://www.w3.org/2000/svg" width="70" height="70"><path fill="currentColor" d="M15.982 61.442c-.255-.064-.512-.124-.766-.193-1.425-.392-2.669-1.099-3.697-2.163-1.774-1.836-2.728-4.03-2.81-6.593-.03-.963.08-1.91.307-2.845a12.762 12.762 0 0 1 1.21-3.128c.858-1.581 1.974-2.957 3.295-4.174a19.488 19.488 0 0 1 3.24-2.407 23.896 23.896 0 0 0 3.073-2.21c1.222-1.024 2.36-2.137 3.488-3.26.997-.993 1.982-1.996 3.022-2.943.782-.714 1.594-1.392 2.47-1.988 1.097-.743 2.266-1.33 3.572-1.615a8 8 0 0 1 2.954-.092c1.121.172 2.205.477 3.243.934 1.59.703 2.887 1.767 3.918 3.165.705.96 1.261 2.003 1.76 3.08.528 1.142.992 2.312 1.479 3.472.549 1.307 1.125 2.6 1.805 3.846a23.884 23.884 0 0 0 2.342 3.52 20.589 20.589 0 0 1 2.688 4.328c.605 1.335 1.047 2.72 1.27 4.171.173 1.13.208 2.261.067 3.399-.213 1.728-.797 3.313-1.843 4.716-.968 1.301-2.208 2.264-3.673 2.945-1.076.5-2.2.826-3.388.908a8.41 8.41 0 0 1-1.263-.002c-.06-.005-.116-.004-.174-.005-.06.021-.115-.012-.173-.015-.048-.002-.094-.032-.144-.01l-1.061-.187c-.037-.038-.088-.025-.132-.039l-.121-.021-.103-.018c-.9-.19-1.745-.533-2.585-.891-1.422-.609-2.796-1.321-4.206-1.959a27.76 27.76 0 0 0-3.505-1.331 17.41 17.41 0 0 0-2.539-.53c-.684-.097-1.377-.11-2.068-.104-1.364.017-2.72.145-4.077.27-1.436.136-2.87.27-4.313.253-.587-.009-1.172-.03-1.75-.138-.119-.023-.24-.026-.36-.05-.152-.035-.307-.035-.452-.096Zm35.237-53.16c1.867.566 3.153 1.796 3.996 3.525.578 1.187.85 2.45.925 3.764a12.82 12.82 0 0 1-.268 3.36 14.655 14.655 0 0 1-2.464 5.588c-.84 1.171-1.837 2.185-3.023 3.002-1.057.726-2.2 1.253-3.467 1.484-.89.162-1.776.163-2.656-.046-1.525-.361-2.725-1.206-3.635-2.472-.776-1.08-1.219-2.3-1.445-3.603a11.68 11.68 0 0 1-.136-2.75c.039-.63.12-1.256.25-1.872a14.715 14.715 0 0 1 1.534-4.132c.763-1.384 1.716-2.615 2.904-3.657 1-.877 2.11-1.571 3.371-2.006a7.312 7.312 0 0 1 2.862-.405c.538.039.75.08 1.252.22ZM5.967 23.374a8.286 8.286 0 0 1 .591-1.67c.49-1.045 1.15-1.958 2.057-2.68 1.012-.806 2.165-1.24 3.46-1.268 1.05-.022 2.037.24 2.968.718 1.07.55 1.966 1.323 2.719 2.256 1.17 1.446 1.9 3.1 2.289 4.912.203.95.29 1.91.26 2.881-.014.471-.064.939-.136 1.404a9.863 9.863 0 0 1-.748 2.55c-.491 1.086-1.163 2.035-2.099 2.783-1.074.86-2.301 1.295-3.677 1.277-1.01-.013-1.955-.29-2.845-.763-1.197-.637-2.16-1.539-2.956-2.627a11.298 11.298 0 0 1-1.712-3.484 12.096 12.096 0 0 1-.516-3.784c.006-.228.019-.455.028-.682-.006-.105.022-.207.015-.312-.004-.044.01-.083.015-.127.002-.055.036-.108.013-.167l.143-.814c.064-.065.054-.152.073-.23.015-.06.011-.125.058-.173Zm14.802-10.632c.291-1.614.777-3.031 1.564-4.338.593-.989 1.322-1.86 2.247-2.558.996-.753 2.105-1.224 3.358-1.317 1.254-.094 2.417.201 3.502.826.956.552 1.743 1.294 2.404 2.173 1.055 1.4 1.709 2.982 2.072 4.69a14.01 14.01 0 0 1 .298 3.293 14.842 14.842 0 0 1-.17 1.88 13.01 13.01 0 0 1-.576 2.305c-.552 1.567-1.364 2.974-2.572 4.132-.751.718-1.607 1.27-2.596 1.602a5.803 5.803 0 0 1-3.354.12c-1.019-.262-1.912-.769-2.707-1.454-1.038-.892-1.813-1.986-2.4-3.216-.698-1.46-1.082-3.007-1.213-4.62a14.502 14.502 0 0 1 .027-2.645 8.04 8.04 0 0 1 .116-.873Zm45.406 22.22-.033.187c-.346 1.545-1.02 2.939-1.938 4.219a11.94 11.94 0 0 1-2.563 2.62c-1.271.95-2.67 1.618-4.242 1.89-.94.164-1.88.16-2.813-.058-1.376-.324-2.501-1.043-3.354-2.174-.705-.935-1.09-2-1.249-3.15a8.936 8.936 0 0 1 .12-3.077c.465-2.239 1.536-4.16 3.096-5.816a11.235 11.235 0 0 1 1.735-1.503c1.292-.904 2.696-1.526 4.268-1.742a6.846 6.846 0 0 1 2.653.133c1.334.343 2.423 1.065 3.248 2.175.744 1.003 1.123 2.145 1.257 3.376.074.68.067 1.361-.03 2.04l-.033.189a11.44 11.44 0 0 0-.122.69Z"/></svg>