<svg xmlns="http://www.w3.org/2000/svg" width="131" height="121"><g filter="url(#a3)" opacity=".75"><ellipse cx="65.5" cy="60.5" fill="#30D769" rx="33" ry="28.5"/></g><path fill="#fff" fill-rule="evenodd" d="M86.658 37.188c.647.18 1.124.728 1.217 1.394.12.866 2.86 21.321-4.168 31.497-7.019 10.163-17.374 12.768-17.812 12.874a1.692 1.692 0 0 1-.79 0c-.438-.106-10.793-2.71-17.812-12.874-7.028-10.176-4.288-30.632-4.168-31.497a1.687 1.687 0 0 1 1.217-1.394l20.707-7.126c.295-.083.607-.083.902 0l20.707 7.126zm-32.842 7.151a1 1 0 0 0 0 1.414l3.057 3.057a9.968 9.968 0 0 0-1.386 5.086c0 1.857.505 3.596 1.386 5.086l-3.056 3.057a1 1 0 0 0 0 1.414l2.126 2.126a1 1 0 0 0 1.414 0l3.056-3.056a9.967 9.967 0 0 0 5.087 1.386 9.967 9.967 0 0 0 5.086-1.386l3.058 3.057a1 1 0 0 0 1.414 0l2.126-2.126a1 1 0 0 0 0-1.414l-3.058-3.057a9.966 9.966 0 0 0 1.387-5.087 9.967 9.967 0 0 0-1.384-5.084l3.056-3.056a1 1 0 0 0 0-1.414l-2.126-2.127a1 1 0 0 0-1.414 0L70.59 45.27a9.967 9.967 0 0 0-5.09-1.388 9.966 9.966 0 0 0-5.087 1.387l-3.056-3.056a1 1 0 0 0-1.414 0l-2.127 2.126zm16.697 9.557a5.013 5.013 0 1 1-10.026 0 5.013 5.013 0 0 1 10.026 0z" clip-rule="evenodd"/><defs><filter id="a3" width="130" height="121" x=".5" y="0" color-interpolation-filters="sRGB" filterUnits="userSpaceOnUse"><feFlood flood-opacity="0" result="BackgroundImageFix"/><feBlend in="SourceGraphic" in2="BackgroundImageFix" result="shape"/><feGaussianBlur result="effect1_foregroundBlur" stdDeviation="16"/></filter></defs></svg>