<svg xmlns="http://www.w3.org/2000/svg" width="131" height="121"><g filter="url(#a4)" opacity=".35"><ellipse cx="65.5" cy="60.5" fill="#DE4761" rx="33" ry="28.5"/></g><path fill="#fff" fill-rule="evenodd" d="M44.5 35a2 2 0 0 0-2 2v6a2 2 0 0 0 2 2h40a2 2 0 0 0 2-2v-6a2 2 0 0 0-2-2h-40zm2 3a1 1 0 1 1 2 0v4a1 1 0 1 1-2 0v-4zm36 2a2 2 0 1 1-4 0 2 2 0 0 1 4 0zm-31-3a1 1 0 0 0-1 1v4a1 1 0 1 0 2 0v-4a1 1 0 0 0-1-1zm3 1a1 1 0 1 1 2 0v4a1 1 0 1 1-2 0v-4zm-10 9a2 2 0 0 0-2 2v6a2 2 0 0 0 2 2h40a2 2 0 0 0 2-2v-6a2 2 0 0 0-2-2h-40zm2 3a1 1 0 1 1 2 0v4a1 1 0 1 1-2 0v-4zm36 2a2 2 0 1 1-4 0 2 2 0 0 1 4 0zm-31-3a1 1 0 0 0-1 1v4a1 1 0 1 0 2 0v-4a1 1 0 0 0-1-1zm3 1a1 1 0 1 1 2 0v4a1 1 0 1 1-2 0v-4zm-10 9a2 2 0 0 0-2 2v6a2 2 0 0 0 2 2h40a2 2 0 0 0 2-2v-6a2 2 0 0 0-2-2h-40zm3 2a1 1 0 0 0-1 1v4a1 1 0 1 0 2 0v-4a1 1 0 0 0-1-1zm4 0a1 1 0 0 0-1 1v4a1 1 0 1 0 2 0v-4a1 1 0 0 0-1-1zm3 1a1 1 0 1 1 2 0v4a1 1 0 1 1-2 0v-4z" clip-rule="evenodd"/><path fill="#fff" d="M63.5 69h2v3h-2z"/><rect width="24" height="2" x="52.5" y="73" fill="#fff" rx="1"/><rect width="6" height="6" x="61.5" y="71" fill="#fff" rx="3"/><path fill="#DE4761" d="M81.191 62.888c1.026-1.778 3.593-1.778 4.619 0l9.237 16c1.027 1.778-.256 4-2.309 4H74.263c-2.053 0-3.336-2.222-2.31-4l9.238-16z"/><path fill="#fff" d="M83.5 66.615c.81 0 1.467.597 1.467 1.334v5.83c0 .737-.657 1.334-1.467 1.334s-1.466-.597-1.466-1.334v-5.83c0-.737.656-1.334 1.466-1.334zm1.666 11.931c0-.916-.746-1.658-1.666-1.658-.92 0-1.667.742-1.667 1.658v.017c0 .916.746 1.658 1.667 1.658.92 0 1.666-.742 1.666-1.658v-.017z"/><path fill="#fff" fill-rule="evenodd" d="m87.541 61.888 9.238 16c1.796 3.111-.45 7-4.042 7H74.262c-3.592 0-5.838-3.889-4.041-7l9.237-16c1.796-3.111 6.287-3.111 8.083 0zm-1.732 1c-1.026-1.778-3.592-1.778-4.619 0l-9.237 16c-1.027 1.778.256 4 2.309 4h18.475c2.053 0 3.336-2.222 2.31-4l-9.238-16z" clip-rule="evenodd"/><defs><filter id="a4" width="130" height="121" x=".5" y="0" color-interpolation-filters="sRGB" filterUnits="userSpaceOnUse"><feFlood flood-opacity="0" result="BackgroundImageFix"/><feBlend in="SourceGraphic" in2="BackgroundImageFix" result="shape"/><feGaussianBlur result="effect1_foregroundBlur" stdDeviation="16"/></filter></defs></svg>