<svg xmlns="http://www.w3.org/2000/svg" width="61" height="26"><path fill="currentColor" d="M44.2 9.95v1.02h1.61L47.51 0l-1.89.32-.54 3.53a4.63 4.63 0 0 0-1.67-.29c-1.74 0-3.44 1.2-3.86 3.94-.38 2.48.68 3.62 2.22 3.62 1.03 0 1.83-.54 2.44-1.17zm-.73-4.93c.61 0 .96.1 1.38.32l-.51 3.15c-.58.63-1.16 1.01-1.83 1.01-.8 0-1.32-.66-1.1-2.1.26-1.62 1.1-2.38 2.06-2.38zm-14.83-3.4c-.64 0-1 .29-1.12.92l-.16 1.09h1.4v1.49h-1.63l-.9 5.85H24.4l.9-5.85h-1.06l.23-1.5h1.06l.19-1.27C25.97.73 27.1.13 28.64.13c.32 0 .58.03.74.06v1.5a3.94 3.94 0 0 0-.74-.07zm-6.94 2-1.12 7.34h1.83l1.12-7.34H21.7zm.2-2.25c-.1.6.31 1.01.92 1.01.61 0 1.16-.41 1.26-1.01.1-.64-.32-1.05-.9-1.05-.64 0-1.19.41-1.29 1.05zM4.3 11H2.31L0 .73 2.22.38 3.79 8.4 7.77.48h2.12L4.3 11zm34.67 2.67c1.2 0 2.19.25 2.8.5l-.45 2.55-.3-.13a5.66 5.66 0 0 0-2.33-.44c-1.22 0-1.8.5-1.8 1.01 0 .58.67.96 1.76 1.5 1.8.82 2.64 1.87 2.64 3.24 0 2.48-2.16 4.1-5.43 4.1a9.6 9.6 0 0 1-3.47-.64l.45-2.67.42.2a6.4 6.4 0 0 0 2.95.63c.9 0 1.87-.38 1.87-1.17 0-.55-.42-.93-1.64-1.5-1.19-.57-2.76-1.52-2.73-3.24 0-2.32 2.18-3.94 5.26-3.94zm-9.72.22-1.96 11.98h3.15l1.92-11.98h-3.11zm20.51 0h-2.4c-.74 0-1.32.22-1.64.99l-4.63 10.96h3.28s.54-1.46.64-1.81h4.01l.39 1.78h2.89l-2.54-11.92zm-3.85 7.72 1.25-3.33c-.02.02.08-.25.2-.57l.22-.58.2 1.02.73 3.46h-2.6zM24.69 13.9l-3.05 8.17-.32-1.65-.07-.16-1.06-5.34c-.19-.76-.73-.99-1.4-1.02h-5.05l-.03.2c1.22.31 2.32.77 3.28 1.34l2.78 10.44h3.31L28 13.92h-3.3v-.03zM9.89 7.66h4.75l.02-.1.1-.38c.33-2.06-.41-3.71-2.63-3.71-1.95 0-3.6 1.43-3.98 3.8-.41 2.65.97 3.82 3.02 3.82 1.19 0 2.22-.35 3.08-.89V8.77c-.9.58-1.73.92-2.7.92-1.12 0-1.8-.6-1.66-2.03zm.22-1.14c.32-1.21 1-1.78 1.73-1.78.9 0 1.26.63 1.22 1.78h-2.95zm7.65.22-.64 4.2h-1.83l1.12-7.35h1.57v1.47a3.49 3.49 0 0 1 2.64-1.63v1.82a4.4 4.4 0 0 0-2.86 1.49zm12.03-3.12-1.12 7.34h1.83l1.12-7.34H29.8zm.2-2.25c-.1.6.32 1.01.93 1.01a1.3 1.3 0 0 0 1.28-1.01c.1-.6-.32-1.05-.93-1.05-.64 0-1.19.41-1.28 1.05zm8.8 6.3h-4.76c-.12 1.42.55 2.02 1.67 2.02.97 0 1.8-.34 2.7-.92v1.43c-.87.54-1.9.9-3.08.9-2.06 0-3.44-1.18-3.02-3.82.39-2.38 2.02-3.81 3.98-3.81 2.22 0 2.95 1.65 2.63 3.71 0 .04-.02.07-.03.1-.05.15-.1.28-.1.38zm-2.8-2.93c-.74 0-1.41.57-1.73 1.78h2.95c.03-1.15-.35-1.78-1.22-1.78zm15.44 6.29c-.87 0-1.57-.13-2.25-.38l1.22-7.79 1.42-.22-.52 3.4c.42-.38 1-.73 1.7-.73 1.2 0 2 .86 1.7 2.73-.32 2.04-1.6 2.99-3.27 2.99zm1.03-4.51c-.45 0-.93.31-1.35.73l-.39 2.5.06.03c.26.08.42.14.81.14.87 0 1.51-.54 1.7-1.78.16-1.12-.19-1.62-.83-1.62zm3.02 6.51c1.09 0 1.8-.41 2.5-1.78L61 5.37h-1.38l-1.86 3.88-.68-3.94-1.47.19 1.18 5.47-.19.38a1.1 1.1 0 0 1-1 .57c-.18 0-.33-.03-.47-.06l-.17-.04v1.15c.13.03.26.06.52.06z"/></svg>